<svg width="1920" height="687" viewBox="0 0 1920 687" fill="none" xmlns="http://www.w3.org/2000/svg">
<g clip-path="url(#clip0_355_340)">
<rect x="-149" width="2158" height="687" fill="#181824"/>
<g clip-path="url(#clip1_355_340)">
<g opacity="0.6">
<line opacity="0.1" x1="-40" y1="296.5" x2="1922" y2="296.5" stroke="#E1E1E1"/>
<line opacity="0.1" x1="-40" y1="78.5" x2="1922" y2="78.5" stroke="#E1E1E1"/>
<line opacity="0.1" x1="-40" y1="514.5" x2="1922" y2="514.5" stroke="#E1E1E1"/>
<line opacity="0.1" x1="1211.5" y1="-337" x2="1211.5" y2="1251" stroke="#E1E1E1"/>
<line opacity="0.1" x1="1593.5" y1="-337" x2="1593.5" y2="1251" stroke="#E1E1E1"/>
<line opacity="0.1" x1="1402.5" y1="-337" x2="1402.5" y2="1251" stroke="#E1E1E1"/>
<line opacity="0.1" x1="1784.5" y1="-337" x2="1784.5" y2="1251" stroke="#E1E1E1"/>
<line opacity="0.1" x1="65.5" y1="-337" x2="65.5" y2="789" stroke="#E1E1E1"/>
<line opacity="0.1" x1="638.5" y1="-337" x2="638.5" y2="1251" stroke="#E1E1E1"/>
<line opacity="0.1" x1="256.5" y1="-337" x2="256.5" y2="1251" stroke="#E1E1E1"/>
<line opacity="0.1" x1="829.5" y1="-337" x2="829.5" y2="1251" stroke="#E1E1E1"/>
<line opacity="0.1" x1="447.5" y1="-337" x2="447.5" y2="1251" stroke="#E1E1E1"/>
<line opacity="0.1" x1="1020.5" y1="-337" x2="1020.5" y2="1251" stroke="#E1E1E1"/>
<line opacity="0.1" x1="1402.5" y1="-337" x2="1402.5" y2="1251" stroke="#E1E1E1"/>
</g>
</g>
</g>
<defs>
<clipPath id="clip0_355_340">
<rect width="1920" height="687" fill="white"/>
</clipPath>
<clipPath id="clip1_355_340">
<rect width="1969" height="687" fill="white" transform="translate(-40)"/>
</clipPath>
</defs>
</svg>
