<svg width="75" height="61" viewBox="0 0 75 61" fill="none" xmlns="http://www.w3.org/2000/svg">
<g clip-path="url(#clip0_1348_8919)">
<path d="M41.6173 38.7515C41.6173 33.4837 41.6499 28.2158 41.6173 22.9579C41.5311 11.3917 49.7315 2.44949 59.8835 0.421366C61.2025 0.149141 62.5447 0.00854113 63.8909 0.00158691C64.9147 0.00158691 65.4763 0.508615 65.4812 1.53749C65.5007 5.59154 65.5007 9.64613 65.4812 13.7013C65.4812 14.7038 64.9668 15.1829 63.9853 15.2487C59.5905 15.5351 56.7274 18.5971 56.703 23.0501C56.703 24.2024 56.7371 25.3547 56.6867 26.4988C56.6606 27.1047 56.8494 27.2396 57.4273 27.2363C61.5259 27.2117 65.6244 27.2215 69.723 27.2232C73.0289 27.2232 75.0033 29.2398 75.0033 32.5997C75.0033 40.2819 75.0033 47.9675 75.0033 55.6564C75.0033 58.422 73.5497 60.3645 71.0968 60.8913C70.6859 60.9695 70.268 61.0043 69.85 60.995C62.1314 60.995 54.4122 60.995 46.6925 60.995C43.6308 60.995 41.632 59.0196 41.6173 55.9066C41.588 50.1877 41.6092 44.4688 41.6092 38.7499L41.6173 38.7515Z" fill="#010101"/>
<path d="M16.7182 60.9984C12.8606 60.9984 9.0029 60.9984 5.14522 60.9984C2.05257 60.9984 0.0293294 58.9768 0.026074 55.8359C0.0130523 44.8574 -0.0374072 33.8772 0.0472338 22.8987C0.133502 11.6634 7.51517 2.67509 18.3606 0.414854C19.6785 0.136261 21.0217 -0.00167797 22.368 0.00330409C23.3544 0.00330409 23.8883 0.510334 23.8916 1.48489C23.9046 5.56966 23.9046 9.65334 23.8916 13.7359C23.8916 14.694 23.4032 15.1714 22.4722 15.2422C17.9016 15.5862 15.1182 18.6169 15.1084 23.2608C15.1084 24.3194 15.1491 25.3795 15.0938 26.4364C15.0612 27.0751 15.2566 27.2381 15.88 27.2331C19.9769 27.2035 24.0739 27.2167 28.1708 27.2183C31.4506 27.2183 33.412 29.2069 33.412 32.5125C33.412 40.164 33.412 47.8161 33.412 55.4688C33.412 59.0822 31.5158 60.9934 27.9348 60.9934L16.7182 60.9984Z" fill="black"/>
</g>
<defs>
<clipPath id="clip0_1348_8919">
<rect width="75" height="61" fill="white"/>
</clipPath>
</defs>
</svg>
