<svg width="20" height="21" viewBox="0 0 20 21" fill="none" xmlns="http://www.w3.org/2000/svg">
<path d="M19.9968 3.04072V17.9969C19.9439 18.0111 19.9611 18.0571 19.9542 18.0923C19.8308 18.7659 19.4754 19.3749 18.9497 19.8138C18.4241 20.2527 17.7614 20.4937 17.0766 20.4951C15.5539 20.499 14.0316 20.4951 12.5089 20.499C12.3738 20.499 12.3371 20.4701 12.3376 20.3312C12.3425 18.0861 12.3425 15.8411 12.3376 13.596C12.3376 13.4625 12.365 13.4233 12.505 13.4243C13.3637 13.4316 14.2229 13.4209 15.0817 13.4336C15.2632 13.4336 15.32 13.3847 15.3474 13.2125C15.5211 12.1175 15.7046 11.0235 15.8856 9.91337H15.6703C14.6158 9.91337 13.5619 9.91337 12.5079 9.91679C12.3753 9.91679 12.3332 9.89135 12.3347 9.74995C12.3432 9.07314 12.3432 8.3965 12.3347 7.72001C12.3347 7.57323 12.3636 7.52431 12.5216 7.52724C13.5819 7.53507 14.6428 7.52724 15.7021 7.53507C15.8489 7.53507 15.8954 7.50571 15.8944 7.34817C15.8866 6.30083 15.8866 5.25316 15.8944 4.20516C15.8944 4.05838 15.8651 4.0119 15.7075 4.01288C14.6599 4.02071 13.6123 4.01777 12.5647 4.01631C12.2655 4.01564 11.9668 4.04002 11.6717 4.08921C10.2385 4.32797 8.99907 5.64457 8.86109 7.09033C8.77742 7.9666 8.8376 8.84629 8.82684 9.72402C8.82684 9.86835 8.8009 9.91973 8.6409 9.91973C7.9774 9.90945 7.31341 9.91973 6.64941 9.91239C6.51779 9.91239 6.47522 9.93636 6.4762 10.0782C6.48305 11.139 6.48452 12.1997 6.4762 13.2584C6.4762 13.4189 6.53149 13.4316 6.6636 13.4307C7.32075 13.4248 7.97789 13.4307 8.63503 13.4248C8.78182 13.4248 8.82831 13.4522 8.82831 13.6107C8.82211 15.8427 8.82211 18.0747 8.82831 20.3067C8.82831 20.4535 8.80237 20.5024 8.64286 20.5024C6.74923 20.4961 4.85561 20.4985 2.96198 20.498C2.79974 20.4983 2.63768 20.4869 2.47708 20.4638C1.09381 20.2627 0.00411463 19.0356 0.0021574 17.6349C-0.003225 12.8778 -0.0105649 8.1212 0.00802886 3.36461C0.0124326 2.20996 0.602539 1.36647 1.61492 0.814585C1.89431 0.661936 2.20698 0.614966 2.49861 0.504883H17.4191C17.4318 0.517114 17.4431 0.537663 17.4568 0.53962C18.5176 0.686399 19.2555 1.26519 19.7296 2.20996C19.8656 2.47269 19.9033 2.76478 19.9968 3.04072Z" fill="#BBBBBB"/>
</svg>
