<svg width="1042" height="1013" viewBox="0 0 1042 1013" fill="none" xmlns="http://www.w3.org/2000/svg">
<path d="M786.271 498.84L657.091 628.02V391.08H786.271V498.84Z" fill="#0166FF"/>
<path d="M639.09 136.18H402.16V373.11H639.09V136.18Z" fill="#008CFF"/>
<path d="M894 136.18H657.07V373.11H894V136.18Z" fill="#008CFF"/>
<path d="M1024 0H778.07L657.07 117.93H903L1024 0Z" fill="#25C2FF"/>
<path d="M757.93 0H512L391 117.93H636.93L757.93 0Z" fill="#25C2FF"/>
<path d="M235.93 636H121L0 753.93H235.93V636Z" fill="#25C2FF"/>
<path d="M639.09 391.08H402.16V628.01H639.09V391.08Z" fill="#008CFF"/>
<path d="M237.071 1012.07H0.140625V775.14H237.071V1012.07Z" fill="#008CFF"/>
<path d="M384.25 373.11L255.07 502.29V265.35L384.25 136.18V373.11Z" fill="#0166FF"/>
<path d="M1041.15 243.93L911.971 373.11V136.18L1041.15 7V243.93Z" fill="#0166FF"/>
<path d="M382.591 627.97L256.721 753.84V522.97L382.591 397.1V627.97Z" fill="#0166FF"/>
<path d="M384.25 882.92L255.07 1012.1V775.17L384.25 645.99V882.92Z" fill="#0166FF"/>
</svg>
