<svg width="578" height="109" viewBox="0 0 578 109" fill="none" xmlns="http://www.w3.org/2000/svg">
<mask id="path-1-outside-1_463_132" maskUnits="userSpaceOnUse" x="149.01" y="18.3579" width="429" height="73" fill="black">
<rect fill="white" x="149.01" y="18.3579" width="429" height="73"/>
<path fill-rule="evenodd" clip-rule="evenodd" d="M279.904 20.358H291.86V23.8689H279.904C274.625 23.8689 270.532 25.2847 267.738 28.0796C264.945 30.8745 263.527 34.9855 263.527 40.2967V69.3219C263.527 71.952 263.895 74.3238 264.625 76.3722C265.341 78.386 266.405 80.1089 267.786 81.4881C269.168 82.8713 270.882 83.9433 272.886 84.6776C274.916 85.4221 277.276 85.7985 279.904 85.7985H291.86V89.1629H279.904C273.673 89.1629 268.755 87.4054 265.288 83.9372C261.79 80.4385 260.014 75.5199 260.014 69.3219V40.2967C260.014 34.0986 261.788 29.1821 265.288 25.6813C268.822 22.1501 273.738 20.358 279.904 20.358ZM151.01 20.3579H182.857H182.859V23.8709H154.523V49.4319H182.859V52.8961H154.523V88.5241H151.01V20.3579ZM205.806 25.9844C209.016 22.2517 213.422 20.3579 218.898 20.3579L218.9 20.362C225.948 20.362 232.122 21.8856 237.252 24.888L238.165 25.4229L237.596 26.3139L236.806 27.5466L236.375 28.2199L235.618 27.9616C227.714 25.2521 222.087 23.877 218.898 23.877C214.404 23.877 210.999 25.307 208.487 28.2484C206.396 30.7097 205.379 33.4599 205.379 36.6576C205.379 42.2311 208.155 46.3177 213.871 49.1451C214.486 49.436 215.57 49.9283 217.096 50.6097L217.106 50.6138L217.116 50.6199C219.807 51.9014 224.589 54.2936 231.333 57.7292L231.341 57.7333L231.349 57.7374C238.214 61.3948 241.694 66.5717 241.694 73.1236C241.694 76.9641 240.338 80.534 237.663 83.7297L237.659 83.7337L237.655 83.7378C234.575 87.3423 230.452 89.169 225.399 89.169C221.725 89.169 217.72 88.455 213.487 87.0433C209.409 85.6377 205.745 83.8232 202.596 81.6447L201.734 81.0466L202.358 80.2025L203.196 79.0695L203.682 78.4104L204.429 78.744C214.893 83.4266 221.947 85.8004 225.401 85.8004C229.331 85.8004 232.482 84.3826 235.029 81.4697C237.183 78.9433 238.23 76.2115 238.23 73.1176C238.23 69.69 237.073 66.8809 234.685 64.5233C233.06 62.898 230.297 61.1059 226.473 59.1938L215.533 53.724C213.149 52.532 210.584 51.0715 207.907 49.3872L207.848 49.3506L207.795 49.3058C203.859 45.9983 201.864 41.7409 201.864 36.6514C201.864 32.6767 203.188 29.0905 205.806 25.9844ZM316.636 26.1756C320.497 22.3148 325.249 20.3579 330.759 20.3579C336.27 20.3579 341.022 22.3148 344.883 26.1756C348.743 30.0364 350.7 34.7882 350.7 40.2986V69.3239C350.7 74.8364 348.741 79.5719 344.876 83.4042C340.983 87.2264 336.27 89.1649 330.759 89.1649C325.249 89.1649 320.499 87.2264 316.636 83.3981C312.81 79.5698 310.87 74.8344 310.87 69.3239V40.2986C310.87 34.8248 312.806 30.0751 316.636 26.1756ZM319.159 81.0202C322.373 84.2362 326.168 85.7984 330.759 85.7984C335.383 85.7984 339.16 84.2687 342.409 81.0202C345.658 77.7717 347.236 73.9454 347.236 69.3218V40.2966C347.236 35.7401 345.658 31.9444 342.409 28.6959C339.16 25.4474 335.351 23.8689 330.759 23.8689C326.168 23.8689 322.373 25.4311 319.159 28.6471C315.943 31.861 314.381 35.673 314.381 40.2966V69.3218C314.381 73.98 315.943 77.8063 319.159 81.0202ZM369.018 20.3579H388.021V20.36C393.23 20.36 397.685 21.5967 401.259 24.0357C406.295 27.4754 408.848 32.9473 408.848 40.3007C408.848 50.5507 404.247 56.9298 395.167 59.2813L408.696 86.7646L409.178 87.743L408.167 88.1539L406.837 88.695L405.96 89.053L405.541 88.2028L391.621 59.979C390.458 60.1194 389.249 60.1885 388.023 60.1885H372.531V88.5242H369.018V20.3579ZM388.023 23.8709H372.531V56.6776H388.023C392.622 56.6776 396.424 55.6748 399.335 53.6935C403.407 50.98 405.386 46.5028 405.386 40.2986C405.386 34.0945 403.403 29.7272 399.322 26.9445C396.357 24.9043 392.555 23.8709 388.023 23.8709ZM427.168 20.3579H459.014V23.8709H430.679V49.432H451.72V52.8961H430.679V85.8004H459.014V89.1649H427.168V20.3579ZM529.16 21.0964H532.154L532.386 21.7921L554.117 86.9884L554.464 88.0299L553.399 88.2964L552.019 88.6422L551.108 88.87L550.809 87.9791L545.128 71.0794H516.186L510.505 87.9791L510.206 88.87L509.294 88.6422L507.915 88.2964L506.849 88.0299L507.197 86.9884L528.928 21.7921L529.16 21.0964ZM530.634 27.5955L517.309 67.6153H517.311H544.005L530.634 27.5955ZM572.487 21.0964H576V88.5222H572.487V21.0964Z"/>
</mask>
<path fill-rule="evenodd" clip-rule="evenodd" d="M279.904 20.358H291.86V23.8689H279.904C274.625 23.8689 270.532 25.2847 267.738 28.0796C264.945 30.8745 263.527 34.9855 263.527 40.2967V69.3219C263.527 71.952 263.895 74.3238 264.625 76.3722C265.341 78.386 266.405 80.1089 267.786 81.4881C269.168 82.8713 270.882 83.9433 272.886 84.6776C274.916 85.4221 277.276 85.7985 279.904 85.7985H291.86V89.1629H279.904C273.673 89.1629 268.755 87.4054 265.288 83.9372C261.79 80.4385 260.014 75.5199 260.014 69.3219V40.2967C260.014 34.0986 261.788 29.1821 265.288 25.6813C268.822 22.1501 273.738 20.358 279.904 20.358ZM151.01 20.3579H182.857H182.859V23.8709H154.523V49.4319H182.859V52.8961H154.523V88.5241H151.01V20.3579ZM205.806 25.9844C209.016 22.2517 213.422 20.3579 218.898 20.3579L218.9 20.362C225.948 20.362 232.122 21.8856 237.252 24.888L238.165 25.4229L237.596 26.3139L236.806 27.5466L236.375 28.2199L235.618 27.9616C227.714 25.2521 222.087 23.877 218.898 23.877C214.404 23.877 210.999 25.307 208.487 28.2484C206.396 30.7097 205.379 33.4599 205.379 36.6576C205.379 42.2311 208.155 46.3177 213.871 49.1451C214.486 49.436 215.57 49.9283 217.096 50.6097L217.106 50.6138L217.116 50.6199C219.807 51.9014 224.589 54.2936 231.333 57.7292L231.341 57.7333L231.349 57.7374C238.214 61.3948 241.694 66.5717 241.694 73.1236C241.694 76.9641 240.338 80.534 237.663 83.7297L237.659 83.7337L237.655 83.7378C234.575 87.3423 230.452 89.169 225.399 89.169C221.725 89.169 217.72 88.455 213.487 87.0433C209.409 85.6377 205.745 83.8232 202.596 81.6447L201.734 81.0466L202.358 80.2025L203.196 79.0695L203.682 78.4104L204.429 78.744C214.893 83.4266 221.947 85.8004 225.401 85.8004C229.331 85.8004 232.482 84.3826 235.029 81.4697C237.183 78.9433 238.23 76.2115 238.23 73.1176C238.23 69.69 237.073 66.8809 234.685 64.5233C233.06 62.898 230.297 61.1059 226.473 59.1938L215.533 53.724C213.149 52.532 210.584 51.0715 207.907 49.3872L207.848 49.3506L207.795 49.3058C203.859 45.9983 201.864 41.7409 201.864 36.6514C201.864 32.6767 203.188 29.0905 205.806 25.9844ZM316.636 26.1756C320.497 22.3148 325.249 20.3579 330.759 20.3579C336.27 20.3579 341.022 22.3148 344.883 26.1756C348.743 30.0364 350.7 34.7882 350.7 40.2986V69.3239C350.7 74.8364 348.741 79.5719 344.876 83.4042C340.983 87.2264 336.27 89.1649 330.759 89.1649C325.249 89.1649 320.499 87.2264 316.636 83.3981C312.81 79.5698 310.87 74.8344 310.87 69.3239V40.2986C310.87 34.8248 312.806 30.0751 316.636 26.1756ZM319.159 81.0202C322.373 84.2362 326.168 85.7984 330.759 85.7984C335.383 85.7984 339.16 84.2687 342.409 81.0202C345.658 77.7717 347.236 73.9454 347.236 69.3218V40.2966C347.236 35.7401 345.658 31.9444 342.409 28.6959C339.16 25.4474 335.351 23.8689 330.759 23.8689C326.168 23.8689 322.373 25.4311 319.159 28.6471C315.943 31.861 314.381 35.673 314.381 40.2966V69.3218C314.381 73.98 315.943 77.8063 319.159 81.0202ZM369.018 20.3579H388.021V20.36C393.23 20.36 397.685 21.5967 401.259 24.0357C406.295 27.4754 408.848 32.9473 408.848 40.3007C408.848 50.5507 404.247 56.9298 395.167 59.2813L408.696 86.7646L409.178 87.743L408.167 88.1539L406.837 88.695L405.96 89.053L405.541 88.2028L391.621 59.979C390.458 60.1194 389.249 60.1885 388.023 60.1885H372.531V88.5242H369.018V20.3579ZM388.023 23.8709H372.531V56.6776H388.023C392.622 56.6776 396.424 55.6748 399.335 53.6935C403.407 50.98 405.386 46.5028 405.386 40.2986C405.386 34.0945 403.403 29.7272 399.322 26.9445C396.357 24.9043 392.555 23.8709 388.023 23.8709ZM427.168 20.3579H459.014V23.8709H430.679V49.432H451.72V52.8961H430.679V85.8004H459.014V89.1649H427.168V20.3579ZM529.16 21.0964H532.154L532.386 21.7921L554.117 86.9884L554.464 88.0299L553.399 88.2964L552.019 88.6422L551.108 88.87L550.809 87.9791L545.128 71.0794H516.186L510.505 87.9791L510.206 88.87L509.294 88.6422L507.915 88.2964L506.849 88.0299L507.197 86.9884L528.928 21.7921L529.16 21.0964ZM530.634 27.5955L517.309 67.6153H517.311H544.005L530.634 27.5955ZM572.487 21.0964H576V88.5222H572.487V21.0964Z" fill="#181824"/>
<path d="M291.86 20.358H293.86C293.86 19.2534 292.965 18.358 291.86 18.358V20.358ZM291.86 23.8689V25.8689C292.965 25.8689 293.86 24.9735 293.86 23.8689H291.86ZM267.738 28.0796L266.323 26.6654L266.323 26.6659L267.738 28.0796ZM264.625 76.3722L266.51 75.7022L266.509 75.7006L264.625 76.3722ZM267.786 81.4881L269.202 80.0749L269.2 80.0728L267.786 81.4881ZM272.886 84.6776L273.575 82.7999L273.574 82.7998L272.886 84.6776ZM291.86 85.7985H293.86C293.86 84.6939 292.965 83.7985 291.86 83.7985V85.7985ZM291.86 89.1629V91.1629C292.965 91.1629 293.86 90.2675 293.86 89.1629H291.86ZM265.288 83.9372L266.703 82.5234L266.703 82.523L265.288 83.9372ZM265.288 25.6813L263.875 24.2667L263.874 24.2671L265.288 25.6813ZM151.01 20.3579V18.3579C149.906 18.3579 149.01 19.2533 149.01 20.3579H151.01ZM182.859 20.3579H184.859C184.859 19.2533 183.963 18.3579 182.859 18.3579V20.3579ZM182.859 23.8709V25.8709C183.963 25.8709 184.859 24.9754 184.859 23.8709H182.859ZM154.523 23.8709V21.8709C153.419 21.8709 152.523 22.7663 152.523 23.8709H154.523ZM154.523 49.4319H152.523C152.523 50.5365 153.419 51.4319 154.523 51.4319V49.4319ZM182.859 49.4319H184.859C184.859 48.3274 183.963 47.4319 182.859 47.4319V49.4319ZM182.859 52.8961V54.8961C183.963 54.8961 184.859 54.0006 184.859 52.8961H182.859ZM154.523 52.8961V50.8961C153.419 50.8961 152.523 51.7915 152.523 52.8961H154.523ZM154.523 88.5241V90.5241C155.628 90.5241 156.523 89.6287 156.523 88.5241H154.523ZM151.01 88.5241H149.01C149.01 89.6287 149.906 90.5241 151.01 90.5241V88.5241ZM218.898 20.3579L220.684 19.4588C220.345 18.7838 219.653 18.3579 218.898 18.3579V20.3579ZM205.806 25.9844L204.29 24.6803C204.285 24.6854 204.281 24.6904 204.277 24.6955L205.806 25.9844ZM218.9 20.362L217.113 21.2611C217.453 21.9361 218.144 22.362 218.9 22.362V20.362ZM237.252 24.888L238.263 23.1622L238.262 23.1619L237.252 24.888ZM238.165 25.4229L239.85 26.5002C240.143 26.0419 240.237 25.484 240.11 24.9552C239.983 24.4263 239.645 23.9721 239.176 23.6972L238.165 25.4229ZM237.596 26.3139L239.28 27.3923L239.281 27.3911L237.596 26.3139ZM236.806 27.5466L238.491 28.6253L238.491 28.625L236.806 27.5466ZM236.375 28.2199L235.729 30.1127C236.601 30.4102 237.563 30.0741 238.059 29.2986L236.375 28.2199ZM235.618 27.9616L234.97 29.8535L234.972 29.8543L235.618 27.9616ZM208.487 28.2484L206.966 26.9495L206.963 26.9534L208.487 28.2484ZM213.871 49.1451L212.985 50.9378C212.995 50.9429 213.005 50.9478 213.016 50.9527L213.871 49.1451ZM217.096 50.6097L216.28 52.4359C216.304 52.4464 216.328 52.4566 216.352 52.4662L217.096 50.6097ZM217.106 50.6138L218.132 48.8972C218.042 48.8432 217.947 48.7964 217.85 48.7573L217.106 50.6138ZM217.116 50.6199L216.09 52.3365C216.144 52.3688 216.199 52.3986 216.256 52.4256L217.116 50.6199ZM231.333 57.7292L230.425 59.5113C230.429 59.5135 230.433 59.5156 230.437 59.5178L231.333 57.7292ZM231.341 57.7333L230.446 59.5218L230.446 59.5222L231.341 57.7333ZM231.349 57.7374L232.289 55.9722C232.274 55.9641 232.259 55.9562 232.243 55.9485L231.349 57.7374ZM237.663 83.7297L239.078 85.1426C239.12 85.1012 239.159 85.0581 239.196 85.0134L237.663 83.7297ZM237.659 83.7337L239.074 85.1473L239.074 85.1466L237.659 83.7337ZM237.655 83.7378L236.24 82.3243C236.203 82.361 236.168 82.3992 236.134 82.4386L237.655 83.7378ZM213.487 87.0433L212.835 88.9342C212.842 88.9363 212.848 88.9385 212.854 88.9406L213.487 87.0433ZM202.596 81.6447L201.457 83.2882L201.458 83.2894L202.596 81.6447ZM201.734 81.0466L200.126 79.8572C199.804 80.2922 199.672 80.839 199.76 81.3728C199.849 81.9066 200.149 82.3819 200.594 82.6902L201.734 81.0466ZM202.358 80.2025L203.966 81.3919L203.966 81.3918L202.358 80.2025ZM203.196 79.0695L204.804 80.2588L204.806 80.2567L203.196 79.0695ZM203.682 78.4104L204.498 76.5844C203.64 76.201 202.631 76.4668 202.073 77.2231L203.682 78.4104ZM204.429 78.744L205.246 76.9184L205.245 76.918L204.429 78.744ZM235.029 81.4697L236.534 82.7862C236.54 82.7799 236.545 82.7737 236.55 82.7674L235.029 81.4697ZM234.685 64.5233L233.271 65.9375L233.28 65.9466L234.685 64.5233ZM207.907 49.3872L208.972 47.6944L208.962 47.6881L207.907 49.3872ZM207.848 49.3506L206.557 50.8774C206.631 50.9406 206.71 50.9981 206.793 51.0497L207.848 49.3506ZM207.795 49.3058L209.087 47.779L209.082 47.7747L207.795 49.3058ZM316.636 26.1756L315.222 24.7614C315.218 24.7656 315.214 24.7698 315.21 24.7741L316.636 26.1756ZM344.883 26.1756L346.297 24.7614L346.297 24.7614L344.883 26.1756ZM344.876 83.4042L346.278 84.8314L346.285 84.8244L344.876 83.4042ZM316.636 83.3981L315.222 84.812L315.229 84.8187L316.636 83.3981ZM319.159 81.0202L320.573 79.6064L320.573 79.6055L319.159 81.0202ZM342.409 81.0202L343.823 82.4344L343.823 82.4344L342.409 81.0202ZM342.409 28.6959L343.823 27.2817L343.823 27.2817L342.409 28.6959ZM319.159 28.6471L320.573 30.0618L320.573 30.0609L319.159 28.6471ZM388.021 20.3579H390.021C390.021 19.2534 389.125 18.3579 388.021 18.3579V20.3579ZM369.018 20.3579V18.3579C367.913 18.3579 367.018 19.2534 367.018 20.3579H369.018ZM388.021 20.36H386.021C386.021 21.4646 386.916 22.36 388.021 22.36V20.36ZM401.259 24.0357L402.387 22.3841L402.386 22.3837L401.259 24.0357ZM395.167 59.2813L394.665 57.3452C394.083 57.496 393.599 57.9008 393.349 58.4476C393.098 58.9944 393.107 59.6249 393.372 60.1646L395.167 59.2813ZM408.696 86.7646L406.901 87.6479L406.902 87.6486L408.696 86.7646ZM409.178 87.743L409.931 89.5959C410.445 89.3868 410.85 88.9731 411.047 88.4541C411.245 87.935 411.217 87.3572 410.972 86.8591L409.178 87.743ZM408.167 88.1539L407.414 86.3011L407.413 86.3013L408.167 88.1539ZM406.837 88.695L406.083 86.8424L406.08 86.8434L406.837 88.695ZM405.96 89.053L404.166 89.9371C404.63 90.8791 405.744 91.3016 406.716 90.9046L405.96 89.053ZM405.541 88.2028L407.335 87.3187L407.334 87.3181L405.541 88.2028ZM391.621 59.979L393.415 59.0944C393.039 58.3331 392.224 57.8917 391.382 57.9934L391.621 59.979ZM372.531 60.1885V58.1885C371.426 58.1885 370.531 59.0839 370.531 60.1885H372.531ZM372.531 88.5242V90.5242C373.635 90.5242 374.531 89.6287 374.531 88.5242H372.531ZM369.018 88.5242H367.018C367.018 89.6287 367.913 90.5242 369.018 90.5242V88.5242ZM372.531 23.8709V21.8709C371.426 21.8709 370.531 22.7663 370.531 23.8709H372.531ZM372.531 56.6776H370.531C370.531 57.7822 371.426 58.6776 372.531 58.6776V56.6776ZM399.335 53.6935L398.226 52.0292C398.22 52.0328 398.215 52.0365 398.209 52.0402L399.335 53.6935ZM399.322 26.9445L398.189 28.5923L398.196 28.5969L399.322 26.9445ZM459.014 20.3579H461.014C461.014 19.2534 460.119 18.3579 459.014 18.3579V20.3579ZM427.168 20.3579V18.3579C426.063 18.3579 425.168 19.2534 425.168 20.3579H427.168ZM459.014 23.8709V25.8709C460.119 25.8709 461.014 24.9755 461.014 23.8709H459.014ZM430.679 23.8709V21.8709C429.574 21.8709 428.679 22.7663 428.679 23.8709H430.679ZM430.679 49.432H428.679C428.679 50.5365 429.574 51.432 430.679 51.432V49.432ZM451.72 49.432H453.72C453.72 48.3274 452.824 47.432 451.72 47.432V49.432ZM451.72 52.8961V54.8961C452.824 54.8961 453.72 54.0007 453.72 52.8961H451.72ZM430.679 52.8961V50.8961C429.574 50.8961 428.679 51.7915 428.679 52.8961H430.679ZM430.679 85.8004H428.679C428.679 86.905 429.574 87.8004 430.679 87.8004V85.8004ZM459.014 85.8004H461.014C461.014 84.6959 460.119 83.8004 459.014 83.8004V85.8004ZM459.014 89.1649V91.1649C460.119 91.1649 461.014 90.2695 461.014 89.1649H459.014ZM427.168 89.1649H425.168C425.168 90.2695 426.063 91.1649 427.168 91.1649V89.1649ZM532.154 21.0964L534.051 20.4639C533.779 19.6473 533.015 19.0964 532.154 19.0964V21.0964ZM529.16 21.0964V19.0964C528.299 19.0964 527.535 19.6473 527.262 20.4639L529.16 21.0964ZM532.386 21.7921L534.283 21.1597L534.283 21.1596L532.386 21.7921ZM554.117 86.9884L552.219 87.6209L552.22 87.622L554.117 86.9884ZM554.464 88.0299L554.95 89.9702C555.49 89.835 555.95 89.4804 556.218 88.9918C556.486 88.5032 556.538 87.9249 556.361 87.3964L554.464 88.0299ZM553.399 88.2964L552.913 86.3561L552.912 86.3565L553.399 88.2964ZM552.019 88.6422L552.504 90.5825L552.506 90.5822L552.019 88.6422ZM551.108 88.87L549.212 89.5064C549.544 90.4957 550.581 91.0634 551.593 90.8103L551.108 88.87ZM550.809 87.9791L552.705 87.3427L552.705 87.3418L550.809 87.9791ZM545.128 71.0794L547.023 70.4421C546.75 69.6279 545.987 69.0794 545.128 69.0794V71.0794ZM516.186 71.0794V69.0794C515.327 69.0794 514.564 69.6279 514.29 70.4421L516.186 71.0794ZM510.505 87.9791L508.609 87.3418L508.608 87.3427L510.505 87.9791ZM510.206 88.87L509.72 90.8103C510.733 91.0634 511.77 90.4957 512.102 89.5064L510.206 88.87ZM509.294 88.6422L508.808 90.5822L508.809 90.5825L509.294 88.6422ZM507.915 88.2964L508.401 86.3565L508.4 86.3561L507.915 88.2964ZM506.849 88.0299L504.952 87.3963C504.776 87.9249 504.828 88.5032 505.096 88.9918C505.364 89.4804 505.823 89.835 506.364 89.9702L506.849 88.0299ZM507.197 86.9884L509.094 87.6221L509.094 87.6209L507.197 86.9884ZM528.928 21.7921L527.03 21.1596L527.03 21.1597L528.928 21.7921ZM517.309 67.6153L515.411 66.9834C515.208 67.5933 515.311 68.2635 515.686 68.7849C516.062 69.3063 516.666 69.6153 517.309 69.6153V67.6153ZM530.634 27.5955L532.531 26.9617C532.259 26.1454 531.494 25.5951 530.633 25.5955C529.773 25.5959 529.009 26.147 528.737 26.9636L530.634 27.5955ZM544.005 67.6153V69.6153C544.648 69.6153 545.252 69.306 545.628 68.7841C546.004 68.2623 546.106 67.5915 545.902 66.9815L544.005 67.6153ZM576 21.0964H578C578 19.9918 577.105 19.0964 576 19.0964V21.0964ZM572.487 21.0964V19.0964C571.382 19.0964 570.487 19.9918 570.487 21.0964H572.487ZM576 88.5222V90.5222C577.105 90.5222 578 89.6268 578 88.5222H576ZM572.487 88.5222H570.487C570.487 89.6268 571.382 90.5222 572.487 90.5222V88.5222ZM291.86 18.358H279.904V22.358H291.86V18.358ZM293.86 23.8689V20.358H289.86V23.8689H293.86ZM279.904 25.8689H291.86V21.8689H279.904V25.8689ZM269.152 29.4938C271.459 27.1867 274.971 25.8689 279.904 25.8689V21.8689C274.279 21.8689 269.606 23.3827 266.323 26.6654L269.152 29.4938ZM265.527 40.2967C265.527 35.3282 266.849 31.7987 269.152 29.4933L266.323 26.6659C263.041 29.9504 261.527 34.6428 261.527 40.2967H265.527ZM265.527 69.3219V40.2967H261.527V69.3219H265.527ZM266.509 75.7006C265.87 73.9086 265.527 71.7709 265.527 69.3219H261.527C261.527 72.1332 261.92 74.7391 262.741 77.0438L266.509 75.7006ZM269.2 80.0728C268.049 78.9237 267.136 77.4632 266.51 75.7022L262.741 77.0423C263.547 79.3088 264.762 81.2942 266.373 82.9033L269.2 80.0728ZM273.574 82.7998C271.818 82.1561 270.359 81.2336 269.202 80.0749L266.371 82.9013C267.977 84.509 269.947 85.7305 272.198 86.5555L273.574 82.7998ZM279.904 83.7985C277.461 83.7985 275.342 83.4481 273.575 82.7999L272.197 86.5553C274.49 87.3962 277.09 87.7985 279.904 87.7985V83.7985ZM291.86 83.7985H279.904V87.7985H291.86V83.7985ZM293.86 89.1629V85.7985H289.86V89.1629H293.86ZM279.904 91.1629H291.86V87.1629H279.904V91.1629ZM263.874 85.351C267.81 89.2896 273.294 91.1629 279.904 91.1629V87.1629C274.052 87.1629 269.699 85.5213 266.703 82.5234L263.874 85.351ZM258.014 69.3219C258.014 75.9092 259.911 81.3884 263.874 85.3514L266.703 82.523C263.668 79.4886 262.014 75.1306 262.014 69.3219H258.014ZM258.014 40.2967V69.3219H262.014V40.2967H258.014ZM263.874 24.2671C259.909 28.2323 258.014 33.7095 258.014 40.2967H262.014C262.014 34.4877 263.666 30.1319 266.703 27.0956L263.874 24.2671ZM279.904 18.358C273.339 18.358 267.867 20.2771 263.875 24.2667L266.702 27.096C269.777 24.023 274.137 22.358 279.904 22.358V18.358ZM182.857 18.3579H151.01V22.3579H182.857V18.3579ZM182.859 18.3579H182.857V22.3579H182.859V18.3579ZM184.859 23.8709V20.3579H180.859V23.8709H184.859ZM154.523 25.8709H182.859V21.8709H154.523V25.8709ZM156.523 49.4319V23.8709H152.523V49.4319H156.523ZM182.859 47.4319H154.523V51.4319H182.859V47.4319ZM184.859 52.8961V49.4319H180.859V52.8961H184.859ZM154.523 54.8961H182.859V50.8961H154.523V54.8961ZM156.523 88.5241V52.8961H152.523V88.5241H156.523ZM151.01 90.5241H154.523V86.5241H151.01V90.5241ZM149.01 20.3579V88.5241H153.01V20.3579H149.01ZM218.898 18.3579C212.913 18.3579 207.925 20.4531 204.29 24.6803L207.322 27.2884C210.107 24.0503 213.931 22.3579 218.898 22.3579V18.3579ZM220.686 19.4629L220.684 19.4588L217.111 21.2571L217.113 21.2611L220.686 19.4629ZM238.262 23.1619C232.773 19.9495 226.237 18.362 218.9 18.362V22.362C225.659 22.362 231.47 23.8217 236.242 26.6141L238.262 23.1619ZM239.176 23.6972L238.263 23.1622L236.241 26.6137L237.154 27.1487L239.176 23.6972ZM239.281 27.3911L239.85 26.5002L236.48 24.3457L235.911 25.2367L239.281 27.3911ZM238.491 28.625L239.28 27.3923L235.911 25.2355L235.122 26.4682L238.491 28.625ZM238.059 29.2986L238.491 28.6253L235.122 26.4679L234.691 27.1412L238.059 29.2986ZM234.972 29.8543L235.729 30.1127L237.021 26.3271L236.265 26.0688L234.972 29.8543ZM218.898 25.877C221.71 25.877 227.041 27.1357 234.97 29.8535L236.267 26.0696C228.387 23.3685 222.464 21.877 218.898 21.877V25.877ZM210.008 29.5473C212.077 27.1248 214.885 25.877 218.898 25.877V21.877C213.924 21.877 209.922 23.4892 206.966 26.9495L210.008 29.5473ZM207.379 36.6576C207.379 33.9398 208.224 31.6473 210.011 29.5433L206.963 26.9534C204.568 29.7721 203.379 32.9799 203.379 36.6576H207.379ZM214.758 47.3525C212.124 46.0496 210.303 44.524 209.136 42.8066C207.979 41.1058 207.379 39.0935 207.379 36.6576H203.379C203.379 39.7951 204.167 42.613 205.828 45.0557C207.477 47.4818 209.903 49.4132 212.985 50.9378L214.758 47.3525ZM217.911 48.7836C216.385 48.1018 215.319 47.6178 214.727 47.3375L213.016 50.9527C213.652 51.2542 214.755 51.7548 216.28 52.4359L217.911 48.7836ZM217.85 48.7573L217.839 48.7532L216.352 52.4662L216.362 52.4703L217.85 48.7573ZM218.142 48.9033L218.132 48.8972L216.079 52.3304L216.09 52.3365L218.142 48.9033ZM232.24 55.9472C225.499 52.5122 220.694 50.1087 217.976 48.8142L216.256 52.4256C218.92 53.6942 223.68 56.075 230.425 59.5113L232.24 55.9472ZM232.236 55.9448L232.228 55.9407L230.437 59.5178L230.446 59.5218L232.236 55.9448ZM232.243 55.9485L232.235 55.9445L230.446 59.5222L230.454 59.5262L232.243 55.9485ZM243.694 73.1236C243.694 65.6801 239.66 59.8989 232.289 55.9722L230.408 59.5025C236.768 62.8907 239.694 67.4633 239.694 73.1236H243.694ZM239.196 85.0134C242.145 81.4906 243.694 77.4746 243.694 73.1236H239.694C239.694 76.4536 238.53 79.5774 236.129 82.4459L239.196 85.0134ZM239.074 85.1466L239.078 85.1426L236.247 82.3168L236.243 82.3209L239.074 85.1466ZM239.07 85.1514L239.074 85.1473L236.244 82.3202L236.24 82.3243L239.07 85.1514ZM225.399 91.169C230.993 91.169 235.688 89.1186 239.175 85.037L236.134 82.4386C233.462 85.566 229.911 87.169 225.399 87.169V91.169ZM212.854 88.9406C217.249 90.4063 221.47 91.169 225.399 91.169V87.169C221.98 87.169 218.191 86.5037 214.12 85.146L212.854 88.9406ZM201.458 83.2894C204.775 85.5844 208.606 87.4767 212.835 88.9342L214.139 85.1524C210.211 83.7987 206.715 82.0621 203.734 79.9999L201.458 83.2894ZM200.594 82.6902L201.457 83.2882L203.736 80.0011L202.873 79.4031L200.594 82.6902ZM200.75 79.013L200.126 79.8572L203.342 82.2361L203.966 81.3919L200.75 79.013ZM201.588 77.8801L200.75 79.0131L203.966 81.3918L204.804 80.2588L201.588 77.8801ZM202.073 77.2231L201.587 77.8822L204.806 80.2567L205.292 79.5977L202.073 77.2231ZM205.245 76.918L204.498 76.5844L202.866 80.2364L203.613 80.57L205.245 76.918ZM225.401 83.8004C224.023 83.8004 221.66 83.303 218.181 82.1326C214.762 80.9821 210.447 79.246 205.246 76.9184L203.612 80.5695C208.875 82.9246 213.318 84.7167 216.906 85.9238C220.434 87.111 223.325 87.8004 225.401 87.8004V83.8004ZM233.523 80.1533C231.363 82.6243 228.764 83.8004 225.401 83.8004V87.8004C229.898 87.8004 233.601 86.141 236.534 82.7862L233.523 80.1533ZM236.23 73.1176C236.23 75.6994 235.377 77.9788 233.507 80.1721L236.55 82.7674C238.989 79.9078 240.23 76.7236 240.23 73.1176H236.23ZM233.28 65.9466C235.277 67.9188 236.23 70.2111 236.23 73.1176H240.23C240.23 69.1689 238.868 65.843 236.09 63.1L233.28 65.9466ZM225.579 60.9827C229.346 62.8666 231.877 64.5435 233.271 65.9375L236.099 63.1091C234.242 61.2525 231.248 59.3452 227.367 57.405L225.579 60.9827ZM214.639 55.5129L225.579 60.9827L227.367 57.405L216.428 51.9351L214.639 55.5129ZM206.842 51.08C209.564 52.7923 212.186 54.2864 214.639 55.5129L216.428 51.9351C214.113 50.7776 211.605 49.3507 208.972 47.6944L206.842 51.08ZM206.793 51.0497L206.852 51.0863L208.962 47.6881L208.903 47.6515L206.793 51.0497ZM206.504 50.8327L206.557 50.8774L209.14 47.8238L209.087 47.779L206.504 50.8327ZM199.864 36.6514C199.864 42.3384 202.126 47.1539 206.509 50.837L209.082 47.7747C205.593 44.8427 203.864 41.1433 203.864 36.6514H199.864ZM204.277 24.6955C201.362 28.1541 199.864 32.1944 199.864 36.6514H203.864C203.864 33.1591 205.014 30.027 207.335 27.2733L204.277 24.6955ZM330.759 18.3579C324.724 18.3579 319.462 20.5215 315.222 24.7614L318.051 27.5898C321.532 24.1081 325.774 22.3579 330.759 22.3579V18.3579ZM346.297 24.7614C342.057 20.5215 336.795 18.3579 330.759 18.3579V22.3579C335.745 22.3579 339.987 24.1081 343.468 27.5898L346.297 24.7614ZM352.7 40.2986C352.7 34.2634 350.537 29.0013 346.297 24.7614L343.468 27.5898C346.95 31.0715 348.7 35.3129 348.7 40.2986H352.7ZM352.7 69.3239V40.2986H348.7V69.3239H352.7ZM346.285 84.8244C350.534 80.6112 352.7 75.3622 352.7 69.3239H348.7C348.7 74.3106 346.949 78.5326 343.468 81.984L346.285 84.8244ZM330.759 91.1649C336.794 91.1649 342.01 89.0206 346.278 84.8314L343.475 81.977C339.956 85.4322 335.746 87.1649 330.759 87.1649V91.1649ZM315.229 84.8187C319.472 89.0238 324.73 91.1649 330.759 91.1649V87.1649C325.768 87.1649 321.527 85.4289 318.044 81.9775L315.229 84.8187ZM308.87 69.3239C308.87 75.3539 311.013 80.6012 315.222 84.8119L318.051 81.9843C314.607 78.5385 312.87 74.3148 312.87 69.3239H308.87ZM308.87 40.2986V69.3239H312.87V40.2986H308.87ZM315.21 24.7741C311.011 29.049 308.87 34.3025 308.87 40.2986H312.87C312.87 35.347 314.602 31.1011 318.063 27.5771L315.21 24.7741ZM330.759 83.7984C326.693 83.7984 323.408 82.4426 320.573 79.6064L317.744 82.434C321.338 86.0298 325.644 87.7984 330.759 87.7984V83.7984ZM340.995 79.606C338.131 82.4702 334.866 83.7984 330.759 83.7984V87.7984C335.9 87.7984 340.19 86.0673 343.823 82.4344L340.995 79.606ZM345.236 69.3218C345.236 73.419 343.865 76.7353 340.995 79.606L343.823 82.4344C347.45 78.808 349.236 74.4719 349.236 69.3218H345.236ZM345.236 40.2966V69.3218H349.236V40.2966H345.236ZM340.995 30.1101C343.871 32.9868 345.236 36.275 345.236 40.2966H349.236C349.236 35.2052 347.444 30.9021 343.823 27.2817L340.995 30.1101ZM330.759 25.8689C334.82 25.8689 338.121 27.2364 340.995 30.1101L343.823 27.2817C340.2 23.6583 335.881 21.8689 330.759 21.8689V25.8689ZM320.573 30.0609C323.408 27.2247 326.693 25.8689 330.759 25.8689V21.8689C325.644 21.8689 321.338 23.6375 317.744 27.2333L320.573 30.0609ZM316.381 40.2966C316.381 36.1929 317.739 32.8931 320.573 30.0618L317.745 27.2324C314.146 30.829 312.381 35.1531 312.381 40.2966H316.381ZM316.381 69.3218V40.2966H312.381V69.3218H316.381ZM320.573 79.6055C317.742 76.7771 316.381 73.4642 316.381 69.3218H312.381C312.381 74.4958 314.143 78.8354 317.745 82.4349L320.573 79.6055ZM388.021 18.3579H369.018V22.3579H388.021V18.3579ZM390.021 20.36V20.3579H386.021V20.36H390.021ZM402.386 22.3837C398.417 19.6751 393.549 18.36 388.021 18.36V22.36C392.911 22.36 396.953 23.5183 400.132 25.6877L402.386 22.3837ZM410.848 40.3007C410.848 32.4418 408.086 26.2763 402.387 22.3841L400.131 25.6873C404.505 28.6745 406.848 33.4527 406.848 40.3007H410.848ZM395.668 61.2174C400.567 59.9487 404.426 57.5419 407.035 53.9226C409.631 50.321 410.848 45.7173 410.848 40.3007H406.848C406.848 45.1341 405.764 48.845 403.79 51.5833C401.829 54.3039 398.846 56.2624 394.665 57.3452L395.668 61.2174ZM410.49 85.8813L396.961 58.398L393.372 60.1646L406.901 87.6479L410.49 85.8813ZM410.972 86.8591L410.49 85.8807L406.902 87.6486L407.384 88.627L410.972 86.8591ZM408.92 90.0067L409.931 89.5959L408.425 85.8902L407.414 86.3011L408.92 90.0067ZM407.59 90.5476L408.92 90.0065L407.413 86.3013L406.083 86.8424L407.59 90.5476ZM406.716 90.9046L407.593 90.5466L406.08 86.8434L405.204 87.2015L406.716 90.9046ZM403.747 89.0868L404.166 89.9371L407.754 88.1689L407.335 87.3187L403.747 89.0868ZM389.827 60.8636L403.747 89.0874L407.334 87.3181L393.415 59.0944L389.827 60.8636ZM388.023 62.1885C389.324 62.1885 390.612 62.1152 391.861 61.9646L391.382 57.9934C390.303 58.1235 389.175 58.1885 388.023 58.1885V62.1885ZM372.531 62.1885H388.023V58.1885H372.531V62.1885ZM374.531 88.5242V60.1885H370.531V88.5242H374.531ZM369.018 90.5242H372.531V86.5242H369.018V90.5242ZM367.018 20.3579V88.5242H371.018V20.3579H367.018ZM372.531 25.8709H388.023V21.8709H372.531V25.8709ZM374.531 56.6776V23.8709H370.531V56.6776H374.531ZM388.023 54.6776H372.531V58.6776H388.023V54.6776ZM398.209 52.0402C395.718 53.7356 392.342 54.6776 388.023 54.6776V58.6776C392.902 58.6776 397.129 57.6139 400.46 55.3469L398.209 52.0402ZM403.386 40.2986C403.386 46.0566 401.579 49.795 398.226 52.0292L400.444 55.3579C405.235 52.165 407.386 46.949 407.386 40.2986H403.386ZM398.196 28.5969C401.589 30.9111 403.386 34.565 403.386 40.2986H407.386C407.386 33.624 405.217 28.5434 400.449 25.2922L398.196 28.5969ZM388.023 25.8709C392.256 25.8709 395.634 26.8348 398.189 28.5923L400.456 25.2968C397.079 22.9738 392.854 21.8709 388.023 21.8709V25.8709ZM459.014 18.3579H427.168V22.3579H459.014V18.3579ZM461.014 23.8709V20.3579H457.014V23.8709H461.014ZM430.679 25.8709H459.014V21.8709H430.679V25.8709ZM432.679 49.432V23.8709H428.679V49.432H432.679ZM451.72 47.432H430.679V51.432H451.72V47.432ZM453.72 52.8961V49.432H449.72V52.8961H453.72ZM430.679 54.8961H451.72V50.8961H430.679V54.8961ZM432.679 85.8004V52.8961H428.679V85.8004H432.679ZM459.014 83.8004H430.679V87.8004H459.014V83.8004ZM461.014 89.1649V85.8004H457.014V89.1649H461.014ZM427.168 91.1649H459.014V87.1649H427.168V91.1649ZM425.168 20.3579V89.1649H429.168V20.3579H425.168ZM532.154 19.0964H529.16V23.0964H532.154V19.0964ZM534.283 21.1596L534.051 20.4639L530.257 21.7289L530.488 22.4246L534.283 21.1596ZM556.014 86.356L534.283 21.1597L530.488 22.4245L552.219 87.6209L556.014 86.356ZM556.361 87.3964L556.014 86.3549L552.22 87.622L552.567 88.6635L556.361 87.3964ZM553.884 90.2367L554.95 89.9702L553.979 86.0896L552.913 86.3561L553.884 90.2367ZM552.506 90.5822L553.885 90.2364L552.912 86.3565L551.533 86.7023L552.506 90.5822ZM551.593 90.8103L552.504 90.5825L551.534 86.7019L550.623 86.9297L551.593 90.8103ZM548.913 88.6155L549.212 89.5064L553.004 88.2336L552.705 87.3427L548.913 88.6155ZM543.232 71.7167L548.913 88.6164L552.705 87.3418L547.023 70.4421L543.232 71.7167ZM516.186 73.0794H545.128V69.0794H516.186V73.0794ZM512.4 88.6164L518.082 71.7167L514.29 70.4421L508.609 87.3418L512.4 88.6164ZM512.102 89.5064L512.401 88.6155L508.608 87.3427L508.309 88.2336L512.102 89.5064ZM508.809 90.5825L509.72 90.8103L510.691 86.9297L509.779 86.7019L508.809 90.5825ZM507.429 90.2364L508.808 90.5822L509.781 86.7023L508.401 86.3565L507.429 90.2364ZM506.364 89.9702L507.43 90.2367L508.4 86.3561L507.334 86.0896L506.364 89.9702ZM505.3 86.3548L504.952 87.3963L508.746 88.6635L509.094 87.6221L505.3 86.3548ZM527.03 21.1597L505.3 86.356L509.094 87.6209L530.825 22.4245L527.03 21.1597ZM527.262 20.4639L527.03 21.1596L530.825 22.4246L531.057 21.7289L527.262 20.4639ZM519.206 68.2471L532.532 28.2273L528.737 26.9636L515.411 66.9834L519.206 68.2471ZM517.311 65.6153H517.309V69.6153H517.311V65.6153ZM544.005 65.6153H517.311V69.6153H544.005V65.6153ZM528.737 28.2293L542.108 68.249L545.902 66.9815L532.531 26.9617L528.737 28.2293ZM576 19.0964H572.487V23.0964H576V19.0964ZM578 88.5222V21.0964H574V88.5222H578ZM572.487 90.5222H576V86.5222H572.487V90.5222ZM570.487 21.0964V88.5222H574.487V21.0964H570.487Z" fill="#181824" mask="url(#path-1-outside-1_463_132)"/>
<path d="M83.9291 53.9003L70.186 67.6434V42.436H83.9291V53.9003Z" fill="#0166FF"/>
<path d="M68.2712 15.318H43.0649V40.5243H68.2712V15.318Z" fill="#008CFF"/>
<path d="M95.3901 15.318H70.1838V40.5243H95.3901V15.318Z" fill="#008CFF"/>
<path d="M109.22 0.8302H83.0567L70.1838 13.3764H96.3476L109.22 0.8302Z" fill="#25C2FF"/>
<path d="M80.914 0.8302H54.7503L41.8774 13.3764H68.0412L80.914 0.8302Z" fill="#25C2FF"/>
<path d="M25.3802 68.4924H13.1531L0.280273 81.0387H25.3802V68.4924Z" fill="#25C2FF"/>
<path d="M68.2712 42.436H43.0649V67.6423H68.2712V42.436Z" fill="#008CFF"/>
<path d="M25.5014 108.501H0.295166V83.295H25.5014V108.501Z" fill="#008CFF"/>
<path d="M41.1593 40.5243L27.4163 54.2674V29.06L41.1593 15.318V40.5243Z" fill="#0166FF"/>
<path d="M111.045 26.7812L97.302 40.5243V15.318L111.045 1.57495V26.7812Z" fill="#0166FF"/>
<path d="M40.9827 67.6381L27.5918 81.0291V56.4675L40.9827 43.0765V67.6381Z" fill="#0166FF"/>
<path d="M41.1593 94.7615L27.4163 108.505V83.2983L41.1593 69.5552V94.7615Z" fill="#0166FF"/>
</svg>
