<svg width="24" height="24" viewBox="0 0 24 24" fill="none" xmlns="http://www.w3.org/2000/svg">
<g clip-path="url(#clip0_275_153)">
<path d="M23.3762 12.2525C23.3762 11.3173 23.2988 10.6348 23.1312 9.927H12.2334V14.1483H18.6302C18.5012 15.1974 17.8048 16.7773 16.2572 17.8389L16.2355 17.9802L19.6812 20.5962L19.9199 20.6195C22.1123 18.6352 23.3762 15.7156 23.3762 12.2525" fill="#4284F3"/>
<path d="M12.2323 23.3749C15.3662 23.3749 17.9971 22.3637 19.9188 20.6196L16.2561 17.8389C15.2759 18.5088 13.9604 18.9764 12.2323 18.9764C9.1629 18.9764 6.55778 16.9922 5.62912 14.2495L5.493 14.2608L1.91014 16.9782L1.86328 17.1059C3.77198 20.8217 7.69261 23.3749 12.2323 23.3749Z" fill="#33A752"/>
<path d="M5.62989 14.2496C5.38485 13.5418 5.24304 12.7834 5.24304 11.9999C5.24304 11.2162 5.38485 10.4579 5.617 9.75014L5.61051 9.5994L1.98273 6.83838L1.86404 6.89371C1.07737 8.43567 0.625977 10.1672 0.625977 11.9999C0.625977 13.8325 1.07737 15.564 1.86404 17.1059L5.62989 14.2496" fill="#F2BE02"/>
<path d="M12.2324 5.0233C14.4119 5.0233 15.8821 5.94594 16.7204 6.71696L19.9962 3.5825C17.9844 1.74987 15.3663 0.625 12.2324 0.625C7.69265 0.625 3.77199 3.17804 1.86328 6.89384L5.61625 9.75027C6.5578 7.00763 9.16295 5.0233 12.2324 5.0233" fill="#E94134"/>
</g>
<defs>
<clipPath id="clip0_275_153">
<rect width="24" height="24" fill="white"/>
</clipPath>
</defs>
</svg>
