<svg width="20" height="21" viewBox="0 0 20 21" fill="none" xmlns="http://www.w3.org/2000/svg">
<g clip-path="url(#clip0_916_10399)">
<path d="M0.00390625 17.9582V3.04062C0.0765625 3.00156 0.053125 2.92617 0.0671875 2.86914C0.357031 1.70664 1.07891 0.957422 2.21914 0.603516C2.33906 0.564453 2.47305 0.581641 2.58125 0.503906H17.3836C17.3965 0.515625 17.4078 0.535938 17.4227 0.538281C18.7117 0.751563 19.5168 1.50937 19.9059 2.73789C19.9418 2.85117 19.9262 2.97852 20.0004 3.08125V17.9582C19.9281 18.0027 19.948 18.0844 19.932 18.1477C19.6336 19.3195 18.898 20.0617 17.7477 20.4074C17.6281 20.4434 17.4969 20.4328 17.384 20.4965H2.54219C2.49766 20.4242 2.41602 20.4441 2.35234 20.4277C1.2 20.1324 0.455078 19.4141 0.103516 18.2793C0.0703125 18.173 0.0824219 18.0512 0.00390625 17.9582ZM10.0008 2.88437C8.45156 2.88437 6.90208 2.88437 5.35234 2.88437C3.67656 2.8875 2.38633 4.17656 2.38359 5.85312C2.38125 8.95208 2.38125 12.0501 2.38359 15.1473C2.38359 16.8215 3.675 18.1133 5.35234 18.116C8.4513 18.1189 11.5493 18.1189 14.6465 18.116C16.3223 18.116 17.6125 16.8234 17.6152 15.1473C17.6171 12.0488 17.618 8.95013 17.618 5.85117C17.6201 5.64285 17.5999 5.43489 17.5578 5.23086C17.2535 3.82852 16.0871 2.88711 14.6492 2.88359C13.0997 2.88281 11.5503 2.88307 10.0008 2.88437Z" fill="#BBBBBB"/>
<path d="M16.4469 10.4883C16.4469 12.0172 16.4469 13.5461 16.4469 15.075C16.4469 16.2008 15.7047 16.943 14.5773 16.943H5.42148C4.30742 16.943 3.55898 16.1977 3.55859 15.0883C3.55859 12.0305 3.55859 8.97253 3.55859 5.91445C3.55859 4.80234 4.30508 4.05664 5.41797 4.05664C8.47604 4.05664 11.534 4.05664 14.5918 4.05664C15.6934 4.05664 16.4441 4.80391 16.4449 5.90117C16.4462 7.4306 16.4469 8.95964 16.4469 10.4883ZM5.90313 10.4883C5.89805 12.7445 7.72891 14.5898 9.98203 14.6004C12.2477 14.6105 14.0984 12.7734 14.1039 10.5113C14.1094 8.25508 12.2777 6.40977 10.0246 6.39961C7.75742 6.38984 5.90625 8.22617 5.9 10.4879L5.90313 10.4883ZM15.275 6.38984C15.2733 6.15844 15.2031 5.93272 15.0733 5.74114C14.9435 5.54956 14.7599 5.4007 14.5457 5.31332C14.3314 5.22594 14.096 5.20395 13.8693 5.25014C13.6425 5.29632 13.4345 5.4086 13.2715 5.57283C13.1085 5.73706 12.9977 5.94587 12.9532 6.17296C12.9087 6.40004 12.9324 6.63522 13.0213 6.84886C13.1102 7.06249 13.2604 7.24501 13.453 7.3734C13.6455 7.50179 13.8717 7.57031 14.1031 7.57031C14.2577 7.57001 14.4106 7.5392 14.5532 7.47966C14.6958 7.42012 14.8253 7.33302 14.9341 7.22335C15.043 7.11369 15.1291 6.98361 15.1876 6.84058C15.2461 6.69754 15.2758 6.54437 15.275 6.38984Z" fill="#BBBBBB"/>
<path d="M7.07032 10.5039C7.06954 9.9245 7.24059 9.35788 7.56183 8.87568C7.88307 8.39349 8.34008 8.01737 8.87507 7.79489C9.41006 7.57242 9.999 7.51357 10.5674 7.62579C11.1359 7.73801 11.6583 8.01626 12.0686 8.42536C12.4789 8.83446 12.7586 9.35604 12.8725 9.92414C12.9864 10.4922 12.9293 11.0814 12.7084 11.617C12.4875 12.1526 12.1127 12.6107 11.6315 12.9334C11.1502 13.256 10.5841 13.4288 10.0047 13.4297C9.22793 13.4297 8.48286 13.1217 7.93281 12.5733C7.38275 12.0248 7.07259 11.2807 7.07032 10.5039Z" fill="#BBBBBB"/>
</g>
<defs>
<clipPath id="clip0_916_10399">
<rect width="20" height="20" fill="white" transform="translate(0 0.5)"/>
</clipPath>
</defs>
</svg>
