<svg width="20" height="21" viewBox="0 0 20 21" fill="none" xmlns="http://www.w3.org/2000/svg">
<g filter="url(#filter0_d_896_9823)">
<path d="M0 18.1952V2.80477C0.0718937 2.75996 0.0520967 2.67869 0.0698097 2.61566C0.337588 1.58153 0.986194 0.915212 2.00156 0.5969C2.11513 0.560953 2.24225 0.575541 2.34384 0.5H17.6171C17.6296 0.511982 17.6411 0.5323 17.6551 0.534905C18.821 0.726621 19.5551 1.40701 19.9083 2.52032C19.9427 2.62764 19.9281 2.74798 20 2.84384V18.1952C19.9276 18.2395 19.9479 18.3208 19.9297 18.3838C19.6577 19.4346 18.9919 20.103 17.9609 20.4156C17.8474 20.45 17.7223 20.4349 17.6171 20.501H2.30477C2.28705 20.439 2.23027 20.4604 2.1912 20.4489C1.04506 20.168 0.331336 19.4544 0.050013 18.3083C0.0406355 18.2697 0.0614743 18.2129 0 18.1952ZM10.6528 9.3497C10.6528 9.18195 10.6528 9.0142 10.6528 8.84645C10.6486 8.51875 10.5137 8.37757 10.1922 8.37757C9.61292 8.37549 9.0336 8.37549 8.45428 8.37757C8.15056 8.37757 8.00834 8.51875 8.00834 8.81727C8.00834 11.3099 8.00834 13.8029 8.00834 16.2963C8.00834 16.6037 8.15473 16.7475 8.4647 16.7485C9.01172 16.7485 9.55874 16.7485 10.1052 16.7485C10.5283 16.7485 10.6444 16.6308 10.6444 16.201C10.6444 14.9444 10.6418 13.6883 10.6444 12.4323C10.6444 11.9634 10.7486 11.5159 11.0091 11.1163C11.3326 10.6141 11.8104 10.4599 12.3782 10.5386C12.8898 10.6099 13.1993 10.923 13.3603 11.3997C13.4999 11.8134 13.5072 12.2421 13.5066 12.6719C13.5046 13.8764 13.5046 15.0805 13.5066 16.2843C13.5066 16.6084 13.6473 16.7443 13.9755 16.7449C14.5611 16.7449 15.1468 16.7449 15.7327 16.7449C16.0776 16.7449 16.2152 16.6052 16.2146 16.2562C16.2146 14.9152 16.2132 13.5744 16.2105 12.2338C16.213 11.7585 16.1746 11.2839 16.0959 10.8152C15.9713 10.1129 15.7421 9.45546 15.2066 8.94908C14.6481 8.42185 13.9562 8.25723 13.2149 8.24733C12.2037 8.23535 11.2967 8.46249 10.6528 9.3497ZM4.17817 12.5485C4.17817 13.7852 4.17817 15.0218 4.17817 16.2583C4.17817 16.5906 4.33446 16.7485 4.6684 16.7495C5.22167 16.7495 5.77494 16.7495 6.32821 16.7495C6.65746 16.7495 6.81792 16.5933 6.81844 16.2562C6.81844 13.7955 6.81844 11.3349 6.81844 8.87458C6.81844 8.52761 6.66215 8.37601 6.31571 8.37393C5.77598 8.3708 5.23574 8.3708 4.69497 8.37393C4.32248 8.37393 4.17817 8.52292 4.17817 8.89489C4.17817 10.1136 4.17817 11.3315 4.17817 12.5485ZM7.19979 5.97382C7.20418 5.63807 7.10923 5.30852 6.92686 5.02658C6.74449 4.74465 6.48285 4.52291 6.17482 4.38925C5.8668 4.25559 5.52613 4.21596 5.19565 4.27535C4.86517 4.33475 4.55962 4.49051 4.31741 4.72306C4.07519 4.95561 3.90713 5.25457 3.83434 5.58236C3.76155 5.91015 3.78728 6.25215 3.9083 6.56535C4.02932 6.87856 4.24023 7.14901 4.51451 7.3427C4.78879 7.53639 5.11421 7.64467 5.44986 7.65395C5.67542 7.66025 5.89998 7.6216 6.11046 7.54024C6.32093 7.45889 6.51311 7.33645 6.67579 7.18008C6.83847 7.0237 6.9684 6.83651 7.058 6.62941C7.14761 6.42232 7.1951 6.19946 7.19771 5.97382H7.19979Z" fill="#BBBBBB"/>
</g>
<defs>
<filter id="filter0_d_896_9823" x="-4" y="0.5" width="28" height="28.001" filterUnits="userSpaceOnUse" color-interpolation-filters="sRGB">
<feFlood flood-opacity="0" result="BackgroundImageFix"/>
<feColorMatrix in="SourceAlpha" type="matrix" values="0 0 0 0 0 0 0 0 0 0 0 0 0 0 0 0 0 0 127 0" result="hardAlpha"/>
<feOffset dy="4"/>
<feGaussianBlur stdDeviation="2"/>
<feComposite in2="hardAlpha" operator="out"/>
<feColorMatrix type="matrix" values="0 0 0 0 0 0 0 0 0 0 0 0 0 0 0 0 0 0 0.25 0"/>
<feBlend mode="normal" in2="BackgroundImageFix" result="effect1_dropShadow_896_9823"/>
<feBlend mode="normal" in="SourceGraphic" in2="effect1_dropShadow_896_9823" result="shape"/>
</filter>
</defs>
</svg>
