<svg width="2322" height="1814" viewBox="0 0 2322 1814" fill="none" xmlns="http://www.w3.org/2000/svg">
<path d="M1451.27 688.84L1322.09 818.02V581.08H1451.27V688.84Z" fill="#0166FF"/>
<path d="M1304.09 326.18H1067.16V563.11H1304.09V326.18Z" fill="#008CFF"/>
<path d="M1559 326.18H1322.07V563.11H1559V326.18Z" fill="#008CFF"/>
<path d="M1689 190H1443.07L1322.07 307.93H1568L1689 190Z" fill="#25C2FF"/>
<path d="M1422.93 190H1177L1056 307.93H1301.93L1422.93 190Z" fill="#25C2FF"/>
<path d="M900.93 826H786L665 943.93H900.93V826Z" fill="#25C2FF"/>
<path d="M1304.09 581.08H1067.16V818.01H1304.09V581.08Z" fill="#008CFF"/>
<path d="M902.071 1202.07H665.141V965.14H902.071V1202.07Z" fill="#008CFF"/>
<path d="M1049.25 563.11L920.07 692.29V455.35L1049.25 326.18V563.11Z" fill="#0166FF"/>
<path d="M1706.15 433.93L1576.97 563.11V326.18L1706.15 197V433.93Z" fill="#0166FF"/>
<path d="M1047.59 817.97L921.721 943.84V712.97L1047.59 587.1V817.97Z" fill="#0166FF"/>
<path d="M1049.25 1072.92L920.07 1202.1V965.17L1049.25 835.99V1072.92Z" fill="#0166FF"/>
<mask id="path-13-outside-1_371_44" maskUnits="userSpaceOnUse" x="135" y="1397.67" width="2102" height="351" fill="black">
<rect fill="white" x="135" y="1397.67" width="2102" height="351"/>
<path fill-rule="evenodd" clip-rule="evenodd" d="M774.65 1403.67H833.43V1420.93H774.65C748.7 1420.93 728.58 1427.89 714.84 1441.63C701.11 1455.37 694.14 1475.58 694.14 1501.69V1644.38C694.14 1657.31 695.95 1668.97 699.54 1679.04C703.06 1688.94 708.29 1697.41 715.08 1704.19C721.87 1710.99 730.3 1716.26 740.15 1719.87C750.13 1723.53 761.73 1725.38 774.65 1725.38H833.43V1741.92H774.65C744.02 1741.92 719.84 1733.28 702.8 1716.23C685.6 1699.03 676.87 1674.85 676.87 1644.38V1501.69C676.87 1471.22 685.59 1447.05 702.8 1429.84C720.17 1412.48 744.34 1403.67 774.65 1403.67ZM141 1403.67H297.56H297.57V1420.94H158.27V1546.6H297.57V1563.63H158.27V1738.78H141V1403.67ZM410.38 1431.33C426.16 1412.98 447.82 1403.67 474.74 1403.67L474.75 1403.69C509.4 1403.69 539.75 1411.18 564.97 1425.94L569.46 1428.57L566.66 1432.95L562.78 1439.01L560.66 1442.32L556.94 1441.05C518.08 1427.73 490.42 1420.97 474.74 1420.97C452.65 1420.97 435.91 1428 423.56 1442.46C413.28 1454.56 408.28 1468.08 408.28 1483.8C408.28 1511.2 421.93 1531.29 450.03 1545.19C453.05 1546.62 458.38 1549.04 465.88 1552.39L465.93 1552.41L465.98 1552.44C479.21 1558.74 502.72 1570.5 535.87 1587.39L535.91 1587.41L535.95 1587.43C569.7 1605.41 586.81 1630.86 586.81 1663.07C586.81 1681.95 580.14 1699.5 566.99 1715.21L566.97 1715.23L566.95 1715.25C551.81 1732.97 531.54 1741.95 506.7 1741.95C488.64 1741.95 468.95 1738.44 448.14 1731.5C428.09 1724.59 410.08 1715.67 394.6 1704.96L390.36 1702.02L393.43 1697.87L397.55 1692.3L399.94 1689.06L403.61 1690.7C455.05 1713.72 489.73 1725.39 506.71 1725.39C526.03 1725.39 541.52 1718.42 554.04 1704.1C564.63 1691.68 569.78 1678.25 569.78 1663.04C569.78 1646.19 564.09 1632.38 552.35 1620.79C544.36 1612.8 530.78 1603.99 511.98 1594.59L458.2 1567.7C446.48 1561.84 433.87 1554.66 420.71 1546.38L420.42 1546.2L420.16 1545.98C400.81 1529.72 391 1508.79 391 1483.77C391 1464.23 397.51 1446.6 410.38 1431.33ZM955.23 1432.27C974.21 1413.29 997.57 1403.67 1024.66 1403.67C1051.75 1403.67 1075.11 1413.29 1094.09 1432.27C1113.07 1451.25 1122.69 1474.61 1122.69 1501.7V1644.39C1122.69 1671.49 1113.06 1694.77 1094.06 1713.61C1074.92 1732.4 1051.75 1741.93 1024.66 1741.93C997.57 1741.93 974.22 1732.4 955.23 1713.58C936.42 1694.76 926.88 1671.48 926.88 1644.39V1501.7C926.88 1474.79 936.4 1451.44 955.23 1432.27ZM967.63 1701.89C983.43 1717.7 1002.09 1725.38 1024.66 1725.38C1047.39 1725.38 1065.96 1717.86 1081.93 1701.89C1097.9 1685.92 1105.66 1667.11 1105.66 1644.38V1501.69C1105.66 1479.29 1097.9 1460.63 1081.93 1444.66C1065.96 1428.69 1047.23 1420.93 1024.66 1420.93C1002.09 1420.93 983.43 1428.61 967.63 1444.42C951.82 1460.22 944.14 1478.96 944.14 1501.69V1644.38C944.14 1667.28 951.82 1686.09 967.63 1701.89ZM1212.74 1403.67H1306.16V1403.68C1331.77 1403.68 1353.67 1409.76 1371.24 1421.75C1396 1438.66 1408.55 1465.56 1408.55 1501.71C1408.55 1552.1 1385.93 1583.46 1341.29 1595.02L1407.8 1730.13L1410.17 1734.94L1405.2 1736.96L1398.66 1739.62L1394.35 1741.38L1392.29 1737.2L1323.86 1598.45C1318.14 1599.14 1312.2 1599.48 1306.17 1599.48H1230.01V1738.78H1212.74V1403.67ZM1306.17 1420.94H1230.01V1582.22H1306.17C1328.78 1582.22 1347.47 1577.29 1361.78 1567.55C1381.8 1554.21 1391.53 1532.2 1391.53 1501.7C1391.53 1471.2 1381.78 1449.73 1361.72 1436.05C1347.14 1426.02 1328.45 1420.94 1306.17 1420.94ZM1498.61 1403.67H1655.17V1420.94H1515.87V1546.6H1619.31V1563.63H1515.87V1725.39H1655.17V1741.93H1498.61V1403.67ZM2000.01 1407.3H2014.73L2015.87 1410.72L2122.7 1731.23L2124.41 1736.35L2119.17 1737.66L2112.39 1739.36L2107.91 1740.48L2106.44 1736.1L2078.51 1653.02H1936.23L1908.3 1736.1L1906.83 1740.48L1902.35 1739.36L1895.57 1737.66L1890.33 1736.35L1892.04 1731.23L1998.87 1410.72L2000.01 1407.3ZM2007.26 1439.25L1941.75 1635.99H1941.76H2072.99L2007.26 1439.25ZM2213.01 1407.3H2230.28V1738.77H2213.01V1407.3Z"/>
</mask>
<path fill-rule="evenodd" clip-rule="evenodd" d="M774.65 1403.67H833.43V1420.93H774.65C748.7 1420.93 728.58 1427.89 714.84 1441.63C701.11 1455.37 694.14 1475.58 694.14 1501.69V1644.38C694.14 1657.31 695.95 1668.97 699.54 1679.04C703.06 1688.94 708.29 1697.41 715.08 1704.19C721.87 1710.99 730.3 1716.26 740.15 1719.87C750.13 1723.53 761.73 1725.38 774.65 1725.38H833.43V1741.92H774.65C744.02 1741.92 719.84 1733.28 702.8 1716.23C685.6 1699.03 676.87 1674.85 676.87 1644.38V1501.69C676.87 1471.22 685.59 1447.05 702.8 1429.84C720.17 1412.48 744.34 1403.67 774.65 1403.67ZM141 1403.67H297.56H297.57V1420.94H158.27V1546.6H297.57V1563.63H158.27V1738.78H141V1403.67ZM410.38 1431.33C426.16 1412.98 447.82 1403.67 474.74 1403.67L474.75 1403.69C509.4 1403.69 539.75 1411.18 564.97 1425.94L569.46 1428.57L566.66 1432.95L562.78 1439.01L560.66 1442.32L556.94 1441.05C518.08 1427.73 490.42 1420.97 474.74 1420.97C452.65 1420.97 435.91 1428 423.56 1442.46C413.28 1454.56 408.28 1468.08 408.28 1483.8C408.28 1511.2 421.93 1531.29 450.03 1545.19C453.05 1546.62 458.38 1549.04 465.88 1552.39L465.93 1552.41L465.98 1552.44C479.21 1558.74 502.72 1570.5 535.87 1587.39L535.91 1587.41L535.95 1587.43C569.7 1605.41 586.81 1630.86 586.81 1663.07C586.81 1681.95 580.14 1699.5 566.99 1715.21L566.97 1715.23L566.95 1715.25C551.81 1732.97 531.54 1741.95 506.7 1741.95C488.64 1741.95 468.95 1738.44 448.14 1731.5C428.09 1724.59 410.08 1715.67 394.6 1704.96L390.36 1702.02L393.43 1697.87L397.55 1692.3L399.94 1689.06L403.61 1690.7C455.05 1713.72 489.73 1725.39 506.71 1725.39C526.03 1725.39 541.52 1718.42 554.04 1704.1C564.63 1691.68 569.78 1678.25 569.78 1663.04C569.78 1646.19 564.09 1632.38 552.35 1620.79C544.36 1612.8 530.78 1603.99 511.98 1594.59L458.2 1567.7C446.48 1561.84 433.87 1554.66 420.71 1546.38L420.42 1546.2L420.16 1545.98C400.81 1529.72 391 1508.79 391 1483.77C391 1464.23 397.51 1446.6 410.38 1431.33ZM955.23 1432.27C974.21 1413.29 997.57 1403.67 1024.66 1403.67C1051.75 1403.67 1075.11 1413.29 1094.09 1432.27C1113.07 1451.25 1122.69 1474.61 1122.69 1501.7V1644.39C1122.69 1671.49 1113.06 1694.77 1094.06 1713.61C1074.92 1732.4 1051.75 1741.93 1024.66 1741.93C997.57 1741.93 974.22 1732.4 955.23 1713.58C936.42 1694.76 926.88 1671.48 926.88 1644.39V1501.7C926.88 1474.79 936.4 1451.44 955.23 1432.27ZM967.63 1701.89C983.43 1717.7 1002.09 1725.38 1024.66 1725.38C1047.39 1725.38 1065.96 1717.86 1081.93 1701.89C1097.9 1685.92 1105.66 1667.11 1105.66 1644.38V1501.69C1105.66 1479.29 1097.9 1460.63 1081.93 1444.66C1065.96 1428.69 1047.23 1420.93 1024.66 1420.93C1002.09 1420.93 983.43 1428.61 967.63 1444.42C951.82 1460.22 944.14 1478.96 944.14 1501.69V1644.38C944.14 1667.28 951.82 1686.09 967.63 1701.89ZM1212.74 1403.67H1306.16V1403.68C1331.77 1403.68 1353.67 1409.76 1371.24 1421.75C1396 1438.66 1408.55 1465.56 1408.55 1501.71C1408.55 1552.1 1385.93 1583.46 1341.29 1595.02L1407.8 1730.13L1410.17 1734.94L1405.2 1736.96L1398.66 1739.62L1394.35 1741.38L1392.29 1737.2L1323.86 1598.45C1318.14 1599.14 1312.2 1599.48 1306.17 1599.48H1230.01V1738.78H1212.74V1403.67ZM1306.17 1420.94H1230.01V1582.22H1306.17C1328.78 1582.22 1347.47 1577.29 1361.78 1567.55C1381.8 1554.21 1391.53 1532.2 1391.53 1501.7C1391.53 1471.2 1381.78 1449.73 1361.72 1436.05C1347.14 1426.02 1328.45 1420.94 1306.17 1420.94ZM1498.61 1403.67H1655.17V1420.94H1515.87V1546.6H1619.31V1563.63H1515.87V1725.39H1655.17V1741.93H1498.61V1403.67ZM2000.01 1407.3H2014.73L2015.87 1410.72L2122.7 1731.23L2124.41 1736.35L2119.17 1737.66L2112.39 1739.36L2107.91 1740.48L2106.44 1736.1L2078.51 1653.02H1936.23L1908.3 1736.1L1906.83 1740.48L1902.35 1739.36L1895.57 1737.66L1890.33 1736.35L1892.04 1731.23L1998.87 1410.72L2000.01 1407.3ZM2007.26 1439.25L1941.75 1635.99H1941.76H2072.99L2007.26 1439.25ZM2213.01 1407.3H2230.28V1738.77H2213.01V1407.3Z" fill="#181824"/>
<path d="M833.43 1403.67H839.43C839.43 1400.36 836.744 1397.67 833.43 1397.67V1403.67ZM833.43 1420.93V1426.93C836.744 1426.93 839.43 1424.24 839.43 1420.93H833.43ZM714.84 1441.63L710.597 1437.39L710.596 1437.39L714.84 1441.63ZM699.54 1679.04L705.193 1677.03L705.192 1677.03L699.54 1679.04ZM715.08 1704.19L719.326 1699.95L719.32 1699.94L715.08 1704.19ZM740.15 1719.87L742.216 1714.24L742.215 1714.24L740.15 1719.87ZM833.43 1725.38H839.43C839.43 1722.07 836.744 1719.38 833.43 1719.38V1725.38ZM833.43 1741.92V1747.92C836.744 1747.92 839.43 1745.23 839.43 1741.92H833.43ZM702.8 1716.23L707.044 1711.99L707.043 1711.99L702.8 1716.23ZM702.8 1429.84L698.559 1425.6L698.557 1425.6L702.8 1429.84ZM141 1403.67V1397.67C137.686 1397.67 135 1400.36 135 1403.67H141ZM297.57 1403.67H303.57C303.57 1400.36 300.884 1397.67 297.57 1397.67V1403.67ZM297.57 1420.94V1426.94C300.884 1426.94 303.57 1424.25 303.57 1420.94H297.57ZM158.27 1420.94V1414.94C154.956 1414.94 152.27 1417.63 152.27 1420.94H158.27ZM158.27 1546.6H152.27C152.27 1549.91 154.956 1552.6 158.27 1552.6V1546.6ZM297.57 1546.6H303.57C303.57 1543.29 300.884 1540.6 297.57 1540.6V1546.6ZM297.57 1563.63V1569.63C300.884 1569.63 303.57 1566.94 303.57 1563.63H297.57ZM158.27 1563.63V1557.63C154.956 1557.63 152.27 1560.32 152.27 1563.63H158.27ZM158.27 1738.78V1744.78C161.584 1744.78 164.27 1742.09 164.27 1738.78H158.27ZM141 1738.78H135C135 1742.09 137.686 1744.78 141 1744.78V1738.78ZM474.74 1403.67L480.1 1400.97C479.081 1398.95 477.008 1397.67 474.74 1397.67V1403.67ZM410.38 1431.33L405.831 1427.42C405.818 1427.43 405.805 1427.45 405.793 1427.46L410.38 1431.33ZM474.75 1403.69L469.39 1406.39C470.409 1408.41 472.483 1409.69 474.75 1409.69V1403.69ZM564.97 1425.94L568.003 1420.76L568.001 1420.76L564.97 1425.94ZM569.46 1428.57L574.516 1431.8C575.395 1430.43 575.676 1428.75 575.294 1427.17C574.912 1425.58 573.901 1424.22 572.493 1423.39L569.46 1428.57ZM566.66 1432.95L571.713 1436.19L571.716 1436.18L566.66 1432.95ZM562.78 1439.01L567.833 1442.25L567.833 1442.25L562.78 1439.01ZM560.66 1442.32L558.722 1448C561.337 1448.89 564.223 1447.88 565.713 1445.56L560.66 1442.32ZM556.94 1441.05L554.995 1446.73L555.002 1446.73L556.94 1441.05ZM423.56 1442.46L418.998 1438.56C418.995 1438.57 418.991 1438.57 418.988 1438.58L423.56 1442.46ZM450.03 1545.19L447.37 1550.57C447.401 1550.58 447.432 1550.6 447.463 1550.61L450.03 1545.19ZM465.88 1552.39L463.433 1557.87C463.505 1557.9 463.577 1557.93 463.65 1557.96L465.88 1552.39ZM465.93 1552.41L469.011 1547.26C468.739 1547.1 468.455 1546.96 468.161 1546.84L465.93 1552.41ZM465.98 1552.44L462.9 1557.59C463.062 1557.69 463.23 1557.78 463.401 1557.86L465.98 1552.44ZM535.87 1587.39L533.147 1592.74C533.159 1592.74 533.171 1592.75 533.184 1592.75L535.87 1587.39ZM535.91 1587.41L533.224 1592.77L533.227 1592.78L535.91 1587.41ZM535.95 1587.43L538.771 1582.13C538.726 1582.11 538.68 1582.09 538.634 1582.06L535.95 1587.43ZM566.99 1715.21L571.233 1719.45C571.358 1719.33 571.478 1719.2 571.591 1719.06L566.99 1715.21ZM566.97 1715.23L562.728 1710.99L562.721 1710.99L566.97 1715.23ZM566.95 1715.25L562.701 1711.01C562.593 1711.12 562.488 1711.24 562.389 1711.35L566.95 1715.25ZM448.14 1731.5L446.185 1737.17C446.204 1737.18 446.223 1737.19 446.242 1737.19L448.14 1731.5ZM394.6 1704.96L391.182 1709.89L391.187 1709.89L394.6 1704.96ZM390.36 1702.02L385.537 1698.45C384.571 1699.76 384.176 1701.4 384.441 1703C384.705 1704.6 385.608 1706.03 386.942 1706.95L390.36 1702.02ZM393.43 1697.87L398.254 1701.44L398.254 1701.44L393.43 1697.87ZM397.55 1692.3L402.374 1695.87L402.379 1695.86L397.55 1692.3ZM399.94 1689.06L402.388 1683.58C399.814 1682.43 396.786 1683.23 395.112 1685.5L399.94 1689.06ZM403.61 1690.7L406.061 1685.22L406.058 1685.22L403.61 1690.7ZM554.04 1704.1L558.557 1708.05C558.574 1708.03 558.59 1708.01 558.606 1707.99L554.04 1704.1ZM552.35 1620.79L548.108 1625.03C548.117 1625.04 548.126 1625.05 548.135 1625.06L552.35 1620.79ZM511.98 1594.59L509.297 1599.96L511.98 1594.59ZM458.2 1567.7L460.884 1562.33L458.2 1567.7ZM420.71 1546.38L423.906 1541.3C423.896 1541.3 423.885 1541.29 423.875 1541.28L420.71 1546.38ZM420.42 1546.2L416.545 1550.78C416.769 1550.97 417.006 1551.14 417.255 1551.3L420.42 1546.2ZM420.16 1545.98L424.036 1541.4C424.031 1541.4 424.025 1541.39 424.02 1541.39L420.16 1545.98ZM955.23 1432.27L950.987 1428.03C950.975 1428.04 950.962 1428.05 950.95 1428.07L955.23 1432.27ZM1094.06 1713.61L1098.26 1717.89C1098.27 1717.88 1098.28 1717.88 1098.28 1717.87L1094.06 1713.61ZM955.23 1713.58L950.986 1717.82C950.993 1717.83 951 1717.83 951.006 1717.84L955.23 1713.58ZM967.63 1701.89L971.874 1697.65L971.871 1697.65L967.63 1701.89ZM967.63 1444.42L971.871 1448.66L971.874 1448.66L967.63 1444.42ZM1306.16 1403.67H1312.16C1312.16 1400.36 1309.47 1397.67 1306.16 1397.67V1403.67ZM1212.74 1403.67V1397.67C1209.43 1397.67 1206.74 1400.36 1206.74 1403.67H1212.74ZM1306.16 1403.68H1300.16C1300.16 1406.99 1302.85 1409.68 1306.16 1409.68V1403.68ZM1371.24 1421.75L1374.62 1416.8L1374.62 1416.79L1371.24 1421.75ZM1341.29 1595.02L1339.79 1589.21C1338.04 1589.66 1336.59 1590.88 1335.84 1592.52C1335.08 1594.16 1335.11 1596.05 1335.91 1597.67L1341.29 1595.02ZM1407.8 1730.13L1402.42 1732.78L1402.42 1732.78L1407.8 1730.13ZM1410.17 1734.94L1412.43 1740.5C1413.97 1739.87 1415.19 1738.63 1415.78 1737.07C1416.37 1735.52 1416.29 1733.78 1415.55 1732.29L1410.17 1734.94ZM1405.2 1736.96L1402.94 1731.4L1402.94 1731.4L1405.2 1736.96ZM1398.66 1739.62L1396.4 1734.06L1396.39 1734.07L1398.66 1739.62ZM1394.35 1741.38L1388.97 1744.03C1390.36 1746.86 1393.7 1748.13 1396.62 1746.93L1394.35 1741.38ZM1392.29 1737.2L1397.67 1734.55L1397.67 1734.55L1392.29 1737.2ZM1323.86 1598.45L1329.24 1595.8C1328.11 1593.51 1325.67 1592.19 1323.14 1592.49L1323.86 1598.45ZM1230.01 1599.48V1593.48C1226.7 1593.48 1224.01 1596.17 1224.01 1599.48H1230.01ZM1230.01 1738.78V1744.78C1233.32 1744.78 1236.01 1742.09 1236.01 1738.78H1230.01ZM1212.74 1738.78H1206.74C1206.74 1742.09 1209.43 1744.78 1212.74 1744.78V1738.78ZM1230.01 1420.94V1414.94C1226.7 1414.94 1224.01 1417.63 1224.01 1420.94H1230.01ZM1230.01 1582.22H1224.01C1224.01 1585.53 1226.7 1588.22 1230.01 1588.22V1582.22ZM1361.78 1567.55L1358.45 1562.56C1358.44 1562.57 1358.42 1562.58 1358.4 1562.59L1361.78 1567.55ZM1361.72 1436.05L1358.32 1440.99C1358.33 1441 1358.33 1441 1358.34 1441.01L1361.72 1436.05ZM1655.17 1403.67H1661.17C1661.17 1400.36 1658.48 1397.67 1655.17 1397.67V1403.67ZM1498.61 1403.67V1397.67C1495.3 1397.67 1492.61 1400.36 1492.61 1403.67H1498.61ZM1655.17 1420.94V1426.94C1658.48 1426.94 1661.17 1424.25 1661.17 1420.94H1655.17ZM1515.87 1420.94V1414.94C1512.56 1414.94 1509.87 1417.63 1509.87 1420.94H1515.87ZM1515.87 1546.6H1509.87C1509.87 1549.91 1512.56 1552.6 1515.87 1552.6V1546.6ZM1619.31 1546.6H1625.31C1625.31 1543.29 1622.62 1540.6 1619.31 1540.6V1546.6ZM1619.31 1563.63V1569.63C1622.62 1569.63 1625.31 1566.94 1625.31 1563.63H1619.31ZM1515.87 1563.63V1557.63C1512.56 1557.63 1509.87 1560.32 1509.87 1563.63H1515.87ZM1515.87 1725.39H1509.87C1509.87 1728.7 1512.56 1731.39 1515.87 1731.39V1725.39ZM1655.17 1725.39H1661.17C1661.17 1722.08 1658.48 1719.39 1655.17 1719.39V1725.39ZM1655.17 1741.93V1747.93C1658.48 1747.93 1661.17 1745.24 1661.17 1741.93H1655.17ZM1498.61 1741.93H1492.61C1492.61 1745.24 1495.3 1747.93 1498.61 1747.93V1741.93ZM2014.73 1407.3L2020.42 1405.4C2019.61 1402.95 2017.31 1401.3 2014.73 1401.3V1407.3ZM2000.01 1407.3V1401.3C1997.43 1401.3 1995.13 1402.95 1994.32 1405.4L2000.01 1407.3ZM2015.87 1410.72L2021.56 1408.82V1408.82L2015.87 1410.72ZM2122.7 1731.23L2117.01 1733.13L2117.01 1733.13L2122.7 1731.23ZM2124.41 1736.35L2125.87 1742.17C2127.49 1741.77 2128.87 1740.7 2129.67 1739.24C2130.47 1737.77 2130.63 1736.03 2130.1 1734.45L2124.41 1736.35ZM2119.17 1737.66L2117.71 1731.84L2117.71 1731.84L2119.17 1737.66ZM2112.39 1739.36L2113.85 1745.18L2113.85 1745.18L2112.39 1739.36ZM2107.91 1740.48L2102.22 1742.39C2103.22 1745.36 2106.33 1747.06 2109.37 1746.3L2107.91 1740.48ZM2106.44 1736.1L2112.13 1734.19L2112.13 1734.19L2106.44 1736.1ZM2078.51 1653.02L2084.2 1651.11C2083.38 1648.67 2081.09 1647.02 2078.51 1647.02V1653.02ZM1936.23 1653.02V1647.02C1933.65 1647.02 1931.36 1648.67 1930.54 1651.11L1936.23 1653.02ZM1908.3 1736.1L1902.61 1734.19L1902.61 1734.19L1908.3 1736.1ZM1906.83 1740.48L1905.37 1746.3C1908.41 1747.06 1911.52 1745.36 1912.52 1742.39L1906.83 1740.48ZM1902.35 1739.36L1900.89 1745.18L1900.89 1745.18L1902.35 1739.36ZM1895.57 1737.66L1897.03 1731.84L1897.03 1731.84L1895.57 1737.66ZM1890.33 1736.35L1884.64 1734.45C1884.11 1736.03 1884.27 1737.77 1885.07 1739.24C1885.87 1740.7 1887.25 1741.77 1888.87 1742.17L1890.33 1736.35ZM1892.04 1731.23L1897.73 1733.13L1897.73 1733.13L1892.04 1731.23ZM1998.87 1410.72L1993.18 1408.82V1408.82L1998.87 1410.72ZM1941.75 1635.99L1936.06 1634.09C1935.45 1635.92 1935.76 1637.93 1936.88 1639.5C1938.01 1641.06 1939.82 1641.99 1941.75 1641.99V1635.99ZM2007.26 1439.25L2012.95 1437.35C2012.13 1434.9 2009.84 1433.25 2007.26 1433.25C2004.67 1433.25 2002.38 1434.9 2001.57 1437.35L2007.26 1439.25ZM2072.99 1635.99V1641.99C2074.92 1641.99 2076.73 1641.06 2077.86 1639.5C2078.99 1637.93 2079.29 1635.92 2078.68 1634.09L2072.99 1635.99ZM2230.28 1407.3H2236.28C2236.28 1403.99 2233.59 1401.3 2230.28 1401.3V1407.3ZM2213.01 1407.3V1401.3C2209.7 1401.3 2207.01 1403.99 2207.01 1407.3H2213.01ZM2230.28 1738.77V1744.77C2233.59 1744.77 2236.28 1742.08 2236.28 1738.77H2230.28ZM2213.01 1738.77H2207.01C2207.01 1742.08 2209.7 1744.77 2213.01 1744.77V1738.77ZM833.43 1397.67H774.65V1409.67H833.43V1397.67ZM839.43 1420.93V1403.67H827.43V1420.93H839.43ZM774.65 1426.93H833.43V1414.93H774.65V1426.93ZM719.083 1445.87C731.359 1433.6 749.739 1426.93 774.65 1426.93V1414.93C747.661 1414.93 725.801 1422.18 710.597 1437.39L719.083 1445.87ZM700.14 1501.69C700.14 1476.61 706.822 1458.14 719.084 1445.87L710.596 1437.39C695.398 1452.6 688.14 1474.55 688.14 1501.69H700.14ZM700.14 1644.38V1501.69H688.14V1644.38H700.14ZM705.192 1677.03C701.876 1667.72 700.14 1656.77 700.14 1644.38H688.14C688.14 1657.85 690.024 1670.22 693.888 1681.05L705.192 1677.03ZM719.32 1699.94C713.221 1693.85 708.444 1686.17 705.193 1677.03L693.887 1681.05C697.676 1691.71 703.359 1700.97 710.841 1708.44L719.32 1699.94ZM742.215 1714.24C733.107 1710.9 725.443 1706.08 719.326 1699.95L710.834 1708.43C718.297 1715.9 727.493 1721.62 738.085 1725.5L742.215 1714.24ZM774.65 1719.38C762.286 1719.38 751.408 1717.61 742.216 1714.24L738.084 1725.5C748.852 1729.45 761.174 1731.38 774.65 1731.38V1719.38ZM833.43 1719.38H774.65V1731.38H833.43V1719.38ZM839.43 1741.92V1725.38H827.43V1741.92H839.43ZM774.65 1747.92H833.43V1735.92H774.65V1747.92ZM698.556 1720.47C717.006 1738.93 742.882 1747.92 774.65 1747.92V1735.92C745.158 1735.92 722.674 1727.63 707.044 1711.99L698.556 1720.47ZM670.87 1644.38C670.87 1676.02 679.964 1701.88 698.557 1720.47L707.043 1711.99C691.235 1696.18 682.87 1673.68 682.87 1644.38H670.87ZM670.87 1501.69V1644.38H682.87V1501.69H670.87ZM698.557 1425.6C679.954 1444.2 670.87 1470.05 670.87 1501.69H682.87C682.87 1472.39 691.226 1449.9 707.043 1434.08L698.557 1425.6ZM774.65 1397.67C743.143 1397.67 717.304 1406.86 698.559 1425.6L707.041 1434.08C723.036 1418.1 745.537 1409.67 774.65 1409.67V1397.67ZM297.56 1397.67H141V1409.67H297.56V1397.67ZM297.57 1397.67H297.56V1409.67H297.57V1397.67ZM303.57 1420.94V1403.67H291.57V1420.94H303.57ZM158.27 1426.94H297.57V1414.94H158.27V1426.94ZM164.27 1546.6V1420.94H152.27V1546.6H164.27ZM297.57 1540.6H158.27V1552.6H297.57V1540.6ZM303.57 1563.63V1546.6H291.57V1563.63H303.57ZM158.27 1569.63H297.57V1557.63H158.27V1569.63ZM164.27 1738.78V1563.63H152.27V1738.78H164.27ZM141 1744.78H158.27V1732.78H141V1744.78ZM135 1403.67V1738.78H147V1403.67H135ZM474.74 1397.67C446.292 1397.67 422.887 1407.58 405.831 1427.42L414.93 1435.24C429.434 1418.38 449.348 1409.67 474.74 1409.67V1397.67ZM480.11 1400.99L480.1 1400.97L469.38 1406.37L469.39 1406.39L480.11 1400.99ZM568.001 1420.76C541.705 1405.37 510.268 1397.69 474.75 1397.69V1409.69C508.533 1409.69 537.796 1416.99 561.94 1431.12L568.001 1420.76ZM572.493 1423.39L568.003 1420.76L561.938 1431.12L566.428 1433.75L572.493 1423.39ZM571.716 1436.18L574.516 1431.8L564.405 1425.34L561.605 1429.72L571.716 1436.18ZM567.833 1442.25L571.713 1436.19L561.607 1429.71L557.727 1435.77L567.833 1442.25ZM565.713 1445.56L567.833 1442.25L557.728 1435.77L555.608 1439.08L565.713 1445.56ZM555.002 1446.73L558.722 1448L562.599 1436.64L558.879 1435.37L555.002 1446.73ZM474.74 1426.97C489.29 1426.97 516.062 1433.38 554.995 1446.73L558.886 1435.37C520.099 1422.08 491.551 1414.97 474.74 1414.97V1426.97ZM428.123 1446.36C439.143 1433.45 454.091 1426.97 474.74 1426.97V1414.97C451.21 1414.97 432.677 1422.55 418.998 1438.56L428.123 1446.36ZM414.28 1483.8C414.28 1469.52 418.764 1457.37 428.133 1446.34L418.988 1438.58C407.797 1451.75 402.28 1466.64 402.28 1483.8H414.28ZM452.691 1539.81C439.313 1533.19 429.782 1525.31 423.58 1516.18C417.411 1507.11 414.28 1496.45 414.28 1483.8H402.28C402.28 1498.55 405.974 1511.63 413.656 1522.93C421.304 1534.18 432.648 1543.29 447.37 1550.57L452.691 1539.81ZM468.327 1546.91C460.825 1543.56 455.551 1541.17 452.598 1539.77L447.463 1550.61C450.55 1552.07 455.936 1554.52 463.433 1557.87L468.327 1546.91ZM468.161 1546.84L468.111 1546.82L463.65 1557.96L463.7 1557.98L468.161 1546.84ZM469.061 1547.29L469.011 1547.26L462.85 1557.56L462.9 1557.59L469.061 1547.29ZM538.594 1582.04C505.448 1565.16 481.872 1553.36 468.56 1547.02L463.401 1557.86C476.549 1564.12 499.993 1575.84 533.147 1592.74L538.594 1582.04ZM538.597 1582.05L538.557 1582.03L533.184 1592.75L533.224 1592.77L538.597 1582.05ZM538.634 1582.06L538.594 1582.04L533.227 1592.78L533.267 1592.8L538.634 1582.06ZM592.81 1663.07C592.81 1628.19 574.038 1600.92 538.771 1582.13L533.129 1592.73C565.363 1609.9 580.81 1633.53 580.81 1663.07H592.81ZM571.591 1719.06C585.563 1702.37 592.81 1683.48 592.81 1663.07H580.81C580.81 1680.42 574.718 1696.63 562.389 1711.36L571.591 1719.06ZM571.213 1719.47L571.233 1719.45L562.748 1710.97L562.728 1710.99L571.213 1719.47ZM571.199 1719.49L571.219 1719.47L562.721 1710.99L562.701 1711.01L571.199 1719.49ZM506.7 1747.95C533.163 1747.95 555.149 1738.3 571.512 1719.15L562.389 1711.35C548.472 1727.64 529.918 1735.95 506.7 1735.95V1747.95ZM446.242 1737.19C467.539 1744.29 487.875 1747.95 506.7 1747.95V1735.95C489.406 1735.95 470.362 1732.59 450.039 1725.81L446.242 1737.19ZM391.187 1709.89C407.171 1720.95 425.684 1730.11 446.185 1737.17L450.095 1725.83C430.497 1719.07 412.989 1710.39 398.014 1700.03L391.187 1709.89ZM386.942 1706.95L391.182 1709.89L398.019 1700.03L393.779 1697.09L386.942 1706.95ZM388.607 1694.3L385.537 1698.45L395.184 1705.59L398.254 1701.44L388.607 1694.3ZM392.727 1688.73L388.607 1694.3L398.254 1701.44L402.374 1695.87L392.727 1688.73ZM395.112 1685.5L392.722 1688.74L402.379 1695.86L404.769 1692.62L395.112 1685.5ZM406.058 1685.22L402.388 1683.58L397.493 1694.54L401.163 1696.18L406.058 1685.22ZM506.71 1719.39C499.266 1719.39 487.144 1716.76 469.996 1710.99C453.026 1705.28 431.689 1696.69 406.061 1685.22L401.16 1696.18C426.972 1707.73 448.695 1716.48 466.169 1722.36C483.467 1728.18 497.175 1731.39 506.71 1731.39V1719.39ZM549.523 1700.15C538.163 1713.14 524.33 1719.39 506.71 1719.39V1731.39C527.731 1731.39 544.878 1723.7 558.557 1708.05L549.523 1700.15ZM563.78 1663.04C563.78 1676.71 559.213 1688.79 549.475 1700.21L558.606 1707.99C570.048 1694.57 575.78 1679.79 575.78 1663.04H563.78ZM548.135 1625.06C558.704 1635.49 563.78 1647.75 563.78 1663.04H575.78C575.78 1644.63 569.477 1629.27 556.566 1616.52L548.135 1625.06ZM509.297 1599.96C527.928 1609.27 540.812 1617.74 548.108 1625.03L556.593 1616.55C547.909 1607.86 533.633 1598.71 514.664 1589.22L509.297 1599.96ZM455.517 1573.07L509.297 1599.96L514.664 1589.22L460.884 1562.33L455.517 1573.07ZM417.515 1551.46C430.808 1559.82 443.591 1567.1 455.517 1573.07L460.884 1562.33C449.37 1556.58 436.932 1549.5 423.906 1541.3L417.515 1551.46ZM417.255 1551.3L417.545 1551.48L423.875 1541.28L423.585 1541.1L417.255 1551.3ZM416.285 1550.56L416.545 1550.78L424.296 1541.62L424.036 1541.4L416.285 1550.56ZM385 1483.77C385 1510.58 395.61 1533.19 416.3 1550.57L424.02 1541.39C406.011 1526.25 397 1507 397 1483.77H385ZM405.793 1427.46C392.031 1443.79 385 1462.78 385 1483.77H397C397 1465.68 402.989 1449.41 414.968 1435.2L405.793 1427.46ZM1024.66 1397.67C995.996 1397.67 971.105 1407.91 950.987 1428.03L959.473 1436.51C977.315 1418.67 999.144 1409.67 1024.66 1409.67V1397.67ZM1098.33 1428.03C1078.22 1407.91 1053.32 1397.67 1024.66 1397.67V1409.67C1050.18 1409.67 1072 1418.67 1089.85 1436.51L1098.33 1428.03ZM1128.69 1501.7C1128.69 1473.04 1118.45 1448.14 1098.33 1428.03L1089.85 1436.51C1107.69 1454.36 1116.69 1476.18 1116.69 1501.7H1128.69ZM1128.69 1644.39V1501.7H1116.69V1644.39H1128.69ZM1098.28 1717.87C1118.44 1697.89 1128.69 1673.07 1128.69 1644.39H1116.69C1116.69 1669.91 1107.68 1691.65 1089.84 1709.35L1098.28 1717.87ZM1024.66 1747.93C1053.32 1747.93 1078 1737.78 1098.26 1717.89L1089.86 1709.33C1071.84 1727.02 1050.18 1735.93 1024.66 1735.93V1747.93ZM951.006 1717.84C971.137 1737.79 996.013 1747.93 1024.66 1747.93V1735.93C999.127 1735.93 977.303 1727.01 959.453 1709.32L951.006 1717.84ZM920.88 1644.39C920.88 1673.04 931.029 1697.85 950.986 1717.82L959.474 1709.34C941.811 1691.67 932.88 1669.92 932.88 1644.39H920.88ZM920.88 1501.7V1644.39H932.88V1501.7H920.88ZM950.95 1428.07C931.013 1448.36 920.88 1473.22 920.88 1501.7H932.88C932.88 1476.36 941.787 1454.52 959.51 1436.47L950.95 1428.07ZM1024.66 1719.38C1003.66 1719.38 986.535 1712.32 971.874 1697.65L963.386 1706.13C980.325 1723.08 1000.52 1731.38 1024.66 1731.38V1719.38ZM1077.69 1697.65C1062.87 1712.46 1045.84 1719.38 1024.66 1719.38V1731.38C1048.94 1731.38 1069.05 1723.26 1086.17 1706.13L1077.69 1697.65ZM1099.66 1644.38C1099.66 1665.53 1092.52 1682.81 1077.69 1697.65L1086.17 1706.13C1103.28 1689.03 1111.66 1668.69 1111.66 1644.38H1099.66ZM1099.66 1501.69V1644.38H1111.66V1501.69H1099.66ZM1077.69 1448.9C1092.54 1463.76 1099.66 1480.89 1099.66 1501.69H1111.66C1111.66 1477.69 1103.26 1457.5 1086.17 1440.42L1077.69 1448.9ZM1024.66 1426.93C1045.64 1426.93 1062.84 1434.06 1077.69 1448.9L1086.17 1440.42C1069.08 1423.32 1048.82 1414.93 1024.66 1414.93V1426.93ZM971.874 1448.66C986.535 1433.99 1003.66 1426.93 1024.66 1426.93V1414.93C1000.52 1414.93 980.325 1423.23 963.386 1440.18L971.874 1448.66ZM950.14 1501.69C950.14 1480.52 957.21 1463.32 971.871 1448.66L963.389 1440.18C946.43 1457.12 938.14 1477.4 938.14 1501.69H950.14ZM950.14 1644.38V1501.69H938.14V1644.38H950.14ZM971.871 1697.65C957.219 1683 950.14 1665.73 950.14 1644.38H938.14C938.14 1668.83 946.422 1689.18 963.389 1706.13L971.871 1697.65ZM1306.16 1397.67H1212.74V1409.67H1306.16V1397.67ZM1312.16 1403.68V1403.67H1300.16V1403.68H1312.16ZM1374.62 1416.79C1355.87 1404 1332.73 1397.68 1306.16 1397.68V1409.68C1330.81 1409.68 1351.47 1415.52 1367.86 1426.71L1374.62 1416.79ZM1414.55 1501.71C1414.55 1464.04 1401.37 1435.06 1374.62 1416.8L1367.86 1426.7C1390.63 1442.26 1402.55 1467.08 1402.55 1501.71H1414.55ZM1342.79 1600.83C1366.19 1594.77 1384.32 1583.37 1396.53 1566.44C1408.7 1549.56 1414.55 1527.78 1414.55 1501.71H1402.55C1402.55 1526.03 1397.09 1545.13 1386.79 1559.42C1376.53 1573.65 1361.03 1583.71 1339.79 1589.21L1342.79 1600.83ZM1413.18 1727.48L1346.67 1592.37L1335.91 1597.67L1402.42 1732.78L1413.18 1727.48ZM1415.55 1732.29L1413.18 1727.48L1402.42 1732.78L1404.79 1737.59L1415.55 1732.29ZM1407.46 1742.52L1412.43 1740.5L1407.91 1729.38L1402.94 1731.4L1407.46 1742.52ZM1400.92 1745.18L1407.46 1742.52L1402.94 1731.4L1396.4 1734.06L1400.92 1745.18ZM1396.62 1746.93L1400.93 1745.17L1396.39 1734.07L1392.08 1735.83L1396.62 1746.93ZM1386.91 1739.85L1388.97 1744.03L1399.73 1738.73L1397.67 1734.55L1386.91 1739.85ZM1318.48 1601.1L1386.91 1739.85L1397.67 1734.55L1329.24 1595.8L1318.48 1601.1ZM1306.17 1605.48C1312.42 1605.48 1318.6 1605.13 1324.58 1604.41L1323.14 1592.49C1317.68 1593.15 1311.98 1593.48 1306.17 1593.48V1605.48ZM1230.01 1605.48H1306.17V1593.48H1230.01V1605.48ZM1236.01 1738.78V1599.48H1224.01V1738.78H1236.01ZM1212.74 1744.78H1230.01V1732.78H1212.74V1744.78ZM1206.74 1403.67V1738.78H1218.74V1403.67H1206.74ZM1230.01 1426.94H1306.17V1414.94H1230.01V1426.94ZM1236.01 1582.22V1420.94H1224.01V1582.22H1236.01ZM1306.17 1576.22H1230.01V1588.22H1306.17V1576.22ZM1358.4 1562.59C1345.35 1571.47 1327.94 1576.22 1306.17 1576.22V1588.22C1329.62 1588.22 1349.59 1583.11 1365.16 1572.51L1358.4 1562.59ZM1385.53 1501.7C1385.53 1530.86 1376.31 1550.66 1358.45 1562.56L1365.11 1572.54C1387.29 1557.77 1397.53 1533.54 1397.53 1501.7H1385.53ZM1358.34 1441.01C1376.34 1453.28 1385.53 1472.61 1385.53 1501.7H1397.53C1397.53 1469.79 1387.22 1446.18 1365.1 1431.09L1358.34 1441.01ZM1306.17 1426.94C1327.55 1426.94 1344.97 1431.81 1358.32 1440.99L1365.12 1431.11C1349.31 1420.23 1329.35 1414.94 1306.17 1414.94V1426.94ZM1655.17 1397.67H1498.61V1409.67H1655.17V1397.67ZM1661.17 1420.94V1403.67H1649.17V1420.94H1661.17ZM1515.87 1426.94H1655.17V1414.94H1515.87V1426.94ZM1521.87 1546.6V1420.94H1509.87V1546.6H1521.87ZM1619.31 1540.6H1515.87V1552.6H1619.31V1540.6ZM1625.31 1563.63V1546.6H1613.31V1563.63H1625.31ZM1515.87 1569.63H1619.31V1557.63H1515.87V1569.63ZM1521.87 1725.39V1563.63H1509.87V1725.39H1521.87ZM1655.17 1719.39H1515.87V1731.39H1655.17V1719.39ZM1661.17 1741.93V1725.39H1649.17V1741.93H1661.17ZM1498.61 1747.93H1655.17V1735.93H1498.61V1747.93ZM1492.61 1403.67V1741.93H1504.61V1403.67H1492.61ZM2014.73 1401.3H2000.01V1413.3H2014.73V1401.3ZM2021.56 1408.82L2020.42 1405.4L2009.04 1409.2L2010.18 1412.62L2021.56 1408.82ZM2128.39 1729.33L2021.56 1408.82L2010.18 1412.62L2117.01 1733.13L2128.39 1729.33ZM2130.1 1734.45L2128.39 1729.33L2117.01 1733.13L2118.72 1738.25L2130.1 1734.45ZM2120.63 1743.48L2125.87 1742.17L2122.95 1730.53L2117.71 1731.84L2120.63 1743.48ZM2113.85 1745.18L2120.63 1743.48L2117.71 1731.84L2110.93 1733.54L2113.85 1745.18ZM2109.37 1746.3L2113.85 1745.18L2110.93 1733.54L2106.45 1734.66L2109.37 1746.3ZM2100.75 1738.01L2102.22 1742.39L2113.6 1738.57L2112.13 1734.19L2100.75 1738.01ZM2072.82 1654.93L2100.75 1738.01L2112.13 1734.19L2084.2 1651.11L2072.82 1654.93ZM1936.23 1659.02H2078.51V1647.02H1936.23V1659.02ZM1913.99 1738.01L1941.92 1654.93L1930.54 1651.11L1902.61 1734.19L1913.99 1738.01ZM1912.52 1742.39L1913.99 1738.01L1902.61 1734.19L1901.14 1738.57L1912.52 1742.39ZM1900.89 1745.18L1905.37 1746.3L1908.29 1734.66L1903.81 1733.54L1900.89 1745.18ZM1894.11 1743.48L1900.89 1745.18L1903.81 1733.54L1897.03 1731.84L1894.11 1743.48ZM1888.87 1742.17L1894.11 1743.48L1897.03 1731.84L1891.79 1730.53L1888.87 1742.17ZM1886.35 1729.33L1884.64 1734.45L1896.02 1738.25L1897.73 1733.13L1886.35 1729.33ZM1993.18 1408.82L1886.35 1729.33L1897.73 1733.13L2004.56 1412.62L1993.18 1408.82ZM1994.32 1405.4L1993.18 1408.82L2004.56 1412.62L2005.7 1409.2L1994.32 1405.4ZM1947.44 1637.89L2012.95 1441.15L2001.57 1437.35L1936.06 1634.09L1947.44 1637.89ZM1941.76 1629.99H1941.75V1641.99H1941.76V1629.99ZM2072.99 1629.99H1941.76V1641.99H2072.99V1629.99ZM2001.57 1441.15L2067.3 1637.89L2078.68 1634.09L2012.95 1437.35L2001.57 1441.15ZM2230.28 1401.3H2213.01V1413.3H2230.28V1401.3ZM2236.28 1738.77V1407.3H2224.28V1738.77H2236.28ZM2213.01 1744.77H2230.28V1732.77H2213.01V1744.77ZM2207.01 1407.3V1738.77H2219.01V1407.3H2207.01Z" fill="#181824" mask="url(#path-13-outside-1_371_44)"/>
</svg>
