<svg width="167" height="41" viewBox="0 0 167 41" fill="none" xmlns="http://www.w3.org/2000/svg">
<path d="M34.4167 33V8.21605H49.2774V10.8784H37.4179V19.2527H48.1641V21.915H37.4179V33H34.4167ZM67.9712 14.412C67.826 13.1858 67.2371 12.2338 66.2044 11.5561C65.1718 10.8784 63.9051 10.5395 62.4045 10.5395C61.3073 10.5395 60.3473 10.717 59.5244 11.072C58.7095 11.427 58.0722 11.9151 57.6123 12.5363C57.1605 13.1575 56.9346 13.8634 56.9346 14.6541C56.9346 15.3156 57.092 15.8844 57.4066 16.3604C57.7293 16.8283 58.1408 17.2196 58.641 17.5342C59.1412 17.8408 59.6656 18.0949 60.2142 18.2966C60.7628 18.4903 61.267 18.6476 61.7269 18.7686L64.244 19.4463C64.8894 19.6157 65.6074 19.8497 66.398 20.1482C67.1967 20.4467 67.9591 20.8541 68.6852 21.3704C69.4194 21.8787 70.0245 22.5322 70.5005 23.3309C70.9765 24.1296 71.2145 25.1098 71.2145 26.2715C71.2145 27.6108 70.8635 28.8209 70.1616 29.902C69.4678 30.9831 68.4513 31.8423 67.112 32.4796C65.7809 33.117 64.1633 33.4357 62.2593 33.4357C60.4844 33.4357 58.9475 33.1493 57.6486 32.5764C56.3578 32.0036 55.3413 31.2049 54.599 30.1803C53.8649 29.1557 53.4494 27.9658 53.3526 26.6104H56.4506C56.5313 27.5462 56.8459 28.3207 57.3945 28.9339C57.9512 29.539 58.6531 29.9908 59.5002 30.2893C60.3553 30.5797 61.2751 30.7249 62.2593 30.7249C63.4049 30.7249 64.4336 30.5394 65.3452 30.1682C66.2569 29.7891 66.9789 29.2647 67.5114 28.595C68.0439 27.9174 68.3101 27.1267 68.3101 26.2231C68.3101 25.4002 68.0802 24.7306 67.6203 24.2143C67.1604 23.698 66.5554 23.2784 65.8051 22.9557C65.0548 22.633 64.244 22.3506 63.3727 22.1086L60.3231 21.2373C58.3868 20.6806 56.854 19.886 55.7245 18.8533C54.595 17.8206 54.0303 16.4693 54.0303 14.7993C54.0303 13.4116 54.4054 12.2015 55.1557 11.1688C55.9141 10.1281 56.9306 9.32133 58.2053 8.74852C59.4881 8.16765 60.9201 7.87721 62.5013 7.87721C64.0988 7.87721 65.5187 8.16361 66.7611 8.73642C68.0035 9.30116 68.9878 10.0757 69.7139 11.0599C70.448 12.0442 70.8353 13.1615 70.8756 14.412H67.9712ZM96.0922 15.961H93.091C92.9135 15.0978 92.6029 14.3394 92.1592 13.6859C91.7235 13.0325 91.1911 12.4839 90.5618 12.0401C89.9406 11.5883 89.2508 11.2495 88.4924 11.0236C87.7341 10.7977 86.9434 10.6848 86.1205 10.6848C84.6199 10.6848 83.2605 11.0639 82.0423 11.8223C80.8322 12.5807 79.8681 13.698 79.15 15.1744C78.4401 16.6508 78.0851 18.462 78.0851 20.608C78.0851 22.754 78.4401 24.5652 79.15 26.0416C79.8681 27.518 80.8322 28.6354 82.0423 29.3937C83.2605 30.1521 84.6199 30.5313 86.1205 30.5313C86.9434 30.5313 87.7341 30.4183 88.4924 30.1924C89.2508 29.9665 89.9406 29.6317 90.5618 29.188C91.1911 28.7362 91.7235 28.1836 92.1592 27.5301C92.6029 26.8686 92.9135 26.1102 93.091 25.255H96.0922C95.8663 26.5216 95.4548 27.6552 94.8578 28.6555C94.2608 29.6559 93.5186 30.5071 92.6311 31.209C91.7437 31.9028 90.7473 32.4312 89.6421 32.7943C88.5449 33.1573 87.371 33.3388 86.1205 33.3388C84.0068 33.3388 82.127 32.8225 80.4812 31.7898C78.8354 30.7572 77.5405 29.2889 76.5966 27.3849C75.6527 25.4809 75.1807 23.222 75.1807 20.608C75.1807 17.9941 75.6527 15.7351 76.5966 13.8312C77.5405 11.9272 78.8354 10.4589 80.4812 9.42621C82.127 8.39354 84.0068 7.87721 86.1205 7.87721C87.371 7.87721 88.5449 8.05873 89.6421 8.42178C90.7473 8.78483 91.7437 9.31729 92.6311 10.0192C93.5186 10.713 94.2608 11.5601 94.8578 12.5605C95.4548 13.5528 95.8663 14.6863 96.0922 15.961ZM121.853 20.608C121.853 23.222 121.381 25.4809 120.437 27.3849C119.494 29.2889 118.199 30.7572 116.553 31.7898C114.907 32.8225 113.027 33.3388 110.914 33.3388C108.8 33.3388 106.92 32.8225 105.274 31.7898C103.628 30.7572 102.334 29.2889 101.39 27.3849C100.446 25.4809 99.9738 23.222 99.9738 20.608C99.9738 17.9941 100.446 15.7351 101.39 13.8312C102.334 11.9272 103.628 10.4589 105.274 9.42621C106.92 8.39354 108.8 7.87721 110.914 7.87721C113.027 7.87721 114.907 8.39354 116.553 9.42621C118.199 10.4589 119.494 11.9272 120.437 13.8312C121.381 15.7351 121.853 17.9941 121.853 20.608ZM118.949 20.608C118.949 18.462 118.59 16.6508 117.872 15.1744C117.162 13.698 116.198 12.5807 114.98 11.8223C113.77 11.0639 112.414 10.6848 110.914 10.6848C109.413 10.6848 108.054 11.0639 106.835 11.8223C105.625 12.5807 104.661 13.698 103.943 15.1744C103.233 16.6508 102.878 18.462 102.878 20.608C102.878 22.754 103.233 24.5652 103.943 26.0416C104.661 27.518 105.625 28.6354 106.835 29.3937C108.054 30.1521 109.413 30.5313 110.914 30.5313C112.414 30.5313 113.77 30.1521 114.98 29.3937C116.198 28.6354 117.162 27.518 117.872 26.0416C118.59 24.5652 118.949 22.754 118.949 20.608ZM126.9 33V8.21605H135.274C137.21 8.21605 138.8 8.54683 140.042 9.20838C141.284 9.86186 142.204 10.7614 142.801 11.907C143.398 13.0526 143.697 14.3556 143.697 15.8158C143.697 17.2761 143.398 18.5709 142.801 19.7004C142.204 20.8299 141.288 21.7173 140.054 22.3627C138.82 23.0001 137.242 23.3188 135.322 23.3188H128.545V20.608H135.226C136.549 20.608 137.614 20.4144 138.42 20.0272C139.235 19.6399 139.824 19.0913 140.187 18.3813C140.558 17.6633 140.744 16.8081 140.744 15.8158C140.744 14.8235 140.558 13.9562 140.187 13.214C139.816 12.4718 139.223 11.899 138.408 11.4956C137.593 11.0841 136.516 10.8784 135.177 10.8784H129.901V33H126.9ZM138.566 21.8666L144.665 33H141.179L135.177 21.8666H138.566ZM148.698 33V8.21605H163.655V10.8784H151.699V19.2527H162.881V21.915H151.699V30.3377H163.849V33H148.698Z" fill="#181824"/>
<path d="M13.3116 16.2403H17.9707V19.9581L13.3116 24.6172V16.2403Z" fill="#181824" stroke="white" stroke-width="1.33117"/>
<path d="M21.2984 15.5654V8.47015L25.9575 4.9348V12.03L21.2984 15.5654Z" fill="#181824" stroke="white" stroke-width="1.33117"/>
<rect x="5.32476" y="8.25323" width="7.98701" height="7.98701" fill="#181824" stroke="white" stroke-width="1.33117"/>
<rect x="5.32476" y="16.2403" width="7.98701" height="7.98701" fill="#181824" stroke="white" stroke-width="1.33117"/>
<path d="M0.665585 35.4774V27.4545L5.32468 23.0984V31.7021L0.665585 35.4774Z" fill="#181824" stroke="white" stroke-width="1.33117"/>
<path d="M0.665585 27.5661V20.3298L5.32468 16.3525V24.1191L0.665585 27.5661Z" fill="#181824" stroke="white" stroke-width="1.33117"/>
<path d="M0.665585 20.207V12.5769L5.32468 8.41028V16.5959L0.665585 20.207Z" fill="#181824" stroke="white" stroke-width="1.33117"/>
<path d="M3.99365 8.70828L5.99041 6.92212H3.99365V8.70828Z" fill="white"/>
<rect x="13.3116" y="8.25323" width="7.98701" height="7.98701" fill="#181824" stroke="white" stroke-width="1.33117"/>
<path d="M19.9678 17.2386L21.9645 15.9075L22.2973 17.2386H19.9678Z" fill="white"/>
<path d="M3.32812 7.58763H6.98884L7.32163 4.92529H4.65929L3.32812 7.58763Z" fill="white"/>
<rect x="11.3149" y="24.8928" width="3.99351" height="2.66234" fill="white"/>
</svg>
