<svg width="1440" height="313" viewBox="0 0 1440 313" fill="none" xmlns="http://www.w3.org/2000/svg">
<path opacity="0.4" d="M1159.72 0.140344C1100.1 -4.27844 951.688 96.8706 902 130.932L907.131 343.932H1466.13V113.372C1386.08 96.8015 1234.26 5.66383 1159.72 0.140344Z" fill="url(#paint0_linear_147_382)"/>
<path opacity="0.4" d="M1214.59 43.2082C1154.97 38.7894 1006.56 139.939 956.869 174L962 347H1521V156.44C1440.95 139.869 1289.12 48.7317 1214.59 43.2082Z" fill="url(#paint1_linear_147_382)"/>
<path opacity="0.3" d="M161.952 123.234C31.5612 35.9695 -27.6788 31.418 -41 40.0502V347H1440V221.328C1373.13 235.977 1189.25 235.139 988.648 114.602C737.896 -36.0708 591.79 84.1666 516.138 114.602C424.457 151.485 324.94 232.314 161.952 123.234Z" fill="url(#paint2_linear_147_382)"/>
<path opacity="0.3" d="M201.212 146.133C76.2289 15.7789 -38.339 75.3599 -80 121.445V349H1479V121.445C1453.78 154.911 1370.46 229.744 1238.9 261.345C1074.45 300.846 964.267 121.445 791.593 121.445C618.919 121.445 357.441 309.075 201.212 146.133Z" fill="url(#paint3_linear_147_382)"/>
<defs>
<linearGradient id="paint0_linear_147_382" x1="1301.13" y1="33.9321" x2="941" y2="192" gradientUnits="userSpaceOnUse">
<stop stop-color="#C4C4C4"/>
<stop offset="0.260438" stop-color="#DCDCDC"/>
<stop offset="1" stop-color="white"/>
</linearGradient>
<linearGradient id="paint1_linear_147_382" x1="1356" y1="77" x2="893" y2="256" gradientUnits="userSpaceOnUse">
<stop stop-color="#C4C4C4"/>
<stop offset="0.260438" stop-color="#DCDCDC"/>
<stop offset="1" stop-color="white"/>
</linearGradient>
<linearGradient id="paint2_linear_147_382" x1="746" y1="317" x2="746" y2="37" gradientUnits="userSpaceOnUse">
<stop stop-color="white"/>
<stop offset="1" stop-color="#C0C0C0"/>
</linearGradient>
<linearGradient id="paint3_linear_147_382" x1="821" y1="349" x2="821" y2="133" gradientUnits="userSpaceOnUse">
<stop stop-color="white"/>
<stop offset="1" stop-color="#CCCCCC"/>
</linearGradient>
</defs>
</svg>
