<svg width="262" height="68" viewBox="0 0 262 68" fill="none" xmlns="http://www.w3.org/2000/svg">
<g clip-path="url(#clip0_916_10331)">
<path d="M0.00509825 38.1458C0.00509825 36.684 -0.0151619 35.2178 0.00509825 33.756C0.054623 30.7739 2.06488 28.6004 5.03411 28.3324C5.45282 28.2941 5.57663 28.1928 5.63066 27.7603C7.22446 15.1653 13.863 6.27311 25.749 1.90135C43.6589 -4.68671 62.4085 6.58844 66.0441 24.5305C66.2767 25.6026 66.4369 26.6892 66.5236 27.7828C66.5484 28.1567 66.6474 28.2806 67.0504 28.3369C70.1412 28.7716 71.9533 30.846 71.9691 33.9542C71.9871 36.7966 71.9871 39.6391 71.9691 42.4815C71.9533 45.592 70.1502 47.6461 67.0391 48.0695C66.5439 48.1349 66.5686 48.3961 66.5101 48.7452C65.3057 55.8964 61.3325 60.7817 54.5364 63.3426C52.5791 64.0496 50.507 64.3841 48.4268 64.3291C46.797 64.3133 45.1649 64.3426 43.5329 64.3156C43.3437 64.2871 43.1505 64.3252 42.9863 64.4234C42.8221 64.5216 42.697 64.6737 42.6324 64.8539C41.777 66.6332 40.343 67.6918 38.3755 67.881C36.7247 68.0635 35.0583 68.0544 33.4095 67.854C32.0856 67.6741 30.8771 67.004 30.0227 65.9762C29.1684 64.9483 28.7302 63.6373 28.7947 62.302C28.9748 59.4438 31.1427 57.259 33.9498 57.1622C35.3005 57.1149 36.6512 57.1104 38.0018 57.1622C40.0864 57.2388 41.6352 58.2501 42.5761 60.1037C42.835 60.6173 43.1164 60.7637 43.6589 60.7434C46.0159 60.6533 48.3863 60.8673 50.7365 60.57C56.6659 59.8267 62.0506 54.527 62.8137 48.6754C62.87 48.2385 62.762 48.1191 62.314 48.0605C61.0021 47.9056 59.7944 47.269 58.9248 46.2741C58.0551 45.2792 57.5855 43.9967 57.6069 42.6752C57.5889 39.7472 57.5934 36.8192 57.6069 33.8911C57.6204 30.9631 59.5203 28.7311 62.4333 28.3482C62.9128 28.2851 63.0141 28.168 62.9781 27.6995C62.0776 15.6338 52.8097 5.38119 40.899 3.30004C26.2667 0.743649 12.5776 10.021 9.56788 24.5485C9.34649 25.5934 9.20352 26.6535 9.14017 27.7198C9.11765 28.1072 9.14017 28.2738 9.61965 28.3549C12.6564 28.8685 14.392 30.9564 14.3965 34.0263C14.3965 36.8417 14.3965 39.6564 14.3965 42.4703C14.3965 45.8015 12.1274 48.0741 8.79124 48.1011C7.55312 48.1011 6.315 48.1304 5.07914 48.0786C3.76002 48.0234 2.50967 47.4748 1.57547 46.5413C0.641275 45.6079 0.0912995 44.3576 0.0343631 43.0378C-0.0241661 41.4072 0.0343631 39.7742 0.0343631 38.1413L0.00509825 38.1458ZM3.59114 38.2472C3.59114 39.6256 3.59114 41.0017 3.59114 42.3779C3.59114 43.8284 4.26648 44.5086 5.68694 44.5176C6.69769 44.5176 7.71295 44.5176 8.7192 44.5176C10.0519 44.5064 10.7857 43.8419 10.797 42.5221C10.8195 39.6571 10.8195 36.7906 10.797 33.9227C10.797 32.6051 10.0699 31.9249 8.73496 31.8956C7.69494 31.8776 6.65492 31.8753 5.61715 31.8956C4.28899 31.9204 3.59114 32.6208 3.59114 33.9407C3.58214 35.3822 3.59114 36.8147 3.59114 38.2472ZM68.392 38.2021C68.392 36.7696 68.392 35.3371 68.392 33.9024C68.392 32.6771 67.6964 31.9541 66.4786 31.9159C65.353 31.8821 64.2275 31.8821 63.1019 31.9159C61.9178 31.9519 61.1974 32.6411 61.1862 33.8191C61.1547 36.7426 61.1547 39.6654 61.1862 42.5874C61.1862 43.8442 61.9448 44.5131 63.2302 44.5266C64.2702 44.5356 65.3095 44.5356 66.348 44.5266C67.6807 44.5131 68.374 43.8239 68.3875 42.4995C68.41 41.058 68.392 39.6256 68.392 38.2021ZM35.9758 64.3043C36.6242 64.3043 37.2725 64.3359 37.9163 64.3043C38.1427 64.2988 38.3657 64.2483 38.5723 64.1556C38.7789 64.0629 38.9649 63.93 39.1196 63.7645C39.2743 63.5991 39.3944 63.4044 39.4731 63.192C39.5517 62.9796 39.5873 62.7536 39.5776 62.5272C39.5864 62.3014 39.5506 62.0761 39.4723 61.8641C39.3939 61.6521 39.2747 61.4576 39.1212 61.2917C38.9678 61.1259 38.7832 60.9919 38.578 60.8974C38.3728 60.8029 38.151 60.7498 37.9253 60.7411C36.6354 60.6916 35.3388 60.6871 34.0489 60.7411C33.5972 60.7763 33.176 60.9829 32.8716 61.3185C32.5671 61.6541 32.4023 62.0935 32.4109 62.5467C32.4196 62.9999 32.6009 63.4327 32.918 63.7565C33.235 64.0803 33.6637 64.2706 34.1164 64.2886C34.7287 64.3291 35.35 64.3066 35.9758 64.3043Z" fill="#181824"/>
<path d="M36.9983 13.9127C27.1384 13.9397 19.9978 20.9534 19.802 29.7848C19.7637 31.4583 18.4288 32.4065 17.1277 31.6768C16.3713 31.2511 16.2002 30.5506 16.2114 29.742C16.324 20.6539 22.787 12.737 31.7262 10.7594C43.0336 8.25933 54.1001 16.0006 55.6152 27.4582C55.7129 28.2112 55.767 28.9692 55.7772 29.7285C55.7997 31.0799 55.1897 31.8457 54.0799 31.884C52.9318 31.9268 52.2385 31.1452 52.1957 29.8006C52.0449 25.0594 50.2215 21.0773 46.6737 17.9353C43.6324 15.228 40.0306 13.9239 36.9983 13.9127Z" fill="#181824"/>
</g>
<path opacity="0.6" fill-rule="evenodd" clip-rule="evenodd" d="M107.12 30.8631L86.1005 48.2507L86.1005 58.2556L86.1005 59.2556L87.1005 59.2556L128.35 59.2556L129.35 59.2556L129.35 58.2556L129.35 48.0402L129.35 47.0402L128.35 47.0402L108.506 47.0402L108.34 47.0402L107.615 47.0402L107.34 47.0402L107.34 46.7101L108.144 46.0402L112.622 42.3081C116.914 38.7315 120.225 35.6502 122.554 33.064C124.883 30.4779 126.498 28.121 127.396 25.9934C128.295 23.8475 128.744 21.6923 128.744 19.528C128.744 16.0248 127.836 12.971 126.021 10.3665C124.223 7.76201 121.665 5.74445 118.345 4.31382C115.043 2.86485 111.137 2.14036 106.625 2.14036C102.259 2.14036 98.4534 2.9107 95.207 4.45138C91.9606 5.99206 89.4478 8.19304 87.6687 11.0543C86.041 13.6719 85.1579 16.7501 85.0193 20.2888C85.0064 20.6182 85 20.9515 85 21.2888L86 21.2888L98.5264 21.2888L99.5264 21.2888C99.5264 19.7115 99.8199 18.3725 100.407 17.272C100.994 16.1716 101.819 15.337 102.883 14.7684C103.965 14.1999 105.212 13.9156 106.625 13.9156C108.037 13.9156 109.284 14.1999 110.366 14.7684C111.448 15.3187 112.292 16.1074 112.897 17.1345C113.521 18.1616 113.833 19.3997 113.833 20.8486C113.833 22.1692 113.558 23.3706 113.007 24.4527C112.475 25.5349 111.705 26.5895 110.696 27.6166C109.706 28.6254 108.514 29.7075 107.12 30.8631ZM111.41 28.3172C112.478 27.2301 113.315 26.0921 113.902 24.8999C114.528 23.6669 114.833 22.3102 114.833 20.8486C114.833 19.2569 114.49 17.8329 113.756 16.6211C113.053 15.4313 112.069 14.5139 110.825 13.8801C109.58 13.2273 108.171 12.9156 106.625 12.9156C105.076 12.9156 103.664 13.2283 102.418 13.8832L102.418 13.8832L102.412 13.8865C101.167 14.5518 100.201 15.5325 99.5245 16.8015C98.9794 17.8234 98.6681 18.993 98.565 20.2888L86.0201 20.2888C86.1579 16.913 87.0012 14.0215 88.5179 11.5823C90.1889 8.89492 92.5505 6.81899 95.6358 5.35481C98.7225 3.88989 102.376 3.14036 106.625 3.14036C111.032 3.14036 114.796 3.84825 117.943 5.22953L117.949 5.23218C121.121 6.5993 123.521 8.50569 125.198 10.9345L125.2 10.9384C126.887 13.3578 127.744 16.2072 127.744 19.528C127.744 21.5496 127.325 23.5734 126.474 25.6058C125.635 27.5923 124.099 29.8544 121.811 32.3948C119.527 34.9309 116.256 37.9779 111.982 41.5399L106.7 45.9418L106.34 46.2417L106.34 46.7101L106.34 47.0402L106.34 48.0402L107.34 48.0402L128.35 48.0402L128.35 58.2556L87.1005 58.2556L87.1005 48.7213L107.757 31.6336L107.758 31.6329C109.171 30.4614 110.39 29.3561 111.41 28.3173L111.41 28.3172ZM160.891 20.069L149.855 37.5665L149.502 38.1263L149.502 38.5665L150.2 38.5665L150.407 38.5665L150.502 38.5665L160.891 38.5665L160.891 20.069ZM160.891 39.5665L149.502 39.5665L148.502 39.5665L148.502 38.5665L148.502 38.1263L148.502 37.8373L148.656 37.5928L160.718 18.4687L160.718 3.9107L157.645 3.9107L135.426 38.8574L135.426 49.4517L160.891 49.4517L160.891 39.5665ZM160.891 50.4517L135.426 50.4517L134.426 50.4517L134.426 49.4517L134.426 38.5665L157.096 2.9107L160.718 2.9107L161.718 2.9107L161.718 2.9668L161.891 2.9668L173.207 2.9668L174.207 2.9668L174.207 3.9668L174.207 38.5665L181.957 38.5665L182.957 38.5665L182.957 39.5665L182.957 49.4517L182.957 50.4517L181.957 50.4517L174.207 50.4517L174.207 58.8619L174.207 59.8619L173.207 59.8619L161.891 59.8619L160.891 59.8619L160.891 58.8619L160.891 50.4517ZM174.207 49.4517L181.957 49.4517L181.957 39.5665L174.207 39.5665L174.207 49.4517ZM245.615 16.1261L224.338 58.2556L223.833 59.2556L224.954 59.2556L239.57 59.2556L261.8 15.1261L261.8 3.9107L261.8 2.9107L260.8 2.9107L220.982 2.9107L219.982 2.9107L219.982 3.9107L219.982 14.1261L219.982 15.1261L220.982 15.1261L244.953 15.1261L244.999 15.1261L245.299 15.1261L245.953 15.1261L245.953 15.4562L245.615 16.1261ZM220.982 14.1261L245.953 14.1261L246.953 14.1261L246.953 15.1261L246.953 15.4562L246.953 15.6944L246.846 15.907L225.459 58.2556L238.954 58.2556L260.8 14.8885L260.8 3.9107L220.982 3.9107L220.982 14.1261ZM217.107 0.269531L216.071 0.269531L204.231 0.269531L186.342 66.7293L186.073 67.7293L187.108 67.7293L198.948 67.7293L216.837 1.26953L217.107 0.269531ZM215.802 1.26953L198.182 66.7293L187.378 66.7293L204.997 1.26953L215.802 1.26953ZM161.891 3.9668L173.207 3.9668L173.207 58.8619L161.891 58.8619L161.891 3.9668Z" fill="#181824"/>
<defs>
<clipPath id="clip0_916_10331">
<rect width="72" height="68" fill="white"/>
</clipPath>
</defs>
</svg>
