<svg width="15" height="16" viewBox="0 0 15 16" fill="none" xmlns="http://www.w3.org/2000/svg">
<path d="M12.6656 4.80016L2.28229 15.1835C2.0684 15.3974 1.79618 15.5043 1.46563 15.5043C1.13507 15.5043 0.862847 15.3974 0.648958 15.1835C0.435069 14.9696 0.328125 14.6974 0.328125 14.3668C0.328125 14.0363 0.435069 13.7641 0.648958 13.5502L11.0323 3.16683H2.16562C1.83507 3.16683 1.55799 3.05502 1.33438 2.83141C1.11076 2.6078 0.998958 2.33072 0.998958 2.00016C0.998958 1.66961 1.11076 1.39252 1.33438 1.16891C1.55799 0.945302 1.83507 0.833496 2.16562 0.833496H13.8323C14.1628 0.833496 14.4399 0.945302 14.6635 1.16891C14.8872 1.39252 14.999 1.66961 14.999 2.00016V13.6668C14.999 13.9974 14.8872 14.2745 14.6635 14.4981C14.4399 14.7217 14.1628 14.8335 13.8323 14.8335C13.5017 14.8335 13.2247 14.7217 13.001 14.4981C12.7774 14.2745 12.6656 13.9974 12.6656 13.6668V4.80016Z" fill="#D9D9D9"/>
</svg>
