<svg width="1441" height="459" viewBox="0 0 1441 459" fill="none" xmlns="http://www.w3.org/2000/svg">
<g clip-path="url(#clip0_1242_290)">
<g filter="url(#filter0_d_1242_290)">
<rect x="-45" y="-2" width="1532" height="461" fill="#181824"/>
<rect x="-44.5" y="-1.5" width="1531" height="460" stroke="black"/>
</g>
<g opacity="0.7" filter="url(#filter1_f_1242_290)">
<circle cx="16" cy="459" r="261" fill="url(#paint0_linear_1242_290)"/>
</g>
<g opacity="0.7" filter="url(#filter2_f_1242_290)">
<circle cx="1487" cy="21" r="260" fill="url(#paint1_linear_1242_290)"/>
</g>
<g opacity="0.6">
<line opacity="0.1" x1="-105" y1="120.5" x2="1459" y2="120.5" stroke="white"/>
<line opacity="0.1" x1="-105" y1="338.5" x2="1459" y2="338.5" stroke="white"/>
<line opacity="0.1" x1="1146.5" y1="-77" x2="1146.5" y2="576" stroke="white"/>
<line opacity="0.1" x1="1337.5" y1="-77" x2="1337.5" y2="576" stroke="white"/>
<line opacity="0.1" x1="0.5" y1="-77" x2="0.499971" y2="576" stroke="white"/>
<line opacity="0.1" x1="573.5" y1="-77" x2="573.5" y2="576" stroke="white"/>
<line opacity="0.1" x1="191.5" y1="-77" x2="191.5" y2="576" stroke="white"/>
<line opacity="0.1" x1="764.5" y1="-77" x2="764.5" y2="576" stroke="white"/>
<line opacity="0.1" x1="382.5" y1="-77" x2="382.5" y2="576" stroke="white"/>
<line opacity="0.1" x1="955.5" y1="-77" x2="955.5" y2="576" stroke="white"/>
</g>
<rect opacity="0.4" x="191.535" y="113" width="12" height="12" rx="2" transform="rotate(45.3452 191.535 113)" fill="#0166FF"/>
<rect opacity="0.4" x="382.535" y="330" width="12" height="12" rx="2" transform="rotate(45.3452 382.535 330)" fill="#0166FF"/>
<rect opacity="0.4" x="1337.54" y="113" width="12" height="12" rx="2" transform="rotate(45.3452 1337.54 113)" fill="#0166FF"/>
<rect opacity="0.4" x="955.535" y="4" width="12" height="12" rx="2" transform="rotate(45.3452 955.535 4)" fill="#0166FF"/>
<rect opacity="0.4" x="1145.54" y="330" width="12" height="12" rx="2" transform="rotate(45.3452 1145.54 330)" fill="#0166FF"/>
</g>
<defs>
<filter id="filter0_d_1242_290" x="-49" y="-2" width="1540" height="469" filterUnits="userSpaceOnUse" color-interpolation-filters="sRGB">
<feFlood flood-opacity="0" result="BackgroundImageFix"/>
<feColorMatrix in="SourceAlpha" type="matrix" values="0 0 0 0 0 0 0 0 0 0 0 0 0 0 0 0 0 0 127 0" result="hardAlpha"/>
<feOffset dy="4"/>
<feGaussianBlur stdDeviation="2"/>
<feComposite in2="hardAlpha" operator="out"/>
<feColorMatrix type="matrix" values="0 0 0 0 0 0 0 0 0 0 0 0 0 0 0 0 0 0 0.25 0"/>
<feBlend mode="normal" in2="BackgroundImageFix" result="effect1_dropShadow_1242_290"/>
<feBlend mode="normal" in="SourceGraphic" in2="effect1_dropShadow_1242_290" result="shape"/>
</filter>
<filter id="filter1_f_1242_290" x="-845" y="-402" width="1722" height="1722" filterUnits="userSpaceOnUse" color-interpolation-filters="sRGB">
<feFlood flood-opacity="0" result="BackgroundImageFix"/>
<feBlend mode="normal" in="SourceGraphic" in2="BackgroundImageFix" result="shape"/>
<feGaussianBlur stdDeviation="300" result="effect1_foregroundBlur_1242_290"/>
</filter>
<filter id="filter2_f_1242_290" x="627" y="-839" width="1720" height="1720" filterUnits="userSpaceOnUse" color-interpolation-filters="sRGB">
<feFlood flood-opacity="0" result="BackgroundImageFix"/>
<feBlend mode="normal" in="SourceGraphic" in2="BackgroundImageFix" result="shape"/>
<feGaussianBlur stdDeviation="300" result="effect1_foregroundBlur_1242_290"/>
</filter>
<linearGradient id="paint0_linear_1242_290" x1="16" y1="198" x2="16" y2="720" gradientUnits="userSpaceOnUse">
<stop stop-color="#0166FF"/>
<stop offset="0.43" stop-color="#008CFF"/>
<stop offset="1" stop-color="#25C2FF"/>
</linearGradient>
<linearGradient id="paint1_linear_1242_290" x1="1487" y1="-239" x2="1487" y2="281" gradientUnits="userSpaceOnUse">
<stop stop-color="#0166FF"/>
<stop offset="0.43" stop-color="#008CFF"/>
<stop offset="1" stop-color="#25C2FF"/>
</linearGradient>
<clipPath id="clip0_1242_290">
<rect width="1441" height="459" fill="white"/>
</clipPath>
</defs>
</svg>
