<svg width="115" height="115" viewBox="0 0 115 115" fill="none" xmlns="http://www.w3.org/2000/svg">
<rect x="16.1833" y="30.5564" width="58.4931" height="76.256" rx="5.49797" stroke="#D9D9D9" stroke-width="1.37449" stroke-dasharray="2.75 2.75"/>
<g clip-path="url(#clip0_838_3910)">
<rect width="56.6897" height="74.4013" transform="translate(28.0938 20.7725)" fill="#F9F7FC"/>
<path d="M26.7409 67.7167C26.7131 67.5146 26.6954 67.3112 26.6881 67.1073C26.68 53.2804 26.6746 39.4528 26.6719 25.6246C26.6719 23.2153 27.5555 21.2835 29.6539 19.9976C30.5415 19.4426 31.5669 19.1477 32.6137 19.1465C48.625 19.1465 64.6356 19.1465 80.6456 19.1465C84.0827 19.1465 86.5833 21.9173 86.5854 25.6185C86.5854 37.6442 86.5854 49.6707 86.5854 61.6978C86.5854 63.9018 86.5508 66.1079 86.5305 68.3119L84.9867 68.3221C84.9867 68.0174 84.9663 67.7127 84.9663 67.408C84.9663 53.4592 84.9616 39.5036 84.9521 25.5413C84.9521 22.6526 83.1239 20.7939 80.28 20.7919C64.5205 20.7919 48.7618 20.7919 33.0037 20.7919C32.5728 20.7736 32.1414 20.8105 31.7198 20.9016C29.6174 21.446 28.3315 23.1564 28.3315 25.4641C28.3315 39.2192 28.3274 52.9723 28.3193 66.7234C28.3193 67.0545 28.3051 67.3836 28.297 67.7127L26.7409 67.7167Z" fill="#BBBBBB"/>
<path d="M26.7369 67.7168H28.2808C28.2808 68.0215 28.3072 68.3262 28.3072 68.6289C28.3072 75.8349 28.3072 83.0402 28.3072 90.2448C28.3072 90.8156 28.2564 91.3966 28.4697 91.9511C29.3412 94.2161 30.7164 95.1628 33.1642 95.1628C48.8058 95.1628 64.4251 95.1302 80.0545 95.1932C82.7928 95.2054 84.9908 93.2959 84.9623 90.2448C84.8973 83.2426 84.94 76.2283 84.942 69.2363C84.942 68.9336 84.9583 68.6269 84.9684 68.3262L86.5123 68.316C86.5346 68.5923 86.5773 68.8686 86.5773 69.1449C86.5773 76.1958 86.557 83.2487 86.5773 90.2996C86.5935 94.5452 83.4205 96.8447 80.0606 96.8305C64.3581 96.7696 48.6555 96.8061 32.955 96.8021C29.9486 96.8021 27.712 95.1201 26.8609 92.2559C26.7136 91.7181 26.6451 91.1618 26.6577 90.6043C26.6577 83.1708 26.6577 75.7387 26.6577 68.3079C26.6733 68.1096 26.6998 67.9122 26.7369 67.7168Z" fill="#BBBBBB"/>
<path d="M59.2914 87.4669L59.1289 87.4913L59.1777 87.3369L59.2914 87.4669Z" fill="#FEFEFE"/>
</g>
<g clip-path="url(#clip1_838_3910)">
<path d="M99.5017 45.5961V79.674C99.5017 82.7802 97.7953 84.4932 94.7085 84.4932H44.2819C41.2322 84.4932 39.5039 82.7736 39.5039 79.7376V22.059C39.5039 18.3979 39.5039 14.7376 39.5039 11.0779C39.5039 8.30475 41.2869 6.50414 44.0478 6.50195C61.0229 6.50195 77.9958 6.50195 94.9666 6.50195C97.7209 6.50195 99.4995 8.31132 99.4995 11.0911C99.5039 22.5899 99.5046 34.0915 99.5017 45.5961ZM41.7747 8.57637L41.5275 8.76914C41.2802 9.00422 41.0856 9.28925 40.9566 9.60534C40.8276 9.92143 40.7672 10.2614 40.7793 10.6026C40.7793 13.4919 40.7793 16.3834 40.7793 19.2727C40.6306 20.1182 41.2628 19.8838 41.6675 19.8838C60.2178 19.8926 78.7688 19.8926 97.3206 19.8838C97.4584 19.8838 97.594 19.8838 97.7297 19.8838C98.2154 19.9233 98.2766 19.6473 98.2088 19.2639C98.2088 16.4016 98.2139 13.5386 98.2241 10.6749C98.2406 10.3207 98.182 9.967 98.0523 9.63704C97.9226 9.30709 97.7247 9.00833 97.4715 8.76038L97.2221 8.5698H97.2571C96.5855 7.76807 95.6623 7.74179 94.7216 7.74179H44.2644C43.9646 7.74179 43.6627 7.74179 43.3652 7.77027C43.0523 7.78206 42.7453 7.85884 42.4636 7.99572C42.1819 8.1326 41.9317 8.3266 41.7288 8.56542L41.7747 8.57637ZM98.2438 51.1623C98.2438 41.4407 98.2496 31.7192 98.2613 21.9977C98.2613 21.2726 98.106 21.0623 97.3446 21.0623C78.7885 21.0872 60.2331 21.0872 41.6785 21.0623C40.9565 21.0623 40.74 21.2091 40.7422 21.9758C40.7655 41.1998 40.7655 60.4245 40.7422 79.65C40.7422 81.9632 42.1248 83.2775 44.3366 83.2709C61.109 83.2198 77.8872 83.2198 94.6713 83.2709C96.9399 83.2709 98.3007 81.9215 98.2854 79.6697C98.2044 70.1694 98.2438 60.6669 98.2438 51.1623Z" fill="#0166FF"/>
<path d="M98.2431 51.163C98.2431 60.6676 98.2037 70.1701 98.2737 79.6747C98.289 81.9266 96.9283 83.2825 94.6596 83.276C77.8799 83.2248 61.1017 83.2248 44.3249 83.276C42.1131 83.276 40.7239 81.9616 40.7305 79.655C40.783 60.431 40.783 41.2063 40.7305 21.9809C40.7305 21.2142 40.9493 21.0652 41.6668 21.0674C60.2229 21.0879 78.7783 21.0879 97.333 21.0674C98.0943 21.0674 98.2518 21.2865 98.2496 22.0028C98.2278 31.7214 98.2256 41.4414 98.2431 51.163ZM52.8022 80.3078C54.3123 80.3039 55.7873 79.8519 57.0408 79.0089C58.2944 78.1658 59.2702 76.9696 59.845 75.5715C60.4197 74.1733 60.5676 72.6359 60.27 71.1536C59.9724 69.6712 59.2426 68.3105 58.1729 67.2434C57.1031 66.1762 55.7414 65.4505 54.2599 65.1581C52.7784 64.8656 51.2435 65.0194 49.8493 65.6001C48.4551 66.1808 47.2641 67.1624 46.4268 68.4206C45.5895 69.6789 45.1436 71.1575 45.1453 72.6695C45.1562 74.6968 45.9674 76.6376 47.4018 78.0685C48.8362 79.4994 50.7775 80.3044 52.8022 80.3078ZM45.1453 31.6783C45.1453 33.1956 45.5949 34.6787 46.4372 35.94C47.2796 37.2013 48.4767 38.1839 49.8771 38.7636C51.2775 39.3432 52.8182 39.4937 54.3041 39.1961C55.79 38.8985 57.1543 38.1662 58.2243 37.0917C59.2943 36.0173 60.0218 34.6492 60.3148 33.1605C60.6077 31.6719 60.453 30.1296 59.8701 28.7291C59.2872 27.3286 58.3024 26.1327 57.0403 25.2929C55.7782 24.4531 54.2957 24.0071 52.7804 24.0115C51.7754 24.01 50.78 24.2076 49.8516 24.5928C48.9232 24.978 48.08 25.5433 47.3706 26.256C46.6611 26.9688 46.0995 27.815 45.718 28.7459C45.3365 29.6769 45.1426 30.6742 45.1475 31.6805L45.1453 31.6783ZM52.7585 59.7936C54.2673 59.7971 55.7433 59.3525 56.9999 58.5163C58.2565 57.68 59.2373 56.4895 59.8183 55.0952C60.3993 53.7009 60.5544 52.1654 60.2641 50.6829C59.9737 49.2003 59.251 47.8373 58.1871 46.7659C57.1233 45.6946 55.7661 44.9631 54.2871 44.6639C52.8082 44.3647 51.2739 44.5112 49.8781 45.085C48.4823 45.6587 47.2877 46.6339 46.4453 47.8873C45.6029 49.1407 45.1505 50.616 45.1453 52.1268C45.1447 54.1533 45.9454 56.0977 47.3725 57.5348C48.7995 58.9719 50.7368 59.7848 52.7607 59.7958L52.7585 59.7936ZM80.1683 77.2871H92.6185C92.8373 77.2982 93.0566 77.2938 93.2748 77.2739C93.4274 77.2682 93.5719 77.2034 93.6776 77.093C93.7833 76.9826 93.8421 76.8354 93.8414 76.6825C93.8471 76.6066 93.8372 76.5304 93.8124 76.4585C93.7876 76.3866 93.7484 76.3205 93.6972 76.2643C93.646 76.2081 93.5839 76.163 93.5146 76.1317C93.4454 76.1004 93.3705 76.0836 93.2945 76.0823C93.0767 76.0569 92.8574 76.0459 92.6382 76.0494H67.823C67.604 76.0453 67.3849 76.0534 67.1667 76.0735C66.797 76.113 66.5301 76.2926 66.5585 76.7C66.587 77.1075 66.8539 77.263 67.2258 77.2827C67.4161 77.2958 67.6065 77.2827 67.799 77.2827L80.1683 77.2871ZM80.1836 56.7904C84.3052 56.7904 88.4283 56.7904 92.5528 56.7904C93.0648 56.7904 93.8173 56.9766 93.813 56.1661C93.8086 55.3556 93.0473 55.5549 92.5419 55.5549C84.322 55.5462 76.1028 55.5462 67.8843 55.5549C67.639 55.5476 67.3935 55.5557 67.1492 55.579C66.8233 55.6185 66.5695 55.7828 66.5564 56.142C66.541 56.5407 66.8014 56.7334 67.1602 56.7992C67.3783 56.8197 67.5976 56.8249 67.8165 56.8145L80.1836 56.7904ZM80.1836 36.2762H92.6338C92.8527 36.2869 93.0721 36.2811 93.2901 36.2587C93.4425 36.2513 93.586 36.1842 93.6895 36.0719C93.793 35.9597 93.8484 35.8112 93.8436 35.6585C93.8454 35.5051 93.7875 35.3571 93.6821 35.2459C93.5767 35.1346 93.4322 35.0689 93.2792 35.0626C93.0898 35.0389 92.8988 35.0315 92.7082 35.0407H67.7246C67.5053 35.0282 67.2853 35.0392 67.0683 35.0736C66.9232 35.089 66.7889 35.1576 66.6913 35.2662C66.5938 35.3747 66.5398 35.5157 66.5398 35.6617C66.5398 35.8078 66.5938 35.9487 66.6913 36.0573C66.7889 36.1659 66.9232 36.2345 67.0683 36.2499C67.3121 36.2795 67.558 36.2883 67.8033 36.2762H80.1836ZM80.2492 28.2808C84.3752 28.2808 88.5005 28.2808 92.625 28.2808C93.1195 28.2808 93.8173 28.4407 93.8086 27.6674C93.7998 26.8942 93.0801 27.087 92.6054 27.087C84.33 27.0753 76.0525 27.0753 67.7727 27.087C67.554 27.087 67.3352 27.087 67.1164 27.1089C67.0406 27.1064 66.9652 27.1201 66.895 27.1489C66.8249 27.1777 66.7616 27.2211 66.7093 27.2761C66.6571 27.3311 66.617 27.3965 66.5918 27.4681C66.5666 27.5397 66.5567 27.6159 66.5629 27.6915C66.5634 27.8446 66.6237 27.9914 66.7307 28.1007C66.8378 28.2099 66.9833 28.273 67.1361 28.2764C67.3543 28.2952 67.5736 28.2995 67.7924 28.2895L80.2492 28.2808ZM80.212 73.25H92.5857C92.8044 73.25 93.0232 73.25 93.242 73.25C93.3175 73.2571 93.3937 73.2481 93.4655 73.2237C93.5374 73.1993 93.6032 73.1599 93.6588 73.1082C93.7144 73.0565 93.7584 72.9936 93.788 72.9236C93.8176 72.8537 93.832 72.7783 93.8305 72.7023C93.8377 72.6267 93.8294 72.5505 93.8063 72.4781C93.7832 72.4058 93.7456 72.339 93.6959 72.2816C93.6462 72.2242 93.5854 72.1776 93.5171 72.1445C93.4489 72.1114 93.3746 72.0925 93.2989 72.089C93.081 72.0647 92.8615 72.0581 92.6426 72.0693H67.7333C67.5144 72.0533 67.2944 72.0606 67.077 72.0912C67.0015 72.0988 66.9283 72.1213 66.8615 72.1575C66.7947 72.1936 66.7357 72.2426 66.6879 72.3016C66.6401 72.3607 66.6045 72.4286 66.583 72.5015C66.5616 72.5744 66.5547 72.6509 66.5629 72.7264C66.5669 72.8653 66.625 72.9971 66.7247 73.0937C66.8245 73.1903 66.958 73.244 67.0967 73.2434C67.3155 73.2587 67.5343 73.2587 67.753 73.2587L80.212 73.25ZM80.1551 32.2478H92.6097C92.8285 32.2478 93.0473 32.2478 93.266 32.2478C93.3421 32.2527 93.4183 32.2412 93.4896 32.2142C93.5608 32.1871 93.6255 32.1451 93.6791 32.0909C93.7328 32.0367 93.7743 31.9717 93.8008 31.9002C93.8273 31.8286 93.8381 31.7522 93.8327 31.6761C93.8391 31.6002 93.8296 31.5239 93.8047 31.4519C93.7797 31.38 93.74 31.3141 93.688 31.2586C93.636 31.203 93.573 31.159 93.5029 31.1294C93.4329 31.0999 93.3574 31.0853 93.2814 31.0868C93.0626 31.0715 92.8438 31.0868 92.625 31.0868H67.8077C67.589 31.0868 67.3702 31.0868 67.1514 31.0868C67.0757 31.0857 67.0005 31.0997 66.9304 31.1281C66.8602 31.1565 66.7964 31.1987 66.7427 31.2522C66.6891 31.3057 66.6467 31.3694 66.6181 31.4396C66.5894 31.5098 66.5752 31.585 66.576 31.6608C66.5715 31.7366 66.5827 31.8126 66.6089 31.8839C66.6352 31.9552 66.6759 32.0203 66.7285 32.075C66.7811 32.1298 66.8445 32.173 66.9147 32.202C66.9848 32.231 67.0602 32.2451 67.1361 32.2434C67.3549 32.261 67.5736 32.2544 67.7924 32.2566L80.1551 32.2478ZM80.2514 47.5946H67.8077C67.589 47.5946 67.3702 47.5946 67.1514 47.5946C67.0758 47.5896 66.9999 47.6006 66.9289 47.627C66.8578 47.6533 66.7931 47.6944 66.7389 47.7476C66.6848 47.8007 66.6425 47.8647 66.6148 47.9354C66.5871 48.006 66.5747 48.0817 66.5782 48.1576C66.5735 48.3106 66.6296 48.4592 66.7342 48.5709C66.8387 48.6826 66.9833 48.7482 67.1361 48.7534C67.3259 48.7702 67.5167 48.7739 67.7071 48.7643H92.6885C92.9327 48.7833 93.1784 48.7701 93.4192 48.7249C93.5546 48.6924 93.6724 48.6091 93.7482 48.492C93.8239 48.375 93.8518 48.2333 93.8261 48.0962C93.8246 47.9711 93.7756 47.8512 93.6891 47.7609C93.6025 47.6706 93.4849 47.6166 93.3601 47.6099C93.1151 47.5924 92.8679 47.5902 92.6229 47.5902L80.2514 47.5946ZM80.2514 69.2698H92.7038C92.9228 69.2802 93.1423 69.2729 93.3601 69.2479C93.4985 69.2329 93.6256 69.1642 93.7139 69.0565C93.8023 68.9488 93.8449 68.8106 93.8327 68.6718C93.8399 68.603 93.833 68.5335 93.8124 68.4675C93.7917 68.4016 93.7578 68.3405 93.7127 68.2882C93.6676 68.2359 93.6123 68.1933 93.5501 68.1632C93.488 68.1331 93.4203 68.1161 93.3514 68.1132C93.1326 68.0935 92.9138 68.0935 92.6951 68.0935H67.7027C67.5124 68.0935 67.3199 68.0935 67.1295 68.1044C67.0536 68.1015 66.9779 68.1146 66.9073 68.1428C66.8368 68.1711 66.7729 68.2138 66.7199 68.2683C66.6669 68.3228 66.6259 68.3879 66.5996 68.4593C66.5734 68.5307 66.5623 68.6068 66.5673 68.6827C66.5661 68.7583 66.5801 68.8334 66.6083 68.9035C66.6365 68.9737 66.6785 69.0375 66.7317 69.0911C66.7849 69.1448 66.8482 69.1873 66.9181 69.2161C66.9879 69.2449 67.0628 69.2594 67.1383 69.2588C67.3571 69.2785 67.5758 69.2698 67.7946 69.2698H80.2514ZM80.1617 51.5638H67.788C67.5692 51.5549 67.35 51.5593 67.1317 51.577C67.056 51.5775 66.9811 51.5932 66.9115 51.623C66.8419 51.6528 66.7788 51.6962 66.7261 51.7506C66.6734 51.805 66.632 51.8694 66.6043 51.94C66.5767 52.0106 66.5634 52.086 66.5651 52.1618C66.5607 52.2378 66.5723 52.3138 66.5992 52.385C66.626 52.4561 66.6675 52.5209 66.7209 52.575C66.7743 52.6291 66.8385 52.6714 66.9093 52.699C66.98 52.7267 67.0558 52.7392 67.1317 52.7357C67.322 52.7357 67.5146 52.7357 67.7049 52.7357H92.6972C92.916 52.7357 93.1348 52.7357 93.3536 52.716C93.4783 52.7095 93.596 52.6564 93.6835 52.5672C93.771 52.4779 93.8219 52.3591 93.8261 52.2341C93.8563 52.0979 93.8316 51.9554 93.7575 51.8373C93.6834 51.7192 93.5657 51.6351 93.4301 51.6032C93.1896 51.5559 92.944 51.5404 92.6994 51.5572L80.1617 51.5638Z" fill="#F9F7FC"/>
<path d="M40.7881 19.2796C40.7881 16.3903 40.7727 13.4988 40.7881 10.6095C40.7759 10.2683 40.8363 9.92833 40.9653 9.61224C41.0943 9.29615 41.2889 9.01112 41.5362 8.77604L41.7747 8.5767H41.7397C44.3015 8.02688 46.8961 8.30727 49.4732 8.3007C61.5785 8.26857 73.6766 8.26857 85.7673 8.3007C89.6001 8.31603 93.4483 7.95679 97.268 8.57013H97.233L97.4824 8.76071C97.7356 9.00866 97.9335 9.30742 98.0632 9.63737C98.1929 9.96733 98.2515 10.321 98.235 10.6752C98.235 13.5375 98.2299 16.4005 98.2197 19.2642C98.0009 19.2642 97.7821 19.284 97.5634 19.284H41.4422C41.2234 19.3102 41.0068 19.2883 40.7881 19.2796ZM50.4577 13.7748C50.4465 14.3922 50.6789 14.9892 51.1044 15.4362C51.5299 15.8832 52.1143 16.1441 52.7307 16.1625C53.362 16.1732 53.9721 15.9351 54.4297 15.4995C54.8872 15.0639 55.1555 14.4657 55.1766 13.8339C55.1682 13.2005 54.9144 12.5951 54.4686 12.1455C54.0229 11.696 53.4202 11.4374 52.7876 11.4244C52.17 11.4352 51.581 11.6868 51.1459 12.1258C50.7108 12.5647 50.4639 13.1564 50.4577 13.7748ZM57.5153 13.7748C57.5088 14.0876 57.5651 14.3986 57.6807 14.6893C57.7963 14.98 57.9689 15.2446 58.1883 15.4674C58.4078 15.6901 58.6696 15.8666 58.9583 15.9864C59.247 16.1062 59.5567 16.1668 59.8692 16.1647C60.4876 16.1554 61.0787 15.9082 61.5198 15.4742C61.961 15.0402 62.2183 14.4529 62.2385 13.8339C62.2279 13.2008 61.9731 12.5964 61.5273 12.1472C61.0816 11.698 60.4796 11.439 59.8473 11.4244C59.2315 11.4369 58.6447 11.689 58.2114 12.1274C57.7781 12.5658 57.5323 13.1559 57.5262 13.7726L57.5153 13.7748ZM45.7717 16.1647C46.3895 16.1497 46.9779 15.8972 47.4149 15.4596C47.8519 15.022 48.1041 14.4329 48.1191 13.8142C48.1066 13.1809 47.8484 12.5773 47.3993 12.1312C46.9501 11.6852 46.3452 11.4317 45.7126 11.4244C45.4003 11.4317 45.0925 11.501 44.8071 11.6281C44.5217 11.7552 44.2642 11.9377 44.0497 12.165C43.8351 12.3923 43.6676 12.6599 43.5568 12.9524C43.4461 13.2448 43.3944 13.5564 43.4046 13.869C43.4161 14.487 43.6716 15.0753 44.1152 15.5051C44.5588 15.9349 45.1544 16.1713 45.7717 16.1625V16.1647Z" fill="#D9D9D9"/>
<path d="M40.7878 19.2793C41.0066 19.2793 41.2254 19.299 41.4442 19.299H97.561C97.7797 19.299 97.9985 19.2881 98.2173 19.2793C98.2851 19.6626 98.2173 19.9365 97.7382 19.8992C97.6025 19.8883 97.4669 19.8992 97.3291 19.8992C78.7773 19.8992 60.2263 19.8992 41.676 19.8992C41.2713 19.8905 40.6391 20.1248 40.7878 19.2793Z" fill="#BBBBBB"/>
<path d="M97.2627 8.57619C93.443 7.96284 89.6057 8.32209 85.7619 8.30676C73.6566 8.2498 61.5586 8.2498 49.4679 8.30676C46.8908 8.30676 44.2962 8.03294 41.7344 8.58276C41.9372 8.34394 42.1874 8.14994 42.4691 8.01306C42.7508 7.87618 43.0579 7.7994 43.3708 7.7876C43.6683 7.75912 43.9702 7.75913 44.2699 7.75913H94.7271C95.6679 7.75475 96.5911 7.78103 97.2627 8.57619Z" fill="#BBBBBB"/>
<path d="M52.8013 80.3069C50.7758 80.3069 48.8332 79.5012 47.401 78.0671C45.9687 76.633 45.1641 74.6879 45.1641 72.6598C45.1641 70.6317 45.9687 68.6866 47.401 67.2525C48.8332 65.8184 50.7758 65.0127 52.8013 65.0127C54.8269 65.0127 56.7694 65.8184 58.2017 67.2525C59.634 68.6866 60.4386 70.6317 60.4386 72.6598C60.4386 74.6879 59.634 76.633 58.2017 78.0671C56.7694 79.5012 54.8269 80.3069 52.8013 80.3069ZM58.5397 69.8713C57.3715 67.0937 54.0243 65.5954 50.9615 66.4847C48.4675 67.2098 46.5117 69.5996 46.3673 72.0793C46.2098 74.9993 47.6646 77.4833 50.1061 78.4603C52.3485 79.6979 55.455 79.1525 57.3911 77.181C59.3273 75.2096 59.8086 72.1012 58.5397 69.8713Z" fill="#25C2FF"/>
<path d="M45.1447 31.6801C45.1347 30.1622 45.575 28.6755 46.4097 27.4084C47.2444 26.1412 48.436 25.1507 49.8334 24.5623C51.2309 23.9739 52.7713 23.8141 54.2596 24.1032C55.7478 24.3922 57.1169 25.1171 58.1933 26.186C59.2697 27.2549 60.005 28.6196 60.306 30.1073C60.607 31.595 60.4602 33.1387 59.8842 34.5428C59.3082 35.9469 58.3289 37.1482 57.0704 37.9945C55.8119 38.8407 54.3308 39.2939 52.8148 39.2965C50.7894 39.3035 48.844 38.5053 47.4059 37.0773C45.9678 35.6492 45.1545 33.7081 45.1447 31.6801ZM50.2617 37.5091C51.4934 38.1662 52.7907 38.2232 54.134 37.9625C58.179 37.1739 60.5265 32.3657 58.5466 28.9047C57.5796 26.5696 54.8275 24.9464 52.3423 25.2334C49.1766 25.597 46.873 27.735 46.4048 30.7535C45.9826 33.4413 47.4987 36.2736 49.9205 37.3623L50.1392 37.4609C50.1733 37.4905 50.2166 37.5075 50.2617 37.5091Z" fill="#25C2FF"/>
<path d="M52.7598 59.7953C51.7475 59.8062 50.7431 59.6153 49.8051 59.2337C48.8672 58.8521 48.0145 58.2874 47.2966 57.5726C46.5788 56.8578 46.0102 56.0071 45.624 55.07C45.2378 54.133 45.0416 53.1283 45.047 52.1146C45.0524 51.101 45.2591 50.0985 45.6553 49.1656C46.0514 48.2327 46.629 47.3881 47.3543 46.6809C48.0797 45.9737 48.9384 45.4182 49.8803 45.0465C50.8222 44.6749 51.8286 44.4947 52.8408 44.5164C53.8531 44.5055 54.8575 44.6964 55.7954 45.078C56.7334 45.4596 57.5861 46.0242 58.3039 46.739C59.0218 47.4539 59.5904 48.3046 59.9766 49.2416C60.3628 50.1787 60.559 51.1833 60.5536 52.197C60.5482 53.2107 60.3414 54.2132 59.9453 55.1461C59.5492 56.079 58.9716 56.9236 58.2462 57.6308C57.5209 58.3379 56.6622 58.8935 55.7203 59.2651C54.7783 59.6367 53.772 59.8169 52.7598 59.7953ZM58.5069 49.2808C57.3409 46.7617 54.615 45.386 51.666 45.8329C48.997 46.2359 46.7217 48.6149 46.3914 51.3442C46.0479 54.1788 47.6121 56.9651 50.1105 57.9728C52.4317 59.2082 55.4901 58.6562 57.4349 56.6584C59.3798 54.6607 59.8064 51.5414 58.5069 49.2742V49.2808Z" fill="#25C2FF"/>
<path d="M80.1713 77.289H67.8086C67.6161 77.289 67.4258 77.289 67.2354 77.289C66.8635 77.2693 66.5945 77.0875 66.5682 76.7063C66.5419 76.3252 66.8067 76.1193 67.1764 76.0798C67.3945 76.0597 67.6136 76.0516 67.8327 76.0557H92.6435C92.8627 76.0522 93.082 76.0632 93.2998 76.0886C93.3757 76.0899 93.4506 76.1067 93.5199 76.138C93.5891 76.1693 93.6513 76.2144 93.7025 76.2706C93.7537 76.3268 93.7929 76.3929 93.8177 76.4648C93.8425 76.5367 93.8524 76.6129 93.8467 76.6888C93.8474 76.8417 93.7886 76.9889 93.6829 77.0993C93.5772 77.2097 93.4327 77.2746 93.2801 77.2802C93.0619 77.3001 92.8426 77.3045 92.6238 77.2934L80.1713 77.289Z" fill="#0166FF"/>
<path d="M80.1857 56.792H67.8076C67.5888 56.8023 67.3695 56.7972 67.1513 56.7766C66.7925 56.7219 66.5322 56.5291 66.5475 56.1195C66.5606 55.7602 66.8144 55.5959 67.1404 55.5565C67.3847 55.5331 67.6302 55.5251 67.8755 55.5324C76.0939 55.5324 84.3131 55.5324 92.5331 55.5324C93.0384 55.5324 93.7976 55.3331 93.8041 56.1436C93.8107 56.9541 93.0559 56.7679 92.544 56.7679C88.4282 56.7912 84.3088 56.7993 80.1857 56.792Z" fill="#0166FF"/>
<path d="M80.1824 36.2775H67.8065C67.5612 36.2897 67.3153 36.2809 67.0715 36.2513C66.9264 36.2359 66.7921 36.1673 66.6945 36.0587C66.597 35.9501 66.543 35.8092 66.543 35.6631C66.543 35.517 66.597 35.3761 66.6945 35.2675C66.7921 35.1589 66.9264 35.0903 67.0715 35.0749C67.2885 35.0406 67.5085 35.0296 67.7278 35.0421H92.7048C92.8954 35.0329 93.0865 35.0402 93.2758 35.064C93.4288 35.0703 93.5734 35.136 93.6788 35.2472C93.7842 35.3585 93.8421 35.5065 93.8402 35.6598C93.845 35.8126 93.7897 35.961 93.6861 36.0733C93.5826 36.1856 93.4392 36.2526 93.2867 36.26C93.0687 36.2824 92.8493 36.2883 92.6304 36.2775H80.1824Z" fill="#0166FF"/>
<path d="M80.2467 28.2916H67.7899C67.5711 28.3016 67.3518 28.2972 67.1336 28.2784C66.9807 28.275 66.8353 28.2119 66.7282 28.1027C66.6211 27.9934 66.5609 27.8466 66.5604 27.6936C66.5542 27.6179 66.564 27.5418 66.5893 27.4702C66.6145 27.3986 66.6546 27.3331 66.7068 27.2781C66.7591 27.2231 66.8224 27.1797 66.8925 27.1509C66.9627 27.1221 67.0381 27.1085 67.1139 27.1109C67.3327 27.0933 67.5514 27.089 67.7702 27.089C76.0485 27.089 84.326 27.089 92.6028 27.089C93.0776 27.089 93.7995 26.8699 93.8061 27.6695C93.8126 28.469 93.117 28.2806 92.6225 28.2828C88.4994 28.2886 84.3741 28.2916 80.2467 28.2916Z" fill="#0166FF"/>
<path d="M80.2128 73.2514H67.756C67.5372 73.2514 67.3184 73.2514 67.0996 73.2361C66.9609 73.2367 66.8274 73.183 66.7276 73.0864C66.6279 72.9898 66.5698 72.858 66.5658 72.7191C66.5577 72.6435 66.5645 72.5671 66.586 72.4942C66.6074 72.4213 66.6431 72.3534 66.6908 72.2943C66.7386 72.2353 66.7976 72.1863 66.8644 72.1502C66.9312 72.114 67.0044 72.0915 67.08 72.0838C67.2973 72.0533 67.5173 72.0459 67.7363 72.0619H92.6455C92.8644 72.0508 93.0839 72.0574 93.3018 72.0817C93.3776 72.0852 93.4518 72.1041 93.5201 72.1372C93.5883 72.1703 93.6491 72.2169 93.6989 72.2743C93.7486 72.3316 93.7861 72.3985 93.8093 72.4708C93.8324 72.5431 93.8406 72.6194 93.8334 72.695C93.835 72.771 93.8205 72.8464 93.7909 72.9163C93.7613 72.9863 93.7173 73.0492 93.6617 73.1009C93.6061 73.1526 93.5403 73.1919 93.4685 73.2164C93.3966 73.2408 93.3204 73.2498 93.2449 73.2426C93.0261 73.2426 92.8074 73.2426 92.5886 73.2426L80.2128 73.2514Z" fill="#0166FF"/>
<path d="M80.1535 32.2498H67.7799C67.5611 32.2498 67.3423 32.2498 67.1235 32.2367C67.0477 32.2383 66.9723 32.2242 66.9021 32.1952C66.832 32.1662 66.7686 32.123 66.716 32.0682C66.6633 32.0135 66.6226 31.9484 66.5964 31.8771C66.5701 31.8058 66.5589 31.7298 66.5635 31.654C66.5626 31.5782 66.5769 31.503 66.6055 31.4328C66.6342 31.3626 66.6765 31.2989 66.7302 31.2454C66.7838 31.1919 66.8476 31.1497 66.9178 31.1213C66.988 31.0929 67.0632 31.0789 67.1389 31.0801C67.3576 31.0647 67.5764 31.0801 67.7952 31.0801H92.6234C92.8422 31.0801 93.061 31.0801 93.2797 31.0801C93.3558 31.0786 93.4312 31.0931 93.5013 31.1227C93.5714 31.1522 93.6344 31.1962 93.6864 31.2518C93.7384 31.3074 93.7781 31.3732 93.803 31.4452C93.828 31.5171 93.8375 31.5935 93.831 31.6693C93.8365 31.7454 93.8256 31.8218 93.7992 31.8934C93.7727 31.9649 93.7312 32.03 93.6775 32.0841C93.6238 32.1383 93.5592 32.1803 93.488 32.2074C93.4167 32.2344 93.3405 32.2459 93.2644 32.241C93.0457 32.241 92.8269 32.241 92.6081 32.241L80.1535 32.2498Z" fill="#0166FF"/>
<path d="M80.2511 47.5967H92.6226C92.8676 47.5967 93.1148 47.5967 93.3598 47.6164C93.4846 47.6231 93.6022 47.677 93.6888 47.7673C93.7753 47.8576 93.8243 47.9775 93.8258 48.1027C93.8515 48.2397 93.8236 48.3815 93.7479 48.4985C93.6721 48.6155 93.5543 48.6989 93.4189 48.7314C93.1781 48.7765 92.9324 48.7898 92.6882 48.7708H67.6958C67.5055 48.7803 67.3147 48.7767 67.1249 48.7598C66.972 48.7547 66.8275 48.6891 66.7229 48.5774C66.6184 48.4657 66.5623 48.317 66.567 48.164C66.5634 48.0882 66.5759 48.0125 66.6036 47.9418C66.6313 47.8712 66.6736 47.8072 66.7277 47.7541C66.7818 47.7009 66.8465 47.6598 66.9176 47.6334C66.9887 47.6071 67.0645 47.596 67.1402 47.6011C67.3589 47.6011 67.5777 47.6011 67.7965 47.6011L80.2511 47.5967Z" fill="#0166FF"/>
<path d="M80.2495 69.2712H67.7949C67.5761 69.2712 67.3573 69.2712 67.1386 69.2602C67.063 69.2608 66.9882 69.2463 66.9183 69.2175C66.8485 69.1887 66.7851 69.1462 66.7319 69.0925C66.6787 69.0389 66.6368 68.9751 66.6086 68.9049C66.5803 68.8348 66.5664 68.7597 66.5676 68.6841C66.5626 68.6082 66.5736 68.5321 66.5999 68.4607C66.6262 68.3893 66.6672 68.3242 66.7202 68.2697C66.7732 68.2152 66.837 68.1724 66.9076 68.1442C66.9782 68.116 67.0539 68.1029 67.1298 68.1058C67.3201 68.0927 67.5127 68.0949 67.703 68.0949H92.6931C92.9119 68.0949 93.1307 68.0949 93.3494 68.1146C93.4184 68.1175 93.4861 68.1345 93.5482 68.1646C93.6104 68.1947 93.6657 68.2373 93.7108 68.2896C93.7559 68.3419 93.7898 68.403 93.8104 68.4689C93.8311 68.5349 93.838 68.6044 93.8307 68.6732C93.843 68.812 93.8004 68.9501 93.712 69.0579C93.6236 69.1656 93.4966 69.2343 93.3582 69.2493C93.1404 69.2743 92.9209 69.2816 92.7019 69.2712H80.2495Z" fill="#0166FF"/>
<path d="M80.1595 51.5652H92.6973C92.9418 51.5483 93.1874 51.5638 93.4279 51.6112C93.5636 51.643 93.6812 51.7271 93.7553 51.8452C93.8294 51.9633 93.8541 52.1059 93.8239 52.2421C93.8197 52.367 93.7688 52.4859 93.6813 52.5751C93.5938 52.6643 93.4761 52.7175 93.3514 52.724C93.1326 52.7415 92.9138 52.7437 92.6951 52.7437H67.7071C67.5168 52.7437 67.3242 52.7437 67.1339 52.7437C67.058 52.7472 66.9822 52.7347 66.9115 52.707C66.8407 52.6793 66.7765 52.637 66.7231 52.5829C66.6697 52.5288 66.6282 52.4641 66.6014 52.3929C66.5745 52.3217 66.5629 52.2457 66.5673 52.1698C66.5656 52.094 66.5789 52.0186 66.6065 51.948C66.6342 51.8774 66.6756 51.813 66.7283 51.7585C66.781 51.7041 66.844 51.6607 66.9137 51.6309C66.9833 51.6011 67.0582 51.5855 67.1339 51.5849C67.3522 51.5673 67.5714 51.5629 67.7902 51.5718L80.1595 51.5652Z" fill="#0166FF"/>
<path d="M50.4575 13.7743C50.4636 13.1558 50.7105 12.5642 51.1457 12.1252C51.5808 11.6863 52.1698 11.4346 52.7874 11.4238C53.4199 11.4368 54.0226 11.6954 54.4684 12.145C54.9141 12.5946 55.168 13.2 55.1763 13.8334C55.1558 14.4656 54.8877 15.0643 54.4302 15.5003C53.9726 15.9364 53.3621 16.1748 52.7305 16.1641C52.1136 16.1458 51.5289 15.8845 51.1033 15.437C50.6778 14.9896 50.4457 14.3921 50.4575 13.7743ZM52.8158 12.679C52.6662 12.6725 52.5169 12.6958 52.3764 12.7475C52.2359 12.7992 52.1069 12.8782 51.9971 12.98C51.8873 13.0819 51.7987 13.2045 51.7364 13.3408C51.6742 13.4771 51.6395 13.6244 51.6344 13.7743C51.6338 14.09 51.757 14.3934 51.9775 14.6192C52.1981 14.8449 52.4983 14.9749 52.8136 14.9812C53.1143 14.9678 53.3985 14.8395 53.6076 14.6228C53.8168 14.406 53.935 14.1173 53.9381 13.8159C53.9451 13.6654 53.921 13.5152 53.8673 13.3745C53.8137 13.2338 53.7316 13.1057 53.6263 12.9981C53.521 12.8906 53.3947 12.806 53.2552 12.7496C53.1157 12.6932 52.9662 12.6662 52.8158 12.6702V12.679Z" fill="#0166FF"/>
<path d="M57.5239 13.7721C57.5301 13.1553 57.7758 12.5652 58.2091 12.1269C58.6424 11.6885 59.2292 11.4363 59.8451 11.4238C60.4773 11.4385 61.0794 11.6975 61.5251 12.1467C61.9708 12.5958 62.2257 13.2003 62.2362 13.8334C62.2155 14.4519 61.9579 15.0387 61.5168 15.4722C61.0757 15.9058 60.485 16.1527 59.867 16.1619C59.5554 16.1626 59.2468 16.1009 58.9594 15.9805C58.672 15.86 58.4115 15.6833 58.1932 15.4607C57.9749 15.238 57.8033 14.974 57.6883 14.684C57.5734 14.394 57.5175 14.084 57.5239 13.7721ZM59.8473 12.6768C59.5471 12.6745 59.2581 12.791 59.0433 13.0011C58.8286 13.2112 58.7055 13.4978 58.7009 13.7983C58.7123 14.0984 58.8345 14.3835 59.0439 14.5984C59.2532 14.8133 59.5349 14.9427 59.8341 14.9615C59.9893 14.9615 60.1429 14.9306 60.286 14.8704C60.4291 14.8102 60.5587 14.7221 60.6673 14.6111C60.7759 14.5001 60.8613 14.3685 60.9184 14.2241C60.9756 14.0796 61.0034 13.9252 61.0002 13.7699C60.9999 13.6203 60.969 13.4724 60.9095 13.3353C60.8499 13.1981 60.7629 13.0746 60.6539 12.9724C60.5448 12.8702 60.416 12.7914 60.2754 12.741C60.1348 12.6905 59.9854 12.6694 59.8363 12.679L59.8473 12.6768Z" fill="#0166FF"/>
<path d="M45.7709 16.1619C45.1544 16.1707 44.5594 15.935 44.1159 15.5061C43.6724 15.0772 43.4164 14.4901 43.4038 13.8728C43.393 13.5598 43.4443 13.2478 43.5547 12.9548C43.6652 12.6619 43.8326 12.3937 44.0472 12.166C44.2619 11.9382 44.5195 11.7553 44.8053 11.6279C45.091 11.5005 45.3991 11.4312 45.7118 11.4238C46.3436 11.4311 46.9479 11.684 47.397 12.1291C47.846 12.5743 48.1047 13.1767 48.1183 13.8093C48.1038 14.4283 47.8519 15.018 47.4149 15.4561C46.9778 15.8941 46.3891 16.1469 45.7709 16.1619ZM46.8822 13.7786C46.8823 13.629 46.8524 13.4809 46.7943 13.3431C46.7362 13.2052 46.6511 13.0804 46.544 12.9761C46.4369 12.8717 46.3101 12.7899 46.1709 12.7355C46.0317 12.6811 45.883 12.6552 45.7336 12.6593C45.4312 12.6581 45.1405 12.7759 44.924 12.9873C44.7075 13.1987 44.5827 13.4869 44.5764 13.7896C44.5821 14.1057 44.7117 14.4069 44.9372 14.6281C45.1627 14.8494 45.466 14.9731 45.7818 14.9725C46.083 14.9523 46.3649 14.8173 46.5696 14.5952C46.7744 14.3731 46.8862 14.0808 46.8822 13.7786Z" fill="#0166FF"/>
<path d="M50.1115 78.4546C47.6787 77.4842 46.2152 75.0002 46.3661 72.0802C46.5018 69.6005 48.4576 67.2107 50.9603 66.4856C54.0231 65.5963 57.3725 67.0946 58.5407 69.8722C58.5244 70.0075 58.5244 70.1443 58.5407 70.2796C59.197 73.1733 57.4622 76.5817 54.535 77.9179C53.0868 78.5729 51.5991 78.4218 50.1115 78.4546ZM57.2762 70.2183C57.2687 70.1093 57.2317 70.0045 57.1693 69.915C57.1069 69.8255 57.0213 69.7547 56.9218 69.7101C56.5827 69.572 56.3486 69.7539 56.1145 69.9444C54.5066 71.2588 52.8964 72.5555 51.3016 73.8874C50.945 74.1831 50.7 74.2729 50.3762 73.8501C50.0801 73.4976 49.7638 73.1626 49.4289 72.8469C49.1511 72.5621 48.8448 72.4088 48.5123 72.7439C48.1797 73.0791 48.3066 73.4011 48.5779 73.6793C49.1029 74.2357 49.6455 74.7745 50.1596 75.3375C50.5578 75.7756 50.9187 75.7471 51.3563 75.3857C53.1881 73.8786 55.0273 72.3803 56.8737 70.8907C56.9875 70.8183 57.083 70.7205 57.1528 70.605C57.2227 70.4895 57.2649 70.3594 57.2762 70.2248V70.2183Z" fill="#F9F7FC"/>
<path d="M50.1133 78.4543C51.6009 78.4148 53.0886 78.566 54.5259 77.911C57.453 76.5748 59.1857 73.1663 58.5316 70.2727C58.5152 70.1373 58.5152 70.0006 58.5316 69.8652C59.8004 72.0842 59.3126 75.2167 57.3896 77.175C55.4666 79.1333 52.3557 79.6985 50.1133 78.4543Z" fill="#F9F7FC"/>
<path d="M49.9223 37.362C47.4896 36.2667 45.9845 33.4409 46.4067 30.7532C46.8814 27.7346 49.1785 25.5967 52.3441 25.2331C54.8381 24.9461 57.5815 26.5693 58.5484 28.9044C58.4259 29.3753 58.6775 29.809 58.6841 30.2756C58.6967 31.8986 58.1615 33.4783 57.1652 34.7585C56.1689 36.0388 54.7699 36.9446 53.1951 37.3291C52.2172 37.5722 51.2262 37.3707 50.2636 37.5087C50.2223 37.5048 50.1832 37.488 50.152 37.4605L49.9223 37.362ZM48.9182 31.5768C48.8082 31.5625 48.6966 31.5845 48.6003 31.6395C48.504 31.6944 48.4282 31.7793 48.3844 31.8813C48.3229 32.0046 48.3026 32.1444 48.3267 32.2801C48.3507 32.4159 48.4177 32.5402 48.5178 32.6348C49.0429 33.1868 49.592 33.7191 50.093 34.293C50.5305 34.7969 50.9221 34.7574 51.4056 34.35C53.1864 32.8714 54.9869 31.4191 56.783 29.958C57.1352 29.671 57.5158 29.3556 57.1352 28.8825C56.7545 28.4093 56.3629 28.7335 56.0173 29.0161C54.5187 30.2362 52.9939 31.4256 51.5347 32.6961C50.9527 33.2 50.5743 33.2525 50.1324 32.5932C49.9355 32.3352 49.7158 32.0955 49.476 31.8769C49.4102 31.7895 49.3263 31.7174 49.2299 31.6656C49.1336 31.6138 49.0273 31.5835 48.9182 31.5768Z" fill="#F9F7FC"/>
<path d="M50.2617 37.5087C51.2331 37.3707 52.2153 37.5722 53.1932 37.329C54.7681 36.9446 56.167 36.0388 57.1633 34.7585C58.1596 33.4782 58.6948 31.8985 58.6822 30.2756C58.6822 29.809 58.424 29.3753 58.5466 28.9043C60.5264 32.3653 58.179 37.1735 54.134 37.9621C52.7907 38.2228 51.4934 38.1702 50.2617 37.5087Z" fill="#F9F7FC"/>
<path d="M50.11 57.9659C47.6116 56.9583 46.0474 54.172 46.3909 51.3374C46.7212 48.608 48.9964 46.2291 51.6654 45.8261C54.6144 45.388 57.3403 46.7549 58.5064 49.2761C58.5026 49.4959 58.5158 49.7156 58.5458 49.9333C59.2174 53 57.0144 56.3406 54.3672 57.484C52.9693 58.082 51.5407 57.9155 50.11 57.9659ZM48.9395 52.0515C48.8228 52.0426 48.7061 52.0701 48.6055 52.1301C48.5048 52.19 48.4252 52.2797 48.3773 52.3867C48.3216 52.5126 48.3068 52.653 48.3351 52.7878C48.3634 52.9226 48.4332 53.0451 48.5348 53.138C49.0642 53.69 49.609 54.2333 50.1187 54.7941C50.5366 55.2628 50.9063 55.2475 51.3767 54.8554C53.1618 53.3746 54.9667 51.9179 56.7671 50.4568C57.1237 50.1699 57.5132 49.8544 57.1478 49.3813C56.7825 48.9081 56.3799 49.2192 56.0277 49.5061C54.6341 50.6452 53.2318 51.7755 51.8383 52.9168C50.8013 53.7667 50.8079 53.7645 49.8453 52.7788C49.5674 52.5028 49.353 52.1216 48.9395 52.0603V52.0515Z" fill="#F9F7FC"/>
<path d="M50.1094 57.9659C51.5401 57.9155 52.9687 58.0798 54.3667 57.4774C57.016 56.334 59.2168 52.9978 58.5452 49.9267C58.5152 49.709 58.502 49.4893 58.5058 49.2695C59.8053 51.5345 59.3481 54.6648 57.4338 56.6384C55.5196 58.6121 52.4305 59.2013 50.1094 57.9659Z" fill="#F9F7FC"/>
<path d="M52.8142 12.671C52.9638 12.667 53.1126 12.6937 53.2514 12.7496C53.3903 12.8055 53.5162 12.8893 53.6214 12.9959C53.7266 13.1025 53.8088 13.2295 53.863 13.3692C53.9172 13.5088 53.9422 13.6581 53.9365 13.8079C53.9334 14.1092 53.8151 14.398 53.606 14.6147C53.3968 14.8315 53.1127 14.9598 52.812 14.9732C52.4967 14.9669 52.1964 14.8369 51.9759 14.6111C51.7554 14.3854 51.6322 14.082 51.6328 13.7662C51.6379 13.6164 51.6725 13.4691 51.7348 13.3328C51.797 13.1965 51.8856 13.0739 51.9955 12.972C52.1053 12.8702 52.2342 12.7911 52.3747 12.7395C52.5153 12.6878 52.6646 12.6645 52.8142 12.671Z" fill="#25C2FF"/>
<path d="M59.8378 12.6793C59.9863 12.6713 60.1349 12.6937 60.2745 12.7451C60.4141 12.7965 60.5418 12.8759 60.6497 12.9784C60.7576 13.081 60.8435 13.2044 60.9021 13.3413C60.9608 13.4782 60.9909 13.6256 60.9907 13.7746C60.9939 13.9299 60.9661 14.0844 60.9089 14.2288C60.8518 14.3732 60.7664 14.5048 60.6578 14.6158C60.5492 14.7268 60.4196 14.8149 60.2765 14.8751C60.1334 14.9353 59.9798 14.9663 59.8246 14.9662C59.5254 14.9474 59.2437 14.818 59.0343 14.6031C58.825 14.3882 58.7027 14.1031 58.6914 13.8031C58.6954 13.5021 58.8183 13.215 59.0331 13.0044C59.2479 12.7939 59.5372 12.677 59.8378 12.6793Z" fill="#25C2FF"/>
<path d="M46.8813 13.7788C46.8854 14.0799 46.7745 14.3713 46.5711 14.5932C46.3678 14.8151 46.0874 14.9509 45.7874 14.9726C45.4717 14.9733 45.1684 14.8496 44.9429 14.6283C44.7174 14.407 44.5878 14.1058 44.582 13.7897C44.5883 13.487 44.7132 13.1989 44.9297 12.9875C45.1461 12.776 45.4369 12.6582 45.7393 12.6594C45.8881 12.6562 46.0361 12.6828 46.1745 12.7376C46.3129 12.7924 46.439 12.8744 46.5454 12.9786C46.6518 13.0829 46.7363 13.2074 46.794 13.3448C46.8517 13.4822 46.8813 13.6297 46.8813 13.7788Z" fill="#25C2FF"/>
<path d="M57.2792 70.2248C57.2654 70.3588 57.2209 70.4878 57.1492 70.6018C57.0775 70.7157 56.9805 70.8116 56.8657 70.882C55.0208 72.3818 53.1817 73.8837 51.3484 75.3879C50.9108 75.7493 50.5498 75.7778 50.1517 75.3397C49.6376 74.7745 49.095 74.2444 48.57 73.6815C48.2987 73.3923 48.1893 73.0681 48.5043 72.7461C48.8194 72.4241 49.1432 72.5643 49.421 72.8491C49.7605 73.1651 50.0812 73.5009 50.3814 73.8545C50.7052 74.2773 50.9502 74.1875 51.3068 73.8917C52.8994 72.5643 54.5096 71.2631 56.1197 69.9488C56.3538 69.7582 56.5879 69.5764 56.927 69.7144C57.0264 69.7595 57.1117 69.8308 57.1738 69.9207C57.2358 70.0106 57.2723 70.1158 57.2792 70.2248Z" fill="#25C2FF"/>
<path d="M48.9199 31.5771C49.0287 31.5841 49.1346 31.6146 49.2305 31.6664C49.3264 31.7181 49.41 31.7901 49.4756 31.8772C49.7154 32.0957 49.9351 32.3355 50.1319 32.5935C50.5695 33.2506 50.9523 33.2003 51.5343 32.6964C52.9935 31.4281 54.5183 30.2365 56.0169 29.0164C56.3625 28.7338 56.7454 28.3965 57.1348 28.8827C57.5242 29.369 57.1348 29.6713 56.7826 29.9583C54.9864 31.4194 53.186 32.8717 51.4052 34.3503C50.913 34.7577 50.5301 34.7884 50.0926 34.2933C49.5916 33.7194 49.0425 33.1871 48.5174 32.6351C48.4173 32.5405 48.3503 32.4161 48.3263 32.2804C48.3022 32.1447 48.3225 32.0049 48.384 31.8816C48.4279 31.7792 48.504 31.694 48.6008 31.639C48.6976 31.5841 48.8097 31.5623 48.9199 31.5771Z" fill="#25C2FF"/>
<path d="M48.9388 52.0607C49.3522 52.1221 49.5666 52.4988 49.8445 52.788C50.8071 53.7737 50.8005 53.7759 51.8375 52.926C53.231 51.7847 54.6334 50.6544 56.0269 49.5154C56.3791 49.2284 56.7708 48.9064 57.147 49.3905C57.5233 49.8746 57.123 50.1791 56.7664 50.4661C54.9659 51.9271 53.161 53.3838 51.3759 54.8646C50.9055 55.2567 50.5358 55.272 50.1179 54.8033C49.6082 54.2359 49.0635 53.708 48.534 53.1472C48.4324 53.0543 48.3626 52.9318 48.3343 52.797C48.306 52.6622 48.3208 52.5219 48.3765 52.3959C48.4244 52.2889 48.5041 52.1993 48.6047 52.1393C48.7053 52.0793 48.822 52.0519 48.9388 52.0607Z" fill="#25C2FF"/>
</g>
<defs>
<clipPath id="clip0_838_3910">
<rect width="59.9216" height="77.6921" fill="white" transform="translate(26.6719 19.1465)"/>
</clipPath>
<clipPath id="clip1_838_3910">
<rect width="60" height="78" fill="white" transform="translate(39.5 6.5)"/>
</clipPath>
</defs>
</svg>
