<svg width="89" height="106" viewBox="0 0 89 106" fill="none" xmlns="http://www.w3.org/2000/svg">
<rect x="1.19897" y="24.823" width="61.165" height="79.7206" rx="5.49797" stroke="#D9D9D9" stroke-width="1.37449" stroke-dasharray="2.75 2.75"/>
<g clip-path="url(#clip0_812_423)">
<path d="M12.2675 63.6725C12.2383 63.4613 12.2199 63.2489 12.2123 63.0359C12.2038 48.5919 12.1981 34.1472 12.1953 19.7017C12.1953 17.185 13.1184 15.167 15.3105 13.8237C16.2376 13.2439 17.3088 12.9359 18.4023 12.9346C35.1282 12.9346 51.8534 12.9346 68.5779 12.9346C72.1683 12.9346 74.7806 15.829 74.7827 19.6954C74.7827 32.2578 74.7827 44.821 74.7827 57.3849C74.7827 59.6873 74.7466 61.9918 74.7254 64.2942L73.1126 64.3049C73.1126 63.9865 73.0914 63.6682 73.0914 63.3499C73.0914 48.7786 73.0865 34.2002 73.0766 19.6147C73.0766 16.5972 71.1667 14.6555 68.1959 14.6534C51.7331 14.6534 35.2711 14.6534 18.8097 14.6534C18.3596 14.6343 17.9089 14.6728 17.4686 14.768C15.2723 15.3367 13.929 17.1235 13.929 19.5341C13.929 33.9031 13.9248 48.27 13.9163 62.6348C13.9163 62.9807 13.9014 63.3245 13.8929 63.6682L12.2675 63.6725Z" fill="#BBBBBB"/>
<path d="M12.264 63.6729H13.8767C13.8767 63.9912 13.9043 64.3095 13.9043 64.6256C13.9043 72.1532 13.9043 79.6801 13.9043 87.2062C13.9043 87.8025 13.8513 88.4094 14.0741 88.9888C14.9844 91.3548 16.4211 92.3437 18.9781 92.3437C35.3178 92.3437 51.6341 92.3097 67.9611 92.3755C70.8216 92.3883 73.1176 90.3935 73.0879 87.2062C73.02 79.8916 73.0646 72.5642 73.0667 65.2601C73.0667 64.944 73.0837 64.6235 73.0943 64.3095L74.7071 64.2988C74.7304 64.5874 74.775 64.876 74.775 65.1646C74.775 72.5302 74.7537 79.898 74.775 87.2635C74.7919 91.6986 71.4773 94.1007 67.9675 94.0859C51.5641 94.0222 35.1608 94.0604 18.7595 94.0562C15.6189 94.0562 13.2826 92.2991 12.3934 89.3071C12.2395 88.7453 12.1681 88.1642 12.1812 87.5819C12.1812 79.8166 12.1812 72.0528 12.1812 64.2904C12.1975 64.0832 12.2252 63.877 12.264 63.6729Z" fill="#BBBBBB"/>
<path d="M46.2713 84.3038L46.1016 84.3292L46.1525 84.168L46.2713 84.3038Z" fill="#FEFEFE"/>
</g>
<g clip-path="url(#clip1_812_423)">
<g clip-path="url(#clip2_812_423)">
<path d="M86.6026 52.1203C86.6026 52.4386 86.575 52.757 86.575 53.0731C86.575 60.3878 86.5283 67.7025 86.5962 75.0171C86.6259 78.2002 84.3298 80.1991 81.4693 80.1885C65.1424 80.1227 48.8154 80.1567 32.4864 80.1546C29.9399 80.1546 28.4927 79.1657 27.5823 76.8018C27.3701 76.2224 27.4126 75.6155 27.4126 75.0192C27.4126 67.4902 27.4126 59.9627 27.4126 52.4365C27.4126 52.1203 27.3956 51.7999 27.385 51.4859C27.3744 51.1718 27.4062 50.7962 27.4083 50.4524C27.4083 36.0862 27.4126 21.7193 27.4211 7.35171C27.4211 4.94108 28.7643 3.1522 30.9606 2.58562C31.4008 2.48937 31.8516 2.45085 32.3017 2.47103C48.7645 2.47103 65.2266 2.47103 81.6879 2.47103C84.6588 2.47103 86.5686 4.41481 86.5686 7.43023C86.5686 22.0086 86.5736 36.5877 86.5835 51.1675C86.5813 51.4859 86.5941 51.802 86.6026 52.1203ZM81.4099 52.757C81.4269 52.358 81.238 51.9909 81.1977 51.6153C80.8624 48.4747 79.22 46.0662 76.9006 44.0927C74.7361 42.2507 72.1748 41.3574 69.3207 41.2725C63.0119 41.0836 57.3545 45.941 56.7137 52.1225C56.2044 56.2456 57.4882 59.7491 60.4293 62.6393C60.9344 63.1337 60.9853 63.5093 60.7434 64.1247C59.6972 66.8112 58.7169 69.5232 57.6877 72.2182C57.433 72.8887 57.3333 73.5126 57.9168 74.041C58.5004 74.5694 59.1731 74.4251 59.8267 74.0622C60.5885 73.6378 61.38 73.258 62.1312 72.8145C62.5811 72.5471 62.7572 72.668 62.9185 73.1243C63.2517 74.0728 63.6039 75.0171 64.005 75.936C64.406 76.8548 65.5838 77.0988 66.214 76.3604C66.4178 76.0852 66.5748 75.7784 66.6788 75.4521C67.3366 73.729 67.9795 72.0017 68.6841 70.1258C69.378 71.9656 70.0231 73.642 70.6385 75.3291C70.8825 75.9996 71.3005 76.4325 72.0263 76.4219C72.7202 76.4092 73.1106 75.9529 73.3419 75.3333C73.7324 74.2935 74.1335 73.2579 74.5494 72.1672L77.7324 73.8521C77.9722 74.0005 78.2551 74.0634 78.5352 74.0307C78.8153 73.9979 79.0761 73.8714 79.2752 73.6718C79.4938 73.4942 79.6474 73.2492 79.7119 72.975C79.7764 72.7008 79.7482 72.413 79.6317 72.1566C79.5553 71.9593 79.4916 71.7577 79.4195 71.5582C78.5706 69.2791 77.7515 66.9852 76.8369 64.7295C76.5186 63.9401 76.6438 63.5178 77.2804 62.9406C80.2704 60.2265 81.7325 56.8419 81.4099 52.7548V52.757ZM55.485 25.5758H37.5177C37.2792 25.563 37.0401 25.5693 36.8026 25.5949C36.6107 25.6302 36.4369 25.7306 36.3104 25.8791C36.1839 26.0276 36.1123 26.2151 36.1078 26.4101C36.1034 26.6051 36.1662 26.7958 36.2858 26.9499C36.4053 27.104 36.5744 27.2123 36.7644 27.2564C36.9993 27.294 37.2377 27.3061 37.4753 27.2925H73.412C73.5974 27.3021 73.7832 27.2978 73.9679 27.2798C74.4433 27.2119 74.7701 26.936 74.7764 26.4501C74.7764 25.9259 74.4496 25.6331 73.9276 25.58C73.7156 25.5693 73.5031 25.5693 73.291 25.58L55.485 25.5758ZM55.4404 14.8892H73.2549C73.5191 14.9034 73.784 14.8942 74.0465 14.8616C74.2485 14.842 74.4359 14.7475 74.5718 14.5967C74.7076 14.4459 74.7822 14.2497 74.7807 14.0467C74.7807 13.5587 74.49 13.2637 74.0167 13.1767C73.8056 13.1511 73.5925 13.1447 73.3801 13.1576H37.4371C37.2517 13.1502 37.066 13.1544 36.8811 13.1703C36.4015 13.234 36.0811 13.512 36.0726 13.9979C36.0726 14.5263 36.3973 14.817 36.9214 14.8765C37.1586 14.8945 37.3967 14.8987 37.6344 14.8892H55.4404ZM46.8844 37.9854H37.5113C37.2735 37.9719 37.0348 37.9797 36.7983 38.0088C36.6092 38.0484 36.4393 38.1514 36.3166 38.3006C36.194 38.4499 36.1259 38.6366 36.1237 38.8298C36.1214 39.023 36.1852 39.2112 36.3044 39.3632C36.4236 39.5153 36.5911 39.6221 36.7792 39.6661C37.0153 39.6994 37.2542 39.7094 37.4922 39.6958C43.7664 39.6958 50.0413 39.6958 56.3168 39.6958C56.5801 39.7096 56.8441 39.6889 57.102 39.6343C57.2867 39.5946 57.4506 39.4888 57.5627 39.3368C57.6749 39.1848 57.7276 38.997 57.711 38.8088C57.7117 38.6199 57.6453 38.4369 57.5237 38.2923C57.402 38.1478 57.2331 38.051 57.0468 38.0194C56.8118 37.9825 56.5734 37.9711 56.3359 37.9854H46.8844ZM44.5798 52.1119H51.0924C51.4616 52.1119 51.833 52.1119 52.2022 52.1119C52.7518 52.0991 53.1465 51.8424 53.1571 51.263C53.1677 50.6837 52.79 50.4142 52.2383 50.3866C52.1067 50.3866 51.973 50.3866 51.8415 50.3866H37.3904C37.2321 50.3771 37.0734 50.3771 36.915 50.3866C36.3973 50.446 36.0662 50.7347 36.0662 51.2609C36.0662 51.7447 36.3951 52.0227 36.8747 52.0864C37.0864 52.1045 37.2991 52.1088 37.5113 52.0991L44.5798 52.1119Z" fill="#F9F7FC"/>
</g>
<path d="M25.9706 51.5065C25.9415 51.2953 25.9231 51.0829 25.9154 50.8699C25.9069 36.4259 25.9013 21.9811 25.8984 7.53573C25.8984 5.019 26.8215 3.00094 29.0136 1.65769C29.9407 1.07789 31.0119 0.769841 32.1054 0.768555C48.8313 0.768555 65.5565 0.768555 82.281 0.768555C85.8715 0.768555 88.4837 3.66301 88.4858 7.52937C88.4858 20.0918 88.4858 32.655 88.4858 45.2189C88.4858 47.5213 88.4497 49.8258 88.4285 52.1282L86.8158 52.1388C86.8158 51.8205 86.7945 51.5022 86.7945 51.1839C86.7945 36.6126 86.7896 22.0342 86.7797 7.44873C86.7797 4.43119 84.8699 2.48953 81.899 2.48741C65.4362 2.48741 48.9742 2.48741 32.5128 2.48741C32.0627 2.4683 31.612 2.5068 31.1717 2.60199C28.9754 3.1707 27.6321 4.95746 27.6321 7.36809C27.6321 21.7371 27.6279 36.104 27.6194 50.4688C27.6194 50.8147 27.6046 51.1585 27.5961 51.5022L25.9706 51.5065Z" fill="#0166FF"/>
<path d="M25.9671 51.5068H27.5799C27.5799 51.8251 27.6074 52.1434 27.6074 52.4596C27.6074 59.9872 27.6074 67.5141 27.6074 75.0402C27.6074 75.6365 27.5544 76.2434 27.7772 76.8227C28.6876 79.1888 30.1242 80.1777 32.6812 80.1777C49.0209 80.1777 65.3373 80.1437 81.6642 80.2095C84.5247 80.2222 86.8208 78.2275 86.7911 75.0402C86.7232 67.7256 86.7677 60.3982 86.7699 53.0941C86.7699 52.7779 86.7868 52.4575 86.7974 52.1434L88.4102 52.1328C88.4335 52.4214 88.4781 52.71 88.4781 52.9986C88.4781 60.3642 88.4569 67.7319 88.4781 75.0975C88.4951 79.5326 85.1804 81.9347 81.6706 81.9199C65.2672 81.8562 48.8639 81.8944 32.4627 81.8902C29.322 81.8902 26.9857 80.1331 26.0966 77.1411C25.9427 76.5793 25.8712 75.9981 25.8843 75.4158C25.8843 67.6506 25.8843 59.8868 25.8843 52.1243C25.9007 51.9172 25.9283 51.711 25.9671 51.5068Z" fill="#0166FF"/>
<path d="M81.612 52.7837C81.9345 56.8708 80.4724 60.2554 77.4804 62.9695C76.8437 63.5488 76.7185 63.9711 77.0369 64.7605C77.9515 67.0141 78.7663 69.3102 79.6194 71.5892C79.6936 71.7866 79.7573 71.9882 79.8316 72.1855C79.9486 72.4422 79.9771 72.7305 79.9126 73.0051C79.8481 73.2797 79.6942 73.5251 79.4751 73.7028C79.2758 73.9021 79.015 74.0284 78.7351 74.0611C78.4551 74.0938 78.1723 74.0311 77.9324 73.8832L74.7493 72.1961C74.3249 73.289 73.9323 74.3182 73.5419 75.3622C73.3106 75.984 72.9201 76.4402 72.2262 76.4508C71.5005 76.4508 71.0824 76.0264 70.8384 75.3601C70.223 73.6625 69.5779 71.9945 68.884 70.1547C68.1795 72.0306 67.5365 73.7622 66.8787 75.4811C66.7752 75.8081 66.6181 76.1157 66.4139 76.3914C65.7773 77.1277 64.6187 76.9092 64.2049 75.967C63.7911 75.0248 63.4516 74.1017 63.1184 73.1532C62.9571 72.6969 62.781 72.5781 62.3311 72.8434C61.5799 73.2869 60.7884 73.6625 60.0266 74.0911C59.3794 74.4561 58.7364 74.6301 58.1168 74.072C57.4971 73.5139 57.6329 72.9176 57.8876 72.2471C58.9168 69.5521 59.8972 66.8422 60.9433 64.1536C61.1852 63.5297 61.1343 63.1563 60.6293 62.6682C57.6881 59.778 56.4043 56.2745 56.9136 52.1514H58.5794C58.5794 52.2575 58.5794 52.3636 58.5794 52.4675C58.2271 56.5949 59.5788 59.9881 62.9741 62.4411C64.1507 63.2915 65.4882 63.8932 66.9051 64.2094C68.3219 64.5256 69.7884 64.5497 71.2149 64.2802C72.6413 64.0108 73.9979 63.4533 75.2018 62.642C76.4056 61.8307 77.4315 60.7826 78.2167 59.5615C79.5663 57.4777 80.065 55.2177 79.9653 52.7837H81.612ZM59.9672 72.1367C60.6738 71.7781 61.3868 71.428 62.0892 71.0587C63.2415 70.4539 63.9715 70.7192 64.4532 71.9415C64.7651 72.7288 65.0622 73.5203 65.4335 74.4879C66.2824 72.1961 67.0972 70.1017 67.8569 67.9903C68.1179 67.2645 67.3625 66.0359 66.6155 65.8682C65.3966 65.6112 64.2234 65.172 63.1354 64.5653C62.8043 64.3828 62.6367 64.3849 62.4988 64.7775C61.6245 67.1881 60.7332 69.5945 59.8483 72.003L59.7974 72.1643L59.9672 72.1367ZM77.8814 71.9245C77.7944 71.6317 77.752 71.4598 77.6904 71.2879C76.9414 69.2847 76.1711 67.2879 75.4496 65.2719C75.2501 64.7138 75.0379 64.7011 74.5519 64.943C73.079 65.6762 71.4644 66.0809 69.8198 66.1292C69.2129 66.1462 69.2596 66.3414 69.4272 66.7871C70.276 68.9834 71.0845 71.1882 71.9185 73.3866C71.9864 73.5649 71.9652 73.811 72.2601 73.8874C72.5742 73.0768 72.884 72.2619 73.2066 71.4534C73.6501 70.3478 74.3419 70.0805 75.3986 70.6046C76.1986 71.0311 76.9817 71.4534 77.8878 71.9309L77.8814 71.9245Z" fill="#0166FF"/>
<path d="M55.6844 25.6051H73.4946C73.7067 25.5944 73.9192 25.5944 74.1313 25.6051C74.6512 25.656 74.9801 25.9489 74.9801 26.4751C74.9801 26.9611 74.6469 27.2348 74.1716 27.3048C73.9867 27.3212 73.8009 27.3247 73.6156 27.3154H37.6683C37.4306 27.3284 37.1923 27.3156 36.9574 27.2772C36.756 27.2502 36.5724 27.1473 36.4443 26.9896C36.3161 26.8318 36.253 26.6311 36.2677 26.4284C36.2641 26.2257 36.337 26.029 36.4719 25.8776C36.6068 25.7262 36.7938 25.6312 36.9956 25.6114C37.2331 25.5859 37.4722 25.5795 37.7107 25.5924L55.6844 25.6051Z" fill="#0166FF"/>
<path d="M55.6419 14.9181H37.8274C37.5898 14.9283 37.3517 14.9248 37.1144 14.9075C36.5988 14.848 36.2656 14.5573 36.2656 14.0289C36.2656 13.5409 36.5945 13.265 37.0741 13.2013C37.2589 13.1836 37.4446 13.1787 37.6301 13.1865H73.5838C73.7962 13.1742 74.0093 13.1813 74.2204 13.2077C74.6936 13.2947 74.9949 13.5876 74.9843 14.0756C74.9858 14.2786 74.9113 14.4748 74.7754 14.6256C74.6395 14.7764 74.4521 14.8709 74.2501 14.8905C73.9876 14.9231 73.7227 14.9323 73.4586 14.9181H55.6419Z" fill="#0166FF"/>
<path d="M58.5799 52.149H56.9141C57.5507 45.9632 63.2123 41.1144 69.5211 41.3011C72.3752 41.386 74.9365 42.2773 77.101 44.1192C79.4204 46.0927 81.0629 48.5012 81.3981 51.6418C81.4385 52.0195 81.6273 52.3866 81.6103 52.7835H79.9658C79.9063 52.4736 79.8363 52.1659 79.7896 51.8561C78.9281 46.0969 73.0246 41.9929 67.2696 43.1558C62.6627 44.098 59.5369 47.3298 58.5799 52.149Z" fill="#0166FF"/>
<path d="M47.0867 38.0164H56.5382C56.7757 38.0031 57.014 38.0145 57.2491 38.0504C57.4352 38.0824 57.6039 38.1792 57.7254 38.3237C57.847 38.4682 57.9135 38.651 57.9133 38.8398C57.9296 39.0281 57.8767 39.216 57.7646 39.3682C57.6526 39.5205 57.489 39.6268 57.3043 39.6673C57.0461 39.7203 56.7823 39.7402 56.5191 39.7268C50.245 39.7268 43.9701 39.7268 37.6945 39.7268C37.4564 39.7396 37.2176 39.729 36.9815 39.6949C36.7827 39.6641 36.6016 39.5626 36.4716 39.4091C36.3415 39.2556 36.2712 39.0603 36.2735 38.8591C36.2758 38.6578 36.3506 38.4642 36.4842 38.3137C36.6178 38.1632 36.8011 38.066 37.0006 38.0397C37.237 38.0089 37.4757 38.0004 37.7136 38.0143L47.0867 38.0164Z" fill="#0166FF"/>
<path d="M44.7828 52.1427H37.7185C37.5063 52.1524 37.2936 52.1481 37.0819 52.13C36.6024 52.0663 36.2798 51.7862 36.2734 51.3024C36.2734 50.7782 36.5981 50.4896 37.1223 50.4281C37.2806 50.4185 37.4393 50.4185 37.5976 50.4281H52.0487C52.1802 50.4281 52.3139 50.4281 52.4455 50.4281C52.9972 50.462 53.3771 50.7336 53.3643 51.3045C53.3516 51.8753 52.959 52.1321 52.4094 52.1533C52.0402 52.1533 51.6688 52.1533 51.2996 52.1533L44.7828 52.1427Z" fill="#0166FF"/>
<path d="M59.9705 72.1368L59.8008 72.1623L59.8517 72.001L59.9705 72.1368Z" fill="#FEFEFE"/>
<g clip-path="url(#clip3_812_423)">
<path d="M58.6296 52.1839C59.5866 47.3647 62.7124 44.1329 67.3299 43.1971C73.0828 42.0299 78.9863 46.134 79.85 51.8974C79.8966 52.2072 79.9667 52.5149 80.0261 52.8247C80.1258 55.2587 79.6271 57.5187 78.2775 59.6025C77.4923 60.8236 76.4664 61.8717 75.2626 62.6831C74.0587 63.4944 72.7022 64.0518 71.2757 64.3213C69.8492 64.5908 68.3827 64.5667 66.9659 64.2505C65.549 63.9342 64.2115 63.3326 63.0349 62.4821C59.6397 60.0248 58.2879 56.6317 58.6402 52.5086C58.6381 52.3961 58.6296 52.29 58.6296 52.1839Z" fill="#F9F7FC"/>
<path d="M59.9062 72.0349C60.7911 69.6264 61.6824 67.22 62.5567 64.8093C62.6967 64.4189 62.8644 64.4168 63.1933 64.5971C64.2801 65.2065 65.4527 65.6487 66.6713 65.9085C67.4183 66.0656 68.1737 67.2942 67.9127 68.0306C67.153 70.142 66.3466 72.2365 65.4893 74.5283C65.118 73.5627 64.8209 72.7712 64.5089 71.9818C64.0272 70.7595 63.2973 70.4964 62.145 71.0991C61.4426 71.4683 60.7296 71.8184 60.023 72.177L59.9062 72.0349Z" fill="#F9F7FC"/>
<path d="M77.9381 71.9647C77.032 71.4872 76.2405 71.065 75.4553 70.6618C74.3943 70.127 73.7068 70.3944 73.2633 71.5106C72.9407 72.3191 72.6267 73.134 72.3168 73.9446C72.0219 73.8745 72.0431 73.622 71.9752 73.4438C71.1412 71.2453 70.3243 69.0406 69.4839 66.8442C69.3163 66.4071 69.2717 66.2076 69.8765 66.1864C71.5211 66.1381 73.1357 65.7334 74.6086 65.0002C75.0946 64.7583 75.3068 64.771 75.5063 65.3291C76.2278 67.345 76.9917 69.3419 77.7471 71.3451C77.8087 71.5063 77.8511 71.6719 77.9381 71.9647Z" fill="#F9F7FC"/>
<g clip-path="url(#clip4_812_423)">
<path d="M62.1836 52.0554C62.3966 51.7342 62.7413 51.7007 63.0759 51.665C63.5912 51.6093 64.1092 51.5753 64.6245 51.5184C65.2608 51.4475 65.8983 51.3868 66.5251 51.2429C66.6585 51.2153 66.7846 51.16 66.8952 51.0804C67.0058 51.0008 67.0984 50.8989 67.167 50.7811C67.4765 50.2792 67.728 49.7478 67.9812 49.2196C68.2684 48.6173 68.5422 48.0084 68.826 47.4044C68.9003 47.2305 69.0088 47.0733 69.145 46.9421C69.3257 46.7798 69.5354 46.7787 69.715 46.9449C69.9169 47.1317 70.0278 47.3782 70.1394 47.6225C70.5571 48.537 70.9664 49.4561 71.4388 50.345C71.5269 50.5123 71.6272 50.6707 71.7243 50.8319C71.8609 51.0594 72.065 51.1826 72.3227 51.2412C73.0555 51.4085 73.8022 51.4693 74.5461 51.5518C75.0659 51.6076 75.5906 51.6176 76.1076 51.7191C76.2281 51.7407 76.3444 51.7812 76.4522 51.839C76.4994 51.8616 76.5415 51.8934 76.5761 51.9325C76.6107 51.9716 76.6371 52.0173 76.6537 52.0668C76.6704 52.1163 76.6769 52.1686 76.6729 52.2207C76.669 52.2728 76.6546 52.3235 76.6307 52.3699C76.5449 52.549 76.4241 52.709 76.2755 52.8406C75.6035 53.4886 74.9053 54.1099 74.2478 54.7724C73.9884 55.0339 73.733 55.2977 73.4932 55.5771C73.3674 55.7142 73.2783 55.8809 73.2343 56.0617C73.1903 56.2425 73.1929 56.4315 73.2417 56.6111C73.5094 57.7126 73.7747 58.8146 74.0375 59.9169C74.0437 59.9448 74.0476 59.9727 74.0531 60.0006C74.1463 60.4791 73.8451 60.7429 73.3839 60.5884C73.0432 60.4768 72.732 60.2973 72.4141 60.1344C71.5648 59.7006 70.7138 59.2689 69.8248 58.9176C69.699 58.8647 69.564 58.8375 69.4275 58.8375C69.291 58.8375 69.156 58.8647 69.0302 58.9176C68.0464 59.308 67.104 59.7898 66.1659 60.2783C65.9432 60.4001 65.711 60.5038 65.4716 60.5884C65.0155 60.7401 64.7115 60.4808 64.8058 60.0106C64.8688 59.6972 64.9508 59.3877 65.0255 59.0765C65.2257 58.24 65.4293 57.4035 65.6244 56.567C65.7103 56.1995 65.6211 55.8716 65.3735 55.581C64.8643 54.9843 64.2888 54.4529 63.725 53.908C63.3854 53.5812 63.0357 53.265 62.6905 52.9432C62.4897 52.7597 62.3189 52.546 62.1842 52.3097L62.1836 52.0554ZM62.695 52.2333C62.7747 52.3242 62.8344 52.4034 62.9047 52.4709C63.6045 53.1445 64.329 53.7926 65.0132 54.483C65.2988 54.7707 65.5876 55.0551 65.8308 55.3819C65.9648 55.5563 66.0592 55.7578 66.1074 55.9724C66.1556 56.187 66.1563 56.4095 66.1096 56.6244C66.0539 56.9105 65.9763 57.1927 65.9083 57.476C65.7053 58.3218 65.5025 59.168 65.2999 60.0145C65.2921 60.0474 65.2569 60.0898 65.2949 60.1177C65.3328 60.1456 65.3651 60.1127 65.4003 60.1004C65.5462 60.0477 65.6877 59.9836 65.8235 59.9086C66.7219 59.4357 67.6393 59.0012 68.5612 58.5746C69.1495 58.3025 69.7111 58.2958 70.2978 58.5746C71.0718 58.9388 71.8503 59.2929 72.6099 59.69C72.8887 59.835 73.1614 59.9939 73.4586 60.1021C73.4938 60.1149 73.5345 60.1439 73.5646 60.1211C73.6048 60.0898 73.5674 60.0424 73.5585 60.0056C73.2982 58.9208 73.038 57.8368 72.7777 56.7538C72.6495 56.2263 72.7309 55.7455 73.0794 55.32C73.1781 55.1996 73.2757 55.0786 73.3822 54.9654C74.1346 54.1696 74.9387 53.4278 75.7407 52.6834C75.8961 52.5513 76.0342 52.4 76.1517 52.2333C75.9973 52.1808 75.8365 52.1499 75.6737 52.1413C74.7218 52.0482 73.7676 51.9773 72.8212 51.8301C72.6495 51.8033 72.4788 51.7682 72.3071 51.7375C71.8152 51.6494 71.4644 51.3739 71.2185 50.9423C70.8281 50.2591 70.4985 49.5481 70.1634 48.8376C69.9486 48.3826 69.7685 47.9119 69.5204 47.473C69.4373 47.3263 69.4272 47.3274 69.3436 47.473C69.1344 47.8316 68.9855 48.2186 68.811 48.5934C68.4429 49.3869 68.086 50.185 67.6399 50.9406C67.4798 51.2133 67.2947 51.4721 66.9846 51.6003C66.7395 51.6978 66.4839 51.7661 66.2228 51.8039C65.2781 51.9556 64.3267 52.0387 63.372 52.1229C63.1512 52.1379 62.9292 52.153 62.6939 52.2333H62.695Z" fill="#0166FF"/>
</g>
</g>
</g>
<defs>
<clipPath id="clip0_812_423">
<rect width="62.5959" height="81.1594" fill="white" transform="translate(12.1953 12.9346)"/>
</clipPath>
<clipPath id="clip1_812_423">
<rect width="62.5959" height="81.1594" fill="white" transform="translate(25.8984 0.768555)"/>
</clipPath>
<clipPath id="clip2_812_423">
<rect width="59.2197" height="77.7217" fill="white" transform="translate(27.3828 2.46582)"/>
</clipPath>
<clipPath id="clip3_812_423">
<rect width="21.4538" height="31.5229" fill="white" transform="translate(58.5742 42.9971)"/>
</clipPath>
<clipPath id="clip4_812_423">
<rect width="14.485" height="13.8158" fill="white" transform="translate(62.1836 46.8164)"/>
</clipPath>
</defs>
</svg>
