<svg width="103" height="98" viewBox="0 0 103 98" fill="none" xmlns="http://www.w3.org/2000/svg">
<g clip-path="url(#clip0_1201_831)">
<path d="M38.9739 22.5109C38.2154 22.5117 37.4569 22.5124 36.6983 22.513L36.6989 23.263L34.4232 23.2649L34.4227 22.5149C33.6642 22.5155 32.9056 22.516 32.1471 22.5165L32.1475 23.2665L29.8718 23.2677L29.8715 22.5177C29.1129 22.5181 28.3544 22.5185 27.5958 22.5188L27.5961 23.2688L25.3204 23.2695L25.3202 22.5195C24.5617 22.5197 23.8032 22.5199 23.0446 22.52L23.0447 23.27L20.769 23.2702L20.769 22.5202C20.0105 22.5202 19.252 22.5202 18.4934 22.5201L18.4933 23.2701L16.2176 23.2698L16.2178 22.5198C15.4593 22.5196 14.7007 22.5194 13.9422 22.5191L13.9419 23.2691L11.6662 23.2682L11.6666 22.5182C10.9081 22.5179 10.1495 22.5175 9.39095 22.5171L9.39052 23.2671L7.11482 23.2656L7.11534 22.5156C6.35683 22.5151 5.59829 22.5145 4.83973 22.5139L4.83912 23.2639L3.70192 23.263C3.70182 23.263 3.70172 23.263 3.70162 23.263C3.35353 23.263 3.04404 23.2943 2.77017 23.3549L2.60802 22.6227C1.85099 22.7903 1.23852 23.157 0.786566 23.7697L1.39014 24.2149C1.23649 24.4232 1.09863 24.6805 0.983358 24.9984L0.982407 25.001L0.982402 25.001C0.854939 25.3485 0.776572 25.7147 0.747372 26.0806L-0.000250511 26.0209C-0.0733377 26.9368 0.114703 27.8452 0.552173 28.5421L1.18738 28.1433C1.36679 28.4291 1.59123 28.6525 1.85385 28.8051C2.12034 28.9593 2.35217 29.1302 2.54868 29.3238L2.02228 29.858C2.37692 30.2075 2.51619 30.6018 2.56842 31.0715L3.31382 30.9886C3.34181 31.2404 3.34773 31.4985 3.34773 31.7506V31.752L3.34573 32.9068L2.59573 32.9056C2.59447 33.6756 2.59336 34.4456 2.59238 35.2155L3.34237 35.2165C3.34139 35.9864 3.34053 36.7563 3.33977 37.5262L2.58977 37.5254C2.58902 38.2954 2.58837 39.0654 2.5878 39.8354L3.3378 39.8359L3.33633 42.1457L2.58634 42.1453C2.58592 42.9153 2.58556 43.6853 2.58525 44.4553L3.33525 44.4556L3.33443 46.7654L2.58443 46.7652C2.58418 47.5352 2.58396 48.3052 2.58373 49.0751L3.33373 49.0754L3.33305 51.3853L2.58305 51.3851C2.58281 52.1551 2.58256 52.925 2.58226 53.695L3.33226 53.6953L3.33122 56.0053L2.58122 56.005C2.58083 56.7749 2.58037 57.5449 2.57983 58.3149L3.32983 58.3154L3.32794 60.6255L2.57794 60.6248C2.57722 61.3948 2.5764 62.1648 2.57545 62.9348L3.32545 62.9357C3.3245 63.7057 3.32343 64.4758 3.32222 65.2459L2.57222 65.2447C2.57101 66.0147 2.56965 66.7847 2.56813 67.5546L3.31813 67.5561C3.31661 68.3262 3.31493 69.0963 3.31306 69.8664L2.56306 69.8646C2.5612 70.6345 2.55914 71.4045 2.55689 72.1745L3.30688 72.1767L3.30334 73.3311C3.30334 73.3313 3.30334 73.3314 3.30334 73.3316C3.30274 73.6115 3.31917 73.8269 3.34991 73.993L2.61243 74.1295C2.72713 74.7495 3.0242 75.0933 3.63461 75.2141L3.78023 74.4783C3.92627 74.5072 4.12771 74.5217 4.40435 74.5104C4.71243 74.4979 5.02019 74.4885 5.32747 74.4815L5.34436 75.2314C5.95052 75.2177 6.55716 75.2138 7.1641 75.2142L7.16471 74.4642C7.67559 74.4647 8.18684 74.4682 8.69551 74.4717C8.79343 74.4724 8.89125 74.4731 8.98895 74.4737L8.98394 75.2237C9.59052 75.2278 10.1972 75.231 10.8038 75.2281L10.8002 74.4781C11.101 74.4766 11.4012 74.4737 11.7009 74.4685L11.7023 74.4685C11.9331 74.465 12.1624 74.4743 12.3881 74.5068L12.281 75.2491C12.6672 75.3048 12.9922 75.442 13.2984 75.7164L13.7989 75.1577C13.9712 75.3121 14.1295 75.4903 14.2789 75.6905L14.279 75.6907C14.4642 75.9392 14.6633 76.1716 14.8741 76.3875L14.3374 76.9114C14.82 77.4057 15.3587 77.8228 15.9337 78.1588L16.312 77.5112C16.8456 77.823 17.4132 78.0567 17.9946 78.2085L17.8051 78.9342C18.4661 79.1068 19.1446 79.1848 19.8173 79.1634L19.7935 78.4138C20.396 78.3947 20.9903 78.2861 21.5561 78.0853L21.8069 78.7921C22.4334 78.5698 23.0318 78.2469 23.5802 77.8188L23.1187 77.2276C23.3498 77.0472 23.5715 76.845 23.7817 76.6204L23.782 76.6201C24.1835 76.1915 24.592 75.8342 25.0139 75.5411L25.4418 76.157C26.3193 75.5475 27.2199 75.2811 28.2109 75.2089L28.1564 74.4609C28.674 74.4232 29.2034 74.4344 29.7457 74.4735L29.75 74.4738C29.9515 74.4895 30.1532 74.5013 30.355 74.5092L30.3259 75.2586C30.7491 75.275 31.1728 75.275 31.596 75.2586L31.5669 74.5092C31.7687 74.5013 31.9704 74.4895 32.1719 74.4739C32.4263 74.4535 32.673 74.4583 32.9129 74.496L32.7964 75.2369C33.1813 75.2974 33.4912 75.4681 33.7869 75.7519L34.3062 75.2108C34.4659 75.3641 34.614 75.5353 34.7554 75.718C34.9456 75.9636 35.1491 76.1933 35.3638 76.4067L34.835 76.9386C35.3251 77.4259 35.8686 77.8369 36.446 78.168L36.8191 77.5174C37.3576 77.8262 37.9277 78.0574 38.5094 78.2078L38.3217 78.934C38.9852 79.1054 39.6639 79.1828 40.3346 79.1616L40.3109 78.412C40.9158 78.3929 41.5096 78.2838 42.0715 78.0828L42.3241 78.789C42.952 78.5644 43.5485 78.2375 44.0908 77.804L43.6224 77.2182C43.8505 77.0359 44.0682 76.8316 44.2735 76.6045L44.2763 76.6013C44.6523 76.19 45.0345 75.8446 45.4295 75.5594L45.8686 76.1674C46.6925 75.5723 47.5365 75.3052 48.4732 75.2259L48.4099 74.4786C48.9018 74.437 49.4057 74.4429 49.9233 74.4763M38.9739 22.5109L49.8749 75.2248M38.9739 22.5109L38.9746 23.2609L40.1117 23.2598H40.1121H41.2293V22.5098H43.4644V23.2598H45.6996V22.5098H47.9348V23.2598H50.1699V22.5098H52.4051V23.2598H54.6402V22.5098H56.8754V23.2598H59.1105V22.5098H61.3457V23.2598H63.5808V22.5098H65.816V23.2598H68.0512V22.5098H70.2863V23.2598H72.5215V22.5098H74.7566V23.2598H75.8742C76.289 23.2598 76.6507 23.287 76.9661 23.3393L77.0886 22.5994C78.0335 22.7559 78.7118 23.1213 79.1813 23.7264L78.5888 24.1862C78.7588 24.4053 78.9037 24.683 79.0194 25.0385L79.0196 25.0391C79.1562 25.4578 79.23 25.8592 79.2463 26.2364L79.9956 26.2042C80.0384 27.1981 79.7501 28.1101 79.1225 28.8479L78.5512 28.362C78.3182 28.6359 78.0199 28.8881 77.648 29.1071L77.6477 29.1073C77.4221 29.2403 77.229 29.394 77.0723 29.5736L77.6373 30.0668C77.3822 30.359 77.3587 30.6798 77.3717 31.009L76.6223 31.0385C76.6261 31.1358 76.6306 31.2077 76.6345 31.2702C76.6398 31.3544 76.644 31.4215 76.6441 31.5108C76.6441 31.5108 76.6441 31.5108 76.6441 31.5109C76.6441 31.5111 76.6441 31.5114 76.6441 31.5117L76.6427 32.6568L77.3927 32.6577C77.3918 33.4217 77.391 34.1858 77.3902 34.9498L76.6402 34.949L76.638 37.2412L77.388 37.2418C77.3873 38.0059 77.3867 38.7699 77.3861 39.5339L76.6361 39.5333L76.6345 41.8255L77.3845 41.826C77.3841 42.59 77.3837 43.354 77.3833 44.118L76.6333 44.1177L76.6324 46.4098L77.3824 46.4101C77.3821 47.1741 77.3819 47.9381 77.3817 48.7022L76.6317 48.702L76.6314 50.9942L77.3814 50.9942C77.3814 51.7583 77.3814 52.5223 77.3814 53.2863L76.6314 53.2863L76.6317 55.5785L77.3817 55.5784C77.3819 56.3424 77.3821 57.1064 77.3824 57.8704L76.6324 57.8707L76.6333 60.1628L77.3833 60.1625C77.3837 60.9265 77.3841 61.6905 77.3845 62.4546L76.6345 62.455L76.6361 64.7472L77.3861 64.7466C77.3867 65.5106 77.3873 66.2747 77.388 67.0387L76.638 67.0394L76.6402 69.3315L77.3902 69.3308C77.391 70.0948 77.3918 70.8588 77.3927 71.6228L76.6427 71.6237L76.6441 72.7689C76.6441 72.7692 76.6441 72.7695 76.6441 72.7698C76.6441 73.2155 76.6439 73.5565 76.631 73.8313L77.3802 73.8663C77.3552 74.4024 77.2848 74.7271 77.0871 74.9238C76.8956 75.1144 76.5846 75.1849 76.0796 75.2114L76.0403 74.4625C75.7691 74.4767 75.4302 74.4774 74.9817 74.478C74.4137 74.478 73.8461 74.4796 73.2793 74.4815L73.2819 75.2315C73.0925 75.2322 72.9031 75.2329 72.7137 75.2336C71.7691 75.2372 70.8245 75.2407 69.8805 75.2387L69.882 74.4887C69.3278 74.4875 68.7744 74.4845 68.2216 74.4784C68.1119 74.4681 68.002 74.4645 67.8925 74.4676L67.9138 75.2173C67.736 75.2224 67.5598 75.2517 67.3899 75.3046L67.1672 74.5884C67.0502 74.6248 66.9354 74.6692 66.8237 74.7215C66.7119 74.7738 66.6041 74.8336 66.5011 74.9003L66.9086 75.5299C66.7591 75.6267 66.6234 75.7434 66.5053 75.8769L65.9436 75.3799C65.8677 75.4658 65.797 75.5566 65.7321 75.652C65.5207 75.931 65.2967 76.1878 65.0622 76.4227L65.593 76.9526C65.0333 77.5132 64.4152 77.9652 63.761 78.3085L63.4124 77.6444C62.7951 77.9684 62.1434 78.1837 61.4803 78.2913L61.6005 79.0316C60.8463 79.154 60.0778 79.1523 59.3223 79.0263L59.4456 78.2865C58.7839 78.1762 58.1317 77.959 57.512 77.6337L57.1634 78.2977C56.5098 77.9546 55.8904 77.5043 55.3271 76.9469L55.8547 76.4138C55.6203 76.1819 55.3959 75.9287 55.1834 75.6541C55.1211 75.5596 55.0532 75.4695 54.98 75.3843L54.411 75.8729C54.2942 75.737 54.1589 75.6182 54.0091 75.5201L54.42 74.8926C54.316 74.8245 54.2069 74.7636 54.0936 74.7104C53.9803 74.6573 53.8639 74.6125 53.7452 74.5761L53.5253 75.2931C53.3543 75.2406 53.1767 75.2126 52.9979 75.2099M38.9739 22.5109L52.9979 75.2099M49.9233 74.4763L49.8749 75.2248M49.9233 74.4763C49.9231 74.4763 49.923 74.4763 49.9229 74.4763L49.8749 75.2248M49.9233 74.4763C50.1529 74.491 50.3826 74.5021 50.6125 74.5094L50.5885 75.259C50.3505 75.2514 50.1126 75.24 49.8749 75.2248M52.9979 75.2099L53.0092 74.46C52.8934 74.4583 52.7773 74.4641 52.6615 74.4777C52.4388 74.4917 52.216 74.5023 51.9931 74.5094L52.0171 75.259L52.9979 75.2099Z" stroke="#D9D9D9" stroke-width="1.5" stroke-linejoin="round" stroke-dasharray="2.3 2.3"/>
<path d="M29.2328 85.5169C29.3796 85.6576 29.5773 85.7326 29.7804 85.7249C29.9836 85.7171 30.1749 85.6271 30.3106 85.4756C30.5679 85.1882 30.8292 84.9138 31.094 84.6526L30.5674 84.1186C31.1463 83.5476 31.7436 83.0345 32.3555 82.5795L32.8031 83.1813C33.4229 82.7204 34.0561 82.3238 34.6984 81.9906L34.353 81.3248C35.0684 80.9537 35.7972 80.6555 36.5342 80.4303L36.7534 81.1475C37.4703 80.9285 38.194 80.7834 38.9193 80.7118L38.8457 79.9654C39.6302 79.888 40.4179 79.8909 41.2029 79.9741L41.1239 80.7199C41.8478 80.7966 42.5706 80.9466 43.2873 81.1705L43.511 80.4546C44.2459 80.6842 44.973 80.9864 45.6874 81.3613L45.3389 82.0254C45.9795 82.3616 46.6117 82.7608 47.231 83.2241L47.6803 82.6235C48.2905 83.08 48.8868 83.5941 49.4655 84.166L48.9384 84.6995C49.2031 84.9611 49.4645 85.2357 49.722 85.5234C49.8646 85.6827 50.0685 85.7736 50.2823 85.7732C50.4962 85.7728 50.6997 85.6811 50.8417 85.5211C51.0747 85.2586 51.3119 85.0035 51.5535 84.7566L51.0176 84.232C51.5268 83.7119 52.0581 83.2244 52.6163 82.7776L53.085 83.3631C53.6228 82.9326 54.1838 82.5442 54.7724 82.2046L54.3976 81.555C55.0164 81.198 55.6669 80.8901 56.3539 80.6397L56.6108 81.3443C56.9248 81.2298 57.247 81.1281 57.5779 81.04C57.9845 80.9318 58.3917 80.8473 58.7984 80.7859L58.6864 80.0443C59.5735 79.9104 60.4604 79.8793 61.338 79.9474L61.28 80.6951C62.1044 80.759 62.9212 80.9165 63.7218 81.1648L63.9439 80.4484C64.7777 80.707 65.5935 81.0575 66.3825 81.4964L66.0178 82.1518C66.7326 82.5495 67.4265 83.0253 68.0919 83.5775L68.5708 83.0003C69.2342 83.5508 69.8685 84.1717 70.4671 84.8603L69.901 85.3524C70.1754 85.668 70.4423 85.999 70.701 86.3451L70.7013 86.3455C70.9614 86.6928 71.2074 87.0463 71.4401 87.4056L72.0696 86.9978C72.5605 87.7556 72.9944 88.538 73.3783 89.3418L72.7015 89.6651C73.0742 90.4454 73.399 91.2487 73.6823 92.0723L74.3915 91.8284C74.6813 92.6707 74.9281 93.5315 75.139 94.4077L74.4098 94.5832C74.5116 95.006 74.6049 95.4329 74.6905 95.8639C74.7412 96.1227 74.7484 96.3003 74.7371 96.4177L75.4837 96.4891C75.426 97.0927 75.0577 97.3549 74.4526 97.4518L74.334 96.7112C74.1645 96.7384 73.9508 96.751 73.6832 96.7504L73.6825 96.7504L72.5602 96.7488L72.5592 97.4988C71.811 97.4978 71.0628 97.4968 70.3147 97.4958L70.3156 96.7458L68.0711 96.743L68.0702 97.493C67.322 97.4921 66.5738 97.4912 65.8256 97.4904L65.8265 96.7404L63.5819 96.738L63.5811 97.488C62.833 97.4872 62.0848 97.4864 61.3366 97.4857L61.3374 96.7357L59.0928 96.7337L59.0921 97.4837C58.344 97.483 57.5958 97.4824 56.8476 97.4818L56.8482 96.7318L54.6037 96.7301L54.6031 97.4801C53.8549 97.4796 53.1068 97.4791 52.3586 97.4786L52.3591 96.7286L50.1145 96.7273L50.1141 97.4773C49.3659 97.4769 48.6178 97.4765 47.8696 97.4762L47.8699 96.7262L45.6254 96.7253L45.6251 97.4753C44.8769 97.475 44.1287 97.4748 43.3806 97.4745L43.3808 96.7245L41.1362 96.724L41.1361 97.474C40.3879 97.4738 39.6397 97.4737 38.8916 97.4736L38.8917 96.7236L36.6471 96.7235L36.6471 97.4735C35.8989 97.4734 35.1507 97.4734 34.4026 97.4735L34.4025 96.7235L32.158 96.7237L32.1581 97.4737C31.4099 97.4738 30.6617 97.4739 29.9136 97.4741L29.9134 96.7241L27.6688 96.7247L27.669 97.4747C26.9209 97.4749 26.1727 97.4752 25.4245 97.4754L25.4242 96.7254L23.1797 96.7264L23.18 97.4764C22.4318 97.4768 21.6837 97.4771 20.9355 97.4775L20.9351 96.7275L18.6905 96.7289L18.691 97.4789C17.9428 97.4794 17.1947 97.4799 16.4465 97.4804L16.446 96.7304L15.3243 96.7312C15.3241 96.7312 15.3239 96.7312 15.3237 96.7312C14.9359 96.7312 14.5481 96.7307 14.16 96.7297L14.1582 97.4797C13.5104 97.4781 12.8626 97.4754 12.2147 97.4728C12.0852 97.4722 11.9556 97.4717 11.826 97.4712L11.8291 96.7212C11.0516 96.718 10.2732 96.7152 9.49459 96.7145L9.49387 97.4645C8.71649 97.4637 7.9391 97.465 7.16172 97.4703L7.15668 96.7203C6.76675 96.7229 6.37668 96.7265 5.98647 96.7313L5.98207 96.7314C5.76833 96.7353 5.61252 96.7189 5.50212 96.6937L5.33523 97.4248C4.82158 97.3076 4.56288 97.0081 4.52155 96.5109L5.26897 96.4488C5.26024 96.3437 5.26727 96.1935 5.30545 95.9862L5.30553 95.9857C5.37333 95.6163 5.44689 95.2502 5.52661 94.8875L4.7941 94.7265C4.95952 93.9738 5.15125 93.234 5.37297 92.5089L6.09018 92.7283C6.30861 92.014 6.55645 91.3164 6.83717 90.6373L6.14406 90.3508C6.43662 89.6431 6.7644 88.9531 7.13134 88.283L7.78916 88.6433C8.14095 88.0009 8.52961 87.3785 8.9588 86.7781L8.34863 86.3419C8.78784 85.7274 9.26829 85.1342 9.79367 84.5643L10.3451 85.0727C10.5914 84.8055 10.848 84.5437 11.1155 84.2873L11.1156 84.2872C11.4113 84.0037 11.712 83.7371 12.017 83.4872L11.5418 82.907C12.2148 82.3557 12.9105 81.88 13.6227 81.4797L13.9902 82.1334C14.7017 81.7334 15.4282 81.4145 16.1625 81.1752L15.9302 80.4621C16.7433 80.1972 17.5682 80.0231 18.3966 79.9396L18.4718 80.6858C19.2564 80.6067 20.0442 80.6146 20.8277 80.7092L20.9176 79.9646C21.7439 80.0644 22.5653 80.2544 23.3735 80.5343L23.128 81.243C23.8582 81.496 24.5794 81.828 25.2845 82.24L25.6629 81.5924C26.3685 82.0048 27.0567 82.4915 27.721 83.0525L27.2371 83.6255C27.5353 83.8774 27.829 84.1453 28.1176 84.4296C28.2084 84.5258 28.3001 84.6193 28.393 84.7115L28.9216 84.1795C29.0142 84.2715 29.1095 84.3637 29.2082 84.4582C29.2031 84.4638 29.198 84.4695 29.1929 84.4752L29.4659 84.7196L28.9579 85.2552C29.0473 85.3399 29.1384 85.4265 29.2328 85.5169Z" stroke="#D9D9D9" stroke-width="1.5" stroke-linejoin="round" stroke-dasharray="2.3 2.3"/>
<path d="M19.8031 66.2797L19.3906 66.3052C19.5175 66.1459 19.6572 66.1618 19.8031 66.2797Z" fill="#F9F7FC"/>
</g>
<g clip-path="url(#clip1_1201_831)">
<path d="M51.1117 11.5098H86.8742C89.054 11.5098 90.2122 12.2074 90.7326 13.8065C91.3894 15.8196 90.8404 17.6862 89.0286 18.7533C88.1751 19.2566 88.3941 19.8873 88.3941 20.5117C88.3771 34.2641 88.3771 48.0165 88.3941 61.7689C88.3941 64.2248 88.3941 64.2248 85.9827 64.228C83.714 64.228 81.4453 64.2534 79.1797 64.228C78.8245 64.1894 78.4656 64.2491 78.1417 64.4007C77.8179 64.5523 77.5415 64.79 77.3427 65.088C74.2934 69.1335 68.6773 69.1335 65.5709 65.088C65.3767 64.7844 65.1007 64.5422 64.7751 64.3894C64.4494 64.2366 64.0872 64.1796 63.7306 64.2248C62.7797 64.2857 61.8258 64.2857 60.8749 64.2248C58.9013 64.0974 57.3847 64.4064 55.8299 66.1074C52.9743 69.2673 47.8562 68.6557 45.1624 65.1772C44.6103 64.4637 44.0995 64.1515 43.2301 64.2216C42.3853 64.2874 41.5366 64.2874 40.6917 64.2216C38.6166 64.0719 36.9825 64.3681 35.3294 66.1328C32.3785 69.2864 27.2827 68.6334 24.6777 65.139C24.1193 64.3904 23.5577 64.2057 22.7137 64.2184C20.2863 64.2598 17.8559 64.1611 15.4349 64.2598C13.9499 64.3203 13.5502 63.7693 13.5533 62.3295C13.5978 48.4699 13.5723 34.6166 13.5977 20.7506C13.5977 19.744 13.4962 19.0432 12.4777 18.4539C11.0625 17.6321 10.631 15.5074 11.2783 13.7427C11.8558 12.15 13.0329 11.513 14.7019 11.513C26.8459 11.5236 38.9825 11.5225 51.1117 11.5098ZM30.389 55.3184H30.4113C27.3494 55.363 25.0458 57.6756 25.049 60.6954C25.049 62.1316 25.6173 63.509 26.6289 64.5245C27.6405 65.54 29.0124 66.1105 30.443 66.1105C31.8748 66.1605 33.268 65.6394 34.318 64.661C35.368 63.6827 35.9895 62.3267 36.0465 60.8897C36.1893 57.9559 33.8698 55.4745 30.8111 55.3153C30.6556 55.1623 30.516 55.1464 30.389 55.3184ZM50.9975 66.0914C54.2149 66.0914 56.5121 63.6865 56.4232 60.4533C56.3376 57.3475 53.8849 55.1496 50.7119 55.3248C47.6944 55.414 45.5432 57.6852 45.5685 60.74C45.5939 63.7948 47.8944 66.0819 50.9975 66.0914ZM71.2696 55.3153C70.5641 55.319 69.8663 55.4628 69.2164 55.7383C68.5664 56.0139 67.9773 56.4158 67.4827 56.9209C66.9881 57.426 66.598 58.0243 66.3347 58.6814C66.0714 59.3385 65.9401 60.0413 65.9485 60.7495C66.012 63.7948 68.4551 66.1233 71.5583 66.0946C72.2778 66.0923 72.9896 65.9456 73.6517 65.663C74.3138 65.3804 74.9129 64.9677 75.4138 64.4491C75.9146 63.9306 76.3071 63.3167 76.5681 62.6436C76.8291 61.9705 76.9532 61.2518 76.9333 60.5297C76.8508 57.4495 74.4235 55.2101 71.2696 55.3153ZM23.783 17.1893C24.1003 17.1893 24.4176 17.2339 24.7349 17.2339H86.7092C86.9186 17.2339 87.1312 17.2339 87.3438 17.2339C88.4353 17.2021 88.9494 16.6414 88.9874 15.5425C89.0509 13.8542 88.6226 13.4274 86.7029 13.4274C69.1564 13.4274 51.6077 13.4274 34.057 13.4274C30.6334 13.4274 27.2098 13.4592 23.7862 13.4784C20.7941 13.4592 17.8051 13.4783 14.813 13.4178C13.5438 13.3987 13.0203 13.9785 13.0108 15.2303C13.0013 16.4822 13.4582 17.2466 14.8225 17.2371C17.8051 17.218 20.7919 17.2021 23.783 17.1893ZM24.1003 56.9303C24.8301 56.0288 25.5186 55.0827 26.5307 54.4775C29.0945 52.9453 31.7376 52.802 34.3077 54.3501C37.249 56.118 38.2549 58.8606 37.798 62.3135C39.3844 62.3135 40.9709 62.2467 42.5574 62.3391C43.5696 62.3964 43.7727 62.0778 43.7092 61.0999C43.5093 57.9368 44.8991 55.5605 47.6659 54.0921C52.6602 51.4673 58.454 55.1751 58.308 60.9183C58.2827 62.0014 58.4476 62.4059 59.6121 62.3231C61.1288 62.2148 62.6581 62.2976 64.197 62.2976C63.4069 56.4524 67.6873 53.2703 71.4473 53.2671C75.3786 53.2671 79.4717 56.5862 78.7768 62.2976C80.8931 62.2976 82.9969 62.2116 85.091 62.3295C86.3412 62.4027 86.5347 61.9632 86.5316 60.8292C86.4893 47.4505 86.4893 34.0719 86.5316 20.6933C86.5316 19.2885 86.0873 19.1006 84.8562 19.1006C64.9723 19.1388 45.0884 19.1483 25.2045 19.1292C24.7317 19.1292 24.2526 19.1643 23.7862 19.1802C21.4699 19.1802 19.1536 19.2089 16.8437 19.1006C15.7046 19.0464 15.4729 19.4191 15.4825 20.5085C15.5364 26.841 15.5079 33.1736 15.5079 39.5062C15.5079 46.6818 15.5079 53.8595 15.5079 61.0394C15.5079 61.6064 15.235 62.3422 16.3297 62.3135C18.3826 62.2562 20.4355 62.2785 22.4852 62.3135C23.1198 62.3135 23.2911 62.1288 23.1928 61.4949C22.9358 59.8831 23.4879 58.3955 24.0812 56.9303H24.1003Z" fill="#BBBBBB"/>
<path d="M40.7517 73.9754C46.7994 67.2192 55.1792 67.2065 61.2808 74.0232C63.2322 71.8253 65.5008 70.0829 68.385 69.3152C73.4618 67.9646 78.6845 70.0574 82.3017 74.896C84.491 77.8202 85.719 81.1585 86.4266 84.7198C86.7185 86.2105 86.0109 86.5036 84.6814 86.5004C65.2206 86.4728 45.7682 86.4664 26.3243 86.4812C23.2147 86.4812 20.1052 86.443 16.9957 86.4812C15.7678 86.5035 15.3584 85.9875 15.5679 84.8503C16.415 80.2347 18.1538 76.0459 21.5965 72.7459C27.0413 67.525 34.2884 67.611 39.6539 72.9051C39.9807 73.2523 40.3329 73.574 40.7517 73.9754ZM50.3531 70.927C48.2526 70.8537 46.4726 71.7361 44.8227 72.8988C41.7258 75.0744 41.7036 75.2814 43.6677 78.5656C44.2483 80.308 45.0162 81.9962 45.2859 83.8278C45.397 84.5987 45.8634 84.5732 46.4091 84.57C49.4584 84.57 52.5107 84.57 55.5631 84.57C56.2167 84.57 56.5784 84.4681 56.7307 83.6845C57.2192 81.0929 58.1878 78.6164 59.5864 76.3836C59.9386 75.8293 59.9037 75.4566 59.469 75.0011C57.0132 72.3509 54.167 70.5702 50.3531 70.927ZM70.6379 70.927C69.1656 70.8633 67.8584 71.408 66.6082 72.0929C62.8832 74.1283 60.6811 77.422 59.3929 81.3305C58.165 85.0415 57.8572 84.5764 61.7726 84.4968C68.9245 84.5159 76.0763 84.5191 83.225 84.5732C84.2086 84.5732 84.399 84.2292 84.1769 83.366C83.3424 80.2188 82.0605 77.2914 79.8268 74.8833C77.355 72.233 74.4423 70.5225 70.6379 70.9398V70.927ZM20.9366 84.4999C28.0853 84.5191 35.2339 84.5222 42.3794 84.5732C43.3821 84.5732 43.5312 84.226 43.2901 83.3628C42.6238 80.9737 41.7702 78.658 40.3138 76.6321C37.7374 73.0389 34.5581 70.5097 29.805 70.9174C29.2332 70.8657 28.6567 70.9197 28.1042 71.0767C22.8657 72.5452 18.4077 78.2215 17.6589 84.4553C17.8594 84.5006 18.063 84.5305 18.2681 84.5445C19.1565 84.5573 20.0481 84.5318 20.9366 84.5127V84.4999Z" fill="#BBBBBB"/>
<path d="M23.7654 19.2027C24.2382 19.2027 24.7173 19.1517 25.1837 19.1517C45.0677 19.1517 64.9516 19.1422 84.8355 19.123C86.0666 19.123 86.5172 19.2951 86.5108 20.7157C86.4516 34.0944 86.4516 47.473 86.5108 60.8517C86.5108 61.9857 86.3205 62.4252 85.0703 62.352C82.9762 62.2341 80.8725 62.3201 78.7561 62.3201C79.451 56.6087 75.3579 53.2832 71.4266 53.2895C67.6602 53.2895 63.3863 56.4749 64.1764 62.3201C62.6375 62.3201 61.1081 62.2373 59.5914 62.3456C58.4269 62.4284 58.2619 62.0271 58.2873 60.9409C58.4238 55.2072 52.6394 51.4898 47.6452 54.1145C44.8784 55.5671 43.4886 57.937 43.6885 61.1224C43.752 62.1003 43.5489 62.4189 42.5367 62.3615C40.9502 62.2691 39.3828 62.3361 37.7772 62.3361C38.2246 58.8799 37.2188 56.1373 34.287 54.3726C31.7169 52.8245 29.0738 52.9678 26.51 54.5C25.4978 55.1052 24.8093 56.0513 24.0796 56.9527C23.6036 56.5418 23.7623 55.9971 23.7623 55.4811C23.7464 52.9328 23.7623 50.3622 23.7623 47.8011C24.4476 47.6737 25.3488 47.9699 25.6185 46.9984C25.8089 46.304 25.371 45.9249 24.7142 45.7816C24.1684 45.4949 23.5719 45.2401 23.7623 44.4278C24.0796 43.0995 23.3656 42.5834 22.1758 42.4401C22.9595 42.4401 23.7464 42.4401 24.5301 42.4401C25.1076 42.4401 25.5835 42.2522 25.6343 41.5928C25.6851 40.9334 25.2281 40.6658 24.6824 40.532C24.3739 40.4792 24.0623 40.4473 23.7496 40.4365V37.3116C23.959 37.2925 24.1652 37.2639 24.3842 37.2479C25.0759 37.2001 25.6819 36.974 25.6343 36.1617C25.5835 35.2985 24.8696 35.308 24.2255 35.3048C23.5814 35.3017 22.8643 35.3048 22.1853 35.3048C23.353 35.1519 24.0732 34.6487 23.7718 33.314C23.5814 32.5049 24.1716 32.2469 24.7237 31.9634C25.3773 31.8168 25.8216 31.4409 25.628 30.7465C25.3615 29.7909 24.4572 30.0712 23.775 29.9438C23.775 28.882 23.775 27.8202 23.775 26.7584C24.032 26.7202 24.2858 26.6692 24.5428 26.6501C25.1108 26.6119 25.6121 26.4558 25.6597 25.7933C25.7136 25.0288 25.1647 24.8377 24.5492 24.7516L23.775 24.6497L23.7654 19.2027ZM67.8887 24.7166C64.8583 24.7299 61.955 25.9406 59.8071 28.0867C57.6592 30.2329 56.4396 33.1418 56.4121 36.184C56.4121 42.5134 61.6728 47.7597 68.0029 47.7151C74.2473 47.6705 79.4574 42.3796 79.4003 36.1458C79.3619 33.1067 78.1345 30.2046 75.9831 28.0662C73.8317 25.9279 70.9289 24.7247 67.9014 24.7166H67.8887ZM37.1268 26.596C39.808 26.596 42.4891 26.596 45.1703 26.596C45.8937 26.596 46.8329 26.7234 46.8329 25.6595C46.8329 24.5956 45.9064 24.7039 45.1734 24.7039C39.8111 24.7039 34.4478 24.7039 29.0833 24.7039C28.3567 24.7039 27.462 24.6274 27.5191 25.7391C27.573 26.7393 28.4138 26.6023 29.0802 26.6023C31.774 26.6119 34.4583 26.6119 37.1395 26.6119L37.1268 26.596ZM37.1998 47.7247C39.8841 47.7247 42.5684 47.7247 45.2528 47.7247C46.027 47.7247 46.8678 47.7247 46.8392 46.6767C46.8043 45.7211 45.9762 45.8039 45.2845 45.8039H29.0199C28.325 45.8039 27.5412 45.7338 27.5381 46.7404C27.5349 47.7469 28.2869 47.7215 29.0008 47.7215L37.1998 47.7247ZM37.0538 31.8742H45.2655C45.954 31.8742 46.7853 31.957 46.8265 31.0078C46.8741 29.9693 46.0365 29.9502 45.2623 29.9502C39.8386 29.9502 34.4171 29.9502 28.9977 29.9502C28.2837 29.9502 27.5286 29.9502 27.5254 30.9058C27.5223 31.8614 28.3028 31.8614 29.0008 31.8614L37.0538 31.8742ZM37.1617 37.2097H45.2115C45.9794 37.2097 46.8234 37.181 46.8297 36.1744C46.8361 35.1679 45.9952 35.2666 45.313 35.2666C39.8936 35.2666 34.4731 35.2666 29.0516 35.2666C28.3789 35.2666 27.5413 35.1551 27.5254 36.1617C27.5064 37.2256 28.3568 37.2033 29.1119 37.2033C31.8026 37.2118 34.4901 37.2139 37.1744 37.2097H37.1617ZM37.2156 42.4082C39.8999 42.4082 42.5843 42.4082 45.2686 42.4082C45.9445 42.4082 46.798 42.5102 46.8329 41.5514C46.8646 40.5448 46.0333 40.4652 45.2464 40.4652H28.9881C28.2774 40.4652 27.5191 40.5098 27.5127 41.4686C27.5127 42.4815 28.3123 42.4051 28.9977 42.4051C31.7518 42.4114 34.4953 42.4125 37.2283 42.4082H37.2156Z" fill="#F9F7FC"/>
<path d="M23.7663 19.2024C23.7663 20.999 23.7663 22.7955 23.7663 24.5921C23.0175 24.8851 21.6721 24.2735 21.6118 25.5796C21.542 27.0894 23.0207 26.3441 23.7663 26.7008C23.7663 27.7626 23.7663 28.8244 23.7663 29.8862C23.5029 29.8862 23.2428 29.9404 22.9826 29.934C22.2243 29.934 21.5326 30.0773 21.577 30.9947C21.6182 31.8388 22.3226 31.8739 22.9858 31.8675C23.5632 31.8675 24.1407 31.893 24.715 31.9057C24.1629 32.1892 23.5727 32.4472 23.7631 33.2563C24.0804 34.591 23.357 35.0943 22.1766 35.2472C21.7039 35.5657 21.339 35.9512 21.6309 36.5532C21.7431 36.7644 21.915 36.9376 22.1251 37.051C22.3351 37.1643 22.5738 37.2128 22.8112 37.1903C23.1285 37.1903 23.4458 37.2317 23.7631 37.2508V40.3757C23.0333 40.5477 22.1005 40.1877 21.6404 41.0892C21.3231 41.6849 21.7134 42.0799 22.1862 42.3952C23.3633 42.5386 24.0709 43.0546 23.7727 44.3829C23.5823 45.1952 24.1788 45.45 24.7245 45.7367C24.4065 45.7385 24.0888 45.7565 23.7727 45.7908C22.9762 45.9151 21.6817 45.3162 21.6118 46.6477C21.5325 48.1385 22.954 47.5364 23.7631 47.7562C23.7631 50.3045 23.7631 52.8783 23.7631 55.4362C23.7631 55.9395 23.595 56.4969 24.0804 56.9078C23.4807 58.3731 22.9286 59.8607 23.1824 61.4853C23.2808 62.1223 23.1127 62.3135 22.4749 62.3039C20.4251 62.2752 18.3723 62.253 16.3194 62.3039C15.2247 62.3358 15.5007 61.5999 15.4975 61.0298C15.4975 53.8499 15.4975 46.6721 15.4975 39.4965C15.4975 33.1639 15.5261 26.8314 15.4722 20.4989C15.4722 19.419 15.6942 19.0368 16.8333 19.0909C19.1464 19.2311 21.4627 19.1865 23.7663 19.2024Z" fill="#F9F7FC"/>
<path d="M23.7656 13.4777C27.1893 13.4586 30.6129 13.4268 34.0366 13.4268C51.5936 13.4268 69.1422 13.4268 86.6824 13.4268C88.602 13.4268 89.0304 13.8536 88.9669 15.5419C88.9288 16.6408 88.4148 17.2015 87.3233 17.2333C87.1139 17.2333 86.9013 17.2333 86.6887 17.2333H24.7175C24.4002 17.2333 24.0829 17.2046 23.7656 17.1887C23.7815 15.9528 23.7656 14.7137 23.7656 13.4777Z" fill="#D9D9D9"/>
<path d="M71.2717 55.3151C74.4256 55.21 76.853 57.4493 76.9355 60.5296C76.9554 61.2516 76.8312 61.9703 76.5702 62.6434C76.3093 63.3165 75.9168 63.9304 75.4159 64.449C74.9151 64.9675 74.316 65.3802 73.6538 65.6628C72.9917 65.9454 72.2799 66.0921 71.5604 66.0944C69.3838 64.5017 68.4319 62.3771 68.746 59.7236C68.9618 57.908 70.1167 56.602 71.2717 55.3151Z" fill="#F9F7FC"/>
<path d="M50.7026 55.3242C53.8755 55.149 56.3377 57.3469 56.4139 60.4527C56.5027 63.6859 54.1929 66.0749 50.9882 66.0908C50.747 65.8169 50.5186 65.5302 50.2647 65.2722C47.9072 62.8609 47.5772 60.5929 49.0399 57.589C49.4651 56.7131 50.2107 56.1206 50.7026 55.3242Z" fill="#F9F7FC"/>
<path d="M30.8014 55.2803C33.8601 55.4523 36.1954 57.921 36.0368 60.8547C35.9797 62.2918 35.3583 63.6477 34.3083 64.626C33.2582 65.6044 31.865 66.1255 30.4333 66.0756C28.6882 64.416 27.7363 62.4792 27.8442 59.966C27.9331 57.905 29.3006 56.7105 30.4111 55.2994H30.3889L30.8014 55.2803Z" fill="#F9F7FC"/>
<path d="M23.7663 13.478C23.7663 14.7139 23.7663 15.9531 23.7663 17.189C20.7773 17.2039 17.7873 17.2198 14.7963 17.2367C13.4319 17.2367 12.975 16.5073 12.9845 15.23C12.994 13.9526 13.5144 13.3984 14.7867 13.4175C17.7979 13.4621 20.7868 13.4589 23.7663 13.478Z" fill="#D9D9D9"/>
<path d="M30.4267 55.3115C29.3161 56.7227 27.9485 57.9172 27.8597 59.9781C27.7518 62.4914 28.7038 64.4377 30.4489 66.0877C29.0183 66.0877 27.6462 65.5172 26.6347 64.5016C25.6231 63.4861 25.0548 62.1087 25.0548 60.6726C25.0326 57.6687 27.3489 55.3561 30.4267 55.3115Z" fill="#D9D9D9"/>
<path d="M71.2715 55.3154C70.1166 56.5896 68.9616 57.9084 68.7332 59.7145C68.4159 62.3775 69.3678 64.518 71.5476 66.0853C68.4445 66.1139 66.0012 63.7854 65.9378 60.7402C65.9307 60.0317 66.0633 59.3288 66.328 58.672C66.5926 58.0152 66.9841 57.4174 67.4799 56.9132C67.9757 56.4089 68.566 56.0082 69.2167 55.7339C69.8675 55.4597 70.5658 55.3175 71.2715 55.3154Z" fill="#D9D9D9"/>
<path d="M50.7026 55.3242C50.2108 56.1206 49.4747 56.713 49.0495 57.589C47.5868 60.5928 47.9168 62.8608 50.2743 65.2722C50.5282 65.5302 50.7566 65.8169 50.9978 66.0908C47.8946 66.0908 45.6037 63.8133 45.5593 60.7521C45.5148 57.691 47.6851 55.4134 50.7026 55.3242Z" fill="#D9D9D9"/>
<path d="M30.8031 55.2797L30.3906 55.3052C30.5175 55.1459 30.6572 55.1618 30.8031 55.2797Z" fill="#F9F7FC"/>
<path d="M29.7942 70.9298C34.5537 70.5221 37.7267 73.0513 40.3031 76.6444C41.7595 78.6703 42.613 80.9861 43.2793 83.3751C43.5205 84.2384 43.3713 84.5951 42.3686 84.5856C35.2231 84.5346 28.0745 84.5314 20.9258 84.5123C22.0046 78.7436 24.6699 74.0228 29.7942 70.9298Z" fill="#F9F7FC"/>
<path d="M70.6372 70.9395C74.4448 70.5222 77.3544 72.2327 79.8198 74.8925C82.0408 77.3007 83.3354 80.2281 84.1699 83.3752C84.3983 84.2385 84.208 84.5889 83.218 84.5825C76.0693 84.5283 68.9175 84.5252 61.7656 84.5061C62.1756 82.6516 62.7544 80.8389 63.4949 79.0909C64.9724 75.6936 67.4693 72.844 70.6372 70.9395Z" fill="#F9F7FC"/>
<path d="M50.3532 70.9268C54.1607 70.5541 57.0164 72.3507 59.485 75.0073C59.907 75.4628 59.9545 75.8355 59.6023 76.3898C58.2037 78.6226 57.2351 81.0991 56.7467 83.6907C56.5944 84.4743 56.2327 84.5826 55.579 84.5762C52.5266 84.5762 49.4742 84.5762 46.425 84.5762C45.8793 84.5762 45.4128 84.6049 45.3018 83.834C45.0321 82.0024 44.2642 80.3301 43.6836 78.5718C43.7439 77.5907 44.2293 76.8039 44.7814 76.0234C46.2548 73.9446 48.1547 72.2068 50.3532 70.9268Z" fill="#F9F7FC"/>
<path d="M29.7946 70.9299C24.6575 74.0229 21.9923 78.7436 20.9261 84.5124C20.0377 84.5315 19.1461 84.557 18.2576 84.5665C18.0526 84.5524 17.8489 84.5226 17.6484 84.4773C18.3973 78.234 22.8553 72.5576 28.0938 71.0987C28.6457 70.9385 29.2221 70.8812 29.7946 70.9299Z" fill="#D9D9D9"/>
<path d="M70.6401 70.9389C67.472 72.8486 64.9772 75.704 63.5041 79.1063C62.7636 80.8543 62.1848 82.667 61.7748 84.5214C57.8594 84.6011 58.1672 85.0661 59.3951 81.3551C60.6833 77.4498 62.8854 74.1562 66.6104 72.1175C67.8701 71.4199 69.1678 70.888 70.6401 70.9389Z" fill="#D9D9D9"/>
<path d="M50.3559 70.9271C48.1517 72.2052 46.2462 73.9432 44.7683 76.0237C44.2162 76.7946 43.7307 77.5814 43.6704 78.572C41.7064 75.2879 41.7286 75.0681 44.8254 72.9052C46.4754 71.7362 48.2554 70.8538 50.3559 70.9271Z" fill="#D9D9D9"/>
<path d="M67.9025 24.7158C70.9322 24.7206 73.8382 25.9222 75.9924 28.061C78.1465 30.1997 79.3756 33.1037 79.4139 36.145C79.4711 42.3788 74.2611 47.6697 68.0167 47.7143C61.6866 47.7589 56.41 42.5126 56.4258 36.1832C56.4533 33.1411 57.673 30.2321 59.8209 28.0859C61.9688 25.9398 64.8721 24.7291 67.9025 24.7158ZM67.858 40.8371C68.4638 40.8536 69.0667 40.7487 69.6316 40.5284C70.1965 40.3081 70.7119 39.977 71.1477 39.5543C71.5835 39.1316 71.931 38.6258 72.1697 38.0667C72.4085 37.5075 72.5337 36.9062 72.5381 36.2979C72.5563 35.6901 72.4548 35.0846 72.2395 34.5163C72.0242 33.9479 71.6993 33.4277 71.2834 32.9856C70.8675 32.5435 70.3688 32.1882 69.8159 31.94C69.2629 31.6917 68.6666 31.5554 68.0611 31.5389C67.4419 31.5157 66.8245 31.6186 66.246 31.8414C65.6675 32.0643 65.1399 32.4025 64.6951 32.8356C64.2504 33.2687 63.8976 33.7878 63.6581 34.3615C63.4186 34.9352 63.2974 35.5516 63.3017 36.1737C63.2877 36.7835 63.3957 37.3899 63.6194 37.957C63.8431 38.5242 64.1778 39.0404 64.6039 39.4753C65.0299 39.9102 65.5387 40.2548 66.0998 40.4887C66.6609 40.7226 67.2631 40.8411 67.8707 40.8371H67.858ZM67.0172 28.4141C67.0172 26.5888 66.8966 26.5028 65.2149 26.9806C64.1544 27.2913 63.156 27.785 62.2641 28.4395C57.4412 31.8702 57.0096 39.2699 61.4137 43.1847C61.6929 43.43 61.9182 44.1117 62.5401 43.6243C62.9933 43.2364 63.2849 42.6918 63.3572 42.0984C63.4294 41.5049 63.2771 40.9059 62.9304 40.4198C59.9795 36.7566 61.4264 31.5007 65.8908 29.994C66.8808 29.6723 67.1378 29.2072 67.0172 28.43V28.4141ZM67.8739 45.7935C69.941 45.7991 71.9544 45.1329 73.613 43.8944C75.2716 42.6559 76.4863 40.9117 77.0755 38.9227C77.2342 38.3779 77.8909 37.4 76.9042 37.263C76.0189 37.142 74.7148 36.4699 74.1246 38.1072C72.8554 41.6111 70.0601 43.2516 66.4524 42.5476C65.6655 42.3947 65.3419 42.5158 64.9611 43.1497C63.822 45.0609 63.8062 45.0291 66.0051 45.5801C66.615 45.7345 67.2417 45.8116 67.8707 45.8095L67.8739 45.7935ZM68.8544 27.9999C68.8544 29.1499 70.7582 30.8859 71.7894 30.7649C71.9702 30.7458 72.1384 30.561 72.3002 30.4463C74.1341 29.0225 74.0739 28.4778 71.948 27.503C71.4752 27.2864 70.9612 27.1622 70.4757 26.9743C69.3335 26.5315 68.6069 26.6462 68.8544 28.0159V27.9999ZM76.0284 35.2595C77.3706 35.5207 77.5007 34.7816 77.1326 33.6253C76.8413 32.6125 76.3881 31.654 75.7904 30.7872C75.6223 30.5546 75.4002 30.0959 75.0956 30.4208C74.4864 31.077 73.3314 31.4593 73.4234 32.5105C73.5821 34.2274 74.6513 35.2849 76.0284 35.2754V35.2595Z" fill="#BBBBBB"/>
<path d="M37.1376 26.6112C34.4565 26.6112 31.7722 26.6112 29.091 26.6112C28.4247 26.6112 27.5839 26.7481 27.5299 25.7479C27.4728 24.6362 28.3676 24.7127 29.0942 24.7127C34.4586 24.6999 39.822 24.6999 45.1843 24.7127C45.9172 24.7127 46.8438 24.6394 46.8438 25.6683C46.8438 26.6972 45.8919 26.6016 45.1811 26.6048C42.5 26.6112 39.8188 26.6112 37.1376 26.6112Z" fill="#BBBBBB"/>
<path d="M37.2134 47.7239H29.0018C28.2879 47.7239 27.5359 47.7239 27.5391 46.7428C27.5422 45.7617 28.326 45.8063 29.0209 45.8063H45.2855C45.9772 45.8063 46.8053 45.7267 46.8403 46.6791C46.8815 47.7207 46.0407 47.7271 45.2538 47.7271C42.5821 47.7176 39.8978 47.7239 37.2134 47.7239Z" fill="#BBBBBB"/>
<path d="M37.0675 31.8737H29.0145C28.3165 31.8737 27.5359 31.9311 27.5391 30.9181C27.5422 29.9052 28.2975 29.9625 29.0114 29.9625C34.4308 29.9625 39.8523 29.9625 45.276 29.9625C46.0502 29.9625 46.8878 29.9816 46.8403 31.02C46.799 31.9757 45.9677 31.8865 45.2792 31.8865L37.0675 31.8737Z" fill="#BBBBBB"/>
<path d="M37.1749 37.209C34.4906 37.209 31.8062 37.209 29.1219 37.209C28.3699 37.209 27.5195 37.2313 27.5354 36.1673C27.5512 35.1607 28.3889 35.2722 29.0616 35.2722C34.481 35.2722 39.9015 35.2722 45.323 35.2722C46.0052 35.2722 46.8492 35.2085 46.8397 36.1801C46.8302 37.1516 45.9894 37.2185 45.2216 37.2153L37.1749 37.209Z" fill="#BBBBBB"/>
<path d="M37.2286 42.4077C34.4935 42.4077 31.7574 42.4077 29.0202 42.4077C28.3348 42.4077 27.5288 42.4841 27.5352 41.4712C27.5352 40.5156 28.2999 40.471 29.0107 40.4678H45.2689C46.0463 40.4678 46.8776 40.5474 46.8554 41.554C46.8205 42.5096 45.967 42.4109 45.2912 42.4109C42.6005 42.413 39.913 42.4119 37.2286 42.4077Z" fill="#BBBBBB"/>
<path d="M23.766 26.7005C23.0204 26.3438 21.5449 27.0891 21.6116 25.5793C21.6718 24.3051 23.0172 24.8849 23.766 24.5918L24.5402 24.6937C25.1558 24.7765 25.7047 24.9708 25.6507 25.7353C25.6031 26.3979 25.1018 26.554 24.5338 26.5922C24.2864 26.6113 24.0325 26.6623 23.766 26.7005Z" fill="#BBBBBB"/>
<path d="M24.7182 31.918C24.1439 31.918 23.5664 31.8734 22.989 31.8798C22.3258 31.8798 21.6214 31.8511 21.5802 31.007C21.5358 30.0896 22.2148 29.9303 22.9858 29.9462C23.246 29.9462 23.5061 29.9144 23.7695 29.8984C24.4517 30.0259 25.356 29.7296 25.6225 30.7012C25.8256 31.3892 25.3814 31.7715 24.7182 31.918Z" fill="#BBBBBB"/>
<path d="M23.7661 47.7783C22.9538 47.5585 21.545 48.1606 21.6117 46.6698C21.6815 45.3383 22.9761 45.9372 23.7725 45.813C24.0886 45.7786 24.4063 45.7605 24.7244 45.7588C25.3812 45.9021 25.8191 46.2812 25.6287 46.9756C25.3685 47.9535 24.461 47.6509 23.7661 47.7783Z" fill="#BBBBBB"/>
<path d="M22.2023 42.417C21.7296 42.0984 21.352 41.7067 21.6566 41.111C22.1167 40.2095 23.0495 40.5695 23.7793 40.3975C24.092 40.4083 24.4037 40.4402 24.7121 40.493C25.2547 40.6268 25.7116 40.9008 25.664 41.5538C25.6164 42.2068 25.1373 42.3947 24.5598 42.401C23.7666 42.4106 22.9861 42.4106 22.2023 42.417Z" fill="#BBBBBB"/>
<path d="M23.7639 37.2731C23.4466 37.254 23.1293 37.2158 22.812 37.2126C22.5746 37.2351 22.3359 37.1866 22.1259 37.0733C21.9158 36.9599 21.7439 36.7868 21.6317 36.5755C21.3398 35.9735 21.7047 35.5849 22.1775 35.2695C22.8565 35.2695 23.5386 35.2695 24.2176 35.2695C24.8967 35.2695 25.5757 35.2695 25.6265 36.1264C25.6741 36.9387 25.068 37.1648 24.3763 37.2126C24.1923 37.2254 23.986 37.254 23.7639 37.2731Z" fill="#BBBBBB"/>
<path d="M67.8709 40.8375C67.2646 40.8394 66.6641 40.7193 66.1048 40.4845C65.5455 40.2496 65.0388 39.9047 64.6144 39.47C64.19 39.0354 63.8566 38.5198 63.6339 37.9538C63.4112 37.3877 63.3036 36.7826 63.3176 36.1741C63.3133 35.5521 63.4346 34.9356 63.6741 34.3619C63.9136 33.7882 64.2664 33.2691 64.7111 32.836C65.1559 32.4029 65.6834 32.0647 66.2619 31.8419C66.8404 31.619 67.4579 31.5161 68.0771 31.5393C68.6826 31.5558 69.2789 31.6921 69.8319 31.9404C70.3848 32.1887 70.8835 32.544 71.2994 32.9861C71.7153 33.4282 72.0402 33.9483 72.2555 34.5167C72.4708 35.0851 72.5723 35.6905 72.5542 36.2983C72.5497 36.907 72.4244 37.5086 72.1854 38.0679C71.9465 38.6273 71.5987 39.1332 71.1626 39.5559C70.7264 39.9786 70.2107 40.3097 69.6454 40.5298C69.0802 40.7499 68.4769 40.8545 67.8709 40.8375Z" fill="#F1F0F6"/>
<path d="M67.0145 28.43C67.135 29.2073 66.878 29.6723 65.8881 30.0227C61.4237 31.5422 59.9768 36.7853 62.9277 40.4485C63.2744 40.9346 63.4267 41.5337 63.3544 42.1271C63.2821 42.7205 62.9905 43.2651 62.5374 43.653C61.9028 44.1404 61.6902 43.4587 61.411 43.2134C57.0069 39.305 57.4385 31.8989 62.2614 28.4683C63.1532 27.8137 64.1517 27.3201 65.2122 27.0094C66.8938 26.5252 67.0272 26.6112 67.0145 28.43Z" fill="#D9D9D9"/>
<path d="M67.8705 45.8096C67.239 45.8177 66.609 45.746 65.9953 45.5962C63.7964 45.0451 63.8123 45.0801 64.9514 43.1657C65.3321 42.5286 65.6558 42.4108 66.4427 42.5637C70.0503 43.2676 72.8457 41.6431 74.1149 38.1233C74.705 36.486 76.0187 37.1676 76.8944 37.2791C77.8812 37.4161 77.2117 38.394 77.0657 38.9387C76.4768 40.9267 75.2631 42.6702 73.6058 43.9086C71.9485 45.1469 69.9365 45.8138 67.8705 45.8096Z" fill="#D9D9D9"/>
<path d="M68.8531 28.016C68.6056 26.6462 69.3321 26.5316 70.4744 26.9775C70.9599 27.1655 71.4739 27.2961 71.9467 27.5063C74.0726 28.481 74.1328 29.0257 72.2989 30.4496C72.137 30.577 71.9816 30.7681 71.7881 30.7681C70.7537 30.9019 68.8467 29.1595 68.8531 28.016Z" fill="#D9D9D9"/>
<path d="M76.0281 35.2756C74.6511 35.2756 73.5755 34.2276 73.4232 32.5266C73.3311 31.4754 74.4861 31.0932 75.0953 30.437C75.4126 30.1185 75.622 30.5708 75.7902 30.8034C76.3878 31.6702 76.8411 32.6287 77.1323 33.6415C77.5004 34.7978 77.3703 35.5304 76.0281 35.2756Z" fill="#D9D9D9"/>
</g>
<g clip-path="url(#clip2_1201_831)">
<path d="M63.1117 0.509766H98.8742C101.054 0.509766 102.212 1.20739 102.733 2.80646C103.389 4.81962 102.84 6.68623 101.029 7.75334C100.175 8.25663 100.394 8.88734 100.394 9.51168C100.377 23.2641 100.377 37.0165 100.394 50.7689C100.394 53.2248 100.394 53.2248 97.9827 53.228C95.714 53.228 93.4453 53.2534 91.1797 53.228C90.8245 53.1894 90.4656 53.2491 90.1417 53.4007C89.8179 53.5523 89.5415 53.79 89.3427 54.088C86.2934 58.1335 80.6773 58.1335 77.5709 54.088C77.3767 53.7844 77.1007 53.5422 76.7751 53.3894C76.4494 53.2366 76.0872 53.1796 75.7306 53.2248C74.7797 53.2857 73.8258 53.2857 72.8749 53.2248C70.9013 53.0974 69.3847 53.4064 67.8299 55.1074C64.9743 58.2673 59.8562 57.6557 57.1624 54.1772C56.6103 53.4637 56.0995 53.1515 55.2301 53.2216C54.3853 53.2874 53.5366 53.2874 52.6917 53.2216C50.6166 53.0719 48.9825 53.3681 47.3294 55.1328C44.3785 58.2864 39.2827 57.6334 36.6777 54.139C36.1193 53.3904 35.5577 53.2057 34.7137 53.2184C32.2863 53.2598 29.8559 53.1611 27.4349 53.2598C25.9499 53.3203 25.5502 52.7693 25.5533 51.3295C25.5978 37.4699 25.5723 23.6166 25.5977 9.75058C25.5977 8.744 25.4962 8.04323 24.4777 7.45393C23.0625 6.6321 22.631 4.50743 23.2783 2.74273C23.8558 1.15003 25.0329 0.512954 26.7019 0.512954C38.8459 0.523572 50.9825 0.522507 63.1117 0.509766ZM42.389 44.3184H42.4113C39.3494 44.363 37.0458 46.6756 37.049 49.6954C37.049 51.1316 37.6173 52.509 38.6289 53.5245C39.6405 54.54 41.0124 55.1105 42.443 55.1105C43.8748 55.1605 45.268 54.6394 46.318 53.661C47.368 52.6827 47.9895 51.3267 48.0465 49.8897C48.1893 46.9559 45.8698 44.4745 42.8111 44.3153C42.6556 44.1623 42.516 44.1464 42.389 44.3184ZM62.9975 55.0914C66.2149 55.0914 68.5121 52.6865 68.4232 49.4533C68.3376 46.3475 65.8849 44.1496 62.7119 44.3248C59.6944 44.414 57.5432 46.6852 57.5685 49.74C57.5939 52.7948 59.8944 55.0819 62.9975 55.0914ZM83.2696 44.3153C82.5641 44.319 81.8663 44.4628 81.2164 44.7383C80.5664 45.0139 79.9773 45.4158 79.4827 45.9209C78.9881 46.426 78.598 47.0243 78.3347 47.6814C78.0714 48.3385 77.9401 49.0413 77.9485 49.7495C78.012 52.7948 80.4551 55.1233 83.5583 55.0946C84.2778 55.0923 84.9896 54.9456 85.6517 54.663C86.3138 54.3804 86.9129 53.9677 87.4138 53.4491C87.9146 52.9306 88.3071 52.3167 88.5681 51.6436C88.8291 50.9705 88.9532 50.2518 88.9333 49.5297C88.8508 46.4495 86.4235 44.2101 83.2696 44.3153ZM35.783 6.18934C36.1003 6.18934 36.4176 6.23394 36.7349 6.23394H98.7092C98.9186 6.23394 99.1312 6.23394 99.3438 6.23394C100.435 6.20209 100.949 5.64144 100.987 4.54248C101.051 2.85422 100.623 2.42738 98.7029 2.42738C81.1564 2.42738 63.6077 2.42738 46.057 2.42738C42.6334 2.42738 39.2098 2.45924 35.7862 2.47835C32.7941 2.45924 29.8051 2.47833 26.813 2.41781C25.5438 2.3987 25.0203 2.97846 25.0108 4.23032C25.0013 5.48218 25.4582 6.24665 26.8225 6.23709C29.8051 6.21798 32.7919 6.20208 35.783 6.18934ZM36.1003 45.9303C36.8301 45.0288 37.5186 44.0827 38.5307 43.4775C41.0945 41.9453 43.7376 41.802 46.3077 43.3501C49.249 45.118 50.2549 47.8606 49.798 51.3135C51.3844 51.3135 52.9709 51.2467 54.5574 51.3391C55.5696 51.3964 55.7727 51.0778 55.7092 50.0999C55.5093 46.9368 56.8991 44.5605 59.6659 43.0921C64.6602 40.4673 70.454 44.1751 70.308 49.9183C70.2827 51.0014 70.4476 51.4059 71.6121 51.3231C73.1288 51.2148 74.6581 51.2976 76.197 51.2976C75.4069 45.4524 79.6873 42.2703 83.4473 42.2671C87.3786 42.2671 91.4717 45.5862 90.7768 51.2976C92.8931 51.2976 94.9969 51.2116 97.091 51.3295C98.3412 51.4027 98.5347 50.9632 98.5316 49.8292C98.4893 36.4505 98.4893 23.0719 98.5316 9.69327C98.5316 8.28851 98.0873 8.10057 96.8562 8.10057C76.9723 8.1388 57.0884 8.14834 37.2045 8.12923C36.7317 8.12923 36.2526 8.16428 35.7862 8.18021C33.4699 8.18021 31.1536 8.20888 28.8437 8.10057C27.7046 8.04642 27.4729 8.41909 27.4825 9.50849C27.5364 15.841 27.5079 22.1736 27.5079 28.5062C27.5079 35.6818 27.5079 42.8595 27.5079 50.0394C27.5079 50.6064 27.235 51.3422 28.3297 51.3135C30.3826 51.2562 32.4355 51.2785 34.4852 51.3135C35.1198 51.3135 35.2911 51.1288 35.1928 50.4949C34.9358 48.8831 35.4879 47.3955 36.0812 45.9303H36.1003Z" fill="#0166FF"/>
<path d="M52.7517 62.9754C58.7994 56.2192 67.1792 56.2065 73.2808 63.0232C75.2322 60.8253 77.5008 59.0829 80.385 58.3152C85.4618 56.9646 90.6845 59.0574 94.3017 63.896C96.491 66.8202 97.719 70.1585 98.4266 73.7198C98.7185 75.2105 98.0109 75.5036 96.6814 75.5004C77.2206 75.4728 57.7682 75.4664 38.3243 75.4812C35.2147 75.4812 32.1052 75.443 28.9957 75.4812C27.7678 75.5035 27.3584 74.9875 27.5679 73.8503C28.415 69.2347 30.1538 65.0459 33.5965 61.7459C39.0413 56.525 46.2884 56.611 51.6539 61.9051C51.9807 62.2523 52.3329 62.574 52.7517 62.9754ZM62.3531 59.927C60.2526 59.8537 58.4726 60.7361 56.8227 61.8988C53.7258 64.0744 53.7036 64.2814 55.6677 67.5656C56.2483 69.308 57.0162 70.9962 57.2859 72.8278C57.397 73.5987 57.8634 73.5732 58.4091 73.57C61.4584 73.57 64.5107 73.57 67.5631 73.57C68.2167 73.57 68.5784 73.4681 68.7307 72.6845C69.2192 70.0929 70.1878 67.6164 71.5864 65.3836C71.9386 64.8293 71.9037 64.4566 71.469 64.0011C69.0132 61.3509 66.167 59.5702 62.3531 59.927ZM82.6379 59.927C81.1656 59.8633 79.8584 60.408 78.6082 61.0929C74.8832 63.1283 72.6811 66.422 71.3929 70.3305C70.165 74.0415 69.8572 73.5764 73.7726 73.4968C80.9245 73.5159 88.0763 73.5191 95.225 73.5732C96.2086 73.5732 96.399 73.2292 96.1769 72.366C95.3424 69.2188 94.0605 66.2914 91.8268 63.8833C89.355 61.233 86.4423 59.5225 82.6379 59.9398V59.927ZM32.9366 73.4999C40.0853 73.5191 47.2339 73.5222 54.3794 73.5732C55.3821 73.5732 55.5312 73.226 55.2901 72.3628C54.6238 69.9737 53.7702 67.658 52.3138 65.6321C49.7374 62.0389 46.5581 59.5097 41.805 59.9174C41.2332 59.8657 40.6567 59.9197 40.1042 60.0767C34.8657 61.5452 30.4077 67.2215 29.6589 73.4553C29.8594 73.5006 30.063 73.5305 30.2681 73.5445C31.1565 73.5573 32.0481 73.5318 32.9366 73.5127V73.4999Z" fill="#0166FF"/>
<path d="M35.7654 8.20268C36.2382 8.20268 36.7173 8.1517 37.1837 8.1517C57.0677 8.1517 76.9516 8.14216 96.8355 8.12305C98.0666 8.12305 98.5172 8.29506 98.5108 9.71574C98.4516 23.0944 98.4516 36.473 98.5108 49.8517C98.5108 50.9857 98.3205 51.4252 97.0703 51.352C94.9762 51.2341 92.8725 51.3201 90.7561 51.3201C91.451 45.6087 87.3579 42.2832 83.4266 42.2895C79.6602 42.2895 75.3863 45.4749 76.1764 51.3201C74.6375 51.3201 73.1081 51.2373 71.5914 51.3456C70.4269 51.4284 70.2619 51.0271 70.2873 49.9409C70.4238 44.2072 64.6394 40.4898 59.6452 43.1145C56.8784 44.5671 55.4886 46.937 55.6885 50.1224C55.752 51.1003 55.5489 51.4189 54.5367 51.3615C52.9502 51.2691 51.3828 51.3361 49.7772 51.3361C50.2246 47.8799 49.2188 45.1373 46.287 43.3726C43.7169 41.8245 41.0738 41.9678 38.51 43.5C37.4978 44.1052 36.8093 45.0513 36.0796 45.9527C35.6036 45.5418 35.7623 44.9971 35.7623 44.4811C35.7464 41.9328 35.7623 39.3622 35.7623 36.8011C36.4476 36.6737 37.3488 36.9699 37.6185 35.9984C37.8089 35.304 37.371 34.9249 36.7142 34.7816C36.1684 34.4949 35.5719 34.2401 35.7623 33.4278C36.0796 32.0995 35.3656 31.5834 34.1758 31.4401C34.9595 31.4401 35.7464 31.4401 36.5301 31.4401C37.1076 31.4401 37.5835 31.2522 37.6343 30.5928C37.6851 29.9334 37.2281 29.6658 36.6824 29.532C36.3739 29.4792 36.0623 29.4473 35.7496 29.4365V26.3116C35.959 26.2925 36.1652 26.2639 36.3842 26.2479C37.0759 26.2001 37.6819 25.974 37.6343 25.1617C37.5835 24.2985 36.8696 24.308 36.2255 24.3048C35.5814 24.3017 34.8643 24.3048 34.1853 24.3048C35.353 24.1519 36.0732 23.6487 35.7718 22.314C35.5814 21.5049 36.1716 21.2469 36.7237 20.9634C37.3773 20.8168 37.8216 20.4409 37.628 19.7465C37.3615 18.7909 36.4572 19.0712 35.775 18.9438C35.775 17.882 35.775 16.8202 35.775 15.7584C36.032 15.7202 36.2858 15.6692 36.5428 15.6501C37.1108 15.6119 37.6121 15.4558 37.6597 14.7933C37.7136 14.0288 37.1647 13.8377 36.5492 13.7516L35.775 13.6497L35.7654 8.20268ZM79.8887 13.7166C76.8583 13.7299 73.955 14.9406 71.8071 17.0867C69.6592 19.2329 68.4396 22.1418 68.4121 25.184C68.4121 31.5134 73.6728 36.7597 80.0029 36.7151C86.2473 36.6705 91.4574 31.3796 91.4003 25.1458C91.3619 22.1067 90.1345 19.2046 87.9831 17.0662C85.8317 14.9279 82.9289 13.7247 79.9014 13.7166H79.8887ZM49.1268 15.596C51.808 15.596 54.4891 15.596 57.1703 15.596C57.8937 15.596 58.8329 15.7234 58.8329 14.6595C58.8329 13.5956 57.9064 13.7039 57.1734 13.7039C51.8111 13.7039 46.4478 13.7039 41.0833 13.7039C40.3567 13.7039 39.462 13.6274 39.5191 14.7391C39.573 15.7393 40.4138 15.6023 41.0802 15.6023C43.774 15.6119 46.4583 15.6119 49.1395 15.6119L49.1268 15.596ZM49.1998 36.7247C51.8841 36.7247 54.5684 36.7247 57.2528 36.7247C58.027 36.7247 58.8678 36.7247 58.8392 35.6767C58.8043 34.7211 57.9762 34.8039 57.2845 34.8039H41.0199C40.325 34.8039 39.5412 34.7338 39.5381 35.7404C39.5349 36.7469 40.2869 36.7215 41.0008 36.7215L49.1998 36.7247ZM49.0538 20.8742H57.2655C57.954 20.8742 58.7853 20.957 58.8265 20.0078C58.8741 18.9693 58.0365 18.9502 57.2623 18.9502C51.8386 18.9502 46.4171 18.9502 40.9977 18.9502C40.2837 18.9502 39.5286 18.9502 39.5254 19.9058C39.5223 20.8614 40.3028 20.8614 41.0008 20.8614L49.0538 20.8742ZM49.1617 26.2097H57.2115C57.9794 26.2097 58.8234 26.181 58.8297 25.1744C58.8361 24.1679 57.9952 24.2666 57.313 24.2666C51.8936 24.2666 46.4731 24.2666 41.0516 24.2666C40.3789 24.2666 39.5413 24.1551 39.5254 25.1617C39.5064 26.2256 40.3568 26.2033 41.1119 26.2033C43.8026 26.2118 46.4901 26.2139 49.1744 26.2097H49.1617ZM49.2156 31.4082C51.8999 31.4082 54.5843 31.4082 57.2686 31.4082C57.9445 31.4082 58.798 31.5102 58.8329 30.5514C58.8646 29.5448 58.0333 29.4652 57.2464 29.4652H40.9881C40.2774 29.4652 39.5191 29.5098 39.5127 30.4686C39.5127 31.4815 40.3123 31.4051 40.9977 31.4051C43.7518 31.4114 46.4953 31.4125 49.2283 31.4082H49.2156Z" fill="#F9F7FC"/>
<path d="M35.7663 8.2024C35.7663 9.99896 35.7663 11.7955 35.7663 13.5921C35.0175 13.8851 33.6721 13.2735 33.6118 14.5796C33.542 16.0894 35.0207 15.3441 35.7663 15.7008C35.7663 16.7626 35.7663 17.8244 35.7663 18.8862C35.5029 18.8862 35.2428 18.9404 34.9826 18.934C34.2243 18.934 33.5326 19.0773 33.577 19.9947C33.6182 20.8388 34.3226 20.8739 34.9858 20.8675C35.5632 20.8675 36.1407 20.893 36.715 20.9057C36.1629 21.1892 35.5727 21.4472 35.7631 22.2563C36.0804 23.591 35.357 24.0943 34.1766 24.2472C33.7039 24.5657 33.339 24.9512 33.6309 25.5532C33.7431 25.7644 33.915 25.9376 34.1251 26.051C34.3351 26.1643 34.5738 26.2128 34.8112 26.1903C35.1285 26.1903 35.4458 26.2317 35.7631 26.2508V29.3757C35.0333 29.5477 34.1005 29.1877 33.6404 30.0892C33.3231 30.6849 33.7134 31.0799 34.1862 31.3952C35.3633 31.5386 36.0709 32.0546 35.7727 33.3829C35.5823 34.1952 36.1788 34.45 36.7245 34.7367C36.4065 34.7385 36.0888 34.7565 35.7727 34.7908C34.9762 34.9151 33.6817 34.3162 33.6118 35.6477C33.5325 37.1385 34.954 36.5364 35.7631 36.7562C35.7631 39.3045 35.7631 41.8783 35.7631 44.4362C35.7631 44.9395 35.595 45.4969 36.0804 45.9078C35.4807 47.3731 34.9286 48.8607 35.1824 50.4853C35.2808 51.1223 35.1127 51.3135 34.4749 51.3039C32.4251 51.2752 30.3723 51.253 28.3194 51.3039C27.2247 51.3358 27.5007 50.5999 27.4975 50.0298C27.4975 42.8499 27.4975 35.6721 27.4975 28.4965C27.4975 22.1639 27.5261 15.8314 27.4722 9.49887C27.4722 8.41903 27.6942 8.03676 28.8333 8.09092C31.1464 8.23107 33.4627 8.18647 35.7663 8.2024Z" fill="#F9F7FC"/>
<path d="M35.7656 2.47773C39.1893 2.45862 42.6129 2.42676 46.0366 2.42676C63.5936 2.42676 81.1422 2.42676 98.6824 2.42676C100.602 2.42676 101.03 2.8536 100.967 4.54186C100.929 5.64082 100.415 6.20147 99.3233 6.23332C99.1139 6.23332 98.9013 6.23332 98.6887 6.23332H36.7175C36.4002 6.23332 36.0829 6.20465 35.7656 6.18872C35.7815 4.95279 35.7656 3.71367 35.7656 2.47773Z" fill="#D9D9D9"/>
<path d="M83.2717 44.3151C86.4256 44.21 88.853 46.4493 88.9355 49.5296C88.9554 50.2516 88.8312 50.9703 88.5702 51.6434C88.3093 52.3165 87.9168 52.9304 87.4159 53.449C86.9151 53.9675 86.316 54.3802 85.6538 54.6628C84.9917 54.9454 84.2799 55.0921 83.5604 55.0944C81.3838 53.5017 80.4319 51.3771 80.746 48.7236C80.9618 46.908 82.1167 45.602 83.2717 44.3151Z" fill="#F9F7FC"/>
<path d="M62.7026 44.3242C65.8755 44.149 68.3377 46.3469 68.4139 49.4527C68.5027 52.6859 66.1929 55.0749 62.9882 55.0908C62.747 54.8169 62.5186 54.5302 62.2647 54.2722C59.9072 51.8609 59.5772 49.5929 61.0399 46.589C61.4651 45.7131 62.2107 45.1206 62.7026 44.3242Z" fill="#F9F7FC"/>
<path d="M42.8014 44.2803C45.8601 44.4523 48.1954 46.921 48.0368 49.8547C47.9797 51.2918 47.3583 52.6477 46.3083 53.626C45.2582 54.6044 43.865 55.1255 42.4333 55.0756C40.6882 53.416 39.7363 51.4792 39.8442 48.966C39.9331 46.905 41.3006 45.7105 42.4111 44.2994H42.3889L42.8014 44.2803Z" fill="#F9F7FC"/>
<path d="M35.7663 2.47801C35.7663 3.71394 35.7663 4.95307 35.7663 6.189C32.7773 6.20386 29.7873 6.21976 26.7963 6.23675C25.4319 6.23675 24.975 5.50732 24.9845 4.22998C24.994 2.95263 25.5144 2.39836 26.7867 2.41747C29.7979 2.46206 32.7868 2.4589 35.7663 2.47801Z" fill="#D9D9D9"/>
<path d="M42.4267 44.3115C41.3161 45.7227 39.9485 46.9172 39.8597 48.9781C39.7518 51.4914 40.7038 53.4377 42.4489 55.0877C41.0183 55.0877 39.6462 54.5172 38.6347 53.5016C37.6231 52.4861 37.0548 51.1087 37.0548 49.6726C37.0326 46.6687 39.3489 44.3561 42.4267 44.3115Z" fill="#D9D9D9"/>
<path d="M83.2715 44.3154C82.1166 45.5896 80.9616 46.9084 80.7332 48.7145C80.4159 51.3775 81.3678 53.518 83.5476 55.0853C80.4445 55.1139 78.0012 52.7854 77.9378 49.7402C77.9307 49.0317 78.0633 48.3288 78.328 47.672C78.5926 47.0152 78.9841 46.4174 79.4799 45.9132C79.9757 45.4089 80.566 45.0082 81.2167 44.7339C81.8675 44.4597 82.5658 44.3175 83.2715 44.3154Z" fill="#D9D9D9"/>
<path d="M62.7026 44.3242C62.2108 45.1206 61.4747 45.713 61.0495 46.589C59.5868 49.5928 59.9168 51.8608 62.2743 54.2722C62.5282 54.5302 62.7566 54.8169 62.9978 55.0908C59.8946 55.0908 57.6037 52.8133 57.5593 49.7521C57.5148 46.691 59.6851 44.4134 62.7026 44.3242Z" fill="#D9D9D9"/>
<path d="M42.8031 44.2797L42.3906 44.3052C42.5175 44.1459 42.6572 44.1618 42.8031 44.2797Z" fill="#F5BD85"/>
<path d="M41.7942 59.9298C46.5537 59.5221 49.7267 62.0513 52.3031 65.6444C53.7595 67.6703 54.613 69.9861 55.2793 72.3751C55.5205 73.2384 55.3713 73.5951 54.3686 73.5856C47.2231 73.5346 40.0745 73.5314 32.9258 73.5123C34.0046 67.7436 36.6699 63.0228 41.7942 59.9298Z" fill="#F9F7FC"/>
<path d="M82.6372 59.9395C86.4448 59.5222 89.3544 61.2327 91.8198 63.8925C94.0408 66.3007 95.3354 69.2281 96.1699 72.3752C96.3983 73.2385 96.208 73.5889 95.218 73.5825C88.0693 73.5283 80.9175 73.5252 73.7656 73.5061C74.1756 71.6516 74.7544 69.8389 75.4949 68.0909C76.9724 64.6936 79.4693 61.844 82.6372 59.9395Z" fill="#F9F7FC"/>
<path d="M62.3532 59.9268C66.1607 59.5541 69.0164 61.3507 71.485 64.0073C71.907 64.4628 71.9545 64.8355 71.6023 65.3898C70.2037 67.6226 69.2351 70.0991 68.7467 72.6907C68.5944 73.4743 68.2327 73.5826 67.579 73.5762C64.5266 73.5762 61.4742 73.5762 58.425 73.5762C57.8793 73.5762 57.4128 73.6049 57.3018 72.834C57.0321 71.0024 56.2642 69.3301 55.6836 67.5718C55.7439 66.5907 56.2293 65.8039 56.7814 65.0234C58.2548 62.9446 60.1547 61.2068 62.3532 59.9268Z" fill="#F9F7FC"/>
<path d="M41.7946 59.9299C36.6575 63.0229 33.9923 67.7436 32.9261 73.5124C32.0377 73.5315 31.1461 73.557 30.2576 73.5665C30.0526 73.5524 29.8489 73.5226 29.6484 73.4773C30.3973 67.234 34.8553 61.5576 40.0938 60.0987C40.6457 59.9385 41.2221 59.8812 41.7946 59.9299Z" fill="#D9D9D9"/>
<path d="M82.6401 59.9389C79.472 61.8486 76.9772 64.704 75.5041 68.1063C74.7636 69.8543 74.1848 71.667 73.7748 73.5214C69.8594 73.6011 70.1672 74.0661 71.3951 70.3551C72.6833 66.4498 74.8854 63.1562 78.6104 61.1175C79.8701 60.4199 81.1678 59.888 82.6401 59.9389Z" fill="#D9D9D9"/>
<path d="M62.3559 59.9271C60.1517 61.2052 58.2462 62.9432 56.7683 65.0237C56.2162 65.7946 55.7307 66.5814 55.6704 67.572C53.7064 64.2879 53.7286 64.0681 56.8254 61.9052C58.4754 60.7362 60.2554 59.8538 62.3559 59.9271Z" fill="#D9D9D9"/>
<path d="M79.9025 13.7158C82.9322 13.7206 85.8382 14.9222 87.9924 17.061C90.1465 19.1997 91.3756 22.1037 91.4139 25.145C91.4711 31.3788 86.2611 36.6697 80.0167 36.7143C73.6866 36.7589 68.41 31.5126 68.4258 25.1832C68.4533 22.1411 69.673 19.2321 71.8209 17.0859C73.9688 14.9398 76.8721 13.7291 79.9025 13.7158ZM79.858 29.8371C80.4638 29.8536 81.0667 29.7487 81.6316 29.5284C82.1965 29.3081 82.7119 28.977 83.1477 28.5543C83.5835 28.1316 83.931 27.6258 84.1697 27.0667C84.4085 26.5075 84.5337 25.9062 84.5381 25.2979C84.5563 24.6901 84.4548 24.0846 84.2395 23.5163C84.0242 22.9479 83.6993 22.4277 83.2834 21.9856C82.8675 21.5435 82.3688 21.1882 81.8159 20.94C81.2629 20.6917 80.6666 20.5554 80.0611 20.5389C79.4419 20.5157 78.8245 20.6186 78.246 20.8414C77.6675 21.0643 77.1399 21.4025 76.6951 21.8356C76.2504 22.2687 75.8976 22.7878 75.6581 23.3615C75.4186 23.9352 75.2974 24.5516 75.3017 25.1737C75.2877 25.7835 75.3957 26.3899 75.6194 26.957C75.8431 27.5242 76.1778 28.0404 76.6039 28.4753C77.0299 28.9102 77.5387 29.2548 78.0998 29.4887C78.6609 29.7226 79.2631 29.8411 79.8707 29.8371H79.858ZM79.0172 17.4141C79.0172 15.5888 78.8966 15.5028 77.2149 15.9806C76.1544 16.2913 75.156 16.785 74.2641 17.4395C69.4412 20.8702 69.0096 28.2699 73.4137 32.1847C73.6929 32.43 73.9182 33.1117 74.5401 32.6243C74.9933 32.2364 75.2849 31.6918 75.3572 31.0984C75.4294 30.5049 75.2771 29.9059 74.9304 29.4198C71.9795 25.7566 73.4264 20.5007 77.8908 18.994C78.8808 18.6723 79.1378 18.2072 79.0172 17.43V17.4141ZM79.8739 34.7935C81.941 34.7991 83.9544 34.1329 85.613 32.8944C87.2716 31.6559 88.4863 29.9117 89.0755 27.9227C89.2342 27.3779 89.8909 26.4 88.9042 26.263C88.0189 26.142 86.7148 25.4699 86.1246 27.1072C84.8554 30.6111 82.0601 32.2516 78.4524 31.5476C77.6655 31.3947 77.3419 31.5158 76.9611 32.1497C75.822 34.0609 75.8062 34.0291 78.0051 34.5801C78.615 34.7345 79.2417 34.8116 79.8707 34.8095L79.8739 34.7935ZM80.8544 16.9999C80.8544 18.1499 82.7582 19.8859 83.7894 19.7649C83.9702 19.7458 84.1384 19.561 84.3002 19.4463C86.1341 18.0225 86.0739 17.4778 83.948 16.503C83.4752 16.2864 82.9612 16.1622 82.4757 15.9743C81.3335 15.5315 80.6069 15.6462 80.8544 17.0159V16.9999ZM88.0284 24.2595C89.3706 24.5207 89.5007 23.7816 89.1326 22.6253C88.8413 21.6125 88.3881 20.654 87.7904 19.7872C87.6223 19.5546 87.4002 19.0959 87.0956 19.4208C86.4864 20.077 85.3314 20.4593 85.4234 21.5105C85.5821 23.2274 86.6513 24.2849 88.0284 24.2754V24.2595Z" fill="#0166FF"/>
<path d="M49.1376 15.6112C46.4565 15.6112 43.7722 15.6112 41.091 15.6112C40.4247 15.6112 39.5839 15.7481 39.5299 14.7479C39.4728 13.6362 40.3676 13.7127 41.0942 13.7127C46.4586 13.6999 51.822 13.6999 57.1843 13.7127C57.9172 13.7127 58.8438 13.6394 58.8438 14.6683C58.8438 15.6972 57.8919 15.6016 57.1811 15.6048C54.5 15.6112 51.8188 15.6112 49.1376 15.6112Z" fill="#0166FF"/>
<path d="M49.2134 36.7239H41.0018C40.2879 36.7239 39.5359 36.7239 39.5391 35.7428C39.5422 34.7617 40.326 34.8063 41.0209 34.8063H57.2855C57.9772 34.8063 58.8053 34.7267 58.8403 35.6791C58.8815 36.7207 58.0407 36.7271 57.2538 36.7271C54.5821 36.7176 51.8978 36.7239 49.2134 36.7239Z" fill="#0166FF"/>
<path d="M49.0675 20.8737H41.0145C40.3165 20.8737 39.5359 20.9311 39.5391 19.9181C39.5422 18.9052 40.2975 18.9625 41.0114 18.9625C46.4308 18.9625 51.8523 18.9625 57.276 18.9625C58.0502 18.9625 58.8878 18.9816 58.8403 20.02C58.799 20.9757 57.9677 20.8865 57.2792 20.8865L49.0675 20.8737Z" fill="#0166FF"/>
<path d="M49.1749 26.209C46.4906 26.209 43.8062 26.209 41.1219 26.209C40.3699 26.209 39.5195 26.2313 39.5354 25.1673C39.5512 24.1607 40.3889 24.2722 41.0616 24.2722C46.481 24.2722 51.9015 24.2722 57.323 24.2722C58.0052 24.2722 58.8492 24.2085 58.8397 25.1801C58.8302 26.1516 57.9894 26.2185 57.2216 26.2153L49.1749 26.209Z" fill="#0166FF"/>
<path d="M49.2286 31.4077C46.4935 31.4077 43.7574 31.4077 41.0202 31.4077C40.3348 31.4077 39.5288 31.4841 39.5352 30.4712C39.5352 29.5156 40.2999 29.471 41.0107 29.4678H57.2689C58.0463 29.4678 58.8776 29.5474 58.8554 30.554C58.8205 31.5096 57.967 31.4109 57.2912 31.4109C54.6005 31.413 51.913 31.4119 49.2286 31.4077Z" fill="#0166FF"/>
<path d="M35.766 15.7005C35.0204 15.3438 33.5449 16.0891 33.6116 14.5793C33.6718 13.3051 35.0172 13.8849 35.766 13.5918L36.5402 13.6937C37.1558 13.7765 37.7047 13.9708 37.6507 14.7353C37.6031 15.3979 37.1018 15.554 36.5338 15.5922C36.2864 15.6113 36.0325 15.6623 35.766 15.7005Z" fill="#0166FF"/>
<path d="M36.7182 20.918C36.1439 20.918 35.5664 20.8734 34.989 20.8798C34.3258 20.8798 33.6214 20.8511 33.5802 20.007C33.5358 19.0896 34.2148 18.9303 34.9858 18.9462C35.246 18.9462 35.5061 18.9144 35.7695 18.8984C36.4517 19.0259 37.356 18.7296 37.6225 19.7012C37.8256 20.3892 37.3814 20.7715 36.7182 20.918Z" fill="#0166FF"/>
<path d="M35.7661 36.7783C34.9538 36.5585 33.545 37.1606 33.6117 35.6698C33.6815 34.3383 34.9761 34.9372 35.7725 34.813C36.0886 34.7786 36.4063 34.7605 36.7244 34.7588C37.3812 34.9021 37.8191 35.2812 37.6287 35.9756C37.3685 36.9535 36.461 36.6509 35.7661 36.7783Z" fill="#0166FF"/>
<path d="M34.2023 31.417C33.7296 31.0984 33.352 30.7067 33.6566 30.111C34.1167 29.2095 35.0495 29.5695 35.7793 29.3975C36.092 29.4083 36.4037 29.4402 36.7121 29.493C37.2547 29.6268 37.7116 29.9008 37.664 30.5538C37.6164 31.2068 37.1373 31.3947 36.5598 31.401C35.7666 31.4106 34.9861 31.4106 34.2023 31.417Z" fill="#0166FF"/>
<path d="M35.7639 26.2731C35.4466 26.254 35.1293 26.2158 34.812 26.2126C34.5746 26.2351 34.3359 26.1866 34.1259 26.0733C33.9158 25.9599 33.7439 25.7868 33.6317 25.5755C33.3398 24.9735 33.7047 24.5849 34.1775 24.2695C34.8565 24.2695 35.5386 24.2695 36.2176 24.2695C36.8967 24.2695 37.5757 24.2695 37.6265 25.1264C37.6741 25.9387 37.068 26.1648 36.3763 26.2126C36.1923 26.2254 35.986 26.254 35.7639 26.2731Z" fill="#0166FF"/>
<path d="M79.8709 29.8375C79.2646 29.8394 78.6641 29.7193 78.1048 29.4845C77.5455 29.2496 77.0388 28.9047 76.6144 28.47C76.19 28.0354 75.8566 27.5198 75.6339 26.9538C75.4112 26.3877 75.3036 25.7826 75.3176 25.1741C75.3133 24.5521 75.4346 23.9356 75.6741 23.3619C75.9136 22.7882 76.2664 22.2691 76.7111 21.836C77.1559 21.4029 77.6834 21.0647 78.2619 20.8419C78.8404 20.619 79.4579 20.5161 80.0771 20.5393C80.6826 20.5558 81.2789 20.6921 81.8319 20.9404C82.3848 21.1887 82.8835 21.544 83.2994 21.9861C83.7153 22.4282 84.0402 22.9483 84.2555 23.5167C84.4708 24.0851 84.5723 24.6905 84.5542 25.2983C84.5497 25.907 84.4244 26.5086 84.1854 27.0679C83.9465 27.6273 83.5987 28.1332 83.1626 28.5559C82.7264 28.9786 82.2107 29.3097 81.6454 29.5298C81.0802 29.7499 80.4769 29.8545 79.8709 29.8375Z" fill="#F1F0F6"/>
<path d="M79.0145 17.43C79.135 18.2073 78.878 18.6723 77.8881 19.0227C73.4237 20.5422 71.9768 25.7853 74.9277 29.4485C75.2744 29.9346 75.4267 30.5337 75.3544 31.1271C75.2821 31.7205 74.9905 32.2651 74.5374 32.653C73.9028 33.1404 73.6902 32.4587 73.411 32.2134C69.0069 28.305 69.4385 20.8989 74.2614 17.4683C75.1532 16.8137 76.1517 16.3201 77.2122 16.0094C78.8938 15.5252 79.0272 15.6112 79.0145 17.43Z" fill="#25C2FF"/>
<path d="M79.8705 34.8096C79.239 34.8177 78.609 34.746 77.9953 34.5962C75.7964 34.0451 75.8123 34.0801 76.9514 32.1657C77.3321 31.5286 77.6558 31.4108 78.4427 31.5637C82.0503 32.2676 84.8457 30.6431 86.1149 27.1233C86.705 25.486 88.0187 26.1676 88.8944 26.2791C89.8812 26.4161 89.2117 27.394 89.0657 27.9387C88.4768 29.9267 87.2631 31.6702 85.6058 32.9086C83.9485 34.1469 81.9365 34.8138 79.8705 34.8096Z" fill="#25C2FF"/>
<path d="M80.8531 17.016C80.6056 15.6462 81.3321 15.5316 82.4744 15.9775C82.9599 16.1655 83.4739 16.2961 83.9467 16.5063C86.0726 17.481 86.1328 18.0257 84.2989 19.4496C84.137 19.577 83.9816 19.7681 83.7881 19.7681C82.7537 19.9019 80.8467 18.1595 80.8531 17.016Z" fill="#25C2FF"/>
<path d="M88.0281 24.2756C86.6511 24.2756 85.5755 23.2276 85.4232 21.5266C85.3311 20.4754 86.4861 20.0932 87.0953 19.437C87.4126 19.1185 87.622 19.5708 87.7902 19.8034C88.3878 20.6702 88.8411 21.6287 89.1323 22.6415C89.5004 23.7978 89.3703 24.5304 88.0281 24.2756Z" fill="#25C2FF"/>
</g>
<defs>
<clipPath id="clip0_1201_831">
<rect width="80" height="75" fill="white" transform="translate(0 22.5)"/>
</clipPath>
<clipPath id="clip1_1201_831">
<rect width="80" height="75" fill="white" transform="translate(11 11.5)"/>
</clipPath>
<clipPath id="clip2_1201_831">
<rect width="80" height="75" fill="white" transform="translate(23 0.5)"/>
</clipPath>
</defs>
</svg>
