<svg width="101" height="98" viewBox="0 0 101 98" fill="none" xmlns="http://www.w3.org/2000/svg">
<path d="M64.2137 64.9822L64.2138 64.9822C64.2174 64.6806 64.2164 64.379 64.2112 64.0775L64.7433 64.0681C64.7326 63.4547 64.7039 62.8416 64.6574 62.2298L64.1267 62.2702C64.1038 61.9695 64.0766 61.6691 64.0449 61.3692L64.0448 61.368C64.0383 61.3048 64.0306 61.2593 64.0231 61.2269C63.9937 61.2264 63.9528 61.228 63.8978 61.2342L63.8883 61.2353L63.8883 61.2352C63.4362 61.2782 62.9831 61.3024 62.5302 61.3078L62.5238 60.7756C61.6458 60.7861 60.7685 60.7238 59.9008 60.5894L59.8193 61.1154C59.3737 61.0463 58.9305 60.9589 58.491 60.8531C58.1717 60.7837 57.8549 60.706 57.5409 60.6203L57.681 60.1068C57.0642 59.9385 56.4584 59.7383 55.8659 59.5075L55.6727 60.0034C55.0604 59.765 54.4619 59.4947 53.8794 59.1942L54.1235 58.7212C53.5569 58.4288 53.006 58.1068 52.4731 57.7567L52.1808 58.2015C51.6332 57.8417 51.1039 57.4529 50.5955 57.0365L50.9327 56.6247C50.4408 56.2218 49.9689 55.7924 49.5193 55.3377L49.1409 55.712C48.9106 55.4791 48.6861 55.2399 48.4675 54.9944C48.2488 54.7486 48.0369 54.4977 47.8321 54.2418L48.2476 53.9092C47.8477 53.4095 47.4754 52.8906 47.1318 52.3547L46.6838 52.6421C46.3288 52.0884 46.0035 51.5172 45.7091 50.931L46.1847 50.6921C45.8983 50.1218 45.6419 49.5368 45.4166 48.9396L44.9186 49.1275C44.687 48.5138 44.4874 47.8876 44.3208 47.2513L44.8357 47.1164C44.6745 46.5007 44.5451 45.8753 44.4485 45.2426L43.9223 45.3229C43.8729 44.9993 43.8319 44.6738 43.7994 44.3468C43.7993 44.3464 43.7993 44.3461 43.7992 44.3457L43.7987 44.3405C43.5097 44.3915 43.2245 44.4193 42.945 44.4243L42.9354 43.8921C42.3491 43.9027 41.7991 43.8017 41.3044 43.6016L41.1049 44.0951C40.5099 43.8545 39.9835 43.4877 39.5535 43.0124L39.9481 42.6553C39.5898 42.2592 39.3076 41.7767 39.1211 41.2206L38.6165 41.3898C38.5208 41.1047 38.4484 40.8043 38.4005 40.4903M64.2137 64.9822L38.9267 40.4101M64.2137 64.9822L64.2138 64.9937C64.2165 65.2602 64.2152 65.5267 64.2101 65.7931L64.7422 65.8034C64.7317 66.3468 64.7053 66.8897 64.663 67.4315L64.1323 67.3901C64.1118 67.6538 64.0873 67.9172 64.0591 68.1803C64.0225 68.4603 63.9573 68.7098 63.8678 68.9285L64.3604 69.1301C64.1176 69.7236 63.7094 70.1749 63.1428 70.4462L62.913 69.9661C62.7079 70.0643 62.469 70.1364 62.1928 70.1747C61.8113 70.226 61.4285 70.2726 61.0444 70.3157L61.1038 70.8447C60.3292 70.9316 59.5523 71.0042 58.7755 71.0727L58.7287 70.5425C58.4293 70.5689 58.13 70.5947 57.8302 70.6205C57.7416 70.6282 57.653 70.6358 57.5643 70.6434L57.5639 70.6435C57.1304 70.6813 56.7161 70.7583 56.3251 70.8796L56.4828 71.388C55.7261 71.6227 55.0917 72.0349 54.6018 72.6476L54.186 72.3153C53.9272 72.639 53.7075 73.0074 53.5275 73.4198C53.344 73.8401 53.2219 74.2596 53.1615 74.6768L53.6883 74.753C53.5736 75.5455 53.7162 76.3031 54.0835 77.0213L53.6096 77.2637C53.7995 77.6351 54.0403 77.9914 54.3251 78.3326C54.5571 78.6127 54.7902 78.8911 55.0235 79.1683L55.4307 78.8255C55.6882 79.1313 55.9464 79.4363 56.2045 79.7411C56.4145 79.989 56.6244 80.2369 56.8339 80.4852L56.427 80.8284C56.6601 81.1047 56.8922 81.3811 57.1228 81.6584L57.1245 81.6604C57.3566 81.9367 57.5261 82.199 57.6415 82.4482L58.1245 82.2246C58.4502 82.928 58.4539 83.6216 58.1398 84.3249L57.6538 84.1078C57.5417 84.3588 57.3755 84.623 57.1472 84.9014L57.1468 84.9019C56.9798 85.106 56.8104 85.308 56.6386 85.5079L57.0422 85.8549C56.6927 86.2614 56.3334 86.6593 55.9646 87.048L55.5785 86.6817C55.2155 87.0643 54.8433 87.4379 54.4622 87.8022L54.8299 88.187C54.4426 88.5572 54.0461 88.918 53.6409 89.269L53.2924 88.8667C53.0932 89.0393 52.8918 89.2095 52.6883 89.3772L52.6879 89.3776C52.4344 89.5869 52.1875 89.7408 51.9492 89.8458L52.1637 90.3329C51.5046 90.6231 50.8369 90.6333 50.1752 90.3598L50.3786 89.8679C50.1397 89.7691 49.8915 89.6208 49.6361 89.4155L49.6356 89.4151C49.3443 89.1816 49.0546 88.9454 48.7654 88.7073L48.4271 89.1182C48.0239 88.7863 47.6229 88.4517 47.2218 88.117C47.0451 87.9695 46.8684 87.8221 46.6915 87.6749L47.032 87.2657C46.7424 87.0247 46.4516 86.7837 46.1591 86.544C45.8288 86.2734 45.4839 86.043 45.1244 85.8598L44.8827 86.334C44.1914 85.9817 43.4616 85.8352 42.6978 85.9293L42.6327 85.4011C42.2272 85.4511 41.8189 85.5598 41.4093 85.7277C41.005 85.8934 40.638 86.0954 40.311 86.3352L40.6258 86.7644C40.0016 87.2222 39.5633 87.8205 39.309 88.5528L38.8062 88.3782C38.6734 88.7604 38.5871 89.169 38.5443 89.6012C38.5056 89.9912 38.4691 90.381 38.4336 90.7705L38.9637 90.8187C38.9258 91.2356 38.8891 91.6528 38.8524 92.0701C38.8208 92.4299 38.7891 92.7898 38.7567 93.1496L38.2266 93.1018C38.1916 93.4894 38.1558 93.8764 38.118 94.2629C38.0878 94.5705 38.0196 94.8432 37.921 95.0807L38.4125 95.2849C38.1456 95.9276 37.6774 96.4054 37.0453 96.6785L36.8342 96.1899C36.5998 96.2912 36.3299 96.361 36.0244 96.3915L36.0214 96.3918C35.7454 96.4209 35.469 96.4464 35.1925 96.4682L35.2344 96.9988C34.6716 97.0433 34.108 97.0729 33.5441 97.0877L33.5301 96.5556C32.9753 96.5702 32.4202 96.5702 31.8654 96.5556L31.8515 97.0877C31.2875 97.0729 30.7239 97.0433 30.1612 96.9988L30.2031 96.4682C29.9265 96.4464 29.6502 96.4209 29.3742 96.3918C29.1139 96.3641 28.874 96.3014 28.6586 96.2097L28.4501 96.6994C27.8837 96.4583 27.4319 96.0452 27.1587 95.5018L27.6342 95.2627C27.532 95.0595 27.4595 94.8294 27.4247 94.5739C27.3734 94.1918 27.3264 93.8087 27.2828 93.4246L26.754 93.4846C26.666 92.7102 26.5919 91.934 26.5235 91.1568L27.0537 91.1101C27.0196 90.7231 26.987 90.3356 26.9547 89.9472L26.9546 89.9468C26.9177 89.5076 26.8426 89.0866 26.723 88.689L26.2133 88.8422C25.9804 88.068 25.568 87.4182 24.9422 86.9217L25.273 86.5047C24.9426 86.2425 24.5649 86.0218 24.14 85.8435C23.7184 85.6665 23.2991 85.5486 22.8827 85.491L22.8098 86.0182C22.0147 85.9083 21.2589 86.0517 20.5423 86.4235L20.2972 85.951C19.9271 86.143 19.5722 86.3864 19.2319 86.6749L19.2314 86.6753C18.9716 86.8961 18.7119 87.1167 18.4521 87.3369L18.7964 87.7429C18.2757 88.1844 17.7551 88.6247 17.2344 89.064L16.8912 88.6572C16.6307 88.8769 16.3703 89.0964 16.1098 89.3156C15.7929 89.5819 15.5035 89.7779 15.2348 89.9133L15.4742 90.3886C14.6959 90.7806 13.9713 90.7868 13.197 90.4102L13.4298 89.9316C13.1603 89.8005 12.8702 89.6081 12.5522 89.3446L12.5514 89.3439C12.1706 89.0296 11.7972 88.7067 11.4315 88.3754L11.0742 88.7699C10.3304 88.0963 9.61779 87.3887 8.93872 86.6496L9.33066 86.2895C8.99685 85.9262 8.67126 85.5551 8.35418 85.1765C8.10172 84.8751 7.91745 84.5966 7.79199 84.3359L7.31237 84.5667C6.95484 83.8237 6.95524 83.1127 7.31687 82.3599L7.79664 82.5903C7.92242 82.3285 8.10609 82.048 8.35687 81.7437L8.35732 81.7431C8.57378 81.4798 8.79062 81.2168 9.00783 80.9541L8.59762 80.6149C9.03275 80.0887 9.46936 79.5637 9.90746 79.0401L10.3157 79.3816C10.5344 79.1201 10.7535 78.859 10.973 78.5982L10.9733 78.5979C11.2623 78.254 11.5092 77.895 11.7061 77.5208L11.235 77.273C11.6178 76.5452 11.777 75.7773 11.6685 74.971L12.196 74.9C12.1388 74.475 12.0172 74.0471 11.8305 73.6174C11.6436 73.1871 11.4136 72.8062 11.1419 72.4742L10.73 72.8113C10.215 72.1822 9.54566 71.7728 8.75503 71.5464M64.2137 64.9822L8.75503 71.5464M38.4005 40.4903L38.9267 40.4101M38.4005 40.4903C38.4006 40.4908 38.4007 40.4912 38.4007 40.4917L38.9267 40.4101M38.4005 40.4903C38.3395 40.0963 38.2884 39.7027 38.2441 39.31L38.773 39.2503C38.8167 39.6376 38.8669 40.0242 38.9267 40.4101M38.239 34.7191C37.9738 34.0195 37.4953 33.5229 36.8037 33.241L36.6028 33.7338C36.3541 33.6325 36.0612 33.5606 35.7192 33.5247C35.4571 33.4981 35.1947 33.4749 34.9321 33.4551L34.9722 32.9244C34.437 32.884 33.9011 32.8574 33.3649 32.8447L33.3522 33.3768C32.825 33.3643 32.2976 33.3654 31.7704 33.3801L31.7556 32.8481C31.2195 32.863 30.6836 32.8918 30.1486 32.9344L30.1909 33.465C29.9282 33.486 29.6656 33.5103 29.4033 33.538L29.402 33.5381C29.0387 33.5757 28.7303 33.6482 28.4704 33.7503L28.2758 33.255C27.5491 33.5406 27.0592 34.0485 26.7969 34.791L27.2988 34.9682C27.2055 35.2322 27.1427 35.5438 27.1157 35.9092L27.1157 35.9093C27.0895 36.2641 27.0626 36.619 27.035 36.9738L26.5044 36.9325C26.4493 37.6408 26.3911 38.3486 26.3282 39.0563L26.8584 39.1034C26.8268 39.4582 26.7941 39.813 26.76 40.168C26.7599 40.1681 26.7599 40.1681 26.7599 40.1682L26.2301 40.1173C26.1919 40.5166 26.1173 40.8932 26.0041 41.2439C25.761 41.9972 25.34 42.6306 24.7203 43.1123L25.047 43.5325C24.7183 43.788 24.345 44.0025 23.9279 44.1745M38.239 34.7191L7.62095 70.815C7.26076 70.7888 6.90044 70.7617 6.54011 70.7338L6.49899 71.2645C5.77698 71.2085 5.05484 71.1491 4.33338 71.0859L4.37983 70.5557C4.01986 70.5241 3.66009 70.4917 3.30062 70.4582L3.29103 70.4573L3.28142 70.4568C3.14883 70.4493 3.01809 70.4298 2.89061 70.3989L2.76541 70.9162C2.44594 70.8389 2.14297 70.7043 1.87134 70.5189L2.17135 70.0793C2.063 70.0053 1.96082 69.9214 1.86627 69.8279C1.77164 69.7345 1.68631 69.6332 1.61091 69.5256L1.17496 69.8309C0.986187 69.5614 0.847607 69.2598 0.765995 68.9409L1.28164 68.8089C1.24905 68.6816 1.22774 68.5508 1.21838 68.418L1.21764 68.4077L1.21651 68.3973C1.18582 68.1181 1.15897 67.8385 1.13594 67.5588L0.605479 67.6024C0.558605 67.0327 0.527354 66.4621 0.511726 65.8911L1.04378 65.8766C1.02842 65.3151 1.02842 64.7533 1.04378 64.1918L0.511726 64.1773C0.527354 63.6063 0.558605 63.0357 0.605479 62.466L1.13594 62.5096C1.15897 62.2298 1.18582 61.9503 1.21651 61.6711L1.21652 61.6709C1.24791 61.3847 1.32199 61.1284 1.43034 60.9035L0.950845 60.6725C1.23587 60.081 1.72438 59.633 2.3638 59.3776L2.56125 59.8719C2.7988 59.777 3.06769 59.7119 3.36581 59.6839L3.36829 59.6837C3.70765 59.6502 4.0467 59.617 4.38563 59.5845L4.33492 59.0547C5.01446 58.9897 5.69413 58.9276 6.37422 58.872L6.41754 59.4025C6.75598 59.3749 7.09427 59.3489 7.43248 59.325L7.43288 59.325C7.89026 59.2923 8.33189 59.2229 8.75088 59.1081L8.61027 58.5947C9.43417 58.3691 10.1339 57.9577 10.6641 57.3047L11.0773 57.6402C11.3567 57.2961 11.5906 56.8986 11.7766 56.4457L11.7767 56.4455C11.9577 56.0045 12.0723 55.5669 12.1212 55.1334L11.5923 55.0738C11.685 54.2518 11.5055 53.4739 11.0967 52.7397C10.9087 52.4022 10.6724 52.0739 10.3917 51.7548L10.7928 51.4048C10.7926 51.4046 10.7923 51.4043 10.7921 51.4041C10.5647 51.1435 10.3384 50.8813 10.1131 50.618L9.70868 50.964C9.25604 50.4349 8.80772 49.9013 8.36233 49.3655L8.77163 49.0253C8.54963 48.7582 8.32826 48.4905 8.10734 48.2223C7.88625 47.9533 7.72567 47.6958 7.61737 47.4499L7.13027 47.6645C6.82768 46.9775 6.83012 46.2935 7.13344 45.6047L7.62057 45.8191C7.72946 45.5718 7.88996 45.3129 8.10938 45.0421C8.27587 44.8375 8.44483 44.635 8.61622 44.4347L8.2118 44.0887C8.56074 43.6809 8.91961 43.2819 9.28805 42.8921L9.67485 43.2577C10.0374 42.8742 10.4094 42.4997 10.7904 42.1346L10.4222 41.7503C10.8095 41.3792 11.2061 41.0177 11.6115 40.666L11.9602 41.0681C12.1595 40.8953 12.361 40.7249 12.5646 40.557L12.5652 40.5564C12.8248 40.3417 13.0766 40.1852 13.3194 40.0794L13.1068 39.5914C13.7777 39.2993 14.4564 39.2976 15.1336 39.5877L14.924 40.077C15.1679 40.1815 15.4218 40.3364 15.6845 40.5489C15.9751 40.7845 16.2647 41.0221 16.5539 41.2609L16.8928 40.8504C17.2581 41.1521 17.6223 41.4552 17.9864 41.7584C18.2007 41.9368 18.415 42.1152 18.6296 42.2934L18.2896 42.7029C18.5796 42.9437 18.8706 43.1843 19.1629 43.4238L19.1629 43.4238C19.4973 43.6978 19.8469 43.9262 20.2107 44.1044L20.4448 43.6264C21.1422 43.9679 21.8774 44.0918 22.6394 43.985L22.7133 44.5121C23.1177 44.4554 23.5232 44.3423 23.9279 44.1745M38.239 34.7191L37.7413 34.9078C37.8376 35.1616 37.9039 35.4582 37.9347 35.8014C37.9689 36.1881 37.9998 36.5743 38.0308 36.9623L38.5614 36.9198L38.239 34.7191ZM23.9279 44.1745C23.928 44.1745 23.928 44.1745 23.9281 44.1744L23.7243 43.6827L23.9271 44.1748C23.9274 44.1747 23.9276 44.1746 23.9279 44.1745ZM8.75503 71.5464L8.90158 71.0347C8.49562 70.9184 8.06696 70.8474 7.62106 70.815L8.75503 71.5464ZM43.8277 44.1455L43.8619 44.3289C43.8621 44.3289 43.8622 44.3289 43.8623 44.3289C43.8625 44.3288 43.8626 44.3288 43.8628 44.3288L43.8283 44.1454L43.8277 44.1455ZM43.8277 44.1455L43.7644 43.8057L43.8277 44.1455ZM43.9957 43.7811C44.206 43.7833 44.2693 43.8829 44.3009 44.062L43.9921 44.1165L43.9957 43.7811ZM64.1192 60.7002C64.3427 60.7254 64.46 60.8356 64.5227 61.0368L64.0651 61.1796L64.1192 60.7002ZM32.6288 47.97L32.6272 47.97C32.2562 47.9702 31.8865 47.9826 31.5185 48.0069L31.5536 48.538C30.8355 48.5854 30.1244 48.6799 29.4245 48.8195L29.3204 48.2975C28.5934 48.4426 27.8781 48.635 27.179 48.8727L27.3504 49.3766C26.672 49.6074 26.0093 49.8823 25.3667 50.1996L25.131 49.7224C24.4691 50.0492 23.8277 50.4196 23.2113 50.8318L23.5072 51.2743C22.9141 51.6709 22.3449 52.1074 21.8038 52.5821L21.4528 52.182C21.1756 52.4252 20.9056 52.678 20.6433 52.9404C20.3807 53.203 20.1276 53.4733 19.8841 53.7508L20.2842 54.1018C19.8092 54.6434 19.3722 55.2133 18.975 55.8073L18.5326 55.5114C18.1201 56.1283 17.7492 56.7704 17.4219 57.4331L17.8991 57.6689C17.5814 58.3121 17.3059 58.9754 17.0745 59.6546L16.5707 59.4829C16.3324 60.1825 16.1393 60.8984 15.9934 61.6261L16.5153 61.7307C16.3748 62.4312 16.2794 63.143 16.2309 63.8619L15.6998 63.826C15.6749 64.1943 15.6619 64.5644 15.6611 64.9357V64.9358C15.6605 65.2139 15.6667 65.4917 15.6797 65.7689L16.2114 65.7439C16.2366 66.2823 16.2883 66.8184 16.3659 67.3504L15.8392 67.4273C15.9195 67.9771 16.0267 68.5227 16.1604 69.0621L16.677 68.934C16.8064 69.4558 16.9615 69.9716 17.1418 70.4795L16.6402 70.6576C16.733 70.9191 16.8324 71.1786 16.9382 71.4357C17.0439 71.6928 17.1558 71.947 17.2738 72.198L17.7555 71.9717C17.9846 72.4592 18.2373 72.9346 18.5123 73.3962L18.0551 73.6687C18.3395 74.1459 18.6471 74.6087 18.9768 75.0557L19.4051 74.7397C19.7242 75.1722 20.0646 75.5892 20.4254 75.9892L20.0301 76.3456C20.2159 76.5517 20.4069 76.7533 20.603 76.9503C20.799 77.1472 20.9996 77.3391 21.2045 77.5257L21.5629 77.1322C21.9609 77.4946 22.376 77.8369 22.8066 78.1577L22.4886 78.5845C22.9337 78.9162 23.3949 79.2258 23.8704 79.5122L24.145 79.0562C24.6051 79.3333 25.079 79.5879 25.5651 79.819L25.3366 80.2997C25.587 80.4187 25.8406 80.5317 26.097 80.6384C26.3534 80.7452 26.6121 80.8454 26.8728 80.9392L27.053 80.4384C27.5593 80.6205 28.0736 80.7774 28.5941 80.9086L28.464 81.4247C29.0021 81.5603 29.5465 81.6693 30.0952 81.7514L30.174 81.225C30.7048 81.3044 31.2399 81.3578 31.7773 81.3847L31.7506 81.9163C32.0274 81.9301 32.3047 81.9372 32.5824 81.9374H32.5829C32.9567 81.9374 33.3279 81.9254 33.696 81.9016L33.6617 81.3705C34.3878 81.3236 35.1013 81.2298 35.7992 81.092L35.9023 81.6142C36.6371 81.4692 37.3552 81.277 38.0531 81.041L37.8826 80.5368C38.5679 80.305 39.2332 80.0296 39.875 79.7139L40.11 80.1915C40.7787 79.8626 41.4227 79.4914 42.0385 79.0814L41.7435 78.6383C42.3434 78.2389 42.9156 77.8014 43.4567 77.3294L43.8066 77.7305C44.3662 77.2424 44.8935 76.7184 45.3849 76.1623L44.986 75.8099C45.4618 75.2714 45.9027 74.7018 46.3052 74.1046L46.7466 74.4021C47.1604 73.7881 47.535 73.1457 47.8667 72.4787L47.3901 72.2417C47.7087 71.6008 47.9864 70.9365 48.2196 70.252L48.7234 70.4237C48.9613 69.7257 49.1544 69.0074 49.2995 68.2723L48.7773 68.1693C48.915 67.4714 49.0079 66.7578 49.0528 66.0316L49.5841 66.0644C49.6069 65.6961 49.6177 65.3246 49.6162 64.9505V64.9502C49.6145 64.5786 49.6007 64.2084 49.575 63.84L49.0441 63.877C48.994 63.1578 48.8971 62.4458 48.7553 61.7451L49.277 61.6396C49.1297 60.9118 48.9355 60.1959 48.696 59.4963L48.1924 59.6687C47.96 58.9894 47.6835 58.326 47.365 57.6828L47.8419 57.4466C47.5137 56.7838 47.1421 56.1418 46.729 55.5249L46.2867 55.8211C45.8889 55.2271 45.4513 54.6571 44.9758 54.1153L45.3758 53.7642C45.1321 53.4866 44.8788 53.2162 44.616 52.9536C44.3535 52.6912 44.0833 52.4382 43.806 52.1949L43.455 52.595C42.9136 52.1201 42.3442 51.6832 41.7508 51.2862L42.0468 50.8438C41.4303 50.4313 40.7888 50.0603 40.1267 49.7329L39.8907 50.21C39.2479 49.892 38.5851 49.6164 37.9066 49.3848L38.0785 48.8811C37.3793 48.6425 36.6639 48.4492 35.9367 48.3031L35.8318 48.8249C35.1318 48.6842 34.4204 48.5887 33.702 48.54L33.738 48.0089C33.3699 47.984 33 47.9709 32.6288 47.97Z" stroke="#D9D9D9" stroke-width="1.06452" stroke-dasharray="2.13 2.13"/>
<g clip-path="url(#clip0_812_3253)">
<path d="M72.6768 8.35754C73.6251 8.35754 74.5734 8.35754 75.5218 8.35754C76.7669 8.36872 77.4229 9.00581 77.472 10.2509C77.4943 10.8075 77.4943 11.3686 77.472 11.923C77.4251 12.9401 77.0436 13.4408 76.0506 13.7113C75.9163 13.7255 75.7925 13.791 75.7053 13.8943C75.618 13.9976 75.5738 14.1306 75.582 14.2657C75.4526 15.8931 75.4414 15.8931 77.0168 16.2776C79.2131 16.8108 81.287 17.7609 83.1263 19.0763C83.557 19.3848 83.8091 19.4429 84.2309 19.0294C85.5697 17.7172 87.3548 17.6993 88.5397 18.9153C89.7246 20.1314 89.6822 21.8951 88.3165 23.2207C87.8703 23.6678 87.8703 23.9405 88.1916 24.4614C94.6492 34.9812 89.1065 48.6529 77.1351 51.7176C76.4657 51.8875 76.2425 52.0641 76.3519 52.8018C76.6482 55.1829 76.6625 57.5908 76.3942 59.9752C76.1711 62.0899 74.7252 63.6256 72.6009 63.9051C71.0545 64.1107 69.4993 64.2448 67.944 64.3656C66.9109 64.4483 66.1165 64.8573 65.6948 65.8253C65.273 66.7932 65.5051 67.6695 66.1767 68.4586C67.134 69.5763 68.089 70.7074 69.0329 71.8452C70.5949 73.7274 70.5949 75.9047 69.0329 77.7847C67.6143 79.5069 66.0413 81.0954 64.3336 82.5304C62.3945 84.1623 60.2435 84.1846 58.2642 82.5684C57.1426 81.6519 56.0269 80.7272 54.9172 79.7943C54.1518 79.1505 53.3106 78.9001 52.36 79.2958C51.4094 79.6915 50.9498 80.4135 50.8672 81.4284C50.7407 82.9559 50.6046 84.4819 50.4589 86.0065C50.2357 88.3 48.6537 89.8871 46.3553 90.1241C43.9961 90.3644 41.6187 90.3644 39.2595 90.1241C38.279 90.0416 37.3565 89.6243 36.6465 88.9418C35.9364 88.2594 35.4819 87.3534 35.3591 86.3753C35.1515 84.8105 35.0199 83.2189 34.8882 81.6363C34.8012 80.6058 34.3929 79.81 33.4088 79.4009C32.4248 78.9918 31.5679 79.2176 30.7803 79.8994C29.727 80.8136 28.6537 81.7033 27.5871 82.5975C25.5097 84.3411 23.3921 84.3389 21.3236 82.6221C19.65 81.233 18.1048 79.6955 16.7069 78.0283C15.1003 76.1104 15.0691 73.9532 16.6444 72.024C17.5615 70.9063 18.4942 69.7886 19.4247 68.6821C20.1075 67.8707 20.3731 66.9854 19.9156 65.9773C19.4694 65.0049 18.6549 64.6249 17.6374 64.5489C16.1647 64.4393 14.692 64.3253 13.2215 64.1912C12.1685 64.1163 11.1772 63.6654 10.4279 62.9205C9.67855 62.1756 9.22088 61.186 9.13805 60.1317C8.89148 57.7455 8.89148 55.3401 9.13805 52.9538C9.36119 50.7877 11.0593 49.1849 13.3174 48.9949C14.7344 48.8742 16.1491 48.7446 17.5571 48.6216C18.5991 48.5322 19.4515 48.141 19.8599 47.1082C20.2682 46.0755 19.9803 45.2149 19.2842 44.4124C18.3336 43.317 17.3986 42.209 16.4793 41.0883C14.9508 39.2195 14.9597 37.078 16.4793 35.2181C17.9456 33.4236 19.583 31.7765 21.3683 30.3003C23.0887 28.8741 25.2933 28.8271 27.0471 30.222C28.2476 31.1743 29.4191 32.1668 30.5906 33.1549C31.3805 33.8255 32.2485 34.049 33.2214 33.6422C34.2411 33.213 34.6294 32.3702 34.7053 31.3196C34.8101 29.8465 34.9284 28.3733 35.0645 26.9047C35.2743 24.6693 36.93 23.0754 39.1524 22.8653C41.4863 22.6376 43.8368 22.6406 46.1701 22.8742C48.5019 23.1112 50.0706 24.7274 50.2669 27.0857C50.3874 28.5298 50.4901 29.9739 50.6552 31.4135C50.8471 33.1482 52.2551 34.1563 53.7345 33.6824C53.9392 33.6428 54.1227 33.5306 54.2515 33.3664C54.3802 33.2021 54.4454 32.9968 54.4352 32.7883C54.5987 29.7415 55.5658 26.7926 57.2378 24.2423C57.5078 23.8243 57.3806 23.6209 57.0794 23.3482C56.41 22.7535 55.9637 22.0471 55.9347 21.1128C55.9057 19.8408 56.4524 18.9086 57.5747 18.3341C58.6547 17.782 59.9757 17.9094 60.8192 18.8125C61.4261 19.4608 61.8077 19.3445 62.4459 18.893C64.4128 17.5123 66.6519 16.5695 69.0128 16.1278C69.564 16.0205 69.7782 15.8305 69.6979 15.2761C69.6666 14.9707 69.6666 14.6628 69.6979 14.3574C69.7246 13.9751 69.6443 13.7806 69.1936 13.6867C68.3233 13.5079 67.8748 12.9066 67.8547 12.0214C67.8324 11.382 67.8324 10.7382 67.8547 10.0989C67.8904 9.0617 68.5599 8.3799 69.5974 8.35084C70.635 8.32178 71.6459 8.35978 72.6768 8.35754ZM74.8925 56.5305C74.9022 55.3036 74.8404 54.0773 74.7073 52.8577C74.6582 52.3816 74.5043 52.1871 73.971 52.2497C72.2198 52.4162 70.4531 52.2908 68.7428 51.8786C64.9755 51.0602 61.5639 49.0669 58.9981 46.1848C56.4323 43.3027 54.8442 39.6801 54.462 35.8374C54.4218 35.4439 54.4129 35.2539 53.8974 35.35C51.4429 35.8105 49.4346 34.4156 49.0598 31.9545C48.8255 30.4143 48.7362 28.8517 48.5979 27.2981C48.4506 25.6529 47.5536 24.7118 45.9068 24.5396C43.7699 24.3228 41.6164 24.3273 39.4804 24.553C37.7489 24.7296 36.8474 25.6707 36.718 27.4144C36.6131 28.8316 36.4948 30.2466 36.3632 31.6616C36.2048 33.3181 35.4171 34.5833 33.8573 35.2271C32.3422 35.853 30.9074 35.5982 29.6333 34.5565C28.4685 33.6019 27.3216 32.6273 26.1524 31.6795C24.8872 30.6557 23.6019 30.6624 22.359 31.6907C20.7024 33.0571 19.1851 34.5846 17.8293 36.2509C16.7738 37.5474 16.7649 38.8149 17.8293 40.1047C18.7218 41.18 19.6144 42.2507 20.5248 43.2991C21.6896 44.6404 22.0868 46.1291 21.4174 47.7878C20.7167 49.4934 19.3087 50.211 17.5281 50.3384C16.1669 50.4345 14.808 50.5619 13.4491 50.6983C11.9741 50.8436 10.9722 51.7802 10.8205 53.1572C10.5706 55.4312 10.5706 57.7258 10.8205 59.9998C10.8672 60.6622 11.1533 61.2847 11.6253 61.7509C12.0972 62.2171 12.7226 62.495 13.3844 62.5325C14.8259 62.6689 16.2718 62.7851 17.7155 62.8902C19.4403 63.0154 20.7747 63.7553 21.4754 65.3737C22.176 66.9922 21.8168 68.472 20.6989 69.7998C19.8137 70.8549 18.9398 71.9041 18.077 72.9473C16.8743 74.4092 16.881 75.6298 18.077 77.0604C19.3667 78.6003 20.7948 80.0182 22.3434 81.2965C23.8585 82.5483 25.0657 82.5438 26.583 81.2652C27.6243 80.3874 28.6656 79.5067 29.707 78.623C31.0146 77.5053 32.4806 77.2124 34.0649 77.8763C35.6491 78.5402 36.4123 79.8345 36.5551 81.5334C36.6845 83.0982 36.8206 84.6429 37.0281 86.1876C37.2022 87.4662 38.1661 88.3268 39.4492 88.4632C41.6959 88.7001 43.9613 88.7001 46.2081 88.4632C47.6875 88.309 48.6313 87.3455 48.7786 85.8567C48.9304 84.3031 49.0508 82.7473 49.2048 81.1959C49.3677 79.5529 50.2134 78.3838 51.7419 77.7623C53.2704 77.1409 54.6896 77.4628 55.9525 78.4978C57.1173 79.4523 58.2598 80.4314 59.4335 81.3725C60.663 82.3605 61.9371 82.3382 63.1577 81.33C64.8133 79.9635 66.3312 78.4376 67.6896 76.7743C68.7718 75.4464 68.7696 74.1812 67.6628 72.8534C66.7368 71.7357 65.7907 70.6403 64.8647 69.5271C63.7713 68.2172 63.4544 66.753 64.1462 65.1681C64.8156 63.6212 66.0741 62.8567 67.7409 62.7091C69.3029 62.575 70.8515 62.4453 72.3956 62.2375C73.7523 62.0541 74.5422 61.1466 74.7185 59.7785C74.8398 58.7002 74.8979 57.6156 74.8925 56.5305ZM89.2515 34.0379C89.2368 29.6368 87.4851 25.4202 84.3787 22.3082C81.2722 19.1961 77.0632 17.4413 72.6701 17.4266C68.2769 17.43 64.0634 19.1741 60.949 22.2782C57.8346 25.3822 56.0722 29.5944 56.0462 33.9954C55.9971 43.1315 63.5258 50.6715 72.6701 50.6514C81.8143 50.6312 89.2515 43.1672 89.2515 34.0379ZM72.6031 12.0884C73.2123 12.0884 73.8237 12.1018 74.4329 12.0884C75.9948 12.0482 75.7583 12.4349 75.8096 10.66C75.823 10.1257 75.6311 10.014 75.1402 10.0252C73.7255 10.0565 72.3108 10.0363 70.9006 10.0363C69.4903 10.0363 69.4903 10.0363 69.506 11.4961C69.506 11.9677 69.6421 12.1197 70.1129 12.1018C70.9363 12.0638 71.7708 12.0884 72.6031 12.0884ZM72.5228 15.7478C73.9464 15.7478 73.9464 15.7478 73.904 14.4065C73.904 14.3216 73.904 14.2389 73.904 14.1562C73.904 13.6532 73.5158 13.7315 73.2502 13.7806C72.6277 13.8946 71.7998 13.3671 71.4138 14.1137C71.1907 14.5228 71.2464 15.2091 71.445 15.6494C71.6057 16.0116 72.2037 15.6651 72.5228 15.7478ZM87.7074 20.925C87.6248 20.3169 87.308 19.8654 86.643 19.7425C85.9781 19.6195 85.5429 20.0219 85.1524 20.4801C85.0632 20.5852 85.1167 20.6791 85.2015 20.7685C85.6627 21.2513 86.1231 21.7357 86.5828 22.2215C86.6809 22.3266 86.7769 22.4182 86.9242 22.2841C87.3213 21.922 87.6918 21.5464 87.7074 20.925ZM57.6015 21.1977C57.568 21.58 57.9518 22.0114 58.3959 22.2528C58.8399 22.4942 58.9247 21.8594 59.2014 21.6537C59.4742 21.4173 59.7307 21.1627 59.969 20.8914C60.1096 20.7529 60.2747 20.6254 60.0828 20.4086C59.6789 19.9615 59.2215 19.586 58.5677 19.7603C57.9742 19.919 57.635 20.3304 57.6015 21.1977Z" fill="#BBBBBB"/>
<path d="M42.7701 40.0449C47.1233 40.0555 51.2959 41.7894 54.3784 44.8687C57.461 47.948 59.2036 52.1231 59.2266 56.4841C59.2623 65.5442 51.8385 72.9456 42.7255 72.9366C40.5705 72.9349 38.4369 72.5077 36.4468 71.6796C34.4566 70.8515 32.6489 69.6386 31.1268 68.1102C29.6048 66.5819 28.3983 64.7681 27.5762 62.7725C26.7542 60.7768 26.3327 58.6385 26.336 56.4796C26.346 52.1189 28.0816 47.9401 31.1623 44.8594C34.2429 41.7786 38.4172 40.0473 42.7701 40.0449ZM57.524 56.4952C57.527 54.5533 57.1463 52.63 56.4038 50.8362C55.6614 49.0424 54.5719 47.4135 53.1981 46.0435C51.8243 44.6735 50.1934 43.5894 48.3995 42.8537C46.6055 42.1181 44.684 41.7454 42.7456 41.7572C38.8459 41.7572 35.1054 43.3067 32.3445 46.0658C29.5837 48.825 28.0279 52.5684 28.0184 56.4751C28.0143 58.4167 28.3928 60.3401 29.1322 62.1349C29.8716 63.9296 30.9573 65.5606 32.3271 66.9341C33.697 68.3077 35.324 69.3968 37.1149 70.1392C38.9058 70.8815 40.8253 71.2624 42.7634 71.2601C44.7017 71.2666 46.6222 70.8893 48.4146 70.1498C50.2069 69.4104 51.8356 68.3234 53.2073 66.9514C54.5789 65.5793 55.6664 63.9493 56.4072 62.1549C57.148 60.3605 57.5276 58.4371 57.524 56.4952Z" fill="#BBBBBB"/>
<path d="M72.5866 49.429C70.5646 49.4226 68.5638 49.0165 66.6987 48.2341C64.8337 47.4517 63.141 46.3083 61.7178 44.8694C60.2946 43.4306 59.1688 41.7245 58.4048 39.8491C57.6409 37.9736 57.2539 35.9655 57.2659 33.9399C57.2907 29.8639 58.9299 25.9645 61.8232 23.0987C64.7165 20.2328 68.6272 18.6351 72.6959 18.6565C81.2064 18.6945 88.0925 25.6466 88.0434 34.1366C87.9999 38.2122 86.3513 42.1056 83.4566 44.9696C80.5618 47.8336 76.6551 49.4363 72.5866 49.429ZM73.9812 47.6943C76.6711 47.4169 79.2221 46.3604 81.3225 44.6542C81.6126 44.4195 81.7085 44.2362 81.3738 43.9433C80.9387 43.5566 80.8293 43.0715 81.2801 42.6356C81.6996 42.2355 82.1726 42.3428 82.5274 42.7496C82.8577 43.1185 83.0429 42.9888 83.2972 42.6692C84.9576 40.6228 85.99 38.1381 86.2695 35.5159C86.3185 35.0688 86.2471 34.8452 85.7317 34.8609C85.2162 34.8765 84.8079 34.5725 84.8235 33.9958C84.8195 33.8817 84.8407 33.7682 84.8856 33.6633C84.9306 33.5584 84.9981 33.4648 85.0834 33.3892C85.1687 33.3135 85.2697 33.2577 85.3791 33.2258C85.4885 33.1939 85.6035 33.1866 85.7161 33.2045C86.3096 33.2335 86.3185 32.934 86.2672 32.4802C85.9748 29.8921 84.9523 27.4411 83.3196 25.4141C83.0273 25.0408 82.8309 24.9894 82.4895 25.3582C82.1168 25.7606 81.6438 25.8165 81.2466 25.394C81.1613 25.3188 81.094 25.2252 81.0498 25.1203C81.0056 25.0154 80.9857 24.9018 80.9915 24.7881C80.9973 24.6744 81.0287 24.5635 81.0833 24.4636C81.1379 24.3637 81.2143 24.2775 81.3069 24.2114C81.8602 23.7644 81.4988 23.5408 81.164 23.2837C79.2254 21.7622 76.92 20.7805 74.481 20.4381C73.8942 20.3487 73.4033 20.2637 73.4434 21.1579C73.4613 21.605 73.0596 21.909 72.5754 21.8687C72.1492 21.8307 71.7922 21.558 71.8391 21.1109C71.9261 20.295 71.462 20.3464 70.9242 20.4224C68.4013 20.757 66.0173 21.7749 64.0292 23.3665C63.6611 23.6615 63.5718 23.8426 63.9556 24.1868C64.3394 24.5311 64.442 25.0229 64.0225 25.4297C63.603 25.8366 63.13 25.7628 62.7774 25.347C62.4249 24.9312 62.2307 25.0944 61.9563 25.4387C60.3107 27.4936 59.2809 29.9741 58.9863 32.592C58.9439 32.9541 58.9283 33.2469 59.4549 33.2179C60.0239 33.1843 60.4657 33.4235 60.459 34.0651C60.459 34.6552 60.0306 34.8944 59.5017 34.8788C59.0555 34.8788 58.9283 35.0263 58.9796 35.4577C59.2766 38.1312 60.3382 40.6617 62.0366 42.7452C62.224 42.9687 62.3869 43.1699 62.677 42.8346C63.0742 42.3718 63.5696 42.1997 64.0448 42.6803C64.5201 43.1609 64.3015 43.6125 63.8775 43.988C63.5785 44.2518 63.6544 44.4195 63.9244 44.6385C66.0043 46.3435 68.5369 47.4011 71.2098 47.6809C71.5981 47.7234 71.8636 47.6921 71.819 47.1869C71.7721 46.6281 72.0421 46.2369 72.6134 46.2167C73.1846 46.1966 73.4903 46.5856 73.4769 47.131C73.468 47.625 73.642 47.786 73.9812 47.6876V47.6943Z" fill="#BBBBBB"/>
<path d="M42.7488 44.6057C44.3101 44.5954 45.8581 44.8946 47.3036 45.486C48.7491 46.0775 50.0635 46.9495 51.1713 48.052C52.279 49.1544 53.1581 50.4654 53.7579 51.9096C54.3578 53.3538 54.6666 54.9026 54.6666 56.4668C54.6752 58.0381 54.3726 59.5954 53.7764 61.0488C53.1802 62.5022 52.3022 63.8226 51.1932 64.9338C50.0843 66.045 48.7663 66.9248 47.3157 67.5224C45.8651 68.1199 44.3105 68.4233 42.7421 68.415C41.1806 68.4153 39.6345 68.1073 38.1919 67.5087C36.7493 66.9101 35.4386 66.0326 34.3347 64.9263C33.2309 63.82 32.3554 62.5066 31.7584 61.0613C31.1614 59.6159 30.8546 58.0668 30.8555 56.5025C30.8543 54.9384 31.1612 53.3894 31.7587 51.9443C32.3562 50.4992 33.2325 49.1865 34.3374 48.0813C35.4423 46.9761 36.754 46.1002 38.1974 45.5038C39.6407 44.9074 41.1874 44.6022 42.7488 44.6057ZM42.7622 46.2845C41.4162 46.2807 40.0828 46.5437 38.8388 47.0584C37.5948 47.5731 36.4647 48.3293 35.5137 49.2834C34.5627 50.2376 33.8096 51.3708 33.2977 52.6179C32.7858 53.8649 32.5254 55.2011 32.5312 56.5495C32.5501 59.2576 33.6369 61.8483 35.5546 63.757C37.4724 65.6656 40.0656 66.7373 42.7688 66.7384C44.1152 66.7402 45.4486 66.4752 46.6922 65.9585C47.9359 65.4418 49.0652 64.6837 50.0151 63.7279C50.965 62.7721 51.7168 61.6375 52.2271 60.3894C52.7375 59.1413 52.9962 57.8043 52.9886 56.4556C52.9854 55.1146 52.7181 53.7874 52.2022 52.55C51.6862 51.3127 50.9316 50.1894 49.9817 49.2446C49.0318 48.2998 47.9051 47.5521 46.6663 47.0441C45.4274 46.5362 44.1007 46.278 42.7622 46.2845Z" fill="#BBBBBB"/>
<path d="M72.375 36.6402C71.5762 36.6112 70.7907 36.1194 70.3065 35.1671C70.074 34.7467 69.9736 34.2658 70.0181 33.7872C70.0627 33.3087 70.2503 32.8547 70.5564 32.4846C71.2258 31.6039 72.1407 31.2216 73.2073 31.4988C73.7361 31.6352 74.0173 31.4988 74.3587 31.1501C75.8225 29.6568 77.3108 28.1904 78.7835 26.7061C79.2298 26.259 79.6939 25.9595 80.2072 26.5094C80.6691 27.0034 80.4035 27.4728 79.984 27.8886C78.46 29.3998 76.9493 30.9243 75.4208 32.431C75.2807 32.5398 75.1789 32.6907 75.1303 32.8616C75.0817 33.0325 75.0889 33.2145 75.1508 33.381C75.5592 35.1045 74.352 36.6358 72.375 36.6402ZM73.5599 34.0159C73.5041 33.4727 73.2162 33.1217 72.6673 33.1217C72.5412 33.1081 72.4137 33.1229 72.294 33.1649C72.1743 33.2069 72.0654 33.2752 71.9754 33.3647C71.8854 33.4543 71.8165 33.5628 71.7737 33.6824C71.7309 33.802 71.7152 33.9297 71.7279 34.0561C71.7205 34.1831 71.7414 34.3102 71.7893 34.4281C71.8372 34.546 71.9108 34.6516 72.0047 34.7373C72.0986 34.823 72.2105 34.8866 72.332 34.9235C72.4536 34.9603 72.5819 34.9695 72.7075 34.9503C73.2586 34.919 73.5264 34.5658 73.5599 34.0159Z" fill="#BBBBBB"/>
<path d="M44.6047 59.2307C44.5891 58.113 43.8818 57.458 42.6344 57.3485C40.0103 57.1249 38.4729 54.5587 39.593 52.2696C39.9462 51.4996 40.5801 50.8941 41.3648 50.5774C41.7575 50.421 41.9471 50.2533 41.9315 49.8062C41.9137 49.2474 42.2484 48.8852 42.8018 48.9009C42.9153 48.897 43.0283 48.9185 43.1325 48.9637C43.2368 49.0089 43.3297 49.0767 43.4047 49.1622C43.4796 49.2478 43.5346 49.3489 43.5658 49.4583C43.597 49.5678 43.6035 49.6828 43.585 49.795C43.5537 50.2421 43.768 50.4187 44.1562 50.564C44.7584 50.7963 45.2749 51.2083 45.6356 51.7443C45.9592 52.2048 45.9614 52.6385 45.5062 52.9894C45.051 53.3404 44.6561 53.1817 44.337 52.7882C44.0608 52.3989 43.6535 52.1226 43.19 52.0103C42.7096 51.901 42.2056 51.9863 41.7877 52.2475C41.3697 52.5088 41.0718 52.9249 40.9586 53.4052C40.9071 53.6441 40.9033 53.8909 40.9475 54.1313C40.9917 54.3716 41.0831 54.6008 41.2163 54.8056C41.3495 55.0104 41.522 55.1867 41.7236 55.3242C41.9253 55.4618 42.1522 55.5579 42.3912 55.6071C42.7661 55.6943 43.1699 55.6674 43.5471 55.7502C44.2289 55.9081 44.8495 56.2632 45.3315 56.7716C45.8135 57.2799 46.1358 57.9189 46.2582 58.6092C46.4813 60.174 45.7851 61.6226 44.4106 62.3111C43.9108 62.5614 43.518 62.7425 43.5604 63.4288C43.5895 63.8602 43.2056 64.0994 42.7527 64.0994C42.2462 64.0994 41.9338 63.7775 41.9516 63.317C41.9762 62.7514 41.6995 62.5547 41.242 62.3871C40.7523 62.1777 40.3271 61.8412 40.0103 61.4124C39.6533 60.9765 39.5082 60.4937 39.9791 60.0712C40.4499 59.6487 40.8716 59.8655 41.2755 60.2947C42.0989 61.1889 43.1365 61.3051 43.9353 60.639C44.1518 60.4755 44.3256 60.2621 44.4422 60.017C44.5587 59.7718 44.6145 59.5021 44.6047 59.2307Z" fill="#BBBBBB"/>
<path d="M74.7461 56.1524C74.7569 57.2395 74.704 58.3263 74.5876 59.4072C74.4114 60.7708 73.6215 61.6783 72.2648 61.8661C70.7207 62.074 69.1631 62.2037 67.6101 62.3378C65.9433 62.4831 64.6914 63.2476 64.0153 64.7967C63.3236 66.3816 63.6405 67.8458 64.7338 69.1558C65.6599 70.2735 66.606 71.3688 67.532 72.482C68.6477 73.8099 68.6477 75.0751 67.5588 76.4029C66.2001 78.0639 64.6822 79.5876 63.0268 80.952C61.8063 81.9602 60.5321 81.9825 59.3026 80.9945C58.1289 80.0534 56.9865 79.0742 55.8217 78.1197C54.5587 77.0847 53.144 76.7561 51.6111 77.3843C50.0781 78.0124 49.2369 79.1726 49.074 80.8179C48.92 82.3692 48.7995 83.9251 48.6478 85.4787C48.5005 86.9764 47.5566 87.9376 46.0772 88.0852C43.8305 88.3221 41.5651 88.3221 39.3184 88.0852C38.0353 87.9488 37.0714 87.0882 36.8973 85.8095C36.6898 84.2649 36.5537 82.7113 36.4242 81.1554C36.2814 79.4565 35.5317 78.1689 33.934 77.4983C32.3364 76.8277 30.8837 77.1362 29.5761 78.2449C28.5348 79.1301 27.4935 80.0109 26.4522 80.8872C24.9304 82.1658 23.7232 82.1703 22.2126 80.9185C20.664 79.6402 19.2359 78.2222 17.9461 76.6824C16.7479 75.2517 16.7412 74.0312 17.9461 72.5692C18.8134 71.5141 19.6866 70.4642 20.5658 69.4195C21.6815 68.0917 22.0452 66.6119 21.3423 64.9934C20.6394 63.375 19.3073 62.6351 17.5824 62.5099C16.1387 62.4049 14.6928 62.2864 13.2513 62.1523C12.5896 62.1147 11.9642 61.8369 11.4922 61.3707C11.0203 60.9045 10.7341 60.2819 10.6874 59.6195C10.4375 57.3456 10.4375 55.051 10.6874 52.777C10.8392 51.3933 11.8411 50.4566 13.316 50.318C14.6749 50.1839 16.0338 50.0543 17.395 49.9581C19.1801 49.8307 20.5836 49.1132 21.2843 47.4075C21.9649 45.7489 21.5654 44.2534 20.3917 42.9188C19.4769 41.8704 18.5821 40.7997 17.6962 39.7245C16.6363 38.4346 16.6452 37.1672 17.6962 35.8706C19.052 34.2043 20.5693 32.6768 22.2259 31.3104C23.4688 30.2821 24.7541 30.2754 26.0193 31.2992C27.1885 32.247 28.3355 33.2217 29.5003 34.1762C30.7744 35.2201 32.2092 35.475 33.7243 34.8468C35.2862 34.203 36.0717 32.9378 36.2301 31.2813C36.3662 29.8663 36.48 28.4513 36.5849 27.0341C36.7143 25.2793 37.6158 24.3516 39.3474 24.1728C41.4833 23.947 43.6369 23.9425 45.7738 24.1594C47.4205 24.3315 48.3175 25.2771 48.4648 26.9178C48.6032 28.4826 48.6879 30.034 48.9267 31.5742C49.3016 34.0331 51.3165 35.4303 53.7644 34.9698C54.2798 34.8736 54.2887 35.0636 54.3289 35.4571C54.7112 39.2999 56.2993 42.9224 58.8651 45.8045C61.4309 48.6866 64.8424 50.68 68.6098 51.4983C70.32 51.9106 72.0867 52.0359 73.8379 51.8694C74.3712 51.809 74.5252 52.0013 74.5743 52.4774C74.7029 53.698 74.7603 54.9251 74.7461 56.1524ZM42.6275 39.6663C38.2746 39.6687 34.1003 41.4 31.0196 44.4808C27.939 47.5615 26.2034 51.7403 26.1933 56.101C26.1887 58.2608 26.609 60.4004 27.4304 62.3973C28.2518 64.3943 29.4581 66.2094 30.9803 67.7389C32.5025 69.2684 34.3107 70.4823 36.3016 71.3111C38.2925 72.14 40.4269 72.5675 42.5829 72.5692C51.6959 72.5692 59.1197 65.1768 59.084 56.1167C59.064 51.7538 57.3226 47.5758 54.2397 44.4941C51.1568 41.4123 46.9826 39.6769 42.6275 39.6663Z" fill="#EFEFEF"/>
</g>
<g clip-path="url(#clip1_812_3253)">
<path d="M59.5 24.5L57.5 6.5L89 -5L95 4.5L97.5 19.5L86.5 35.5L65 34L59.5 24.5Z" fill="#F9F7FC"/>
<path d="M82.2549 0.907348C83.2032 0.907348 84.1516 0.907348 85.0999 0.907348C86.345 0.918525 87.001 1.55561 87.0501 2.80073C87.0724 3.35735 87.0724 3.91843 87.0501 4.47281C87.0033 5.48992 86.6217 5.99065 85.6287 6.26114C85.4944 6.27528 85.3707 6.34083 85.2834 6.44411C85.1961 6.54739 85.1519 6.68044 85.1601 6.81552C85.0307 8.44289 85.0196 8.44289 86.5949 8.82738C88.7912 9.36063 90.8652 10.3107 92.7045 11.6261C93.1351 11.9346 93.3873 11.9927 93.809 11.5792C95.1478 10.267 96.9329 10.2491 98.1178 11.4652C99.3027 12.6812 99.2603 14.4449 97.8947 15.7705C97.4484 16.2176 97.4484 16.4903 97.7697 17.0112C104.227 27.531 98.6846 41.2027 86.7132 44.2675C86.0438 44.4373 85.8206 44.6139 85.93 45.3516C86.2264 47.7327 86.2406 50.1406 85.9724 52.525C85.7492 54.6397 84.3033 56.1754 82.179 56.4549C80.6327 56.6605 79.0774 56.7946 77.5221 56.9154C76.489 56.9981 75.6946 57.4072 75.2729 58.3751C74.8512 59.343 75.0832 60.2193 75.7549 61.0084C76.7121 62.1261 77.6672 63.2572 78.611 64.395C80.173 66.2772 80.173 68.4545 78.611 70.3345C77.1924 72.0567 75.6194 73.6452 73.9117 75.0802C71.9727 76.7121 69.8216 76.7344 67.8424 75.1182C66.7207 74.2017 65.605 73.277 64.4953 72.3441C63.7299 71.7003 62.8887 71.4499 61.9381 71.8456C60.9875 72.2413 60.5279 72.9633 60.4453 73.9782C60.3189 75.5057 60.1828 77.0317 60.037 78.5563C59.8138 80.8498 58.2318 82.437 55.9335 82.6739C53.5743 82.9142 51.1968 82.9142 48.8377 82.6739C47.8571 82.5914 46.9346 82.1741 46.2246 81.4916C45.5146 80.8092 45.0601 79.9032 44.9372 78.9251C44.7297 77.3604 44.598 75.7687 44.4664 74.1861C44.3793 73.1556 43.971 72.3598 42.987 71.9507C42.0029 71.5416 41.1461 71.7674 40.3584 72.4492C39.3052 73.3634 38.2319 74.2531 37.1653 75.1473C35.0879 76.8909 32.9703 76.8887 30.9018 75.1719C29.2281 73.7828 27.683 72.2453 26.285 70.5781C24.6784 68.6602 24.6472 66.503 26.2226 64.5738C27.1397 63.4561 28.0724 62.3384 29.0029 61.2319C29.6857 60.4205 29.9512 59.5353 29.4938 58.5271C29.0475 57.5547 28.233 57.1747 27.2155 57.0987C25.7428 56.9891 24.2701 56.8751 22.7996 56.741C21.7466 56.6661 20.7553 56.2152 20.006 55.4703C19.2567 54.7254 18.799 53.7358 18.7162 52.6815C18.4696 50.2953 18.4696 47.8899 18.7162 45.5036C18.9393 43.3375 20.6374 41.7347 22.8956 41.5447C24.3125 41.424 25.7272 41.2944 27.1352 41.1714C28.1772 41.082 29.0296 40.6908 29.438 39.6581C29.8463 38.6253 29.5585 37.7647 28.8623 36.9622C27.9117 35.8668 26.9768 34.7588 26.0574 33.6381C24.5289 31.7693 24.5379 29.6278 26.0574 27.7679C27.5237 25.9734 29.1611 24.3263 30.9464 22.8501C32.6668 21.4239 34.8714 21.3769 36.6253 22.7718C37.8258 23.7241 38.9972 24.7166 40.1687 25.7047C40.9586 26.3753 41.8266 26.5988 42.7995 26.192C43.8193 25.7628 44.2075 24.92 44.2834 23.8694C44.3883 22.3963 44.5065 20.9231 44.6426 19.4545C44.8524 17.2191 46.5081 15.6252 48.7305 15.4151C51.0644 15.1874 53.415 15.1904 55.7483 15.4241C58.0801 15.661 59.6487 17.2772 59.8451 19.6356C59.9656 21.0796 60.0682 22.5237 60.2333 23.9633C60.4252 25.698 61.8332 26.7061 63.3126 26.2322C63.5173 26.1926 63.7009 26.0804 63.8296 25.9162C63.9583 25.7519 64.0235 25.5466 64.0133 25.3381C64.1769 22.2913 65.1439 19.3424 66.8159 16.7921C67.0859 16.3741 66.9587 16.1707 66.6575 15.898C65.9881 15.3033 65.5418 14.597 65.5128 13.6626C65.4838 12.3906 66.0305 11.4584 67.1529 10.884C68.2329 10.3318 69.5538 10.4592 70.3973 11.3623C71.0042 12.0106 71.3858 11.8944 72.024 11.4428C73.9909 10.0621 76.2301 9.11928 78.591 8.67761C79.1421 8.57031 79.3563 8.3803 79.276 7.82592C79.2447 7.52047 79.2447 7.21262 79.276 6.90717C79.3028 6.52491 79.2224 6.33043 78.7717 6.23655C77.9015 6.05771 77.4529 5.45639 77.4329 4.57117C77.4105 3.93185 77.4105 3.28805 77.4329 2.64873C77.4686 1.6115 78.138 0.929702 79.1756 0.900642C80.2132 0.871581 81.224 0.909583 82.2549 0.907348ZM84.4707 49.0803C84.4804 47.8535 84.4185 46.6271 84.2855 45.4075C84.2364 44.9314 84.0824 44.7369 83.5491 44.7995C81.7979 44.966 80.0312 44.8406 78.321 44.4284C74.5536 43.6101 71.1421 41.6167 68.5763 38.7346C66.0104 35.8525 64.4224 32.2299 64.0401 28.3872C63.9999 27.9937 63.991 27.8037 63.4755 27.8998C61.021 28.3603 59.0128 26.9654 58.6379 24.5043C58.4036 22.9641 58.3143 21.4015 58.176 19.8479C58.0287 18.2027 57.1317 17.2616 55.485 17.0894C53.3481 16.8726 51.1945 16.8771 49.0586 17.1028C47.327 17.2794 46.4255 18.2205 46.2961 19.9642C46.1912 21.3814 46.073 22.7964 45.9413 24.2114C45.7829 25.8679 44.9952 27.1331 43.4355 27.7769C41.9204 28.4028 40.4856 28.148 39.2114 27.1063C38.0467 26.1517 36.8997 25.1771 35.7305 24.2293C34.4653 23.2055 33.18 23.2122 31.9371 24.2405C30.2805 25.6069 28.7632 27.1344 27.4074 28.8007C26.352 30.0972 26.343 31.3647 27.4074 32.6545C28.3 33.7298 29.1925 34.8005 30.1029 35.8489C31.2677 37.1902 31.6649 38.6789 30.9955 40.3376C30.2948 42.0432 28.8868 42.7608 27.1062 42.8882C25.745 42.9843 24.3861 43.1118 23.0272 43.2481C21.5523 43.3934 20.5504 44.33 20.3986 45.7071C20.1487 47.981 20.1487 50.2756 20.3986 52.5496C20.4453 53.212 20.7315 53.8345 21.2034 54.3007C21.6754 54.7669 22.3008 55.0448 22.9625 55.0823C24.404 55.2187 25.8499 55.3349 27.2936 55.44C29.0185 55.5652 30.3528 56.3051 31.0535 57.9235C31.7542 59.542 31.3949 61.0218 30.277 62.3496C29.3919 63.4047 28.5179 64.4539 27.6551 65.4971C26.4524 66.959 26.4591 68.1796 27.6551 69.6102C28.9448 71.1501 30.373 72.568 31.9215 73.8463C33.4366 75.0981 34.6438 75.0937 36.1611 73.815C37.2025 72.9372 38.2438 72.0565 39.2851 71.1728C40.5927 70.0551 42.0587 69.7622 43.643 70.4261C45.2273 71.09 45.9904 72.3843 46.1332 74.0833C46.2626 75.648 46.3987 77.1927 46.6063 78.7374C46.7803 80.016 47.7443 80.8766 49.0273 81.013C51.2741 81.2499 53.5394 81.2499 55.7862 81.013C57.2656 80.8588 58.2095 79.8953 58.3567 78.4065C58.5085 76.8529 58.629 75.2971 58.7829 73.7457C58.9458 72.1027 59.7915 70.9336 61.32 70.3121C62.8485 69.6907 64.2677 70.0126 65.5306 71.0476C66.6954 72.0021 67.8379 72.9812 69.0116 73.9223C70.2411 74.9103 71.5152 74.888 72.7358 73.8798C74.3915 72.5133 75.9094 70.9874 77.2677 69.3241C78.35 67.9962 78.3477 66.731 77.241 65.4032C76.3149 64.2855 75.3688 63.1901 74.4428 62.0769C73.3494 60.767 73.0326 59.3028 73.7243 57.7179C74.3937 56.171 75.6522 55.4065 77.3191 55.2589C78.881 55.1248 80.4296 54.9951 81.9737 54.7873C83.3304 54.604 84.1203 53.6964 84.2966 52.3283C84.4179 51.25 84.476 50.1654 84.4707 49.0803ZM98.8296 26.5877C98.8149 22.1866 97.0632 17.97 93.9568 14.858C90.8503 11.746 86.6413 9.99111 82.2482 9.97638C77.855 9.97984 73.6415 11.7239 70.5271 14.828C67.4127 17.9321 65.6503 22.1442 65.6244 26.5452C65.5753 35.6813 73.104 43.2213 82.2482 43.2012C91.3924 43.181 98.8296 35.717 98.8296 26.5877ZM82.1813 4.63823C82.7904 4.63823 83.4018 4.65165 84.011 4.63823C85.573 4.598 85.3364 4.98472 85.3877 3.20981C85.4011 2.67555 85.2092 2.56378 84.7183 2.57496C83.3036 2.60626 81.8889 2.58614 80.4787 2.58614C79.0685 2.58614 79.0685 2.58614 79.0841 4.04585C79.0841 4.51752 79.2202 4.66953 79.691 4.65165C80.5144 4.61365 81.3489 4.63823 82.1813 4.63823ZM82.1009 8.29759C83.5245 8.29759 83.5246 8.29759 83.4822 6.95635C83.4822 6.8714 83.4822 6.78869 83.4822 6.70598C83.4822 6.20302 83.0939 6.28126 82.8284 6.33044C82.2058 6.44444 81.378 5.91688 80.9919 6.66351C80.7688 7.07259 80.8246 7.75886 81.0232 8.19923C81.1838 8.56137 81.7818 8.21488 82.1009 8.29759ZM97.2855 13.4748C97.2029 12.8668 96.8861 12.4152 96.2211 12.2923C95.5562 12.1693 95.1211 12.5717 94.7306 13.0299C94.6413 13.135 94.6949 13.2289 94.7797 13.3183C95.2408 13.8012 95.7012 14.2855 96.1609 14.7713C96.2591 14.8764 96.355 14.968 96.5023 14.8339C96.8995 14.4718 97.2699 14.0962 97.2855 13.4748ZM67.1796 13.7475C67.1462 14.1298 67.53 14.5612 67.974 14.8026C68.4181 15.044 68.5029 14.4092 68.7795 14.2035C69.0523 13.9671 69.3088 13.7125 69.5471 13.4413C69.6877 13.3027 69.8528 13.1752 69.6609 12.9584C69.2571 12.5113 68.7996 12.1358 68.1458 12.3101C67.5523 12.4689 67.2131 12.8802 67.1796 13.7475Z" fill="#0166FF"/>
<path d="M84.4726 49.0802C84.4834 50.1673 84.4305 51.254 84.3142 52.3349C84.1379 53.6985 83.348 54.6061 81.9913 54.7939C80.4472 55.0017 78.8897 55.1314 77.3367 55.2655C75.6698 55.4108 74.418 56.1753 73.7419 57.7245C73.0502 59.3094 73.367 60.7736 74.4604 62.0835C75.3864 63.2012 76.3325 64.2966 77.2586 65.4098C78.3743 66.7376 78.3743 68.0028 77.2853 69.3307C75.9266 70.9917 74.4087 72.5153 72.7534 73.8797C71.5328 74.8879 70.2587 74.9102 69.0292 73.9222C67.8555 72.9811 66.713 72.002 65.5483 71.0475C64.2853 70.0125 62.8706 69.6839 61.3376 70.312C59.8047 70.9402 58.9634 72.1003 58.8005 73.7456C58.6466 75.297 58.5261 76.8528 58.3743 78.4064C58.2271 79.9041 57.2832 80.8654 55.8038 81.0129C53.557 81.2498 51.2917 81.2498 49.0449 81.0129C47.7619 80.8765 46.7979 80.0159 46.6239 78.7373C46.4163 77.1926 46.2802 75.639 46.1508 74.0831C46.008 72.3842 45.2583 71.0966 43.6606 70.426C42.0629 69.7554 40.6103 70.0639 39.3027 71.1727C38.2614 72.0579 37.2201 72.9386 36.1787 73.8149C34.6569 75.0935 33.4498 75.098 31.9391 73.8462C30.3906 72.5679 28.9624 71.15 27.6727 69.6101C26.4744 68.1794 26.4678 66.9589 27.6727 65.497C28.54 64.4419 29.4132 63.392 30.2924 62.3473C31.408 61.0195 31.7718 59.5396 31.0689 57.9212C30.366 56.3027 29.0338 55.5628 27.309 55.4377C25.8653 55.3326 24.4193 55.2141 22.9779 55.08C22.3161 55.0425 21.6907 54.7646 21.2188 54.2984C20.7468 53.8322 20.4607 53.2096 20.414 52.5473C20.1641 50.2733 20.1641 47.9787 20.414 45.7047C20.5657 44.321 21.5676 43.3844 23.0426 43.2458C24.4015 43.1116 25.7604 42.982 27.1215 42.8859C28.9067 42.7584 30.3102 42.0409 31.0109 40.3353C31.6914 38.6766 31.292 37.1811 30.1183 35.8466C29.2034 34.7982 28.3086 33.7274 27.4228 32.6522C26.3629 31.3624 26.3718 30.0949 27.4228 28.7984C28.7785 27.1321 30.2959 25.6045 31.9525 24.2381C33.1954 23.2099 34.4807 23.2031 35.7459 24.227C36.9151 25.1748 38.062 26.1494 39.2268 27.1039C40.5009 28.1479 41.9357 28.4027 43.4508 27.7745C45.0128 27.1307 45.7982 25.8655 45.9567 24.2091C46.0928 22.7941 46.2066 21.3791 46.3115 19.9618C46.4409 18.207 47.3424 17.2793 49.0739 17.1005C51.2099 16.8747 53.3634 16.8702 55.5003 17.0871C57.1471 17.2592 58.0441 18.2048 58.1914 19.8456C58.3297 21.4104 58.4145 22.9617 58.6533 24.5019C59.0281 26.9609 61.0431 28.358 63.4909 27.8975C64.0064 27.8014 64.0153 27.9914 64.0555 28.3848C64.4377 32.2276 66.0258 35.8501 68.5916 38.7322C71.1574 41.6143 74.569 43.6077 78.3363 44.4261C80.0466 44.8383 81.8133 44.9637 83.5645 44.7971C84.0978 44.7368 84.2517 44.929 84.3008 45.4052C84.4295 46.6258 84.4869 47.8529 84.4726 49.0802ZM52.3541 32.5941C48.0012 32.5964 43.8269 34.3278 40.7462 37.4085C37.6655 40.4893 35.9299 44.6681 35.9199 49.0288C35.9152 51.1886 36.3356 53.3281 37.157 55.3251C37.9783 57.322 39.1846 59.1371 40.7068 60.6666C42.229 62.1961 44.0373 63.41 46.0282 64.2389C48.019 65.0677 50.1535 65.4952 52.3094 65.497C61.4224 65.497 68.8462 58.1045 68.8105 49.0444C68.7905 44.6815 67.0492 40.5035 63.9663 37.4218C60.8834 34.3401 56.7092 32.6046 52.3541 32.5941Z" fill="#F9F7FC"/>
<path d="M98.8305 26.5869C98.8305 35.7162 91.3799 43.1803 82.2491 43.2004C73.1182 43.2205 65.5761 35.6805 65.6252 26.5444C65.6512 22.1434 67.4136 17.9313 70.528 14.8272C73.6424 11.7231 77.8559 9.97905 82.2491 9.97559C86.6422 9.99032 90.8512 11.7452 93.9577 14.8572C97.0641 17.9692 98.8158 22.1858 98.8305 26.5869ZM82.171 41.9776C86.2402 41.9861 90.1481 40.3839 93.0438 37.5198C95.9396 34.6557 97.5887 30.7616 97.6322 26.6852C97.688 18.1907 90.7953 11.2431 82.2848 11.2051C78.2153 11.1825 74.3034 12.7797 71.4091 15.6457C68.5148 18.5116 66.8751 22.4117 66.8503 26.4885C66.8382 28.5141 67.2253 30.5222 67.9892 32.3976C68.7531 34.2731 69.879 35.9792 71.3022 37.418C72.7254 38.8569 74.418 40.0003 76.2831 40.7827C78.1482 41.5651 80.149 41.9712 82.171 41.9776Z" fill="#F9F7FC"/>
<path d="M82.1815 4.63778C81.3492 4.63778 80.5146 4.61319 79.6845 4.64896C79.2137 4.66684 79.0798 4.51483 79.0776 4.04316C79.062 2.58121 79.0419 2.58344 80.4722 2.58344C81.9025 2.58344 83.3016 2.60356 84.7119 2.57227C85.205 2.57227 85.3969 2.67286 85.3813 3.20712C85.3299 4.98203 85.5575 4.59531 84.0045 4.63554C83.3953 4.65119 82.7906 4.63778 82.1815 4.63778Z" fill="#F9F7FC"/>
<path d="M82.0994 8.29716C81.7804 8.21445 81.1823 8.56094 81.0195 8.1988C80.8209 7.75172 80.774 7.0811 80.9882 6.66308C81.3742 5.91646 82.2021 6.43955 82.8246 6.33001C83.0902 6.28083 83.4807 6.20259 83.4784 6.70556C83.4784 6.78827 83.4784 6.87098 83.4784 6.95592C83.5231 8.29269 83.5231 8.29269 82.0994 8.29716Z" fill="#F9F7FC"/>
<path d="M97.2846 13.4746C97.269 14.0961 96.8986 14.4716 96.5014 14.8338C96.3541 14.9679 96.2582 14.8762 96.16 14.7712C95.7003 14.2854 95.2399 13.801 94.7788 13.3182C94.694 13.2288 94.6404 13.1349 94.7297 13.0298C95.1202 12.5827 95.5486 12.1669 96.2202 12.2921C96.8919 12.4173 97.2021 12.8666 97.2846 13.4746Z" fill="#F9F7FC"/>
<path d="M67.1779 13.7481C67.2113 12.8807 67.546 12.4694 68.1441 12.3107C68.7979 12.1363 69.2597 12.5052 69.6592 12.959C69.8511 13.1825 69.6859 13.3032 69.5454 13.4418C69.307 13.713 69.0506 13.9677 68.7778 14.2041C68.5011 14.4097 68.4252 15.0513 67.9722 14.8032C67.5193 14.555 67.1444 14.1303 67.1779 13.7481Z" fill="#F9F7FC"/>
<path d="M52.3521 32.5938C56.7053 32.6043 60.8779 34.3382 63.9604 37.4175C67.043 40.4968 68.7857 44.6719 68.8086 49.0329C68.8443 58.093 61.4205 65.4944 52.3075 65.4855C50.1525 65.4837 48.019 65.0566 46.0288 64.2284C44.0387 63.4003 42.2309 62.1874 40.7089 60.6591C39.1868 59.1308 37.9803 57.3169 37.1582 55.3213C36.3362 53.3257 35.9148 51.1873 35.918 49.0284C35.928 44.6677 37.6636 40.489 40.7443 37.4082C43.8249 34.3274 47.9993 32.5961 52.3521 32.5938ZM67.1061 49.0441C67.109 47.1022 66.7283 45.1789 65.9859 43.385C65.2434 41.5912 64.1539 39.9623 62.7801 38.5923C61.4063 37.2223 59.7755 36.1382 57.9815 35.4026C56.1875 34.6669 54.266 34.2943 52.3276 34.3061C48.4279 34.3061 44.6874 35.8555 41.9265 38.6147C39.1657 41.3738 37.6099 45.1172 37.6004 49.024C37.5963 50.9656 37.9748 52.8889 38.7142 54.6837C39.4536 56.4785 40.5393 58.1094 41.9092 59.4829C43.279 60.8565 44.906 61.9457 46.6969 62.688C48.4878 63.4304 50.4073 63.8113 52.3455 63.8089C54.2838 63.8154 56.2043 63.4381 57.9966 62.6987C59.7889 61.9592 61.4177 60.8723 62.7893 59.5002C64.161 58.1282 65.2484 56.4981 65.9893 54.7037C66.7301 52.9093 67.1096 50.9859 67.1061 49.0441Z" fill="#25C2FF"/>
<path d="M82.1686 41.9788C80.1466 41.9724 78.1458 41.5663 76.2807 40.7839C74.4157 40.0015 72.7231 38.8581 71.2998 37.4192C69.8766 35.9804 68.7508 34.2743 67.9869 32.3989C67.2229 30.5234 66.8359 28.5153 66.8479 26.4897C66.8727 22.4137 68.5119 18.5143 71.4052 15.6485C74.2985 12.7826 78.2093 11.1849 82.278 11.2063C90.7885 11.2443 97.6745 18.1964 97.6254 26.6864C97.5819 30.762 95.9334 34.6554 93.0386 37.5194C90.1438 40.3834 86.2371 41.9861 82.1686 41.9788ZM83.5632 40.2441C86.2532 39.9667 88.8041 38.9102 90.9045 37.204C91.1946 36.9693 91.2905 36.786 90.9558 36.4931C90.5207 36.1064 90.4114 35.6213 90.8621 35.1854C91.2816 34.7853 91.7547 34.8926 92.1095 35.2994C92.4397 35.6683 92.6249 35.5386 92.8793 35.219C94.5396 33.1726 95.572 30.6879 95.8515 28.0657C95.9006 27.6186 95.8292 27.3951 95.3137 27.4107C94.7983 27.4263 94.3899 27.1223 94.4056 26.5456C94.4015 26.4315 94.4227 26.318 94.4676 26.2131C94.5126 26.1082 94.5801 26.0146 94.6654 25.939C94.7508 25.8633 94.8517 25.8075 94.9611 25.7756C95.0705 25.7437 95.1856 25.7364 95.2981 25.7543C95.8917 25.7833 95.9006 25.4838 95.8493 25.03C95.5568 22.4419 94.5343 19.9909 92.9016 17.9639C92.6093 17.5906 92.4129 17.5392 92.0715 17.908C91.6989 18.3104 91.2258 18.3663 90.8286 17.9438C90.7433 17.8686 90.676 17.775 90.6318 17.6701C90.5877 17.5652 90.5677 17.4516 90.5735 17.3379C90.5793 17.2242 90.6107 17.1133 90.6653 17.0134C90.7199 16.9136 90.7963 16.8273 90.8889 16.7612C91.4423 16.3142 91.0808 16.0906 90.7461 15.8335C88.8074 14.312 86.502 13.3304 84.0631 12.9879C83.4762 12.8985 82.9853 12.8135 83.0255 13.7077C83.0433 14.1548 82.6417 14.4588 82.1575 14.4185C81.7313 14.3805 81.3743 14.1078 81.4211 13.6607C81.5081 12.8448 81.044 12.8962 80.5062 12.9722C77.9833 13.3068 75.5994 14.3247 73.6113 15.9163C73.2431 16.2113 73.1538 16.3924 73.5376 16.7367C73.9214 17.0809 74.0241 17.5727 73.6046 17.9795C73.1851 18.3864 72.712 18.3126 72.3595 17.8968C72.0069 17.481 71.8128 17.6442 71.5383 17.9885C69.8928 20.0434 68.8629 22.5239 68.5683 25.1418C68.5259 25.5039 68.5103 25.7967 69.0369 25.7677C69.6059 25.7341 70.0477 25.9733 70.041 26.6149C70.041 27.205 69.6126 27.4442 69.0838 27.4286C68.6375 27.4286 68.5103 27.5761 68.5616 28.0075C68.8586 30.681 69.9202 33.2116 71.6186 35.295C71.8061 35.5185 71.969 35.7197 72.259 35.3844C72.6562 34.9217 73.1516 34.7495 73.6269 35.2301C74.1022 35.7108 73.8835 36.1623 73.4595 36.5378C73.1605 36.8016 73.2364 36.9693 73.5064 37.1883C75.5863 38.8933 78.119 39.9509 80.7919 40.2307C81.1801 40.2732 81.4457 40.2419 81.401 39.7367C81.3542 39.1779 81.6242 38.7867 82.1954 38.7665C82.7666 38.7464 83.0723 39.1354 83.0589 39.6808C83.05 40.1749 83.2241 40.3358 83.5632 40.2374V40.2441Z" fill="#0166FF"/>
<path d="M67.105 49.0439C67.1085 50.9856 66.729 52.9088 65.9884 54.703C65.2477 56.4973 64.1604 58.1273 62.789 59.4993C61.4176 60.8713 59.7891 61.9583 57.997 62.6979C56.205 63.4374 54.2847 63.815 52.3466 63.8088C50.4085 63.8111 48.4889 63.4302 46.698 62.6879C44.9072 61.9455 43.2802 60.8563 41.9103 59.4828C40.5405 58.1092 39.4547 56.4783 38.7154 54.6835C37.976 52.8888 37.5975 50.9654 37.6016 49.0238C37.611 45.1171 39.1668 41.3736 41.9277 38.6145C44.6885 35.8554 48.429 34.3059 52.3287 34.3059C54.2669 34.2944 56.1883 34.6673 57.982 35.4031C59.7757 36.1389 61.4063 37.223 62.7798 38.593C64.1534 39.963 65.2427 41.5917 65.985 43.3854C66.7273 45.1791 67.108 47.1022 67.105 49.0439ZM52.3399 37.1538C50.7786 37.1503 49.2319 37.4555 47.7885 38.0519C46.3451 38.6483 45.0334 39.5242 43.9285 40.6294C42.8237 41.7345 41.9474 43.0473 41.3499 44.4924C40.7524 45.9375 40.4454 47.4865 40.4466 49.0506C40.4457 50.6149 40.7526 52.164 41.3495 53.6093C41.9465 55.0547 42.822 56.3681 43.9259 57.4744C45.0298 58.5807 46.3405 59.4582 47.783 60.0568C49.2256 60.6554 50.7718 60.9634 52.3332 60.9631C53.9017 60.9714 55.4562 60.668 56.9068 60.0705C58.3575 59.4729 59.6754 58.5931 60.7844 57.4819C61.8934 56.3707 62.7713 55.0503 63.3675 53.5969C63.9637 52.1435 64.2663 50.5861 64.2577 49.0149C64.2578 47.4499 63.9487 45.9004 63.3482 44.4556C62.7478 43.0109 61.8679 41.6994 60.7592 40.5969C59.6506 39.4943 58.3351 38.6225 56.8886 38.0316C55.4421 37.4406 53.8931 37.1423 52.331 37.1538H52.3399Z" fill="#F9F7FC"/>
<path d="M83.5639 40.2373C83.2247 40.3289 83.0507 40.168 83.0641 39.6673C83.0775 39.1218 82.7628 38.7329 82.2005 38.753C81.6382 38.7731 81.3593 39.1643 81.4062 39.7232C81.4508 40.2284 81.183 40.2597 80.797 40.2172C78.1241 39.9374 75.5914 38.8797 73.5115 37.1748C73.2371 36.9513 73.1657 36.7881 73.4647 36.5243C73.8886 36.1487 74.0805 35.6726 73.632 35.2166C73.1835 34.7606 72.6614 34.9081 72.2642 35.3708C71.9741 35.7061 71.8179 35.5139 71.6238 35.2814C69.9253 33.198 68.8638 30.6674 68.5668 27.994C68.5154 27.5626 68.6337 27.4038 69.0889 27.415C69.6178 27.4307 70.0395 27.1915 70.0462 26.6013C70.0462 25.9598 69.5999 25.7206 69.0421 25.7541C68.5154 25.7832 68.5311 25.4903 68.5735 25.1282C68.868 22.5103 69.8979 20.0299 71.5434 17.9749C71.8179 17.6307 72.0076 17.472 72.3646 17.8833C72.7216 18.2946 73.1969 18.3661 73.6097 17.966C74.0225 17.5658 73.9489 17.0875 73.5428 16.7231C73.1366 16.3587 73.2482 16.1978 73.6164 15.9027C75.6052 14.3135 77.9891 13.298 80.5114 12.9654C81.0491 12.8894 81.5133 12.838 81.4262 13.6539C81.3794 14.101 81.7364 14.3737 82.1626 14.4117C82.6468 14.4519 83.0552 14.1501 83.0306 13.7008C82.9904 12.8067 83.4769 12.8916 84.0682 12.981C86.5051 13.3283 88.8073 14.3138 90.7423 15.8379C91.077 16.1017 91.4385 16.3185 90.8851 16.7656C90.7926 16.8317 90.7161 16.9179 90.6615 17.0177C90.6069 17.1176 90.5755 17.2285 90.5697 17.3422C90.5639 17.456 90.5839 17.5695 90.6281 17.6744C90.6722 17.7793 90.7395 17.8729 90.8248 17.9481C91.222 18.3706 91.6951 18.3147 92.0677 17.9123C92.4091 17.5435 92.6055 17.5949 92.8978 17.9682C94.5309 19.9958 95.5534 22.4477 95.8455 25.0366C95.8968 25.4836 95.8879 25.7899 95.2943 25.7608C95.1818 25.7429 95.0667 25.7502 94.9573 25.7822C94.8479 25.8141 94.747 25.8699 94.6617 25.9455C94.5763 26.0212 94.5088 26.1148 94.4639 26.2197C94.4189 26.3246 94.3977 26.4381 94.4018 26.5522C94.3861 27.1289 94.7632 27.4284 95.3099 27.4173C95.8566 27.4061 95.8968 27.6207 95.8477 28.0722C95.5683 30.6944 94.5358 33.1792 92.8755 35.2255C92.6211 35.5452 92.4292 35.6726 92.1057 35.306C91.7464 34.8992 91.2778 34.7919 90.8583 35.192C90.412 35.6391 90.5169 36.113 90.952 36.4997C91.2867 36.7925 91.1908 36.9758 90.9007 37.2106C88.8 38.9112 86.2508 39.9628 83.5639 40.2373ZM81.9573 29.1832C83.9343 29.1832 85.1415 27.6475 84.7332 25.9151C84.6759 25.7512 84.6712 25.5735 84.7196 25.4068C84.768 25.2401 84.8671 25.0927 85.0032 24.9851C86.5317 23.4785 88.0423 21.9539 89.5663 20.4428C89.9858 20.027 90.2514 19.5486 89.7895 19.0636C89.2763 18.5137 88.8032 18.8177 88.3659 19.2603C86.8931 20.7446 85.4048 22.211 83.941 23.7043C83.5996 24.053 83.3185 24.1893 82.7896 24.053C81.723 23.7758 80.8015 24.158 80.1387 25.0388C79.8326 25.4089 79.645 25.8628 79.6005 26.3414C79.5559 26.8199 79.6564 27.3008 79.8888 27.7213C80.373 28.6691 81.1629 29.1609 81.9573 29.1899V29.1832Z" fill="#F9F7FC"/>
<path d="M52.3308 37.1546C53.8922 37.1442 55.4402 37.4434 56.8856 38.0349C58.3311 38.6263 59.6456 39.4984 60.7533 40.6008C61.861 41.7032 62.7401 43.0143 63.34 44.4584C63.9399 45.9026 64.2487 47.4514 64.2486 49.0156C64.2572 50.5869 63.9546 52.1443 63.3584 53.5976C62.7622 55.051 61.8843 56.3715 60.7753 57.4826C59.6663 58.5938 58.3484 59.4736 56.8977 60.0712C55.4471 60.6687 53.8926 60.9721 52.3241 60.9638C50.7627 60.9641 49.2165 60.6562 47.7739 60.0576C46.3313 59.459 45.0207 58.5814 43.9168 57.4751C42.8129 56.3688 41.9374 55.0555 41.3404 53.6101C40.7435 52.1647 40.4366 50.6156 40.4375 49.0514C40.4363 47.4872 40.7433 45.9382 41.3408 44.4931C41.9383 43.048 42.8146 41.7353 43.9194 40.6301C45.0243 39.5249 46.336 38.649 47.7794 38.0526C49.2228 37.4562 50.7695 37.151 52.3308 37.1546ZM52.3442 38.8333C50.9982 38.8295 49.6649 39.0925 48.4208 39.6072C47.1768 40.1219 46.0467 40.8781 45.0957 41.8323C44.1447 42.7864 43.3916 43.9197 42.8798 45.1667C42.3679 46.4138 42.1074 47.75 42.1133 49.0983C42.1321 51.8064 43.2189 54.3972 45.1367 56.3058C47.0544 58.2145 49.6476 59.2862 52.3509 59.2873C53.6972 59.2891 55.0306 59.024 56.2742 58.5073C57.5179 57.9906 58.6472 57.2326 59.5971 56.2768C60.5471 55.321 61.2988 54.1863 61.8092 52.9382C62.3195 51.6901 62.5783 50.3532 62.5706 49.0044C62.5674 47.6634 62.3002 46.3362 61.7842 45.0989C61.2682 43.8615 60.5137 42.7383 59.5637 41.7935C58.6138 40.8487 57.4871 40.1009 56.2483 39.5929C55.0094 39.085 53.6828 38.8269 52.3442 38.8333Z" fill="#25C2FF"/>
<path d="M81.957 29.19C81.1582 29.161 80.3727 28.6692 79.8885 27.7169C79.6561 27.2965 79.5556 26.8156 79.6002 26.337C79.6448 25.8585 79.8323 25.4045 80.1385 25.0344C80.8079 24.1537 81.7227 23.7714 82.7893 24.0486C83.3182 24.185 83.5993 24.0486 83.9407 23.6999C85.4045 22.2066 86.8929 20.7402 88.3656 19.2559C88.8118 18.8088 89.276 18.5093 89.7892 19.0592C90.2511 19.5532 89.9856 20.0226 89.5661 20.4384C88.042 21.9496 86.5314 23.4741 85.0029 24.9808C84.8627 25.0896 84.7609 25.2405 84.7123 25.4114C84.6638 25.5823 84.671 25.7643 84.7329 25.9308C85.1412 27.6543 83.934 29.1856 81.957 29.19ZM83.1419 26.5657C83.0861 26.0225 82.7983 25.6715 82.2493 25.6715C82.1232 25.6579 81.9957 25.6727 81.876 25.7147C81.7563 25.7567 81.6475 25.825 81.5575 25.9146C81.4675 26.0041 81.3985 26.1126 81.3557 26.2322C81.3129 26.3518 81.2972 26.4795 81.3099 26.6059C81.3025 26.7329 81.3235 26.86 81.3714 26.9779C81.4193 27.0958 81.4929 27.2014 81.5868 27.2871C81.6807 27.3728 81.7925 27.4364 81.9141 27.4733C82.0357 27.5101 82.1639 27.5193 82.2895 27.5001C82.8407 27.4688 83.1084 27.1156 83.1419 26.5657Z" fill="#0166FF"/>
<path d="M52.3443 38.8331C53.6832 38.8267 55.0103 39.0849 56.2494 39.5932C57.4886 40.1014 58.6154 40.8496 59.5654 41.7948C60.5154 42.7401 61.2699 43.8639 61.7856 45.1018C62.3013 46.3396 62.5681 47.6673 62.5707 49.0087C62.5784 50.3574 62.3196 51.6944 61.8093 52.9425C61.2989 54.1906 60.5472 55.3252 59.5972 56.281C58.6473 57.2368 57.518 57.9949 56.2743 58.5116C55.0307 59.0282 53.6973 59.2933 52.351 59.2915C49.6469 59.2904 47.0531 58.2181 45.1352 56.3085C43.2173 54.3989 42.1311 51.8069 42.1134 49.0981C42.1075 47.7497 42.368 46.4136 42.8799 45.1665C43.3917 43.9195 44.1449 42.7862 45.0958 41.832C46.0468 40.8779 47.1769 40.1217 48.4209 39.607C49.665 39.0923 50.9984 38.8293 52.3443 38.8331ZM54.1852 51.7806C54.1946 52.0516 54.1386 52.3209 54.0221 52.5656C53.9056 52.8104 53.7319 53.0234 53.5158 53.1866C52.7169 53.8573 51.6793 53.7299 50.8559 52.8424C50.4588 52.4154 50.0326 52.2053 49.5595 52.6189C49.0865 53.0324 49.2337 53.513 49.5908 53.9601C49.9075 54.3889 50.3327 54.7253 50.8225 54.9347C51.2799 55.1024 51.5566 55.2991 51.5321 55.8647C51.5142 56.3252 51.8266 56.6381 52.3331 56.6471C52.7794 56.6471 53.1699 56.4235 53.1409 55.9764C53.0985 55.2902 53.4912 55.1091 53.991 54.8587C55.3656 54.1702 56.0618 52.7127 55.8386 51.1569C55.7162 50.4666 55.3939 49.8276 54.9119 49.3192C54.4299 48.8109 53.8094 48.4557 53.1275 48.2978C52.7504 48.2151 52.3465 48.2419 51.9716 48.1548C51.7326 48.1056 51.5057 48.0095 51.3041 47.8719C51.1024 47.7343 50.93 47.558 50.7967 47.3533C50.6635 47.1485 50.5722 46.9193 50.5279 46.6789C50.4837 46.4386 50.4875 46.1918 50.5391 45.9529C50.6522 45.4726 50.9502 45.0565 51.3681 44.7952C51.7861 44.534 52.2901 44.4487 52.7705 44.558C53.2339 44.6703 53.6412 44.9465 53.9174 45.3359C54.2365 45.7293 54.6493 45.8746 55.0867 45.5371C55.524 45.1996 55.5329 44.7525 55.2161 44.292C54.8553 43.756 54.3389 43.3439 53.7367 43.1117C53.3484 42.9664 53.1342 42.7965 53.1654 42.3427C53.184 42.2304 53.1774 42.1154 53.1463 42.006C53.1151 41.8966 53.06 41.7954 52.9851 41.7099C52.9102 41.6244 52.8172 41.5565 52.713 41.5113C52.6087 41.4662 52.4958 41.4447 52.3822 41.4486C51.8288 41.4329 51.4897 41.795 51.512 42.3539C51.5276 42.801 51.3379 42.9686 50.9452 43.1251C50.1606 43.4418 49.5266 44.0472 49.1735 44.8173C48.0578 47.1063 49.5908 49.6681 52.2149 49.8961C53.4622 50.0079 54.1629 50.6651 54.1852 51.7806Z" fill="#F9F7FC"/>
<path d="M83.1398 26.5651C83.1063 27.115 82.8386 27.4593 82.2807 27.4995C82.1552 27.5187 82.0269 27.5095 81.9053 27.4727C81.7837 27.4359 81.6719 27.3723 81.578 27.2865C81.4841 27.2008 81.4105 27.0952 81.3626 26.9773C81.3147 26.8595 81.2937 26.7324 81.3011 26.6053C81.2885 26.4789 81.3041 26.3512 81.3469 26.2316C81.3898 26.112 81.4587 26.0035 81.5487 25.914C81.6387 25.8244 81.7475 25.7562 81.8672 25.7141C81.9869 25.6721 82.1145 25.6573 82.2406 25.6709C82.7962 25.6799 83.084 26.0219 83.1398 26.5651Z" fill="#F9F7FC"/>
<path d="M54.1868 51.7805C54.1711 50.6628 53.4638 50.0078 52.2164 49.8983C49.5923 49.6747 48.0549 47.1085 49.1751 44.8194C49.5282 44.0494 50.1621 43.4439 50.9468 43.1272C51.3395 42.9708 51.5292 42.8031 51.5136 42.356C51.4957 41.7972 51.8304 41.435 52.3838 41.4507C52.4973 41.4468 52.6103 41.4683 52.7146 41.5135C52.8188 41.5587 52.9118 41.6265 52.9867 41.712C53.0616 41.7976 53.1167 41.8987 53.1478 42.0081C53.179 42.1176 53.1856 42.2326 53.167 42.3448C53.1358 42.7919 53.35 42.9685 53.7383 43.1138C54.3405 43.3461 54.8569 43.7581 55.2177 44.2941C55.5412 44.7546 55.5434 45.1883 55.0882 45.5392C54.633 45.8902 54.2381 45.7315 53.919 45.3381C53.6428 44.9487 53.2355 44.6724 52.7721 44.5601C52.2917 44.4508 51.7876 44.5361 51.3697 44.7974C50.9518 45.0586 50.6538 45.4747 50.5407 45.955C50.4891 46.1939 50.4853 46.4407 50.5295 46.6811C50.5737 46.9214 50.6651 47.1507 50.7983 47.3554C50.9315 47.5602 51.104 47.7365 51.3057 47.874C51.5073 48.0116 51.7342 48.1077 51.9732 48.1569C52.3481 48.2441 52.752 48.2173 53.1291 48.3C53.811 48.4579 54.4315 48.813 54.9135 49.3214C55.3955 49.8297 55.7178 50.4687 55.8402 51.159C56.0634 52.7238 55.3672 54.1724 53.9926 54.8609C53.4928 55.1112 53.1001 55.2923 53.1425 55.9786C53.1715 56.41 52.7877 56.6492 52.3347 56.6492C51.8282 56.6492 51.5158 56.3273 51.5336 55.8668C51.5582 55.3012 51.2815 55.1045 50.8241 54.9369C50.3343 54.7275 49.9091 54.391 49.5923 53.9622C49.2353 53.5263 49.0903 53.0435 49.5611 52.621C50.0319 52.1985 50.4537 52.4153 50.8575 52.8445C51.6809 53.7387 52.7185 53.8549 53.5173 53.1888C53.7338 53.0253 53.9077 52.8119 54.0242 52.5668C54.1407 52.3216 54.1965 52.0519 54.1868 51.7805Z" fill="#25C2FF"/>
</g>
<defs>
<clipPath id="clip0_812_3253">
<rect width="81.9677" height="81.9677" fill="white" transform="translate(8.95312 8.35156)"/>
</clipPath>
<clipPath id="clip1_812_3253">
<rect width="81.9677" height="81.9677" fill="white" transform="translate(18.5312 0.900391)"/>
</clipPath>
</defs>
</svg>
